<?xml version="1.0" encoding="utf-8"?>
<!-- Generator: Adobe Illustrator 22.0.1, SVG Export Plug-In . SVG Version: 6.00 Build 0)  -->
<svg version="1.1" id="Layer_1" xmlns="http://www.w3.org/2000/svg" xmlns:xlink="http://www.w3.org/1999/xlink" x="0px" y="0px"
	 viewBox="0 0 102 144" style="enable-background:new 0 0 102 144;" xml:space="preserve">
<style type="text/css">
	.st0{fill:#F5C885;}
	.st1{fill:#F5C886;}
	.st2{fill:#FAAF31;}
	.st3{fill:#FAAF2F;}
	.st4{fill:#F3B02A;}
	.st5{fill:#FAAF2D;}
	.st6{fill:#FBC46E;}
	.st7{fill:#FCBB56;}
	.st8{fill:#FBBC5A;}
	.st9{fill:#FCEACB;}
	.st10{fill:#FAD092;}
	.st11{fill:#FCC062;}
	.st12{fill:#FCC877;}
	.st13{fill:#FBB541;}
	.st14{fill:#F9D39A;}
	.st15{fill:#FDECCF;}
	.st16{fill:#FBC169;}
	.st17{fill:#FBB84A;}
	.st18{fill:#F9D6A0;}
	.st19{fill:#FDEDD1;}
	.st20{fill:#FBB953;}
	.st21{fill:#FCC672;}
	.st22{fill:#FBBA50;}
	.st23{fill:#FBBD60;}
	.st24{fill:#F8C77E;}
	.st25{fill:#F5A55C;}
	.st26{fill:#F59B36;}
	.st27{fill:#FCF0DD;}
</style>
<g>
	<g>
		<path class="st2" d="M84.9,66.4c4.1,16.9-1.4,40-15.4,47.6c-15.9,8.7-35.3,2.6-43-14.6c-7.2-16.1-9-32.9-3.6-50
			c4.3-13.8,16.7-21.8,31.3-20.9C70.5,29.5,80.3,43,83,56.4c-2.3-0.7-4.6-1.4-6.9-2.1c-0.1-0.6-0.1-1.1-0.2-1.7
			c0-1.2-0.6-1.9-1.7-2.3c-7.7-14.7-20.1-18.1-33.2-12.9c-0.3-0.2-0.6-0.3-0.9-0.4c-0.7-0.2-1.3-0.5-2-0.7c-4.2,0.5-2.9,4.8-4.6,6.9
			c-1.8,2.6-3.9,5-4.4,8.2l0,0c-1.1,0.3-1.7,0.9-2.1,1.9c-3.1,3.5-5.2,7.6-5,12.1c0.3,5.8,0.2,11.7,2.1,17.2c1.5,4.2,2,9.2,6.9,11.4
			c1.4,2.5,2.5,5.1,4.2,7.3c9.5,13.1,28.4,13.2,37.9,0.3c2.9-3.9,4.5-8.5,5.4-13.3c4.5-2,5.8-5.5,5.6-10.3
			C84.1,74.2,83.4,70.3,84.9,66.4z"/>
		<path class="st17" d="M76.1,54.4c2.3,0.7,4.6,1.4,6.9,2.1c0.1,0.6,0.2,1.2,0.2,1.8c-1.4,2.4,0.7,4,1.3,5.9
			c0.1,0.7,0.3,1.5,0.4,2.2c-1.5,3.8-0.8,7.8-0.7,11.7c0.2,4.8-1.1,8.3-5.6,10.3C80.7,76.9,78.8,65.6,76.1,54.4z"/>
		<path class="st2" d="M84.5,64.2c-0.7-1.9-2.8-3.5-1.3-5.9C84.4,60.1,85,62,84.5,64.2z"/>
		<path class="st0" d="M76.1,54.4c2.7,11.2,4.6,22.5,2.5,34.1c-0.9,4.8-2.5,9.3-5.4,13.3c-9.5,13-28.4,12.8-37.9-0.3
			c-1.6-2.3-2.8-4.9-4.2-7.3c-3.4-9.5-1.7-18.9,0.2-28.4c0.9-4.8,0.8-9.8-2.1-14.3c0.5-3.2,2.6-5.7,4.4-8.2c1.9,3.7,4.9,1.6,6.9,0.7
			c3-1.4,1.5-4.2,0.6-6.5c13-5.2,25.5-1.8,33.2,12.9c0,1.1,0.7,1.9,1.7,2.3C76,53.2,76.1,53.8,76.1,54.4z M57.6,101.4
			c9-1.4,14-9.8,10.5-17.8c-0.6-7.1-3.9-13.9-2.9-21.2c-0.1-3.6-0.1-7.2-2.9-10c-1-5.9-4.6-9-10.5-9c-5.8-0.1-10.6,3.7-11.5,9
			c-1.1,6.3-1.1,6.3,4.9,5.1c-0.5,10.4,1,20.7,2.7,30.9c-0.8-0.1-1.6-0.3-2.4-0.4c-1.2-0.3-2.4-1.6-3.6-0.3
			c-0.9,1.1-0.4,2.5,0.2,3.7c1.5,3.1,2.6,6.4,5.2,8.8C50.3,103.1,53.7,104.7,57.6,101.4z"/>
		<path class="st15" d="M29.2,51.5c3,4.4,3.1,9.4,2.1,14.3c-1.8,9.5-3.6,18.9-0.2,28.4c-4.9-2.2-5.4-7.2-6.9-11.4
			c-1.9-5.5-1.8-11.5-2.1-17.2c-0.2-4.5,1.9-8.6,5-12.1C28.3,53.2,29,52.6,29.2,51.5L29.2,51.5z"/>
		<path class="st19" d="M41.1,37.4c0.9,2.3,2.4,5.1-0.6,6.5c-2,0.9-5,3-6.9-0.7c1.7-2.2,0.4-6.4,4.6-6.9c0.5,0.7,1.2,0.9,2,0.7
			C40.5,37.1,40.8,37.2,41.1,37.4z"/>
		<path class="st17" d="M75.9,52.7c-1-0.5-1.6-1.2-1.7-2.3C75.4,50.7,76,51.5,75.9,52.7z"/>
		<path class="st12" d="M29.2,51.4c-0.2,1.1-0.9,1.8-2.1,1.9C27.4,52.3,28.1,51.7,29.2,51.4z"/>
		<path class="st12" d="M40.2,37c-0.8,0.2-1.5,0-2-0.7C38.9,36.5,39.6,36.8,40.2,37z"/>
		<path class="st8" d="M56.1,52.5c-5.6-4.3-7.9-3.2-11,4.9c-6,1.2-6,1.2-4.9-5.1c0.9-5.3,5.7-9.1,11.5-9c5.9,0.1,9.5,3.2,10.5,9
			C60.2,52.8,58.1,51.1,56.1,52.5z"/>
		<path class="st24" d="M61.3,86.6c-0.4-9.4-1.4-18.8-2.8-28.2c2.9,0.1,4.1,3.3,6.6,3.9c-0.9,7.3,2.3,14.1,2.9,21.2
			C64.8,82.4,63.2,85,61.3,86.6z"/>
		<path class="st23" d="M47.8,88.3c0.4,0.7,0.8,1.4,1.1,2.2c2.8,6.1,3.5,6.4,10.2,4.8c0.8,2.3-1.2,4-1.5,6.1
			c-3.9,3.3-7.3,1.7-10.5-1.2c-2.6-2.4-3.7-5.8-5.2-8.8c-0.6-1.2-1.1-2.6-0.2-3.7c1.1-1.4,2.4,0,3.6,0.3
			C46.2,88.1,47,88.2,47.8,88.3z"/>
		<path class="st19" d="M57.6,101.4c0.3-2.1,2.2-3.8,1.5-6.1c0,0,0,0.1,0,0.1c1.8-0.5,2-1.6,1.2-3.1c0.3-1.9,0.7-3.7,1-5.6
			c2-1.6,3.6-4.2,6.8-3C71.6,91.6,66.7,100,57.6,101.4z"/>
		<path class="st21" d="M65.1,62.4c-2.6-0.6-3.7-3.8-6.6-3.9c-0.8-2-1.6-4-2.4-6c2-1.4,4.1,0.3,6.2-0.1C65,55.2,65,58.8,65.1,62.4z"
			/>
		<path class="st24" d="M60.3,92.2c0.8,1.5,0.6,2.6-1.2,3.1C59,94.1,59,92.9,60.3,92.2z"/>
	</g>
</g>
</svg>
