<?xml version="1.0" encoding="utf-8"?>
<!-- Generator: Adobe Illustrator 22.0.1, SVG Export Plug-In . SVG Version: 6.00 Build 0)  -->
<svg version="1.1" id="Layer_1" xmlns="http://www.w3.org/2000/svg" xmlns:xlink="http://www.w3.org/1999/xlink" x="0px" y="0px"
	 viewBox="0 0 96.3 144" style="enable-background:new 0 0 96.3 144;" xml:space="preserve">
<style type="text/css">
	.st0{fill:#F5C885;}
	.st1{fill:#F5C886;}
	.st2{fill:#FAAF31;}
	.st3{fill:#FAAF2F;}
	.st4{fill:#F3B02A;}
	.st5{fill:#FAAF2D;}
	.st6{fill:#FBC46E;}
	.st7{fill:#FCBB56;}
	.st8{fill:#FBBC5A;}
	.st9{fill:#FCEACB;}
	.st10{fill:#FAD092;}
	.st11{fill:#FCC062;}
	.st12{fill:#FCC877;}
	.st13{fill:#FBB541;}
	.st14{fill:#F9D39A;}
	.st15{fill:#FDECCF;}
	.st16{fill:#FBC169;}
	.st17{fill:#FBB84A;}
	.st18{fill:#F9D6A0;}
	.st19{fill:#FDEDD1;}
	.st20{fill:#FBB953;}
	.st21{fill:#FCC672;}
	.st22{fill:#FBBA50;}
	.st23{fill:#FBBD60;}
	.st24{fill:#F8C77E;}
	.st25{fill:#F5A55C;}
	.st26{fill:#F59B36;}
	.st27{fill:#FCF0DD;}
</style>
<g>
	<g>
		<path class="st4" d="M34.2,89.3c1.1-1.5,1.9-3,1.8-5c-0.3-5.6-0.1-11.3,0.4-16.9c0.5-4.9-0.6-8.9-6.2-11c-6-2.3-6.6-6.3-3.5-12
			c1.9-3.5,5.2-5.9,8.3-6.5c5.8-1.2,11.6-2.7,17.7-2.4c4,0.2,5.6,1.8,6.6,5.8c3.5,14,0.2,28.2,2,42.1c-1.4,0.7-2.8,1.4-4.2,2.2
			c-2.9-4.6-2.7-9.8-2.9-14.9c-0.3-8.5,0.1-17,0-25.5c0-5.8-1.3-6.6-7-4.6c-0.9,0.1-1.9,0.2-2.8,0.3c-0.4,0-0.9,0-1.3,0.1
			c-5.4,0.4-10.1,1.8-12.5,7.3c0.2,0.4,0.3,0.8,0.5,1.3l0,0.1c-1.4,3.5,1.1,4.2,3.5,4.4c4.3,0.4,5.5,3,5.5,6.8
			c0.1,5.5-0.1,10.9,0.7,16.4c1.5,9.6-1.2,14-10.3,17.8C29.6,91.7,34.5,92.2,34.2,89.3z"/>
		<path class="st3" d="M34.2,89.3c0.3,2.9-4.6,2.4-3.6,5.7c-1.8,4.5-0.1,6.8,6.2,7.2c7.6,0.4,15.2,0.1,22.8,0.2
			c1.7,0,3.2-0.8,4.6-1.6c1.1-0.5,2.1-1,2.1-2.5c-0.1-1.8-1.6-1.9-2.8-2.3c-1.6-3.1,2.2-3.5,2.8-5.6c4,0.7,5.7,3.4,6.2,7.2
			c0.5,4-1,6.6-4.7,8.3c-3.2,1.4-6.4,2.6-10,2.6c-6.5-0.1-12.9-0.1-19.4-0.1c-4.1,0-7.8-1.5-11.3-3.3c-3.1-1.7-5-4.3-4.1-8.2
			c0.9-3.8,3.1-6.2,7-6.6C31.4,90.2,32.8,90.1,34.2,89.3z"/>
		<path class="st20" d="M66.2,90.5c-0.6,2-4.3,2.5-2.8,5.6c-5.2-1.6-6.2-5.8-6.2-10.5c1.4-0.7,2.8-1.4,4.2-2.2
			C62.9,85.8,62.4,89.6,66.2,90.5z"/>
		<path class="st1" d="M57.2,85.6c0.1,4.7,1,8.9,6.2,10.5c1.2,0.4,2.7,0.5,2.8,2.3c0.1,1.4-1,1.9-2.1,2.5c-1.5,0.7-2.9,1.6-4.6,1.6
			c-7.6,0-15.2,0.3-22.8-0.2c-6.3-0.4-8-2.7-6.2-7.2c9.1-3.8,11.8-8.2,10.3-17.8c-0.8-5.5-0.6-10.9-0.7-16.4
			c-0.1-3.8-1.2-6.3-5.5-6.8c-2.3-0.2-4.9-0.9-3.5-4.4c2.8-1.3,5.8-1.2,8.7-1c7.3,0.4,8.6-1,7.4-7.9c5.6-2,6.9-1.2,7,4.6
			c0.1,8.5-0.2,17,0,25.5C54.4,75.8,54.2,81,57.2,85.6z"/>
		<path class="st27" d="M47.3,40.6c1.2,7,0,8.3-7.4,7.9c-3-0.2-5.9-0.3-8.7,1c0,0,0-0.1,0-0.1c-0.2-0.4-0.3-0.8-0.5-1.3
			c2.4-5.5,7.1-6.9,12.5-7.3c0.4,0,0.9,0,1.3-0.1C45.4,40.8,46.3,40.7,47.3,40.6z"/>
		<path class="st1" d="M30.7,48.3c0.2,0.4,0.3,0.8,0.5,1.3C31,49.1,30.8,48.7,30.7,48.3z"/>
		<path class="st1" d="M44.5,40.9c-0.4,0-0.9,0-1.3,0.1C43.6,40.9,44,40.9,44.5,40.9z"/>
	</g>
</g>
</svg>
