<?xml version="1.0" encoding="utf-8"?>
<!-- Generator: Adobe Illustrator 22.0.1, SVG Export Plug-In . SVG Version: 6.00 Build 0)  -->
<svg version="1.1" id="Layer_1" xmlns="http://www.w3.org/2000/svg" xmlns:xlink="http://www.w3.org/1999/xlink" x="0px" y="0px"
	 viewBox="0 0 96.7 144" style="enable-background:new 0 0 96.7 144;" xml:space="preserve">
<style type="text/css">
	.st0{fill:#F5C885;}
	.st1{fill:#F5C886;}
	.st2{fill:#FAAF31;}
	.st3{fill:#FAAF2F;}
	.st4{fill:#F3B02A;}
	.st5{fill:#FAAF2D;}
	.st6{fill:#FBC46E;}
	.st7{fill:#FCBB56;}
	.st8{fill:#FBBC5A;}
	.st9{fill:#FCEACB;}
	.st10{fill:#FAD092;}
	.st11{fill:#FCC062;}
	.st12{fill:#FCC877;}
	.st13{fill:#FBB541;}
	.st14{fill:#F9D39A;}
	.st15{fill:#FDECCF;}
	.st16{fill:#FBC169;}
	.st17{fill:#FBB84A;}
	.st18{fill:#F9D6A0;}
	.st19{fill:#FDEDD1;}
	.st20{fill:#FBB953;}
	.st21{fill:#FCC672;}
	.st22{fill:#FBBA50;}
	.st23{fill:#FBBD60;}
	.st24{fill:#F8C77E;}
	.st25{fill:#F5A55C;}
	.st26{fill:#F59B36;}
	.st27{fill:#FCF0DD;}
</style>
<g>
	<g>
		<path class="st1" d="M48.1,63.4c0-1.3,0-2.7,0-4c1.7-0.4,4.1,0.8,4.9-1.3c0.7-1.9-0.1-3.9-1.5-5.5c-0.4-0.5-1-0.8-1.5-1.3
			c-3.2-3-6.7-4.8-11.3-3.2c-1.3,0.4-2.6,0.3-3.8-0.6c3.7-2.6,7.5-2.7,11.7-1c5,2,9.2,5.7,14.7,6.8c2.3,1.5,1.5,3.9,1.8,6
			c-0.4,2.9-0.6,5.9-1,8.8c-1.1,6.9-4.9,12.1-8.6,17.5c-1.2,1.8-1.6,3.3,0.9,4.3c0.8,4.3,4.7,4.4,7.7,5.3c3.4,1.1,5.5-1.1,7.1-3.9
			c3.3,0.3,3.8,1.9,1.6,4.1c-1.5,1.5-3.4,2.5-5.6,3.1c-7.6,1.8-15.2,3.3-22.9,4.1c-8.1,0.8-8.4,0.4-6.1-7c1.9-0.7,2.1-2.6,2.9-4.1
			c3.5-3.4,5.4-7.1,1.7-11.6c0.3-0.4,0.6-0.9,0.8-1.3c0.4-0.3,0.8-0.6,1.3-0.9c6.3,2.2,7.4-3,9.2-6.8C53.9,66.6,52.9,64.8,48.1,63.4
			z"/>
		<path class="st3" d="M36,95.4c-2.2,7.4-2,7.8,6.1,7c7.7-0.7,15.4-2.3,22.9-4.1c2.2-0.5,4.1-1.5,5.6-3.1c2.2-2.2,1.7-3.8-1.6-4.1
			c-0.4-3.1-2.7-4.2-5.3-5c4-1.7,8-2.6,11.6,0.8c2.6,2.4,3.4,5.6,2.4,8.7c-1.7,5.2-6.6,7-11.1,8.3c-8.6,2.6-17.6,3.7-26.5,4.7
			c-0.2,0-0.3,0-0.5,0c-4.4-0.4-9.9,0.7-12.1-4c-2-4.2,1.5-8.1,3.9-11.6C33.3,93.4,35.2,93.3,36,95.4z"/>
		<path class="st3" d="M28.9,59.1c-6.3-0.3-8.7-3.7-6.8-9.4c2.6-7.9,7.4-12.5,16.1-13.9c15.4-2.5,27.1,4.3,30.2,18.5
			c-1.7-2.5-4.5-1-6.6-1.9c-0.4-1.1-0.9-2.1-1.2-3.3c-2.5-9-8.8-11.8-17.9-10.8c-7.6,0.8-14.6,6.8-15.7,14c0.3,1,1.2,0.9,1.9,1.1
			C29,55.3,24.9,57.2,28.9,59.1z"/>
		<path class="st6" d="M54.4,89.8c-2.5-1-2.1-2.5-0.9-4.3c3.7-5.4,7.5-10.6,8.6-17.5c0.4-2.9,0.6-5.9,1-8.8
			c4.8,2.4,3.5,6.9,3.8,10.9c-1,4.4-3.8,8-5.9,11.9c-0.9,1.7-3,4,1.2,4.5C60.1,88.9,57.2,89.2,54.4,89.8z"/>
		<path class="st20" d="M28.9,59.1c-4-1.9,0.1-3.8,0-5.7c0.3-0.7,0.7-1.4,1-2.1l0,0c1.5-0.1,2.5-0.8,2.7-2.4c0.4-1,1.3-1.4,2.3-1.4
			c1.2,0.9,2.5,1,3.8,0.6c4.5-1.5,8.1,0.3,11.3,3.2c0.1,3.9-3.7,1.3-5,2.9c-3.5-1.2-6.6-0.6-9.6,1.8C33.6,57.5,31.6,59.3,28.9,59.1z
			"/>
		<path class="st15" d="M54.4,89.8c2.8-0.6,5.7-0.9,7.8-3.3c0.6-0.1,1.2-0.2,1.7-0.3c2.5,0.8,4.8,1.9,5.3,5
			c-1.5,2.8-3.6,4.9-7.1,3.9C59,94.2,55.2,94.1,54.4,89.8z"/>
		<path class="st18" d="M48.1,63.4c4.7,1.4,5.8,3.2,3.8,7.3c-1.8,3.8-2.9,9-9.2,6.8c0.1-0.6,0.2-1.2,0.3-1.9
			C44.8,71.6,47.2,67.8,48.1,63.4z"/>
		<path class="st17" d="M66.8,70.2c-0.3-4,1.1-8.5-3.8-10.9c-0.3-2.1,0.4-4.5-1.8-6c0.2-0.3,0.4-0.6,0.5-0.9
			c2.1,0.9,4.9-0.6,6.6,1.9C69.3,59.7,69.6,65.1,66.8,70.2z"/>
		<path class="st16" d="M40.6,79.8c3.8,4.5,1.8,8.2-1.7,11.6c0.1-2.6-1-4.1-3.7-4.2C36.5,84.3,38.6,82.1,40.6,79.8z"/>
		<path class="st6" d="M45,54.3c1.3-1.6,5.1,1,5-2.9c0.5,0.4,1.1,0.8,1.5,1.3c1.4,1.6,2.2,3.7,1.5,5.5c-0.8,2.1-3.2,0.9-4.9,1.3
			C48,57.1,46.1,55.9,45,54.3z"/>
		<path class="st22" d="M35.3,87.1c2.7,0.2,3.8,1.7,3.7,4.2c-0.8,1.5-1,3.4-2.9,4.1c-0.8-2.1-2.7-2.1-4.5-2.3
			C32.7,91.1,33.3,88.7,35.3,87.1z"/>
		<path class="st16" d="M43,75.6c-0.1,0.6-0.2,1.2-0.3,1.9c-0.4,0.3-0.8,0.6-1.3,0.9C41.8,77.4,41.7,76.1,43,75.6z"/>
		<path class="st15" d="M61.8,52.4c-0.2,0.3-0.4,0.6-0.5,0.9c-5.4-1.1-9.7-4.8-14.7-6.8c-4.2-1.6-8-1.6-11.7,1
			c-1,0.1-1.9,0.4-2.3,1.4c-1.4,0.2-2.4,0.9-2.7,2.4c0,0,0,0,0,0c-1,0.3-2,0.7-2.9,1c1.2-7.2,8.1-13.2,15.7-14
			c9.1-0.9,15.3,1.8,17.9,10.8C60.9,50.3,61.4,51.3,61.8,52.4z"/>
		<path class="st1" d="M27,52.3c1-0.3,2-0.7,2.9-1c-0.3,0.7-0.7,1.4-1,2.1C28.1,53.3,27.3,53.3,27,52.3z"/>
		<path class="st1" d="M29.9,51.3c0.3-1.5,1.3-2.1,2.7-2.4C32.4,50.5,31.4,51.2,29.9,51.3z"/>
	</g>
</g>
</svg>
