<?xml version="1.0" encoding="utf-8"?>
<!-- Generator: Adobe Illustrator 22.0.1, SVG Export Plug-In . SVG Version: 6.00 Build 0)  -->
<svg version="1.1" id="Layer_1" xmlns="http://www.w3.org/2000/svg" xmlns:xlink="http://www.w3.org/1999/xlink" x="0px" y="0px"
	 viewBox="0 0 94.8 144" style="enable-background:new 0 0 94.8 144;" xml:space="preserve">
<style type="text/css">
	.st0{fill:#F5C885;}
	.st1{fill:#F5C886;}
	.st2{fill:#FAAF31;}
	.st3{fill:#FAAF2F;}
	.st4{fill:#F3B02A;}
	.st5{fill:#FAAF2D;}
	.st6{fill:#FBC46E;}
	.st7{fill:#FCBB56;}
	.st8{fill:#FBBC5A;}
	.st9{fill:#FCEACB;}
	.st10{fill:#FAD092;}
	.st11{fill:#FCC062;}
	.st12{fill:#FCC877;}
	.st13{fill:#FBB541;}
	.st14{fill:#F9D39A;}
	.st15{fill:#FDECCF;}
	.st16{fill:#FBC169;}
	.st17{fill:#FBB84A;}
	.st18{fill:#F9D6A0;}
	.st19{fill:#FDEDD1;}
	.st20{fill:#FBB953;}
	.st21{fill:#FCC672;}
	.st22{fill:#FBBA50;}
	.st23{fill:#FBBD60;}
	.st24{fill:#F8C77E;}
	.st25{fill:#F5A55C;}
	.st26{fill:#F59B36;}
	.st27{fill:#FCF0DD;}
</style>
<g>
	<g>
		<path class="st1" d="M48.9,86.9C45,85.4,41.7,83,39,79.8c-3.7-4.4-2.6-8.9,2.8-10.8c3.7-1.3,7.6-2,11.5-3c0.3,0,0.5,0,0.8-0.1
			c4.7,1.2,4.7,1.2,4.9-2c0.6-3.8-0.8-7.1-3-10.1c1.8-1,3.6-2,5.4-3c7.4,3.2,9.6,8.4,7.8,18.1c-3.2,2.2-7.2,3.9-6.3,9
			c-1,1.5-0.7,2.5,1.1,3c0,0-0.1,0-0.1,0c-4.6,3.8-1.6,6.4,1.4,9c-0.1,1.3-0.3,2.7-0.4,4c-0.3,0.7-0.5,1.4-0.8,2.1
			c0,0.6,0,1.2-0.1,1.9C59,106,49.9,109,41.9,105.2c2.3-2.2,6.3-2.4,7-6.3c2.3-0.3,3.9-1.9,5.2-3.6c1.2-1.8,1.4-3.9,0.2-6
			C51.1,91.5,51,87,48.9,86.9z M49,77.5c3.1,0.6,4.4-1.1,4.7-3.4c0.3-2.4-1.2-4.7-3.4-4.8c-3.1-0.1-6.1,2.2-6.5,5.1
			C43.2,78.1,47.7,75.9,49,77.5z"/>
		<path class="st2" d="M41.9,105.2c8,3.7,17.1,0.7,22.2-7.3c1-0.3,1.6-1,1.8-2.1l0,0c2.4,0.4,3-2.2,4.7-3
			C69.8,109,55.3,114.7,40.3,112c-1.5-0.3-2.9-0.9-4.4-1c-9.6-0.6-12.4-5.2-15.2-14.4c-1.6-5.3,2.3-9.3,7.8-8.4
			c3.4,0.5,6.2,2.3,8.4,4.9c-1.1,0.5-2.3,1-3.4,1.5c-1.2-0.2-2.4-0.4-3.7-0.6c-3.3-1.4-3.8,0.3-3.1,3c1.5,6.1,5.1,8.3,13.1,8.1
			C40.6,105,41.2,105.1,41.9,105.2z"/>
		<path class="st3" d="M69.1,68.8c1.8-9.7-0.5-14.9-7.8-18.1c-0.9-4-3.4-6.7-7.5-6.5c-5.2,0.2-10.5,0.9-14.1,5.6
			c-0.6,0.8,0,1.5,0.7,2.1c0.1,0.2,0.2,0.4,0.5,0.6c-0.9,2.2-3.1,3.1-4.9,4.3c-4.3-2.4-4.5-5.7-2-9.5c3.5-5.4,11.7-8.4,17.7-6.4
			c3.8,1.2,7.6,1.9,11.3,3.7c11.7,5.7,15.7,16.7,9.9,28.6C72.7,70.7,73.5,67.5,69.1,68.8z"/>
		<path class="st20" d="M36,56.7c1.8-1.3,3.9-2.1,4.9-4.3c1-0.4,2.1-0.9,3.1-1.3c1.6,0.1,3.1,0.2,4.7,0.3c0.4,0.2,0.8,0.3,1.2,0.5
			c2,0.6,4,1.2,6,1.8c2.2,3,3.6,6.3,3,10.1c-3.9-4.9-4.1-0.8-4.9,2c-0.2,0.1-0.5,0.1-0.8,0.1c0.6-6.1-2-8.9-8.2-8.1
			C41.8,58.4,38.9,58.5,36,56.7z"/>
		<path class="st23" d="M69.1,68.8c4.3-1.4,3.6,1.9,3.8,4.2c-2.2,3.1-5.6,3.8-8.9,4.9c-0.4,0-0.8-0.1-1.2-0.1
			C61.9,72.7,65.9,71.1,69.1,68.8z"/>
		<path class="st16" d="M48.9,86.9c2.1,0.1,2.2,4.6,5.3,2.4c1.2,2,1.1,4.2-0.2,6c-1.2,1.7-2.8,3.3-5.2,3.6c-0.7-0.6-1.3-1.3-2-1.9
			c0.7-0.9,1.5-1.7,0.2-2.7C48.8,92.1,50.6,89.9,48.9,86.9z"/>
		<path class="st13" d="M70.6,92.9c-1.7,0.8-2.3,3.3-4.7,3c-0.3-0.7-0.7-1.3-1-2c0.1-1.3,0.3-2.7,0.4-4c1.6-1.5,2.6-3.4,2.5-5.7
			c1.7,1.7,4.5,2.8,3.4,6c-0.1,0.7-0.3,1.5-0.4,2.3L70.6,92.9z"/>
		<path class="st16" d="M67.8,84.2c0,2.3-0.9,4.1-2.5,5.7c-3-2.6-6-5.2-1.4-9C65.8,81.3,66.5,83.1,67.8,84.2z"/>
		<path class="st12" d="M47.1,94.3c1.4,1,0.5,1.8-0.2,2.7c-2.4-1.4-4.9-1.4-7.5-1.2c-2,0.1-4.3,0.9-5.8-1.3c1.1-0.5,2.3-1,3.4-1.5
			c0.2,0,0.5,0.1,0.7,0.1c1.1,1.3,2.5,1.8,4.1,0.9C43.6,94.1,45.3,94.2,47.1,94.3z"/>
		<path class="st26" d="M41.8,94c-1.6,0.8-3,0.4-4.1-0.9C39.2,92.8,40.6,93.1,41.8,94z"/>
		<path class="st25" d="M62.9,77.9c0.4,0,0.8,0.1,1.2,0.1c0,1-0.1,1.9-0.1,2.9C62.2,80.4,61.8,79.4,62.9,77.9z"/>
		<path class="st2" d="M70.8,92.5c0.1-0.8,0.3-1.5,0.4-2.3C71.5,91.1,71.5,91.9,70.8,92.5z"/>
		<path class="st19" d="M55.9,53.7c-2-0.6-4-1.2-6-1.8c-0.4-0.2-0.8-0.3-1.2-0.5c-1.6-0.1-3.1-0.2-4.7-0.3c-1.3-0.1-2.5,0-3.6,0.8
			c-0.7-0.6-1.3-1.3-0.7-2.1c3.6-4.7,8.9-5.4,14.1-5.6c4-0.1,6.6,2.5,7.5,6.5C59.5,51.7,57.7,52.7,55.9,53.7z"/>
		<path class="st19" d="M33.6,94.4c1.5,2.2,3.8,1.5,5.8,1.3c2.7-0.2,5.2-0.1,7.5,1.2c0.7,0.6,1.3,1.3,2,1.9c-0.7,3.9-4.7,4.2-7,6.3
			c-0.7-0.1-1.3-0.2-2-0.3c-0.9-2-3.4-1.9-4.7-3.3c-2.1-2.3-6.5-3.3-5.3-7.8C31.1,94,32.3,94.2,33.6,94.4z"/>
		<path class="st15" d="M49,77.5c-1.3-1.6-5.8,0.6-5.3-3.1c0.4-2.8,3.4-5.2,6.5-5.1c2.2,0.1,3.6,2.4,3.4,4.8
			C53.4,76.4,52.2,78.1,49,77.5z"/>
		<path class="st21" d="M54,65.8c0.8-2.8,1-6.9,4.9-2C58.7,67,58.7,67,54,65.8z"/>
		<path class="st16" d="M64.9,93.9c0.3,0.7,0.7,1.3,1,2c0,0,0,0,0,0c-0.6,0.1-1.2,0.1-1.8,0.2C64.4,95.3,64.6,94.6,64.9,93.9z"/>
		<path class="st13" d="M64.1,96c0.6-0.1,1.2-0.1,1.8-0.2c-0.2,1.1-0.8,1.7-1.8,2.1C64.1,97.3,64.1,96.7,64.1,96z"/>
		<path class="st24" d="M29.9,93.8c-1.2,4.6,3.2,5.5,5.3,7.8c1.2,1.4,3.7,1.3,4.7,3.3c-8,0.2-11.6-2-13.1-8.1
			C26.1,94.1,26.6,92.4,29.9,93.8z"/>
		<path class="st10" d="M40.4,51.9c1.1-0.8,2.3-0.9,3.6-0.8c-1,0.4-2.1,0.9-3.1,1.3C40.7,52.3,40.5,52.1,40.4,51.9z"/>
		<path class="st10" d="M48.7,51.4c0.4,0.2,0.8,0.3,1.2,0.5C49.5,51.7,49.1,51.5,48.7,51.4z"/>
	</g>
</g>
</svg>
