<?xml version="1.0" encoding="utf-8"?>
<!-- Generator: Adobe Illustrator 22.0.1, SVG Export Plug-In . SVG Version: 6.00 Build 0)  -->
<svg version="1.1" id="Layer_1" xmlns="http://www.w3.org/2000/svg" xmlns:xlink="http://www.w3.org/1999/xlink" x="0px" y="0px"
	 viewBox="0 0 99.6 144" style="enable-background:new 0 0 99.6 144;" xml:space="preserve">
<style type="text/css">
	.st0{fill:#F5C885;}
	.st1{fill:#F5C886;}
	.st2{fill:#FAAF31;}
	.st3{fill:#FAAF2F;}
	.st4{fill:#F3B02A;}
	.st5{fill:#FAAF2D;}
	.st6{fill:#FBC46E;}
	.st7{fill:#FCBB56;}
	.st8{fill:#FBBC5A;}
	.st9{fill:#FCEACB;}
	.st10{fill:#FAD092;}
	.st11{fill:#FCC062;}
	.st12{fill:#FCC877;}
	.st13{fill:#FBB541;}
	.st14{fill:#F9D39A;}
	.st15{fill:#FDECCF;}
	.st16{fill:#FBC169;}
	.st17{fill:#FBB84A;}
	.st18{fill:#F9D6A0;}
	.st19{fill:#FDEDD1;}
	.st20{fill:#FBB953;}
	.st21{fill:#FCC672;}
	.st22{fill:#FBBA50;}
	.st23{fill:#FBBD60;}
	.st24{fill:#F8C77E;}
	.st25{fill:#F5A55C;}
	.st26{fill:#F59B36;}
	.st27{fill:#FCF0DD;}
</style>
<g>
	<g>
		<path class="st3" d="M80.9,78c5.3,5.8,4.6,14.3-1.9,18.2c-2.4,1.5-2.6,3.7-3,5.9c-1.5,8.1-5.2,11.8-12.1,11.8
			c-6.9,0-10.4-3.6-11.9-12c3.2,2.9,3.5-1.3,5.1-2.1c0,0,0,0.1,0,0.1c-0.2,1.7-0.2,3.3,1.5,4.3c4,4.5,9.1,4.8,9.9,0.3
			c1.1-6.7,4-11.9,8.9-16.3C80,85.2,78.9,81.1,80.9,78z"/>
		<path class="st3" d="M40.7,44.4c4.7-7.4,11.6-11.5,20.2-12.5c3.8-0.4,7.1,1.9,9.4,4.8c3.9,5.1,6.3,10.8,5.2,17.5
			c-2.7,0.1-4.2-2-6.1-3.3c-0.1-0.6-0.1-1.3-0.2-1.9c0.6-1.1,0-1.7-0.9-2.2c-2.1-6.7-4.3-8.3-10.5-7.6C52.1,39.9,47.5,42.7,43,46
			C42.2,45.5,41.4,44.9,40.7,44.4z"/>
		<path class="st7" d="M40.7,44.4c0.8,0.5,1.5,1.1,2.3,1.6c-4.4,5.2-7.5,11.3-10.2,17.4c-3.3,7.5-7.5,14.9-6.8,23.6
			c-3.8-3.3-2.7-7.9-3-12.1C27.3,63.8,32.8,53.4,40.7,44.4z"/>
		<path class="st8" d="M69.4,50.8c1.9,1.3,3.4,3.5,6.1,3.3c0,1.7-0.1,3.5-0.1,5.2c-0.1,2.9-1.4,6,1.2,8.5c0.5,3.8,0.2,7.9,4.3,10.1
			c-2,3.1-0.9,7.2-3.5,10.1c0.5-5.2-4.8-7.7-5.6-12.3C70.3,67.6,69.4,59.2,69.4,50.8z"/>
		<path class="st8" d="M57.1,99.8c-1.6,0.9-1.9,5-5.1,2.1c-5.4-6.1-12.8-5.7-20-6.1c-1-2.3-2.1-4.5-3.1-6.8
			c3.7,0.9,7.6,0.6,11.4,1.1C47.1,91.1,53.8,92.5,57.1,99.8z"/>
		<path class="st2" d="M28.9,89.1c1,2.3,2.1,4.5,3.1,6.8c-3.9,0.3-7.1-1.6-10.1-3.7C19,90,18.8,87,19.6,83.6
			c0.7-3.1,1.4-6.1,3.4-8.7c0.2,4.2-0.8,8.7,3,12.1c0.3,0.1,0.7,0.1,1,0.2C27.6,87.8,28.2,88.4,28.9,89.1z"/>
		<path class="st3" d="M76.5,67.9c-2.7-2.5-1.3-5.6-1.2-8.5C77.1,62.1,76.5,65,76.5,67.9z"/>
		<path class="st1" d="M28.9,89.1c-0.7-0.6-1.3-1.2-2-1.9c3.8-12,11.5-21.4,19.9-30.4c0.4,1.1,0.8,2.1,1.2,3.2
			c-0.3,2.2-2.1,3.3-3.5,4.7c-4,3.8-4,8.7-3.2,13.5c0.6,3.9,4.4,3.4,7.1,4.3c1.2,0.4,2.4,1,3.7,1.5c5.2-0.7,9.5-4.4,10.4-9.1
			c0.6-3.2-2.1-8-4.3-7.1c-4.4,1.8-3.9-1.7-5-3.6c-0.4-2.4-1.8-0.7-2.8-0.7c-0.4-1.2-0.9-2.3-1.3-3.5c2.1-0.5,4.1-1.2,6.3-0.5
			c1.2,0.4,2.3,0.1,3-1c2.3-3.1,0.3-10.6-3.4-12.6c0.8-2.3,3.3-3.9,3-6.7c6.2-0.7,8.4,0.9,10.5,7.6c-0.1,0.9,0.2,1.6,0.9,2.2
			c0.1,0.6,0.1,1.3,0.2,1.9c0,8.4,0.9,16.7,2.4,25c0.8,4.6,6.1,7.1,5.6,12.3c-4.8,4.4-7.7,9.6-8.9,16.3c-0.8,4.6-5.9,4.3-9.9-0.3
			c0.3-1.7,0.4-3.4-1.5-4.3c0,0,0-0.1,0-0.1c-3.3-7.3-10-8.7-16.8-9.6C36.5,89.6,32.6,90,28.9,89.1z"/>
		<path class="st8" d="M57.1,99.9c1.9,0.9,1.8,2.6,1.5,4.3C56.9,103.1,56.9,101.6,57.1,99.9z"/>
		<path class="st19" d="M46.8,56.8c-8.4,9-16.1,18.5-19.9,30.4c-0.3-0.1-0.7-0.1-1-0.2c-0.7-8.7,3.5-16.1,6.8-23.6
			C35.5,57.3,38.5,51.2,43,46c4.5-3.3,9.2-6.1,14.8-6.8c0.3,2.8-2.2,4.4-3,6.7C51.4,48.9,49.1,52.9,46.8,56.8z"/>
		<path class="st8" d="M69.2,49c-0.7-0.6-1-1.3-0.9-2.2C69.2,47.2,69.8,47.8,69.2,49z"/>
		<path class="st10" d="M49,60c0.4,1.2,0.9,2.3,1.3,3.5c0.1,3.7-2.8,6.1-3.9,9.4c-1,3,0.3,3.6,2.8,3.2c1.1-0.2,2.1-0.8,3.1-1.3
			c3.6,3.2-0.8,6.1-0.3,9.2c-1.2-0.5-2.4-1.1-3.7-1.5c-2.7-0.9-6.5-0.4-7.1-4.3c-0.7-4.8-0.7-9.7,3.2-13.5c1.4-1.4,3.3-2.4,3.5-4.7
			C48.3,60,48.6,60,49,60z"/>
		<path class="st15" d="M52,84c-0.5-3.1,3.9-6,0.3-9.2c0.2-3.5,0.5-7,0.7-10.5c1.1,1.9,0.6,5.4,5,3.6c2.2-0.9,4.9,3.9,4.3,7.1
			C61.5,79.5,57.2,83.3,52,84z"/>
		<path class="st6" d="M49,60c-0.3,0-0.7,0-1,0c-0.4-1.1-0.8-2.1-1.2-3.2c2.3-3.9,4.6-7.8,8.1-10.8c3.7,1.9,5.8,9.4,3.4,12.6
			c-0.8,1.1-1.9,1.4-3,1C53,58.8,51,59.5,49,60z"/>
	</g>
</g>
</svg>
