<?xml version="1.0" encoding="utf-8"?>
<!-- Generator: Adobe Illustrator 22.0.1, SVG Export Plug-In . SVG Version: 6.00 Build 0)  -->
<svg version="1.1" id="Layer_1" xmlns="http://www.w3.org/2000/svg" xmlns:xlink="http://www.w3.org/1999/xlink" x="0px" y="0px"
	 viewBox="0 0 97.9 144" style="enable-background:new 0 0 97.9 144;" xml:space="preserve">
<style type="text/css">
	.st0{fill:#F5C885;}
	.st1{fill:#F5C886;}
	.st2{fill:#FAAF31;}
	.st3{fill:#FAAF2F;}
	.st4{fill:#F3B02A;}
	.st5{fill:#FAAF2D;}
	.st6{fill:#FBC46E;}
	.st7{fill:#FCBB56;}
	.st8{fill:#FBBC5A;}
	.st9{fill:#FCEACB;}
	.st10{fill:#FAD092;}
	.st11{fill:#FCC062;}
	.st12{fill:#FCC877;}
	.st13{fill:#FBB541;}
	.st14{fill:#F9D39A;}
	.st15{fill:#FDECCF;}
	.st16{fill:#FBC169;}
	.st17{fill:#FBB84A;}
	.st18{fill:#F9D6A0;}
	.st19{fill:#FDEDD1;}
	.st20{fill:#FBB953;}
	.st21{fill:#FCC672;}
	.st22{fill:#FBBA50;}
	.st23{fill:#FBBD60;}
	.st24{fill:#F8C77E;}
	.st25{fill:#F5A55C;}
	.st26{fill:#F59B36;}
	.st27{fill:#FCF0DD;}
</style>
<g>
	<g>
		<path class="st1" d="M41.4,76.9c-1.2,0.2-2.4,0.4-3.5,0.7c-5-2.1-6.2-6.4-6.7-11.1c0.2-0.8,0.7-1.6,0.7-2.4
			c0.3-9.5,5-16.2,13-20.9c2.9-1.7,5.7-3.4,8.5-5.1c2.4,0.1,4.7,0.2,7.1,0.4c0.5,0.8,1.4,1.5,1.6,2.4c1,4.4,2.3,1.5,3.6,0.2
			c2,0.1,3.1,0.8,1.3,2.6c-0.9,0.9-2.3,1.3-3.5,1.9c-4.7,0.6-9.6,0.9-14.2,2c-3.5,0.8-6.7,2.9-8.2,6.5c-1.1,2.7-1.1,5.1,3.1,4.4
			c1-0.2,2-0.1,3-0.1c0,0,0.1,0.2,0.1,0.2c0.5,0.2,1,0.4,1.5,0.6c1.2,0,2.3,0,3.5,0c5.9,0.9,9,5.5,12.6,9.5c1,1.1,1.8,2.4,3.4,2.7
			c0.4,1.8,1,3.4,2.9,4.1c0.1,4.7,0.2,9.3,0.3,14c-2.6,10.3-11.5,17.3-22.5,17.9c-8.5,0.5-16.8,0.8-21-8.9c0.2-1,0.4-1.9,0.5-2.9
			c0.3,0,0.6,0,0.9-0.1c5,3.5,10.7,4.3,16.6,3.8c6.7,1.3,15.8-4.6,17-11.1c0.7-3.8,0.1-7.4-4.6-8.4c0,0,0.1-0.3,0.1-0.3
			c0.1-0.1,0.2-0.3,0.2-0.4c-0.1-0.3-0.2-0.5-0.3-0.8c-3.4-2.8-5.3-7.6-10.8-7.9C41.9,69.8,40.3,71.5,41.4,76.9z"/>
		<path class="st3" d="M29.3,95.3c-0.3,0-0.6,0.1-0.9,0c-2.5,0.5-2.4,1.6-0.5,2.9c4.2,9.7,12.5,9.3,21,8.9
			c11-0.6,19.8-7.6,22.5-17.9c3.6-1.1,3-5.7,6-7.3c2.7,15-9.7,30.2-25.4,31.2c-4,0.2-8,0.1-11.9,0.2c-8.5,0-17.5-7.1-19.2-15.4
			c-0.9-4.4,1.6-6.8,5.5-8.1C26.3,92.2,29.3,92.9,29.3,95.3z"/>
		<path class="st3" d="M63.4,45.4c1.2-0.6,2.6-1,3.5-1.9c1.8-1.8,0.7-2.5-1.3-2.6c-0.6-1.8,1.7-4.3-0.2-5.4
			c-2.2-1.3-2.7,2.2-4.5,2.7c-0.2,0-0.3,0.1-0.5,0.1c-2.4-0.1-4.7-0.2-7.1-0.4c-5.4-4.7-13.2-4.7-17.5,0.6
			c-3.4,4.2-6.2,8.9-6.9,14.5c-2.5,3.5-3.6,7.4-4.2,11.6c-4.4-13.8,2.9-30.1,17-32.9c8.6-1.7,17.2-1.4,25.4,1.8
			c4.3,1.6,8.2,4.5,7,10c-1.1,5.1-4.9,7.6-10,8.1C65.9,49.3,63.2,47.5,63.4,45.4z"/>
		<path class="st8" d="M63.4,45.4c-0.2,2.1,2.5,3.9,0.8,6.2c-0.5,0.1-1,0.2-1.5,0.4c-0.4,0.1-0.9,0.3-1.3,0.4
			c-3,0.3-5.9,0.4-8.9,0.9c-2.8,0.5-5.7,1-5.5,5c-1,0-2-0.1-3,0.1c-4.2,0.7-4.2-1.7-3.1-4.4c1.5-3.6,4.7-5.7,8.2-6.5
			C53.8,46.3,58.7,46,63.4,45.4z"/>
		<path class="st20" d="M29.3,95.3c0-2.3-3-3.1-2.9-5.5c3-1.1,6-0.8,8.6,0.8c4,2.4,8.3,1.7,12.5,1.5c3-0.2,4.3-2.7,5.7-4.9
			c0.1,0.4,0.3,0.7,0.4,1.1c-0.7,4.9-4.2,7.9-7.6,10.9C40,99.6,34.3,98.8,29.3,95.3z"/>
		<path class="st11" d="M24.7,64.6c0.5-4.2,1.7-8.1,4.2-11.6c0,1.8-0.2,3.6,0,5.4c0.3,2.8-1,6,2.2,8c0.5,4.8,1.7,9.1,6.7,11.1
			c-6,2.1-9.7,0.7-11.7-4.4c-0.2-0.7-0.4-1.4-0.6-2.1c0,0-0.2-0.3-0.2-0.3c-0.1-1-0.3-1.9-0.4-2.9C24.9,66.8,24.8,65.7,24.7,64.6z"
			/>
		<path class="st14" d="M53.5,88.2c-0.1-0.4-0.3-0.7-0.4-1.1c0.2-8.4-1.3-9.7-11.8-10.2c-1.1-5.4,0.6-7,6.1-6.7
			c5.4,0.4,7.3,5.1,10.8,7.9c0,0.4,0.1,0.8,0.1,1.2c0,0-0.1,0.3-0.1,0.3C55.9,82.1,54.8,85.2,53.5,88.2z"/>
		<path class="st22" d="M77.4,81.9c-3,1.6-2.5,6.1-6,7.3c-0.1-4.7-0.2-9.3-0.3-14c1.4-2.4,1.1-5.1,1-7.8
			C76.3,71.4,77.6,76.4,77.4,81.9z"/>
		<path class="st6" d="M68.1,71.2c-1.6-0.3-2.4-1.6-3.4-2.7c-3.6-4-6.7-8.6-12.6-9.5c6.9-0.5,13,1.2,17.9,6.3
			C67.5,66.6,69.6,69.4,68.1,71.2z"/>
		<path class="st11" d="M68.1,71.2c1.4-1.7-0.6-4.6,1.8-6c0.7,0,1.1,0.4,1.2,1c0.2,0.3,0.4,0.6,0.7,0.9c0,0,0.3,0.3,0.3,0.3
			c0.1,2.6,0.4,5.3-1,7.8C69.2,74.5,68.5,72.9,68.1,71.2z"/>
		<path class="st3" d="M25,67.8c0.1,1,0.3,1.9,0.4,2.9C24.5,69.9,24.6,68.9,25,67.8z"/>
		<path class="st3" d="M25.6,71.1c0.2,0.7,0.4,1.4,0.6,2.1C25.9,72.4,25.7,71.8,25.6,71.1z"/>
		<path class="st3" d="M61.4,52.4c0.4-0.1,0.9-0.3,1.3-0.4C62.4,52.5,62,52.7,61.4,52.4z"/>
		<path class="st22" d="M71.8,67.2c-0.2-0.3-0.4-0.6-0.7-0.9C71.4,66.5,71.6,66.8,71.8,67.2z"/>
		<path class="st8" d="M48.6,58.9c-0.5-0.2-1-0.4-1.5-0.6C47.6,58.6,48.1,58.7,48.6,58.9z"/>
		<path class="st19" d="M31.1,66.4c-3.1-2-1.9-5.2-2.2-8c-0.2-1.8,0-3.6,0-5.4c0.7-5.6,3.5-10.3,6.9-14.5c4.3-5.3,12.1-5.3,17.5-0.6
			c-2.8,1.7-5.6,3.4-8.5,5.1c-8,4.7-12.8,11.4-13,20.9C31.8,64.8,31.4,65.6,31.1,66.4z"/>
		<path class="st19" d="M53.5,88.2c1.3-3,2.4-6.1,4.7-8.6c4.7,1,5.3,4.6,4.6,8.4c-1.2,6.6-10.3,12.4-17,11.1
			C49.3,96.1,52.8,93.1,53.5,88.2z"/>
		<path class="st9" d="M60.4,38.4c0.2,0,0.3-0.1,0.5-0.1c1.8-0.5,2.2-4.1,4.5-2.7c1.9,1.1-0.3,3.6,0.2,5.4c-1.2,1.3-2.5,4.2-3.6-0.2
			C61.8,39.9,61,39.2,60.4,38.4z"/>
		<path class="st20" d="M27.9,98.2c-1.8-1.4-1.9-2.4,0.5-2.9C28.2,96.3,28.1,97.3,27.9,98.2z"/>
		<path class="st18" d="M58.3,79.3c0-0.4-0.1-0.8-0.1-1.2c0.1,0.3,0.2,0.5,0.3,0.8C58.5,79.1,58.4,79.2,58.3,79.3z"/>
	</g>
</g>
</svg>
