<?xml version="1.0" encoding="utf-8"?>
<!-- Generator: Adobe Illustrator 22.0.1, SVG Export Plug-In . SVG Version: 6.00 Build 0)  -->
<svg version="1.1" id="Layer_1" xmlns="http://www.w3.org/2000/svg" xmlns:xlink="http://www.w3.org/1999/xlink" x="0px" y="0px"
	 viewBox="0 0 106.2 144" style="enable-background:new 0 0 106.2 144;" xml:space="preserve">
<style type="text/css">
	.st0{fill:#F5C885;}
	.st1{fill:#F5C886;}
	.st2{fill:#FAAF31;}
	.st3{fill:#FAAF2F;}
	.st4{fill:#F3B02A;}
	.st5{fill:#FAAF2D;}
	.st6{fill:#FBC46E;}
	.st7{fill:#FCBB56;}
	.st8{fill:#FBBC5A;}
	.st9{fill:#FCEACB;}
	.st10{fill:#FAD092;}
	.st11{fill:#FCC062;}
	.st12{fill:#FCC877;}
	.st13{fill:#FBB541;}
	.st14{fill:#F9D39A;}
	.st15{fill:#FDECCF;}
	.st16{fill:#FBC169;}
	.st17{fill:#FBB84A;}
	.st18{fill:#F9D6A0;}
	.st19{fill:#FDEDD1;}
	.st20{fill:#FBB953;}
	.st21{fill:#FCC672;}
	.st22{fill:#FBBA50;}
	.st23{fill:#FBBD60;}
	.st24{fill:#F8C77E;}
	.st25{fill:#F5A55C;}
	.st26{fill:#F59B36;}
	.st27{fill:#FCF0DD;}
</style>
<g>
	<g>
		<path class="st1" d="M49.5,61.2c0.8,0.5,0.4,3.1,1.9,1.9c3.6-2.9,7.7-1.9,11.7-2.3c6.1,4.6,12.1,9.4,17,15.3
			c0.6,3.3,0.8,6.7,2.3,9.8c-0.1,2.6-0.3,5.1-0.4,7.7c-0.9,0.6-1.5,1.3-1.5,2.4c-3.6,8.2-9.9,12.2-18.8,13.2
			c-8.7,1-15.7-2.4-22.1-7.5c2.4-1.3,0.3-2.5-0.2-3.6c-2.2-4.9-3.9-10-4.1-15.3c-0.4-12.8,1.8-25.1,8.3-36.3
			c1.3-2.2,0.8-3.4-1.7-3.8c3.8-4.3,8.9-5.2,14.2-5.7c-0.6,2.9,2.8,3.9,3.1,6.4c-1.7,2.2-4.2,2.2-6.6,2.6c-3.7,0.7-7.4,1.6-8.6,5.9
			c-3.4,3.1-1.9,6.6,0.1,9.2c1.7,2.1,2.8-1,4-2C48.4,59.9,48.6,60.8,49.5,61.2z M52,98.1c2.8,5.6,3.8,6,9.8,3.8
			c4.4,1.6,10.2-0.8,12.2-5.4c1.4-3.2,0.8-6.3-2.9-7.8c-0.1-2.6,1-5.7-1.6-7.4c-2.8-1.8-2.3,3.3-4.8,2.9c-1-1.3-2-2.6-2.9-3.8
			c3-5.1,2.4-6.2-3.4-6.4c-1.2,0-2.3,0-3.5,0.1c-5.5,0.6-7,3.7-4.2,8.5c0.8,1.4,1.5,2.9,2.2,4.4c0.3,0.1,0.6,0.1,0.9,0.1
			c0.2,0.6,0.3,1.3,0.5,1.9c-2,0.5-5.9-2.4-5.5,2.5C48.9,93.8,49.5,96.6,52,98.1z"/>
		<path class="st3" d="M39.6,101.7c6.5,5.2,13.4,8.5,22.1,7.5c8.8-1,15.2-5,18.8-13.2c1.1-0.5,1.5-1.3,1.5-2.4
			c0.1-2.6,0.3-5.1,0.4-7.7c1.3-2.7,2.7-5.5,4-8.2c6.6,13.9-0.5,30.7-16.1,36.3c-17,6.1-34-0.8-41-19.1c1.4-0.4,2.7-0.8,4.1-1.2l0,0
			c-0.2,1.5,0.6,2.5,1.9,3.2C36.7,98.5,38.1,100.1,39.6,101.7z"/>
		<path class="st5" d="M56.2,37c-5.3,0.5-10.5,1.3-14.2,5.7c-6.7,3-11.1,8.1-13,15.2c-2.7,1.8-1.8,4.3-1.3,6.7
			c0.2,0.2,0.3,0.4,0.1,0.7c-0.2,1.1-0.5,2.2-0.7,3.4c-0.1,0.8-0.3,1.6-0.4,2.4c-0.9-0.6-0.5-1.5-0.6-2.2c-0.1-0.6,0-1.3,0-2
			c-0.1-0.6-0.2-1.3-0.3-1.9c-1,0.4-0.6,1.3-0.6,2c-0.2,3.9-0.3,7.8-0.4,11.7c-2.5-3.8-1.6-8.1-1.5-12.1c0.7-18,10.9-33.1,31-36.1
			c8.5-1.3,13.8,1.4,18.3,7.3c2.4,3.1,3.3,6.9,0,10.3c-0.4,0.3-0.9,0.6-1.3,1c0,0,0.2,0,0.2,0c-2.4-0.2-4.1-1.9-6.1-3
			c3.3-1.2,3.6-3.2,1.2-5.5c-1.3-1.3-2.7-2.4-4.1-3.6C60.2,30.4,58.3,37,56.2,37z"/>
		<path class="st20" d="M65.2,46c2,1.1,3.7,2.8,6.1,3c-2.3,3.5-6,3-9.4,2.9c-4.2-0.1-8.3-0.5-12,2c-0.5,0-1,0-1.6,0
			c-2.2,1-3.7,0.4-4.3-2.1c1.3-4.3,4.9-5.2,8.6-5.9c2.4-0.4,4.9-0.4,6.6-2.6c0.6,0,1.2,0.1,1.8,0.1C61.8,45.5,63.4,45.9,65.2,46z"/>
		<path class="st22" d="M24.8,78.6c0.1-3.9,0.2-7.8,0.4-11.7c0-0.7-0.4-1.6,0.6-2c0.1,0.6,0.3,1.2,0.3,1.9c0.1,0.7,0,1.3,0,2
			c0.1,0.8-0.4,1.7,0.6,2.2c0.1-0.8,0.2-1.6,0.4-2.4c0.2-1.1,0.5-2.2,0.7-3.4c0.3,1.1,0.9,2.2,0.8,3.3c-0.4,8.8,1.6,17,4.7,25.1
			c-1.4,0.4-2.7,0.8-4.1,1.2C26.7,91,26,86.5,25.2,82c0-0.8-0.1-1.7-0.1-2.5C25,79.2,24.9,78.9,24.8,78.6z"/>
		<path class="st11" d="M80.1,76.1c-4.9-5.9-10.9-10.7-17-15.3c6.8-0.9,12.6,0.8,17.2,6.1C79.1,70,79.3,73,80.1,76.1z"/>
		<path class="st17" d="M80.1,76.1c-0.8-3.1-1-6.2,0.2-9.2c3.4,2.8,5.8,6.2,6.1,10.8c-1.3,2.7-2.7,5.5-4,8.2
			C80.8,82.8,80.7,79.4,80.1,76.1z"/>
		<path class="st25" d="M48.4,54c0.5,0,1,0,1.6,0c-0.1,2.4-0.3,4.8-0.4,7.2c-0.9-0.4-1.1-1.3-1.3-2.2C48.2,57.3,48.3,55.7,48.4,54z"
			/>
		<path class="st5" d="M25.1,79.5c0,0.8,0.1,1.7,0.1,2.5C24.6,81.2,24.6,80.4,25.1,79.5z"/>
		<path class="st20" d="M71.2,49c0.4-0.3,0.9-0.6,1.3-1C72.1,48.4,71.6,48.7,71.2,49z"/>
		<path class="st15" d="M33.4,93.7c-3.1-8.1-5.1-16.4-4.7-25.1c0.1-1.1-0.5-2.2-0.8-3.3c0.2-0.3,0.1-0.5-0.1-0.7
			c1.7-2,1.3-4.4,1.3-6.7c1.9-7.1,6.3-12.2,13-15.2c2.5,0.4,2.9,1.6,1.7,3.8c-6.5,11.2-8.8,23.5-8.3,36.3c0.2,5.3,1.9,10.4,4.1,15.3
			c0.5,1.1,2.6,2.3,0.2,3.6c-1.4-1.6-2.9-3.2-4.3-4.8C35.2,95.6,34.9,94.3,33.4,93.7L33.4,93.7z"/>
		<path class="st15" d="M65.2,93.5C65.2,93.5,65.2,93.4,65.2,93.5c1.5-2.3,3.7-3.6,5.9-4.9c3.8,1.6,4.3,4.6,2.9,7.8
			c-2,4.7-7.8,7.1-12.2,5.4C63.7,99.4,66.1,97,65.2,93.5z"/>
		<path class="st14" d="M55.2,80.6c-0.6,0.8-1.2,1.7-1.7,2.5c-0.2,1.3-0.3,2.5-0.5,3.8c-0.7-1.5-1.4-3-2.2-4.4
			c-2.8-4.9-1.3-7.9,4.2-8.5c1.1-0.1,2.3-0.1,3.5-0.1c5.8,0.1,6.4,1.3,3.4,6.4c-1.6-0.1-3.1-0.1-4.7-0.2
			C56.5,80.3,55.8,80.5,55.2,80.6z"/>
		<path class="st20" d="M65.2,93.5c0.9,3.6-1.5,5.9-3.3,8.4c-6,2.2-7,1.8-9.8-3.8c1-2.5,3.3-2,5.2-2.2
			C60.7,97.5,62.7,94.6,65.2,93.5z"/>
		<path class="st16" d="M57.3,95.9c-2,0.2-4.2-0.3-5.2,2.2c-2.6-1.5-3.1-4.3-3.3-6.7c-0.4-4.9,3.5-1.9,5.5-2.5
			C55.3,91.2,56.3,93.6,57.3,95.9z"/>
		<path class="st21" d="M71.1,88.6c-2.3,1.2-4.4,2.6-5.9,4.8c-0.2-3.1-0.3-6.2-0.5-9.3c2.5,0.4,2-4.7,4.8-2.9
			C72.1,82.9,71,86,71.1,88.6z"/>
		<path class="st21" d="M48.4,54c-0.1,1.7-0.1,3.4-0.2,5c-1.2,1.1-2.3,4.2-4,2c-2-2.5-3.6-6.1-0.1-9.2C44.6,54.4,46.1,54.9,48.4,54z
			"/>
		<path class="st9" d="M61.1,43.5c-0.6,0-1.2-0.1-1.8-0.1c-0.3-2.5-3.6-3.5-3.1-6.4c2.1,0,3.9-6.6,6.1-0.2
			C61.9,39.1,61.5,41.3,61.1,43.5z"/>
		<path class="st16" d="M52.9,86.9c0.2-1.3,0.3-2.5,0.5-3.8c0.1,1.3,0.2,2.6,0.3,3.9C53.5,87,53.2,87,52.9,86.9z"/>
		<path class="st17" d="M81.9,93.6c0.1,1.2-0.4,2-1.5,2.4C80.4,94.9,81.1,94.2,81.9,93.6z"/>
		<path class="st22" d="M33.4,93.7c1.4,0.6,1.8,1.8,1.9,3.2C34,96.2,33.3,95.3,33.4,93.7z"/>
		<path class="st1" d="M61.1,43.5c0.4-2.2,0.9-4.4,1.3-6.7c1.4,1.2,2.8,2.3,4.1,3.6c2.4,2.4,2.1,4.3-1.2,5.5
			C63.4,45.9,61.8,45.5,61.1,43.5z"/>
		<path class="st22" d="M29,57.9c0,2.3,0.4,4.7-1.3,6.7C27.2,62.2,26.3,59.7,29,57.9z"/>
		<path class="st16" d="M55.2,80.6c0.7-0.2,1.3-0.3,2-0.5C56.5,80.3,55.8,80.5,55.2,80.6z"/>
	</g>
</g>
</svg>
