<?xml version="1.0" encoding="utf-8"?>
<!-- Generator: Adobe Illustrator 22.0.1, SVG Export Plug-In . SVG Version: 6.00 Build 0)  -->
<svg version="1.1" id="Layer_1" xmlns="http://www.w3.org/2000/svg" xmlns:xlink="http://www.w3.org/1999/xlink" x="0px" y="0px"
	 viewBox="0 0 79.5 144" style="enable-background:new 0 0 79.5 144;" xml:space="preserve">
<style type="text/css">
	.st0{fill:#F5C885;}
	.st1{fill:#F5C886;}
	.st2{fill:#FAAF31;}
	.st3{fill:#FAAF2F;}
	.st4{fill:#F3B02A;}
	.st5{fill:#FAAF2D;}
	.st6{fill:#FBC46E;}
	.st7{fill:#FCBB56;}
	.st8{fill:#FBBC5A;}
	.st9{fill:#FCEACB;}
	.st10{fill:#FAD092;}
	.st11{fill:#FCC062;}
	.st12{fill:#FCC877;}
	.st13{fill:#FBB541;}
	.st14{fill:#F9D39A;}
	.st15{fill:#FDECCF;}
	.st16{fill:#FBC169;}
	.st17{fill:#FBB84A;}
	.st18{fill:#F9D6A0;}
	.st19{fill:#FDEDD1;}
	.st20{fill:#FBB953;}
	.st21{fill:#FCC672;}
	.st22{fill:#FBBA50;}
	.st23{fill:#FBBD60;}
	.st24{fill:#F8C77E;}
	.st25{fill:#F5A55C;}
	.st26{fill:#F59B36;}
	.st27{fill:#FCF0DD;}
</style>
<g>
	<g>
		<path class="st5" d="M21.4,59.4c-1.6,0.3-2.9-0.4-4.3-1c-7.3-3.1-8.2-8.7-1.9-13.5c3.3-2.6,7.1-4.2,11.3-4.8
			c7.1-1,14.1-1.7,21.2-2.5c4-0.5,8,0,11.8,1.1c6.3,1.8,7.7,4.3,6.1,10.6c-0.5,1.9-1,3.8-1.5,5.8c-0.2,0.4-0.4,0.8-0.6,1.1
			c-0.2,0.6-0.4,1.2-0.7,1.7c-0.2,0-0.5,0.1-0.7,0.2c-0.8-1.7-1.7-3.2-3.9-3c0.3-2.1,0.6-4.3,1.1-6.4c0.4-2.3-0.1-4.2-2.7-4.4
			c-11.7-0.8-23.1,0.2-34.3,3.8c-1.1-0.8-1.8-2.6-3.6-1.5c-2.5,1.5-2.8,3.7-2.2,6.3c0.2,0.5,0.5,0.7,1,0.5c0.6,0,1.2,0,1.7-0.1
			c0.4-0.1,0.8-0.2,1.2-0.3c0.3-0.1,0.6-0.1,1-0.2c1.2,1.8,3.1,1.9,5,1.9c-1,1-2.2,1.1-3.5,1.3C20.6,56.3,20.3,57.6,21.4,59.4z"/>
		<path class="st9" d="M37.2,71.6c0.1-0.5,0.2-1,0.3-1.5c3.9-0.3,1.7-5.4,4.9-6.3c2.9,7.4,3.2,15.2,2.8,23c-0.1,3.1-1.3,6.2-4.9,7.3
			c-3.1-2.5-3.8-6.3-5.7-9.5c0-0.8,0-1.7,0-2.5C37.8,79.2,36,75.1,37.2,71.6z"/>
		<path class="st2" d="M49.3,101.8c0,3.8-2,7-3.8,10c-2.5,4.2-6.1,3.9-8.1-0.6c-1.6-3.6-2.9-7.4-2.8-11.4c1.8,0.1,1.2,2.5,2.7,3
			c1,0.1,2,0.1,3,0.2c0.2,1.1,0.1,2.5,1.8,2.3c1.2-0.2,1.1-1.4,1.3-2.3l0,0C45.6,103.7,47.3,102,49.3,101.8z"/>
		<path class="st6" d="M59.2,66.9c-2.3,8.3-4.6,16.7-6.9,25c-2.2,0.1-3.5,2.5-5.8,2c0.1-1.5-0.4-3.4,0.9-4.2
			c5.9-3.7,6.4-10,8.2-15.8c0.9-1,0.9-2,0-3c-0.8-2.3-3.2-4.6-0.1-7C56.6,64.9,57.9,65.9,59.2,66.9z"/>
		<path class="st21" d="M42.4,63.8c-3.2,0.9-1,6-4.9,6.3c-0.3-3.4,0.5-7.1-3.1-9.4c-0.5-1.6-1.5-2-3-1.2c-0.7,0-1.4,0-2.1,0
			c-0.2-0.5-3.1-1.3,0-1.5c3.8-0.2,4.4-1.7,2.9-4.8C37.6,54.9,42.6,56.9,42.4,63.8z"/>
		<path class="st17" d="M32.2,53.2c1.6,3.1,1,4.6-2.9,4.8c-3.1,0.2-0.1,1,0,1.5c-2.7,1.7-5.3,0.7-8-0.1c-1.1-1.8-0.8-3.1,1.5-3.4
			c1.3-0.2,2.5-0.3,3.5-1.3C27.8,52.4,30.2,53.4,32.2,53.2z"/>
		<path class="st20" d="M59.2,66.9c-1.3-1-2.6-2-3.9-3c0.2-3.3,0.5-6.5,3-8.9c2.2-0.2,3.1,1.4,3.9,3c0,0.5,0,1,0,1.6
			c0,0-0.1,0.3-0.1,0.3c-0.2,0.4-0.4,0.8-0.6,1.2C61.4,63.4,60.6,65.3,59.2,66.9z"/>
		<path class="st23" d="M46.4,93.9c2.4,0.5,3.7-1.9,5.8-2c0,0.4,0,0.7,0,1.1c-2,1.5-1.9,3.7-2,5.9c-0.1,0.3-0.3,0.6-0.4,1
			c-0.1,0.4-0.3,0.9-0.4,1.3c0,0.2,0,0.5-0.1,0.7c-2,0.1-3.8,1.8-6,1.1C43.3,99.6,44.5,96.6,46.4,93.9z"/>
		<path class="st16" d="M37.4,102.8c-1.5-0.4-0.8-2.8-2.7-3c-0.3-5.1-0.8-10.2-0.1-15.3c1.9,3.2,2.7,7,5.7,9.5c0,1,0,1.9,0,2.9
			C36.3,97.4,37.7,100.6,37.4,102.8z"/>
		<path class="st16" d="M37.2,71.6c-1.2,3.4,0.6,7.6-2.6,10.5C34.1,78.3,34.5,74.7,37.2,71.6z"/>
		<path class="st26" d="M50.3,98.9c0.1-2.1-0.1-4.4,2-5.9C52.2,95.2,51.5,97.1,50.3,98.9z"/>
		<path class="st17" d="M31.5,59.5c1.5-0.8,2.5-0.4,3,1.2C33.3,60.7,32.3,60.4,31.5,59.5z"/>
		<path class="st26" d="M62.2,59.6c0-0.5,0-1.1,0-1.6c0.2-0.1,0.5-0.1,0.7-0.2C63,58.6,62.8,59.2,62.2,59.6z"/>
		<path class="st26" d="M49.5,101.1c0.1-0.4,0.3-0.9,0.4-1.3C49.7,100.3,49.6,100.7,49.5,101.1z"/>
		<path class="st26" d="M61.5,61.2c0.2-0.4,0.4-0.8,0.6-1.2C61.9,60.3,61.7,60.8,61.5,61.2z"/>
		<path class="st26" d="M63.5,56.2c0.2-0.4,0.4-0.8,0.6-1.1C63.9,55.4,63.7,55.8,63.5,56.2z"/>
		<path class="st0" d="M40.3,97c0-1,0-1.9,0-2.9c3.6-1.1,4.8-4.2,4.9-7.3c0.4-7.8,0-15.6-2.8-23c0.2-7-4.8-9-10.2-10.6
			c-2,0.2-4.3-0.8-5.8,1.5c-1.9,0-3.8-0.1-5-1.9c0.8-1.5,1.4-3,0.9-4.7c11.2-3.6,22.7-4.6,34.3-3.8c2.6,0.2,3.1,2,2.7,4.4
			c-0.4,2.1-0.7,4.3-1.1,6.4c-2.5,2.5-2.8,5.7-3,8.9c-3.1,2.4-0.7,4.7,0.1,7c0,1,0,2,0,3c-1.8,5.7-2.2,12.1-8.2,15.8
			c-1.3,0.8-0.8,2.8-0.9,4.2c-1.9,2.7-3.1,5.6-3,9c0,0,0,0,0,0c-0.4,0-0.8,0-1.1,0c-0.1-1.1-0.8-1.8-1.7-2.2
			C40.5,99.5,40.4,98.3,40.3,97z"/>
		<path class="st9" d="M22.3,48.1c0.5,1.7-0.1,3.3-0.9,4.7c-0.3,0.1-0.6,0.1-1,0.2c-0.4,0.1-0.8,0.2-1.2,0.3c-0.6,0-1.2,0-1.7,0.1
			c-0.3-0.2-0.7-0.3-1-0.5c-0.6-2.6-0.2-4.8,2.2-6.3C20.5,45.5,21.2,47.3,22.3,48.1z"/>
		<path class="st0" d="M19.3,53.4c0.4-0.1,0.8-0.2,1.2-0.3C20.1,53.1,19.7,53.2,19.3,53.4z"/>
		<path class="st24" d="M16.5,52.9c0.3,0.2,0.7,0.3,1,0.5C17,53.6,16.6,53.4,16.5,52.9z"/>
		<path class="st7" d="M40.3,97c0.1,1.3,0.2,2.5,0.2,3.8c0,0.7-0.1,1.4-0.1,2.1l-0.1,0.1c-1-0.1-2-0.1-3-0.2
			C37.7,100.6,36.3,97.4,40.3,97z"/>
		<path class="st7" d="M42.3,103c0.4,0,0.8,0,1.1,0c-0.1,1-0.1,2.2-1.3,2.3c-1.7,0.2-1.6-1.2-1.8-2.3c0,0,0.1-0.1,0.1-0.1
			C41.1,102.9,41.7,103,42.3,103z"/>
		<path class="st24" d="M55.4,73.9c0-1,0-2,0-3C56.3,72,56.3,72.9,55.4,73.9z"/>
		<path class="st16" d="M42.3,103c-0.6,0-1.2-0.1-1.8-0.1c0-0.7,0.1-1.4,0.1-2.1C41.5,101.2,42.2,101.9,42.3,103z"/>
	</g>
</g>
</svg>
