<?xml version="1.0" encoding="utf-8"?>
<!-- Generator: Adobe Illustrator 22.0.1, SVG Export Plug-In . SVG Version: 6.00 Build 0)  -->
<svg version="1.1" id="Layer_1" xmlns="http://www.w3.org/2000/svg" xmlns:xlink="http://www.w3.org/1999/xlink" x="0px" y="0px"
	 viewBox="0 0 103.2 144" style="enable-background:new 0 0 103.2 144;" xml:space="preserve">
<style type="text/css">
	.st0{fill:#F5C885;}
	.st1{fill:#F5C886;}
	.st2{fill:#FAAF31;}
	.st3{fill:#FAAF2F;}
	.st4{fill:#F3B02A;}
	.st5{fill:#FAAF2D;}
	.st6{fill:#FBC46E;}
	.st7{fill:#FCBB56;}
	.st8{fill:#FBBC5A;}
	.st9{fill:#FCEACB;}
	.st10{fill:#FAD092;}
	.st11{fill:#FCC062;}
	.st12{fill:#FCC877;}
	.st13{fill:#FBB541;}
	.st14{fill:#F9D39A;}
	.st15{fill:#FDECCF;}
	.st16{fill:#FBC169;}
	.st17{fill:#FBB84A;}
	.st18{fill:#F9D6A0;}
	.st19{fill:#FDEDD1;}
	.st20{fill:#FBB953;}
	.st21{fill:#FCC672;}
	.st22{fill:#FBBA50;}
	.st23{fill:#FBBD60;}
	.st24{fill:#F8C77E;}
	.st25{fill:#F5A55C;}
	.st26{fill:#F59B36;}
	.st27{fill:#FCF0DD;}
</style>
<g>
	<g>
		<path class="st2" d="M31.4,75.1c-10-6.3-10.9-16.6-9-26.4c1.2-6.5,6.6-11.8,12.7-15.8c10.8-7.3,21.6-6.8,32.9-1.6
			c1.3,1.7,2.9,2.7,5,2.9c4.8,5.4,8.8,11.2,8,18.9c-2.7,0.3-3.4-3.3-6.1-3c-2.1-5.6-6.6-9.3-10.9-13.2c-1.2-1-2.9-1.2-4.3-0.8
			c-4.6,1.2-9.3,0.6-13.9,1c-5.3-1.7-10-1.4-13.9,3.1c-5.7,6.6-6.3,16.8-1.1,24.2c-0.1,0.2-0.1,0.5,0.1,0.7c0.3,0.3,0.7,0.6,1,0.9
			l0,0.1c0.3,1,1,1.7,2.1,1.8c1.3,1.7,2.7,3.4,4,5.1C36.6,76.4,33.7,74.8,31.4,75.1z"/>
		<path class="st5" d="M87,80.8c1.6,9.1,3,18.1-2.9,26.3c-4.7,6.6-11.4,10.4-18.9,11.9c-13,2.5-25.8,2.6-36.1-7.9
			c-6.6-6.8-6.2-15.3-6.2-23.8c1.9,0.2,3.8,0.1,5.4,1.1c0.1,2.9,0.2,5.8,0.3,8.7c-0.9,1.4-0.5,2.4,1,3.1c1.1,4.3,3.9,7.3,7.4,9.8
			c4.2,1.3,8.4,3,12.7,3.7c10.7,1.7,27.8-3.6,31.3-15.5C83,92.4,85,86.6,87,80.8z"/>
		<path class="st16" d="M77.8,64.9c-4.9,5.5-4.9,5.5,3.1,10.6c0.1,0.2,0.2,0.5,0.4,0.7c0.2,0.1,0.3,0.2,0.4,0.4
			c-0.9,1.8-2.1,3.5-1.9,5.6c-1.6-0.9-3.2-1.7-4.7-2.7C66.4,74,66.3,65,74.8,59.1C76.9,60.4,77.7,62.4,77.8,64.9z"/>
		<path class="st16" d="M28.3,88.4c-1.7-1-3.6-0.9-5.4-1.1c0.4-3.8,4.4-4.2,6.2-6.5c1.2-1.6,5.2-2.4,2.3-5.7
			c2.3-0.3,5.2,1.2,6.5-2.1c1.6,2.6,0.6,5.5,0.9,8.3C33.7,81.3,30.9,84.7,28.3,88.4z"/>
		<path class="st17" d="M79.7,82.2c-0.2-2.1,1.1-3.8,1.9-5.6c2.2,0.9,4.9,1.3,5.3,4.3c-2,5.8-4,11.5-6,17.3
			C80.5,92.8,82.1,87.3,79.7,82.2z"/>
		<path class="st17" d="M77.8,64.9c0-2.4-0.8-4.5-3-5.8c0-3,0.1-6,0.1-9c2.7-0.2,3.4,3.3,6.1,3C82.2,57.7,82.4,61.9,77.8,64.9z"/>
		<path class="st25" d="M72.9,34.2c-2.1-0.2-3.8-1.2-5-2.9C70.1,31.4,71.8,32.4,72.9,34.2z"/>
		<path class="st17" d="M81.2,76.1c-0.2-0.2-0.3-0.4-0.4-0.7C81.2,75.5,81.3,75.8,81.2,76.1z"/>
		<path class="st1" d="M74.9,50.1c0,3-0.1,6-0.1,9C66.3,65,66.4,74,75,79.5c1.5,1,3.2,1.8,4.7,2.7c2.4,5.2,0.8,10.7,1.3,16
			c-3.5,11.9-20.6,17.2-31.3,15.5c-4.3-0.7-8.5-2.4-12.7-3.7c1.2-0.8,1.3-1.7,0.6-2.9c-2.7-4.8-2.3-9.6-0.4-14.6
			c1.3-3.5,2.2-7.2,1.7-11.1c-0.3-2.8,0.7-5.6-0.9-8.3c-1.3-1.7-2.7-3.4-4-5.1c-0.3-1-1-1.7-2.1-1.8c0,0,0-0.1,0-0.1
			c-0.3-0.3-0.7-0.6-1-0.9c-0.1-0.2-0.2-0.5-0.1-0.7c1.6-2.1,2.3-4.4,2-7c-0.4-4.5,1.7-7.6,5-10.2c2.2-1.8,4.4-3.5,6.5-5.4
			c1.3-1.2,3-2.5,1.5-4.6c4.6-0.5,9.3,0.2,13.9-1c1.4-0.4,3.1-0.3,4.3,0.8C68.2,40.8,72.7,44.4,74.9,50.1z M68.8,96.7
			c0-2,0.2-4,0-5.9c-0.1-1.7,0.7-4.1-1.3-4.9c-2.4-1-3.8,1.1-5.1,2.9c-3.4-1.7-7-1.7-10.7-1.4c-3.4,0.3-5.6,1.8-5.4,5.6
			c-1.9-0.4-1.8-2.7-3.3-3.5c-1.6-0.8-2.8-1.1-3,1.4c-0.6,9.4,5.4,16,14.9,16.3c2,0.1,4,0,6,0C68,106.1,70.8,102.4,68.8,96.7z
			 M65.8,54.8c0.1-7.7-3.7-11.5-10.5-12.9c-7.1-1.5-9.5,3.7-13.2,7.5c-2.6,2.7-2.8,5.4-1,8.6c2.1,3.7,14.8,9.1,18.6,7.8
			c0.6-0.2,1.3-0.6,1.6-1.1C63.4,61.6,66.3,58.8,65.8,54.8z"/>
		<path class="st15" d="M45.8,37.2c1.5,2.2-0.2,3.5-1.5,4.6c-2.1,1.9-4.3,3.7-6.5,5.4c-3.3,2.6-5.4,5.8-5,10.2c0.2,2.6-0.4,4.9-2,7
			c-5.2-7.4-4.6-17.7,1.1-24.2C35.8,35.7,40.5,35.5,45.8,37.2z"/>
		<path class="st16" d="M31.8,66.2c1.1,0.1,1.8,0.8,2.1,1.8C32.8,67.8,32.1,67.2,31.8,66.2z"/>
		<path class="st16" d="M30.8,65.2c0.3,0.3,0.7,0.6,1,0.9C31.4,65.8,31.1,65.5,30.8,65.2z"/>
		<path class="st19" d="M38.8,81.3c0.5,3.9-0.4,7.6-1.7,11.1c-1.9,5-2.3,9.8,0.4,14.6c0.7,1.2,0.6,2.1-0.6,2.9
			c-3.5-2.5-6.3-5.5-7.4-9.8c0.1-1.2-0.1-2.2-1-3.1c-0.1-2.9-0.2-5.8-0.3-8.7C30.9,84.7,33.7,81.3,38.8,81.3z"/>
		<path class="st16" d="M28.6,97.1c0.9,0.8,1.1,1.9,1,3.1C28.2,99.5,27.7,98.5,28.6,97.1z"/>
		<path class="st23" d="M65.8,54.8c0.5,4-2.3,6.8-4.5,9.9c-0.3,0.5-1,0.9-1.6,1.1C56,67,43.3,61.6,41.2,57.9c-1.8-3.1-1.6-5.9,1-8.6
			c3.6-3.8,6.1-9,13.2-7.5C62.1,43.3,65.9,47.1,65.8,54.8z M53.6,59.7c2.7,0.2,5-0.4,5-3.8c0-3.6-1.3-7.1-5.2-7.3
			c-3.5-0.2-5.8,2.5-6.3,6.3C46.6,60.2,50.9,58.8,53.6,59.7z"/>
		<path class="st20" d="M61.1,107c-2,0-4,0.1-6,0c-9.5-0.3-15.5-6.8-14.9-16.3c0.1-2.5,1.4-2.2,3-1.4c1.5,0.8,1.5,3.1,3.3,3.5
			c2.9,6,5.8,7.9,10.6,7c1.4-0.3,2.8-0.6,4.3-0.9c0.1,0.7,0.3,1.4,0.4,2.1c-0.7,1.1-0.7,2.1,0.4,2.9C61.8,105,61.4,106,61.1,107z"/>
		<path class="st19" d="M61.3,99c0.5-0.8,1-1.7,1.5-2.5c2-0.6,4-0.3,6,0.2c2,5.7-0.8,9.5-7.7,10.4c0.4-1,0.7-2,1.1-3
			c0.7-1.1,0.6-2.1-0.4-2.9C61.6,100.4,61.5,99.7,61.3,99z"/>
		<path class="st6" d="M68.8,96.7c-2-0.5-4-0.8-6-0.2c-0.1-2.6-0.2-5.2-0.3-7.7c1.2-1.8,2.7-3.8,5.1-2.9c2,0.8,1.2,3.2,1.3,4.9
			C69,92.7,68.8,94.7,68.8,96.7z"/>
		<path class="st1" d="M61.7,101.1c1,0.9,1.1,1.8,0.4,2.9C61,103.2,61,102.2,61.7,101.1z"/>
	</g>
</g>
</svg>
