<?xml version="1.0" encoding="utf-8"?>
<!-- Generator: Adobe Illustrator 22.0.1, SVG Export Plug-In . SVG Version: 6.00 Build 0)  -->
<svg version="1.1" id="Layer_1" xmlns="http://www.w3.org/2000/svg" xmlns:xlink="http://www.w3.org/1999/xlink" x="0px" y="0px"
	 viewBox="0 0 113.8 144" style="enable-background:new 0 0 113.8 144;" xml:space="preserve">
<style type="text/css">
	.st0{fill:#F5C885;}
	.st1{fill:#F5C886;}
	.st2{fill:#FAAF31;}
	.st3{fill:#FAAF2F;}
	.st4{fill:#F3B02A;}
	.st5{fill:#FAAF2D;}
	.st6{fill:#FBC46E;}
	.st7{fill:#FCBB56;}
	.st8{fill:#FBBC5A;}
	.st9{fill:#FCEACB;}
	.st10{fill:#FAD092;}
	.st11{fill:#FCC062;}
	.st12{fill:#FCC877;}
	.st13{fill:#FBB541;}
	.st14{fill:#F9D39A;}
	.st15{fill:#FDECCF;}
	.st16{fill:#FBC169;}
	.st17{fill:#FBB84A;}
	.st18{fill:#F9D6A0;}
	.st19{fill:#FDEDD1;}
	.st20{fill:#FBB953;}
	.st21{fill:#FCC672;}
	.st22{fill:#FBBA50;}
	.st23{fill:#FBBD60;}
	.st24{fill:#F8C77E;}
	.st25{fill:#F5A55C;}
	.st26{fill:#F59B36;}
	.st27{fill:#FCF0DD;}
</style>
<g>
	<g>
		<path class="st1" d="M58.4,84.8c-4.6,1-9.1,2.1-13.8,0.9c-0.3-3.3-2.9-4.9-5-6.9c-1.8-1.7-3.9-3.1-4.3-5.7
			c-3.6-7.7-2.5-14.9,2.8-21.4c3.1-3.9,6.2-7.8,9.3-11.6c6.3-3.1,12.2-1.3,17.8,1.7c5,2.6,7.9,7.3,11.1,11.7
			c4.6,12.3,5.4,25,2.9,37.9c-0.1,0.2-0.1,0.5-0.1,0.8c-0.9,0.5-1.5,1.3-1.6,2.4c-3.7,7.9-10,13.1-18.4,14.4
			c-4.8,0.8-10.8,4.3-14.9-2.2c2.2-1.5,4.6-1.4,7.1-1.1c7.4,1.1,9.2,0.2,12.6-6.2c4.3-2.3,4.2-6.7,4-10.5c-0.2-3.9-4.5-2.3-6.8-3.6
			c-0.7-0.3-1.3-0.7-2-1C58.8,84.3,58.6,84.6,58.4,84.8z M58.5,64.3c-0.1-0.4-0.3-0.9-0.4-1.3c-0.1-1.7-0.2-3.4-0.4-5.1
			c1-1.7,3.3,0.6,4.4-1.3c1.6-3-2.7-11.8-6.1-12.2c-8-1-14.6,4.7-14.6,12.5c0,6.9,0,6.9,5.9,4.4c0.5,1.5,1.1,3.1,1.6,4.6
			c-1,2.8-1.4,6,2.1,6.9c3,0.8,6.5,1.3,9.5-1c3.8-1,7.4-3.1,6.2-7.2c-1.1-3.7-4.7-2.5-7.4-0.5C59,64.2,58.7,64.3,58.5,64.3z"/>
		<path class="st2" d="M76.3,53.3c-3.2-4.4-6.1-9.1-11.1-11.7c-5.7-3-11.6-4.7-17.8-1.7c-10.2-1.3-15.3,1.4-17.7,9.5
			c-2,6.7-2,13.3,0.8,19.8L30,69.4c-0.2,0.6-0.4,1.2-0.7,1.8c-0.5,0.9-0.9,1.7-1.4,2.6c-7.3-11.6-4.8-31.2,11.6-39
			c16.6-8,35.8-0.3,42.1,17c-0.1,0.5-0.2,0.9-0.3,1.4C79.7,53.3,78,53.3,76.3,53.3z"/>
		<path class="st5" d="M79.1,91.9c0-0.3,0-0.5,0.1-0.8c4.3,0.3,4.3-4.4,7-5.9c-0.6,15-13.4,28.8-28.1,30.1c-1.7,0.1-3.3,0.4-4.9,0.7
			c-7.3,1.3-15.3-3.4-17.5-10.4c-0.8-2.6-1-5.3,1.4-7.4c2.7,0.6,3.9,2.7,4.7,5.1c1,1,0.8,2.7,2.4,3.2c4,6.5,10.1,2.9,14.9,2.2
			c8.4-1.3,14.7-6.5,18.4-14.4C78.6,93.9,79.2,93.2,79.1,91.9z"/>
		<path class="st17" d="M86.2,85.2c-2.8,1.5-2.7,6.2-7,5.9c2.5-12.9,1.8-25.5-2.9-37.9c1.7,0,3.4,0,5.1,0c0.2,1,0.9,1.7,1.9,2
			C87,65,86.9,75.1,86.2,85.2z"/>
		<path class="st11" d="M28,73.8c0.5-0.9,0.9-1.7,1.4-2.6c1.4-0.2,0.7-1.1,0.7-1.8c0,0,0.4-0.2,0.4-0.2c1.9,0.9,1.8,4.4,4.8,3.8
			c0.4,2.7,2.5,4.1,4.3,5.7c2.1,2,4.7,3.6,5,6.9c-7.4-0.1-12.4-4.1-16-10.2c0,0,0-0.1,0-0.1C28.3,74.9,28.2,74.3,28,73.8z"/>
		<path class="st6" d="M61.1,85.2c2.3,1.3,6.5-0.3,6.8,3.6c0.2,3.8,0.4,8.1-4,10.5c-0.3-3.7-3-3.4-5.6-3.5c0-0.4,0-0.9,0.1-1.3
			C62.7,92.3,60.3,88.3,61.1,85.2z"/>
		<path class="st17" d="M41.8,103.3c-0.8-2.4-2-4.4-4.7-5.1c4.7-4.6,8.5-5.2,13.9-2.4c-0.6,0.2-1.2,0.5-1.8,0.7
			c0.8,1.3,2.1,0.5,3.2,0.8c0,0.3,0,0.7,0,1c-0.6,0.1-1.1,0.3-1.7,0.4c-1.5-0.4-2.6,0.3-3.4,1.5C45.1,100.5,43.6,102.2,41.8,103.3z"
			/>
		<path class="st17" d="M58.4,94.4c0,0.4,0,0.9-0.1,1.3c-0.9,0.2-1.9,0.4-2.8,0.6c-1.2-0.2-2.5-0.3-3.7-0.5
			C53.7,94.3,56.1,94.4,58.4,94.4z"/>
		<path class="st16" d="M51.7,95.9c1.2,0.2,2.5,0.3,3.7,0.5c-0.6,0.4-1.2,0.7-1.9,1.1c-0.4-0.1-0.8-0.1-1.2-0.2
			c-1.1-0.3-2.4,0.6-3.2-0.8c0.6-0.2,1.2-0.4,1.8-0.7C51.3,95.7,51.5,95.7,51.7,95.9z"/>
		<path class="st26" d="M83.2,55.3c-1-0.3-1.6-1-1.9-2c0.1-0.5,0.2-0.9,0.3-1.4C82.8,52.8,83.4,53.9,83.2,55.3z"/>
		<path class="st6" d="M58.4,84.8c0.2-0.3,0.4-0.5,0.7-0.6C58.8,84.4,58.6,84.6,58.4,84.8z"/>
		<polygon class="st2" points="28.5,75.4 28.6,75.5 28.3,75.6 		"/>
		<path class="st15" d="M35.3,73.1c-3.1,0.6-3-2.9-4.8-3.8c-2.8-6.5-2.8-13.1-0.8-19.8c2.4-8,7.6-10.7,17.7-9.5
			c-3.1,3.9-6.2,7.8-9.3,11.6C32.7,58.2,31.7,65.3,35.3,73.1z"/>
		<path class="st8" d="M47.2,61.3c-5.9,2.5-5.9,2.5-5.9-4.4c0-7.9,6.6-13.5,14.6-12.5c3.4,0.4,7.8,9.2,6.1,12.2
			c-1.1,2-3.3-0.4-4.3,1.3c-1-0.8-1.2-1.9-1.4-3.1c-0.3-1.8-1-3.3-3-3.3c-2.1,0.1-4.6,0.5-5.3,2.8C47.3,56.6,47.4,59,47.2,61.3z"/>
		<path class="st15" d="M53.6,97.5c0.6-0.4,1.2-0.7,1.9-1.1c0.9-0.2,1.9-0.4,2.8-0.6c2.5,0,5.3-0.2,5.6,3.5
			c-3.4,6.4-5.2,7.3-12.6,6.2c-2.5-0.4-4.9-0.4-7.1,1.1c-1.6-0.5-1.4-2.3-2.4-3.2c1.8-1.1,3.3-2.8,5.5-3.1c1.4,0,2.5-0.3,3.4-1.5
			c0.6-0.1,1.1-0.3,1.7-0.4C52.8,98,53.2,97.7,53.6,97.5z"/>
		<path class="st18" d="M48.8,65.9c2.3,1.7,4.9,1.4,7.4,1.2c0.6,0,1.4,0.2,1.2-0.9c0.2-0.6,0.3-1.2,0.5-1.7c0.2,0,0.4-0.1,0.6-0.2
			c0.2-0.1,0.5-0.1,0.7-0.1c0.4,2.6,0.8,5.1,1.2,7.7c-2.9,2.3-6.4,1.8-9.5,1C47.5,71.9,47.9,68.8,48.8,65.9z"/>
		<path class="st15" d="M60.4,71.9c-0.4-2.6-0.8-5.1-1.2-7.7c2.7-2,6.2-3.2,7.4,0.5C67.9,68.8,64.2,70.9,60.4,71.9z"/>
		<path class="st17" d="M79.1,91.9c0.1,1.2-0.5,2-1.6,2.4C77.6,93.2,78.2,92.5,79.1,91.9z"/>
		<path class="st25" d="M58.5,64.3c-0.2,0.1-0.4,0.2-0.6,0.2c0.1-0.5,0.1-1,0.2-1.5C58.2,63.5,58.4,63.9,58.5,64.3z"/>
		<path class="st13" d="M30,69.4c0.1,0.7,0.7,1.6-0.7,1.8C29.6,70.6,29.8,70,30,69.4z"/>
		<path class="st24" d="M50.7,98.7c-0.9,1.1-2,1.5-3.4,1.5C48.2,99,49.2,98.3,50.7,98.7z"/>
		<path class="st24" d="M53.6,97.5c-0.4,0.3-0.8,0.6-1.2,0.8c0-0.3,0-0.7,0-1C52.8,97.3,53.2,97.4,53.6,97.5z"/>
		<path class="st25" d="M57.4,66.3c0.2,1-0.6,0.9-1.2,0.9C56.6,66.8,57,66.6,57.4,66.3z"/>
	</g>
</g>
</svg>
