<?xml version="1.0" encoding="utf-8"?>
<!-- Generator: Adobe Illustrator 22.0.1, SVG Export Plug-In . SVG Version: 6.00 Build 0)  -->
<svg version="1.1" id="Layer_1" xmlns="http://www.w3.org/2000/svg" xmlns:xlink="http://www.w3.org/1999/xlink" x="0px" y="0px"
	 viewBox="0 0 120.3 144" style="enable-background:new 0 0 120.3 144;" xml:space="preserve">
<style type="text/css">
	.st0{fill:#F5C885;}
	.st1{fill:#F5C886;}
	.st2{fill:#FAAF31;}
	.st3{fill:#FAAF2F;}
	.st4{fill:#F3B02A;}
	.st5{fill:#FAAF2D;}
	.st6{fill:#FBC46E;}
	.st7{fill:#FCBB56;}
	.st8{fill:#FBBC5A;}
	.st9{fill:#FCEACB;}
	.st10{fill:#FAD092;}
	.st11{fill:#FCC062;}
	.st12{fill:#FCC877;}
	.st13{fill:#FBB541;}
	.st14{fill:#F9D39A;}
	.st15{fill:#FDECCF;}
	.st16{fill:#FBC169;}
	.st17{fill:#FBB84A;}
	.st18{fill:#F9D6A0;}
	.st19{fill:#FDEDD1;}
	.st20{fill:#FBB953;}
	.st21{fill:#FCC672;}
	.st22{fill:#FBBA50;}
	.st23{fill:#FBBD60;}
	.st24{fill:#F8C77E;}
	.st25{fill:#F5A55C;}
	.st26{fill:#F59B36;}
	.st27{fill:#FCF0DD;}
</style>
<g>
	<g>
		<path class="st3" d="M89.6,72.7c5.9,7.4,9.3,16,11.2,25.2c1.1,5.5-3.3,10.3-8.8,11.1c-10,1.4-15.5-5.1-21.3-11.3
			c2.6,0.3,4.7-1,7-2c3.1,2.1,5.5,5.2,9.3,6.4c4.6,1.4,7-0.7,6.4-5.5c-0.6-4.2-3.1-7.7-3.9-11.7C88.3,80.8,89.6,76.8,89.6,72.7z"/>
		<path class="st2" d="M29.8,52.8c0.5-8.6,3.3-16.2,8.8-22.8c4.4-5.2,10-7.5,16.5-5.1c7.4,2.7,14.2,6.4,16.4,15
			c-2,0.3-3.9,0.6-5.9,0.9c-2.9-3.7-6.5-6.4-10.7-8.6c-4.4-2.3-7.9-1.9-10.5,2.5c-3.5,3.3-7.2,6.4-9.1,11.1
			c-1.2,0.5-1.7,1.3-1.4,2.6c0.1,0.2,0,0.4-0.1,0.6c-1-0.7-2.1-1.6-2.3,0.6C31.4,51,31.2,52.2,29.8,52.8z"/>
		<path class="st5" d="M51.4,103.7c-0.3,6.6-3,11.7-9.1,14.8c-7.4,3.7-13.7,0.7-15.8-7.4c-2-7.5-0.8-14.9,0.2-22.3
			c1,2.9,3,4.8,5.7,6c0.1,4.1,0.1,8.2,0.3,12.3c0.1,2.2,0.8,4.5,2.9,5.3c2.4,0.9,4.4-0.5,6.2-2c2.3-2,3-4.6,3.1-7.5
			c1.4-0.6,1.8-1.7,1.8-3.1c0.3-0.2,0.6-0.4,0.9-0.5C48.2,101.3,48.9,103.3,51.4,103.7z"/>
		<path class="st8" d="M65.6,40.8c2-0.3,3.9-0.6,5.9-0.9C75.2,51,81.9,60.4,88.2,70.1c0.5,0.8,0.9,1.7,1.3,2.6
			c0.1,4.1-1.2,8.1-0.2,12.2c-0.4-0.3-1-0.5-1.2-0.8c-5.5-10.6-12.3-20.4-18.1-30.8C68,49.4,65.2,45.6,65.6,40.8z"/>
		<path class="st8" d="M51.4,103.7c-2.5-0.4-3.2-2.4-3.9-4.4c2.2-5.7,10.6-10.1,18.7-9.4c4.5,0.4,9,1.2,11.5,5.7c-2.2,1-4.4,2.3-7,2
			C61.6,94.8,57.9,96,51.4,103.7z"/>
		<path class="st8" d="M29.8,52.8c1.5-0.6,1.7-1.9,1.8-3.2c0.2-2.2,1.3-1.3,2.3-0.6c-1,11.8-1.5,23.6-0.8,35.5
			c-0.2,0.5-0.3,0.9-0.5,1.4c-2.5-0.1-3.9-1.2-4-3.8c-0.1-1.9-0.2-3.8-0.3-5.8c0-1,0.1-2,0.1-2.9c0.1-1.8,0.2-3.5,0.2-5.3
			c0.2-1.5,0.4-3,0.6-4.5c0.1-0.9,0.1-1.9,0.2-2.8C29.6,58.1,29.7,55.5,29.8,52.8z"/>
		<path class="st13" d="M28.2,76.2c0.1,1.9,0.3,3.8,0.3,5.8c0.1,2.6,1.5,3.8,4,3.8c-0.1,3-0.2,6-0.2,9.1c-2.8-1.2-4.7-3.2-5.7-6
			C26.8,84.6,25.8,80.2,28.2,76.2z"/>
		<path class="st13" d="M28.6,68c-0.1,1.8-0.2,3.5-0.2,5.3C27.7,71.5,27.7,69.7,28.6,68z"/>
		<path class="st13" d="M29.5,60.7c-0.1,0.9-0.1,1.9-0.2,2.8C29.3,62.6,29.4,61.6,29.5,60.7z"/>
		<path class="st1" d="M32.3,94.9c0.1-3,0.2-6,0.2-9.1c0.2-0.5,0.3-0.9,0.5-1.4c1-0.1,2.2,0.1,2.3-1.3c0.3-5,2.7-9.5,3.3-14.4
			c0.9-6.8,2.6-13.5,6.5-19.4c0.7,3.1,0.3,7.1,5.4,6.5c-0.2,0.6-0.3,1.3-0.7,1.8c-9.1,12.3-5.3,22,9.5,24.2c0.3,0,0.7,0,1,0
			c0.1,0.3,0.2,0.6,0.3,0.9c0.4,1.4,1,2,2,0.4c5.5-1.3,8.2-4.9,8.8-10.3c0.4-0.8-0.2-1-0.8-1.1l0,0c-0.3-0.3-0.6-0.6-0.9-0.9
			c-0.1-0.2-0.2-0.4-0.4-0.7c-0.7-1.5-1.6-2.9-2-4.5c-0.9-4-2.3-7.5-6.8-8.7c-0.8-0.2-1.3-1.4-2-2.1c3.4-3.6,1.4-6-1.9-8
			c-1-7.5-2.1-8.2-10.2-7c-0.3-1.8,0.4-4.1-2-5.1c2.6-4.4,6.1-4.8,10.5-2.5c4.2,2.2,7.8,4.9,10.7,8.6c-0.4,4.8,2.5,8.7,4.5,12.5
			c5.7,10.4,12.6,20.2,18.1,30.8c0.2,0.4,0.8,0.6,1.2,0.8c0.8,4.1,3.4,7.5,3.9,11.7c0.6,4.8-1.7,6.9-6.4,5.5
			c-3.8-1.2-6.2-4.3-9.3-6.4c-2.5-4.5-7-5.4-11.5-5.7c-8.1-0.7-16.5,3.7-18.7,9.4c-0.3,0.2-0.6,0.4-0.9,0.5
			c-1.2,0.7-1.9,1.7-1.8,3.1c0,2.9-0.7,5.5-3.1,7.5c-1.8,1.5-3.8,3-6.2,2c-2.2-0.9-2.9-3.1-2.9-5.3C32.4,103.1,32.4,99,32.3,94.9z"
			/>
		<path class="st15" d="M44.4,34.7c2.5,1,1.7,3.2,2,5.1c-0.3,1-0.7,2-1,3c-0.9,1-0.8,1.8,0.3,2.6c0,0.8,0.1,1.6,0.1,2.4
			C45.2,48,45,48.6,45,49.3c-3.8,5.9-5.6,12.6-6.4,19.4c-0.6,5-3,9.4-3.3,14.4c-0.1,1.4-1.3,1.2-2.3,1.3
			c-0.7-11.8-0.2-23.7,0.8-35.5c0.1-0.2,0.2-0.4,0.1-0.6c1-0.6,1.5-1.4,1.4-2.6C37.2,41.2,40.9,38,44.4,34.7z"/>
		<path class="st8" d="M35.3,45.8c0.1,1.2-0.4,2-1.4,2.6C33.6,47.1,34.1,46.2,35.3,45.8z"/>
		<path class="st8" d="M44.8,103c-0.1-1.4,0.6-2.4,1.8-3.1C46.6,101.2,46.1,102.4,44.8,103z"/>
		<path class="st10" d="M58.5,54.8c0.7,0.7,1.2,1.9,2,2.1c4.5,1.2,5.9,4.7,6.8,8.7c0.3,1.6,1.3,3,2,4.5c-5.5-0.6-6.7,0.3-6.7,5.5
			c0,2.4-0.1,4.6-2.3,6.2c-0.3,0-0.7,0-1,0c-14.8-2.2-18.6-11.9-9.5-24.2c0.4-0.5,0.5-1.2,0.7-1.8c0-1.6,0.5-2.3,1.9-0.9
			c0.5,1.7,0.2,3.3-0.2,4.9c0,0.3,0,0.6-0.1,1c0.1,3.4,0.1,6.8,0.2,10.2L52,71.3l0.2,0.4c1.4,3.7,4.8,3.8,7.4,3
			c2.9-0.9,1.9-4.2,1.5-6.5c-0.8-4.6-3.5-8.4-5.5-12.5C56.6,55.4,57.6,55.1,58.5,54.8z"/>
		<path class="st21" d="M58.5,54.8c-0.9,0.3-1.9,0.5-2.8,0.8c0,0,0.1-0.2,0.1-0.2c0-0.4,0.1-0.7,0.1-1.1c-0.2,0.3-0.3,0.5-0.5,0.8
			c-1-0.7-2-1.3-3.1-0.2c-1.4-1.4-1.9-0.7-1.9,0.9c-5.1,0.6-4.7-3.4-5.4-6.5c-0.1-0.7,0.1-1.3,0.8-1.6c3.6-0.3,7.2-0.6,10.8-0.9
			C59.9,48.9,62,51.2,58.5,54.8z"/>
		<path class="st19" d="M60.3,81.8c2.1-1.6,2.3-3.8,2.3-6.2c0-5.2,1.2-6.1,6.7-5.5c0.1,0.2,0.2,0.5,0.4,0.7c0.3,0.3,0.6,0.6,0.9,0.9
			c0,0,0,0,0,0c0.3,0.4,0.5,0.7,0.8,1.1c-0.6,5.4-3.3,9-8.8,10.3c-0.7-0.1-1.3-0.3-2-0.4C60.5,82.5,60.4,82.2,60.3,81.8z"/>
		<path class="st11" d="M56.6,46.8c-3.6,0.3-7.2,0.6-10.8,0.9c0-0.8-0.1-1.6-0.1-2.4c0.5-0.9,0.3-1.8-0.3-2.6c0.3-1,0.7-2,1-3
			C54.5,38.6,55.6,39.3,56.6,46.8z"/>
		<path class="st10" d="M60.5,82.8c0.7,0.1,1.3,0.3,2,0.4C61.5,84.8,61,84.2,60.5,82.8z"/>
		<path class="st10" d="M71.3,72.9c-0.3-0.4-0.5-0.7-0.8-1.1C71.1,71.9,71.7,72.1,71.3,72.9z"/>
		<path class="st10" d="M70.5,71.8c-0.3-0.3-0.6-0.6-0.9-0.9C69.9,71.2,70.2,71.5,70.5,71.8z"/>
		<path class="st1" d="M45.5,42.8c0.6,0.8,0.8,1.6,0.3,2.6C44.7,44.6,44.6,43.8,45.5,42.8z"/>
		<path class="st21" d="M52.2,59.8c0,0.3,0,0.6-0.1,1C52.1,60.5,52.1,60.1,52.2,59.8z"/>
		<path class="st21" d="M52.3,71c0.2,0.2,0.2,0.5,0,0.7c0,0-0.2-0.4-0.2-0.4L52.3,71z"/>
		<path class="st10" d="M55.8,55.5c-0.2,0-0.3-0.1-0.3-0.3c0.2-0.3,0.3-0.5,0.5-0.8C55.9,54.7,55.8,55.1,55.8,55.5z"/>
	</g>
</g>
</svg>
