<?xml version="1.0" encoding="utf-8"?>
<!-- Generator: Adobe Illustrator 22.0.1, SVG Export Plug-In . SVG Version: 6.00 Build 0)  -->
<svg version="1.1" id="Layer_1" xmlns="http://www.w3.org/2000/svg" xmlns:xlink="http://www.w3.org/1999/xlink" x="0px" y="0px"
	 viewBox="0 0 103.7 144" style="enable-background:new 0 0 103.7 144;" xml:space="preserve">
<style type="text/css">
	.st0{fill:#F5C885;}
	.st1{fill:#F5C886;}
	.st2{fill:#FAAF31;}
	.st3{fill:#FAAF2F;}
	.st4{fill:#F3B02A;}
	.st5{fill:#FAAF2D;}
	.st6{fill:#FBC46E;}
	.st7{fill:#FCBB56;}
	.st8{fill:#FBBC5A;}
	.st9{fill:#FCEACB;}
	.st10{fill:#FAD092;}
	.st11{fill:#FCC062;}
	.st12{fill:#FCC877;}
	.st13{fill:#FBB541;}
	.st14{fill:#F9D39A;}
	.st15{fill:#FDECCF;}
	.st16{fill:#FBC169;}
	.st17{fill:#FBB84A;}
	.st18{fill:#F9D6A0;}
	.st19{fill:#FDEDD1;}
	.st20{fill:#FBB953;}
	.st21{fill:#FCC672;}
	.st22{fill:#FBBA50;}
	.st23{fill:#FBBD60;}
	.st24{fill:#F8C77E;}
	.st25{fill:#F5A55C;}
	.st26{fill:#F59B36;}
	.st27{fill:#FCF0DD;}
</style>
<g>
	<g>
		<path class="st6" d="M49.5,29.3c0.5,0.6,1,1.3,1.5,1.9c2,2.5,4.1,5.1,6.1,7.6c-5.1,0-8.9-2.7-12.5-6c-0.1-2-1.5-3.3-2.9-4.2
			c-2.2-1.4-2.9-0.3-2.4,1.9c-2.6,5.3-7.1,6.6-12.5,6.2c1.4-1.8,3-3.4,3.3-5.8c2,0.2,3.5-0.7,4.9-1.9c3.3-3.3,6.7-4.4,10.6-1
			c0.8,0.7,2.1,0.7,3.2,1C49.1,29.2,49.3,29.3,49.5,29.3z"/>
		<path class="st2" d="M57.1,38.9c-2-2.5-4.1-5.1-6.1-7.6c1.5,0.2,2.9,0.6,4.4,0.7c3.8,0.3,7.6,1,8.1,5.5c0.5,4.5-2.2,7.3-6.5,8.4
			c0-2,0-3.9,0.1-5.9C57.1,39.6,57.1,39.2,57.1,38.9z"/>
		<path class="st3" d="M56.4,53.8c1.1,3.7,0.1,6.8-3.3,8.3c-4.3,1.8-7.5-0.9-10.1-4.1c2.2,0.1,4.3-0.6,6.3-1.3
			c1.2,0.1,1.7-0.6,1.8-1.7c0.7-1.6,1.9-2.8,3.2-4c0.5,0.3,0.9,0.6,1.4,0.9c0.1,0.4,0.3,0.8,0.4,1.2C56.1,53.3,56.2,53.6,56.4,53.8z
			"/>
		<path class="st2" d="M30.1,31c-0.3,2.4-1.9,4.1-3.3,5.8c0.1,0.7,0.1,1.4,0.2,2.2c-1.7,1-2.1,2.5-1.8,4.4c-4.1-1.7-5.9-4.9-4.5-9
			C22.3,29.8,26.2,30.1,30.1,31z"/>
		<path class="st3" d="M38,57.9c-3.6,3.3-8.7,4.5-10.9,2.1c-3-3.2-2.8-6.8-0.1-10.2c3.1,0.6,1.9,5.1,5.1,5.5
			c0.3-0.1,0.6-0.1,0.9-0.2C34,57.3,36.1,57.4,38,57.9z"/>
		<path class="st13" d="M48.9,29c-1.1-0.3-2.5-0.3-3.2-1c-4-3.4-7.4-2.3-10.6,1c0.3-0.9,0.6-1.9,0.8-2.8c0.8-3.3,2.7-5.7,6.2-6
			c3.6-0.3,5.7,1.9,6.8,5.1C48.9,26.6,48.9,27.8,48.9,29z"/>
		<path class="st7" d="M38,57.9c-1.9-0.5-4-0.6-5-2.8c5.9-5,11.3-4.5,16.3,1.5c-2,0.8-4.1,1.4-6.3,1.3C41.3,58,39.7,57.9,38,57.9z"
			/>
		<path class="st8" d="M32.1,55.3c-3.2-0.4-2.1-4.9-5.1-5.5c0-1.6,0-3.1-0.1-4.7c-0.3-0.4-0.7-0.8-1-1.2c-0.3-0.1-0.5-0.3-0.7-0.6
			C24.9,41.5,25.3,40,27,39c4.9,3,6.8,7.1,5.7,12.2C32.4,52.5,31.2,53.8,32.1,55.3z"/>
		<path class="st11" d="M54.2,51c-1.3,1.1-2.5,2.3-3.2,4c-3.8-5.3-0.9-12.5,6-15c0,2,0,3.9-0.1,5.9c0,0,0,0,0,0
			c-0.4,0.3-0.7,0.6-1.1,0.9c-0.2,0.3-0.4,0.6-0.5,0.8C54.3,48.5,54,49.7,54.2,51z"/>
		<path class="st26" d="M54.2,51c-0.2-1.3,0.1-2.5,1.2-3.3c0.1,1.4,0.1,2.8,0.2,4.2C55.1,51.6,54.7,51.3,54.2,51z"/>
		<path class="st26" d="M48.9,29c0-1.2,0-2.5-0.1-3.7c1.1,1.2,1,2.6,0.7,4C49.3,29.3,49.1,29.2,48.9,29z"/>
		<path class="st2" d="M25.9,44c0.3,0.4,0.7,0.8,1,1.2C26.6,44.7,26.2,44.4,25.9,44z"/>
		<path class="st26" d="M55.9,46.9c0.4-0.3,0.7-0.6,1.1-0.9C56.6,46.3,56.3,46.6,55.9,46.9z"/>
		<path class="st26" d="M56.4,53.8c-0.2-0.2-0.3-0.4-0.4-0.7C56.3,53.2,56.4,53.5,56.4,53.8z"/>
		<path class="st1" d="M57,40c-7,2.5-9.8,9.6-6,15c-0.1,1.1-0.6,1.7-1.8,1.7c-5-6-10.4-6.4-16.3-1.5c-0.3,0.1-0.6,0.1-0.9,0.2
			c-0.9-1.5,0.3-2.8,0.6-4.2c1.1-5-0.8-9.1-5.7-12.2c-0.1-0.7-0.1-1.4-0.2-2.2c5.4,0.5,10-0.9,12.5-6.2c1.7,0.8,3.3,2.2,5.3,2.3
			c3.5,3.3,7.4,6,12.5,6C57.1,39.2,57.1,39.6,57,40z"/>
		<path class="st9" d="M44.7,32.9c-2.1-0.1-3.6-1.4-5.3-2.3c-0.5-2.2,0.1-3.4,2.4-1.9C43.1,29.6,44.5,30.9,44.7,32.9z"/>
	</g>
</g>
</svg>
