<?xml version="1.0" encoding="utf-8"?>
<!-- Generator: Adobe Illustrator 22.0.1, SVG Export Plug-In . SVG Version: 6.00 Build 0)  -->
<svg version="1.1" id="Layer_1" xmlns="http://www.w3.org/2000/svg" xmlns:xlink="http://www.w3.org/1999/xlink" x="0px" y="0px"
	 viewBox="0 0 118.7 144" style="enable-background:new 0 0 118.7 144;" xml:space="preserve">
<style type="text/css">
	.st0{fill:#F5C885;}
	.st1{fill:#F5C886;}
	.st2{fill:#FAAF31;}
	.st3{fill:#FAAF2F;}
	.st4{fill:#F3B02A;}
	.st5{fill:#FAAF2D;}
	.st6{fill:#FBC46E;}
	.st7{fill:#FCBB56;}
	.st8{fill:#FBBC5A;}
	.st9{fill:#FCEACB;}
	.st10{fill:#FAD092;}
	.st11{fill:#FCC062;}
	.st12{fill:#FCC877;}
	.st13{fill:#FBB541;}
	.st14{fill:#F9D39A;}
	.st15{fill:#FDECCF;}
	.st16{fill:#FBC169;}
	.st17{fill:#FBB84A;}
	.st18{fill:#F9D6A0;}
	.st19{fill:#FDEDD1;}
	.st20{fill:#FBB953;}
	.st21{fill:#FCC672;}
	.st22{fill:#FBBA50;}
	.st23{fill:#FBBD60;}
	.st24{fill:#F8C77E;}
	.st25{fill:#F5A55C;}
	.st26{fill:#F59B36;}
	.st27{fill:#FCF0DD;}
</style>
<g>
	<g>
		<path class="st5" d="M27.7,83.3c-0.5-1.9,0.4-3.5,1.2-5.2c1.1,3.5,2.3,7,3.4,10.5c0,1.5-0.1,3,0,4.5c0.4,12.4,4.8,18.7,20,16.2
			c6.1-1,12.2-2.7,18.4-3.3c7-0.7,12.8-5,19.1-7.5c1.6-0.6,2.1-2.4,2.4-4.1c2.4-2,4.2-4.6,5.8-7.2c2.8,8.8-0.6,16.8-9,20
			c-15.8,6-32.2,9.2-49.3,8.2c-4.6-0.3-8.1-2.7-10.2-6.3c-4.6-7.7-4.7-16-1.9-24.5c0.2,0.6,0.4,1.2,0.6,1.8c0,0,0.6-0.1,0.6-0.2
			C29.1,85,28.6,84.1,27.7,83.3z"/>
		<path class="st5" d="M32.1,63.3c0.5-7.1-0.7-14.2,1.2-21.3c2.8-10.4,11.8-18.6,25-14.8c9.6,2.7,19.4,4.5,28.9,7.3
			c7.2,2.1,10.9,6.7,11.5,13.8c0.5,6,0.8,12.1-2.5,17.7c-1.2-5.3-1.5-10.8-4-15.7c-0.3-3.9-1.6-7.5-5.5-8.7
			c-11.1-3.4-22.3-6.6-33.9-7.9C42.4,32,37.4,35.7,35.9,45.9c-0.9,5.8-0.5,11.6-0.7,17.4C34.2,63.3,33.1,63.3,32.1,63.3z"/>
		<path class="st13" d="M32.1,63.3c1,0,2.1,0,3.1,0c1.4,2.7,0.3,5.8,1.2,8.6c-1.8,5.5-1.1,11.6-4.1,16.8c-1.1-3.5-2.3-7-3.4-10.5
			C29,73,31.6,68.3,32.1,63.3z"/>
		<path class="st6" d="M89.1,71.4c-3,2.4-0.9,4.2,0.8,5.9c0,1,0,1.9,0,2.9c-1.9,0-2.9,1-2.9,2.9c-8.3-6.3-7.9-12.3,1-18.9
			C88.4,66.7,88.7,69.1,89.1,71.4z"/>
		<path class="st22" d="M89.1,71.4c-0.3-2.4-0.7-4.7-1-7.1c5.7-3.4,3.3-9.3,4.2-14.2c2.5,4.9,2.8,10.5,4,15.7
			C94.2,68.2,91.9,70.2,89.1,71.4z"/>
		<path class="st22" d="M98,87.2c-1.6,2.7-3.3,5.2-5.8,7.2c0.3-4.1-1.1-7.8-3.5-11c1.8-0.3,2.9-1.2,3.2-3.1c0.2-0.2,0.4-0.3,0.6-0.5
			C95.6,81.3,98.6,82.9,98,87.2z"/>
		<path class="st22" d="M89.9,80.3c0-1,0-1.9,0-2.9c1.5,0.1,2.1,1.3,2.7,2.4c-0.2,0.2-0.4,0.4-0.6,0.5
			C91.3,80.3,90.6,80.3,89.9,80.3z"/>
		<path class="st4" d="M27.7,83.3c0.9,0.8,1.4,1.7,1.1,2.9c0,0.1-0.6,0.2-0.6,0.2c-0.2-0.6-0.4-1.2-0.6-1.8
			C27.6,84.1,27.7,83.7,27.7,83.3z"/>
		<path class="st0" d="M88.8,83.3c2.4,3.3,3.8,6.9,3.5,11c-0.3,1.7-0.8,3.5-2.4,4.2c-6.4,2.6-12.1,6.8-19.1,7.5
			c-6.2,0.6-12.3,2.3-18.4,3.3c-15.3,2.5-19.6-3.8-20-16.2c-0.1-1.5,0-3,0-4.5c3-5.2,2.3-11.3,4.1-16.8c3.2-3.8,3.4-8.7,4.3-13.2
			c1.8-8.3,3.7-16.5,10.9-22c1-0.8,1.2-1.9,1.1-3.1c11.6,1.3,22.8,4.5,33.9,7.9c4,1.2,5.2,4.8,5.5,8.7c-0.9,4.9,1.5,10.7-4.2,14.2
			c-9,6.6-9.3,12.5-1,18.9C87.6,83.2,88.2,83.3,88.8,83.3z M76.7,61.4c0.2-0.1,0.3-0.2,0.5-0.3c0.6-2.6,1.2-5.2,1.9-7.7
			c1-3.4,0-5.3-3.5-6.3c-4.3-1.2-8.5-2.9-12.7-4.1c-3.5-1-6.8,0.3-9.2,2.5c-2.5,2.3-4.6,5.5-3.2,9.4c0.6,1.8,1.1,4.2,3.3,4.7
			c2.5,0.6,2-2.7,3.5-3.5c0.2,0.7,0.4,1.4,0.6,2.1c-0.8,0.8-0.4,1.6,0.1,2.4c-2.2,7.4-2.2,7.4,5.9,7.7c0.5,0,1,0,1.5,0.1
			c1.4,3.1,5.4,4.1,9.3,2.2C79.2,68.4,79.6,66.4,76.7,61.4z M47,87.2c0,2.2-0.1,4.3-0.1,6.5c0,6.9,4.2,10.4,10.9,9
			c3.1-0.6,6-1.7,9.1-2.6c0.3,3.6,3,1.8,4.5,1.7c2.1-0.3,4.1-1.3,6.1-2c5.4-1.9,7.7-4.7,6.1-7.8c-2.5-4.7-5.8-1.9-8.9-0.7
			c-0.2,0.1-0.3,0.1-0.5,0.2c0.9-5-3.4-5.1-6.2-6.6c2.3-1.1,5.4-3,3-5.3c-2.8-2.7-6.6-5.2-11.2-4c-1.5,0.4-3.6,0.5-4,2.4
			c-0.6,2.4,1.6,2.9,3.2,3.7c-2.2,1.2-4.7,1.9-6,4.4c-1.2-1.2-0.8-4-3.4-3.6C46.9,83,47,85.3,47,87.2z"/>
		<path class="st19" d="M52.8,33.6c0.2,1.2,0,2.3-1.1,3.1c-7.3,5.5-9.2,13.7-10.9,22c-1,4.5-1.2,9.4-4.3,13.2
			c-0.9-2.8,0.1-5.9-1.2-8.6c0.2-5.8-0.2-11.6,0.7-17.4C37.4,35.7,42.4,32,52.8,33.6z"/>
		<path class="st23" d="M88.8,83.3c-0.6,0-1.2-0.1-1.7-0.1c0-1.9,1-2.9,2.9-2.9c0.7,0,1.4,0,2,0C91.7,82.1,90.5,83,88.8,83.3z"/>
		<path class="st23" d="M57.3,56.1c-1.6,0.8-1,4.1-3.5,3.5c-2.1-0.5-2.6-2.9-3.3-4.7c-1.4-3.9,0.7-7,3.2-9.4
			c2.4-2.2,5.7-3.6,9.2-2.5c4.3,1.3,8.4,2.9,12.7,4.1c3.5,1,4.5,2.9,3.5,6.3c-0.8,2.5-1.3,5.1-1.9,7.7c-2-0.9-3.7-4.3-6.2-0.8
			c1.1-7.2,0.6-8-6.7-9.8C58.7,49.2,57.4,50.2,57.3,56.1z"/>
		<path class="st23" d="M52.8,90.2c-0.3,4.4,1.7,5.5,6,5.3c5.3-0.3,9.9-3.1,15-3.5c-0.8,4-4.3,5.7-7,8.2c-3,0.9-6,1.9-9.1,2.6
			c-6.7,1.4-10.8-2.2-10.9-9c0-2.2,0-4.3,0.1-6.5C48.9,88.2,50.9,89.2,52.8,90.2z"/>
		<path class="st15" d="M66.8,100.2c2.6-2.5,6.2-4.1,7-8.2c0.1-0.2,0.2-0.3,0.2-0.5c0.2-0.1,0.3-0.1,0.5-0.2c3.1-1.2,6.4-4,8.9,0.7
			c1.7,3.1-0.7,5.9-6.1,7.8c-2,0.7-4,1.7-6.1,2C69.8,102,67.1,103.8,66.8,100.2z"/>
		<path class="st10" d="M67,61.4c1.3-0.3,2.7-0.7,4-1c2.6-3.5,4.2-0.1,6.2,0.8c-0.2,0.1-0.3,0.2-0.5,0.3c-2.9,0.2-5.3,0.8-6.7,3.8
			c-0.8,1.8-2.4,3-4.6,3.1c-0.5,0-1-0.1-1.5-0.1c-8.1-0.2-8.1-0.2-5.9-7.7c0.3-0.1,0.5-0.1,0.8-0.2c2.2,1.7,4.9,0.4,7.2,1.1
			C66.3,61.4,66.7,61.4,67,61.4z"/>
		<path class="st14" d="M67.9,84.9c-3-1.1-6-2.1-9-3.2c-1.6-0.8-3.8-1.3-3.2-3.7c0.4-1.9,2.5-2,4-2.4c4.6-1.2,8.4,1.3,11.2,4
			C73.3,82,70.2,83.8,67.9,84.9z"/>
		<path class="st19" d="M65.4,68.4c2.2-0.1,3.8-1.4,4.6-3.1c1.4-3,3.8-3.7,6.7-3.8c2.9,5,2.5,6.9-2,9.1
			C70.8,72.5,66.8,71.5,65.4,68.4z"/>
		<path class="st21" d="M52.8,90.2c-2-1-3.9-2-5.9-3c0.1-2-0.1-4.3,2.5-4.7c2.6-0.4,2.2,2.4,3.4,3.6C52.9,87.5,52.9,88.9,52.8,90.2z
			"/>
		<path class="st25" d="M58.8,60.4c-0.3,0.1-0.5,0.1-0.8,0.2c-0.4-0.8-0.8-1.6-0.1-2.4C58.7,58.8,58.9,59.6,58.8,60.4z"/>
		<path class="st0" d="M67,61.4c-0.3,0-0.6,0.1-1,0.1C66.3,61.4,66.7,61.4,67,61.4z"/>
	</g>
</g>
</svg>
