<?xml version="1.0" encoding="utf-8"?>
<!-- Generator: Adobe Illustrator 22.0.1, SVG Export Plug-In . SVG Version: 6.00 Build 0)  -->
<svg version="1.1" id="Layer_1" xmlns="http://www.w3.org/2000/svg" xmlns:xlink="http://www.w3.org/1999/xlink" x="0px" y="0px"
	 viewBox="0 0 87 144" style="enable-background:new 0 0 87 144;" xml:space="preserve">
<style type="text/css">
	.st0{fill:#F5C885;}
	.st1{fill:#F5C886;}
	.st2{fill:#FAAF31;}
	.st3{fill:#FAAF2F;}
	.st4{fill:#F3B02A;}
	.st5{fill:#FAAF2D;}
	.st6{fill:#FBC46E;}
	.st7{fill:#FCBB56;}
	.st8{fill:#FBBC5A;}
	.st9{fill:#FCEACB;}
	.st10{fill:#FAD092;}
	.st11{fill:#FCC062;}
	.st12{fill:#FCC877;}
	.st13{fill:#FBB541;}
	.st14{fill:#F9D39A;}
	.st15{fill:#FDECCF;}
	.st16{fill:#FBC169;}
	.st17{fill:#FBB84A;}
	.st18{fill:#F9D6A0;}
	.st19{fill:#FDEDD1;}
	.st20{fill:#FBB953;}
	.st21{fill:#FCC672;}
	.st22{fill:#FBBA50;}
	.st23{fill:#FBBD60;}
	.st24{fill:#F8C77E;}
	.st25{fill:#F5A55C;}
	.st26{fill:#F59B36;}
	.st27{fill:#FCF0DD;}
</style>
<g>
	<g>
		<path class="st10" d="M44.6,66.5c-0.4,5.2-2.8,9.5-6.2,13.2c-3.7,4-7.9,3.2-10-1.9c-2-4.8-2-9.7-0.9-14.7
			c0.8-3.9,1.2-7.9,1.8-11.8c0.5-0.2,0.9-0.5,1.4-0.7c1.2,5.1-0.4,10.6,2.6,15.4c-0.2,1-0.5,2-0.5,2.9c0.1,1.5,0,3.5,1.4,4
			c2.1,0.7,2.5-1.7,3.3-3c1.6-2.5,1.6-5.8,3.8-8C43.1,62.9,44.1,64.6,44.6,66.5z"/>
		<path class="st5" d="M41.3,92.9c1.3,6.6-1.2,12.6-6.2,14.8c-5.1,2.3-11.6,0.8-15-3.4c-3.9-4.8-3.8-10.2,0.2-15.4
			c0.6,1.3,1.1,2.7,2.6,3.2c0.2,1.3,0.4,2.5,0.6,3.8c-0.7,3.8,1.2,6,4.6,6.8c3.7,0.8,6.4-0.6,7.4-4.5C37.5,96.4,39.4,94.6,41.3,92.9
			z"/>
		<path class="st3" d="M30.7,50.7c-0.5,0.2-0.9,0.4-1.4,0.7c0.1-2.3,0-4.6,0.3-6.9c1-6.5,5.5-9.9,11.9-9.1c6.6,0.8,9.6,4.8,8.9,11.8
			c-0.4,3.3-0.9,6.5-2.9,9.3c-0.4-2.2-2.1-3.3-3.7-4.6c0.2-1.6,0.4-3.2,0.5-4.9c0.2-2.1,0.4-4.3-2.3-5.3c-2.4-0.9-4.5-0.7-5.9,1.7
			C33.4,45.1,30.7,46.8,30.7,50.7z"/>
		<path class="st8" d="M22.9,92c-1.5-0.5-2-1.9-2.6-3.2c2.9-5.3,7.8-5.8,12.8-4.8c4.5,0.9,7.5,4,8.2,8.8c-1.9,1.8-3.8,3.5-5.7,5.3
			c-0.6-7.9-2.4-9.3-9.4-7.6c-0.6,0.2-1.3,0.3-1.9,0.5C23.8,91.4,23.3,91.7,22.9,92z"/>
		<path class="st23" d="M43.9,51.8c1.5,1.3,3.3,2.4,3.7,4.6c-0.4,3.5-0.7,7.1-3,10.1c-0.5-1.9-1.5-3.6-3.4-4.5
			C41.4,58.4,41.1,54.7,43.9,51.8z"/>
		<path class="st1" d="M43.9,51.8c-2.8,2.9-2.4,6.6-2.6,10.2c-2.2,2.2-2.2,5.5-3.8,8c-0.8,1.3-1.2,3.7-3.3,3c-1.4-0.5-1.3-2.5-1.4-4
			c0-1,0.3-1.9,0.5-2.9c1.7-4.1,3.5-8.2,5.2-12.3c1.7-4,0.9-7.4-2.3-10.3c1.4-2.4,3.5-2.6,5.9-1.7c2.7,1,2.5,3.1,2.3,5.3
			C44.3,48.5,44.1,50.2,43.9,51.8z"/>
		<path class="st19" d="M36.2,43.4c3.1,2.9,3.9,6.4,2.3,10.3c-1.7,4.1-3.4,8.2-5.2,12.3c-3-4.8-1.4-10.3-2.6-15.4
			C30.7,46.8,33.4,45.1,36.2,43.4z"/>
		<path class="st1" d="M24.2,91c0.6-0.2,1.3-0.3,1.9-0.5c7-1.7,8.8-0.3,9.4,7.6c-1,3.9-3.7,5.3-7.4,4.5c-3.5-0.8-5.4-3-4.6-6.8
			c1.7-0.1,4.2,1.3,4.9-0.7c0.7-2-2-2.5-3.4-3.5C24.8,91.4,24.5,91.2,24.2,91z"/>
		<path class="st15" d="M24.2,91c0.3,0.2,0.5,0.4,0.8,0.6c1.4,1,4.1,1.5,3.4,3.5c-0.7,2-3.2,0.5-4.9,0.7c-0.2-1.3-0.4-2.5-0.6-3.8
			C23.3,91.7,23.8,91.4,24.2,91z"/>
	</g>
</g>
</svg>
