<?xml version="1.0" encoding="utf-8"?>
<!-- Generator: Adobe Illustrator 22.0.1, SVG Export Plug-In . SVG Version: 6.00 Build 0)  -->
<svg version="1.1" id="Layer_1" xmlns="http://www.w3.org/2000/svg" xmlns:xlink="http://www.w3.org/1999/xlink" x="0px" y="0px"
	 viewBox="0 0 99.5 144" style="enable-background:new 0 0 99.5 144;" xml:space="preserve">
<style type="text/css">
	.st0{fill:#F5C885;}
	.st1{fill:#F5C886;}
	.st2{fill:#FAAF31;}
	.st3{fill:#FAAF2F;}
	.st4{fill:#F3B02A;}
	.st5{fill:#FAAF2D;}
	.st6{fill:#FBC46E;}
	.st7{fill:#FCBB56;}
	.st8{fill:#FBBC5A;}
	.st9{fill:#FCEACB;}
	.st10{fill:#FAD092;}
	.st11{fill:#FCC062;}
	.st12{fill:#FCC877;}
	.st13{fill:#FBB541;}
	.st14{fill:#F9D39A;}
	.st15{fill:#FDECCF;}
	.st16{fill:#FBC169;}
	.st17{fill:#FBB84A;}
	.st18{fill:#F9D6A0;}
	.st19{fill:#FDEDD1;}
	.st20{fill:#FBB953;}
	.st21{fill:#FCC672;}
	.st22{fill:#FBBA50;}
	.st23{fill:#FBBD60;}
	.st24{fill:#F8C77E;}
	.st25{fill:#F5A55C;}
	.st26{fill:#F59B36;}
	.st27{fill:#FCF0DD;}
</style>
<g>
	<g>
		<path class="st0" d="M54.5,56.5c-0.9,0.7-1.8,1.4-2.7,2.1c-0.4,0.6-0.9,1.1-1.3,1.7c-5.1,6.6-5.1,14.3-4.9,22.1
			c-1.2,2.5-5.1-1.8-5.5,1.9c-0.4,3.2,1.2,6.1,3.6,8.3c0.5,0.4,1.1,0.6,1.7,0.9c0.4,0,0.8,0,1.2-0.1l0,0c2.6,5.6,8,6.1,13.1,7
			c0,0.4,0.1,0.8,0.1,1.2c-0.7,0.1-1.3,0.3-2,0.4c-1.1-0.3-1.9,0.1-2.5,1c-10.4,1.5-19.4,0.1-24.5-10.6c-0.4-0.9-0.9-1.7-1.4-2.6
			c2.3-0.8,3.8-2.8,3.4-4.9c-0.4-2.4-3.1-1.9-4.9-2.3c-0.1-2.7-0.2-5.5-0.3-8.2c2.1,0.1,2.7-1.3,3.3-3c2.3-5.9,5.6-11,10.2-15.6
			c3.4-3.4,6.7-7.3,7.5-12.5c7.4-4.9,15.2-3.5,22.7-1c4.3,1.4,5.7,7.1,3.4,10.2c-5.6-3.4-11.8-3.6-18-3.1c-3.8,0.8-6.8,3-9.4,5.8
			c-0.6,0.7-1.7,1.3-0.8,2.4c0.6,0.7,1.5,0.3,2.2-0.1C50.6,56.8,52.2,54.8,54.5,56.5z"/>
		<path class="st5" d="M29.4,89.9c0.5,0.9,1,1.7,1.4,2.6c5.1,10.7,14.2,12.1,24.5,10.6c1,0.2,1.8-0.2,2.5-1c0.7-0.1,1.3-0.3,2-0.4
			c0.3,0,0.6,0,0.9-0.1c1.6-2.3,3.3-4.6,4.9-6.9c3-0.1,6.9-0.5,8,2.5c1.3,3.4-2.6,4.9-4.9,6.5c-8.9,6.3-18.9,6.8-29.1,4.9
			c-4.8-0.9-8-4.5-10.8-8.3c-4.2-5.9-6.9-12.4-6.9-19.8c2,0.7,1.6,3.2,3.2,4.2C23.8,88.6,27.7,88.4,29.4,89.9z"/>
		<path class="st5" d="M74.7,52.7c2.3-3,0.9-8.8-3.4-10.2c-7.5-2.5-15.3-3.9-22.7,1c-6.3-0.5-11.1,2.4-15,7c-1-0.3-2-0.7-3.1-1
			c6.4-10.5,21.7-17.3,37.1-14.3c8.8,1.7,13.1,5.5,14.7,13.5c1.2,6-1.5,9.4-7.8,9.8C73.4,56.5,74,54.6,74.7,52.7z"/>
		<path class="st13" d="M30.5,49.4c1,0.3,2,0.7,3.1,1c-3.7,7.6-6.6,15.4-5.9,24c0.1,2.7,0.2,5.5,0.3,8.2C26.9,83.3,26,84,25,84.6
			c-1.6-1-1.2-3.5-3.2-4.2C21.1,69.1,23.2,58.6,30.5,49.4z"/>
		<path class="st22" d="M74.7,52.7c-0.7,1.9-1.3,3.8-0.1,5.7c-5.4,0.9-9.5-4.4-15-3.1c-0.4-0.9,3.7-2.5-0.5-3
			c-1.5-0.2-2.2-1.3-2.4-2.7C62.9,49.1,69.1,49.3,74.7,52.7z"/>
		<path class="st16" d="M45.4,93.6c-0.6-0.3-1.3-0.5-1.7-0.9c-2.5-2.2-4-5.1-3.6-8.3c0.4-3.7,4.3,0.6,5.5-1.9
			c1.8,7.2,7,10.5,13.8,12c-4.3-0.3-8.5-0.6-12.8-0.9c0,0,0,0,0,0C46.2,93.5,45.8,93.6,45.4,93.6z"/>
		<path class="st22" d="M46.5,93.5c4.3,0.3,8.5,0.6,12.8,0.9c2.1,0.1,4.2,0.1,6.2,0.2c-1.6,2.3-3.3,4.6-4.9,6.9
			c-0.3-0.4-0.7-0.7-1-1.1C54.6,99.6,49.2,99.1,46.5,93.5z"/>
		<path class="st6" d="M56.7,49.5c0.2,1.4,0.9,2.6,2.4,2.7c4.2,0.4,0.1,2,0.5,3c-1.7,0.4-3.4,0.8-5,1.2c-2.3-1.7-3.9,0.3-5.8,1.1
			c-0.8,0.4-1.6,0.8-2.2,0.1c-1-1.1,0.1-1.7,0.8-2.4C49.9,52.5,52.8,50.3,56.7,49.5z"/>
		<path class="st25" d="M50.5,60.3c0.4-0.6,0.9-1.1,1.3-1.7C51.6,59.4,51.3,60.1,50.5,60.3z"/>
		<path class="st9" d="M27.6,74.5c-0.6-8.7,2.3-16.4,5.9-24c4-4.6,8.7-7.4,15-7c-0.7,5.2-4.1,9.1-7.5,12.5
			c-4.6,4.5-7.9,9.7-10.2,15.6C30.3,73.2,29.7,74.6,27.6,74.5z"/>
		<path class="st9" d="M25,84.6c0.9-0.6,1.9-1.3,2.8-1.9c1.9,0.4,4.6-0.1,4.9,2.3c0.3,2.2-1.1,4.1-3.4,4.9
			C27.7,88.4,23.8,88.6,25,84.6z"/>
		<path class="st8" d="M57.8,102.1c-0.6,0.8-1.4,1.2-2.5,1C55.9,102.2,56.7,101.8,57.8,102.1z"/>
		<path class="st22" d="M45.4,93.6c0.4,0,0.8,0,1.2-0.1C46.2,93.5,45.8,93.6,45.4,93.6z"/>
		<path class="st8" d="M59.7,100.5c0.3,0.4,0.7,0.7,1,1.1c-0.3,0-0.6,0.1-0.9,0.1C59.8,101.2,59.7,100.9,59.7,100.5z"/>
	</g>
</g>
</svg>
