<?xml version="1.0" encoding="utf-8"?>
<!-- Generator: Adobe Illustrator 22.0.1, SVG Export Plug-In . SVG Version: 6.00 Build 0)  -->
<svg version="1.1" id="Layer_1" xmlns="http://www.w3.org/2000/svg" xmlns:xlink="http://www.w3.org/1999/xlink" x="0px" y="0px"
	 viewBox="0 0 120 120" style="enable-background:new 0 0 120 120;" xml:space="preserve">
<style type="text/css">
	.st0{clip-path:url(#SVGID_2_);fill:#3DB357;}
</style>
<g>
	<defs>
		<rect id="SVGID_1_" y="0" width="120" height="120"/>
	</defs>
	<clipPath id="SVGID_2_">
		<use xlink:href="#SVGID_1_"  style="overflow:visible;"/>
	</clipPath>
	<path class="st0" d="M66,35.3c0-0.1,0.1-0.1,0.2-0.2c0.2-0.1,0.2-0.1,0.1-0.2c0.1,0,0.1,0,0.2,0c0.1,0,0.2,0,0.2-0.1
		c0-0.1,0.1,0,0.1-0.1c0.2,0,0.5-0.1,0.7-0.1c0.2,0,0.4-0.1,0.6-0.1c0.1,0,0.1-0.1,0-0.2c-0.4-0.3-0.9-0.4-1.4-0.5
		c-0.3,0-0.5,0.1-0.8,0.2c-0.1,0.1-0.1,0.2-0.2,0.4c-0.1,0.2-0.2,0.4-0.3,0.6c-0.1,0.2-0.3,0.3-0.5,0.2c-0.1,0-0.1,0-0.2,0.1
		c-0.1,0.1-0.2,0.2-0.3,0.2c0-0.1,0-0.2,0-0.3c0-0.1,0-0.1-0.1-0.1C64,35,63.8,35,63.5,35.1c0.1-0.2,0-0.2-0.2-0.1
		c-0.2,0.1-0.4,0.1-0.6,0.1c-0.1,0-0.1,0-0.1-0.1c0-0.1,0.1-0.1,0.1-0.1c0.1-0.1,0.2-0.1,0.4-0.2c0.1-0.1,0.2-0.1,0-0.2
		c-0.1-0.1-0.1-0.1,0-0.2c0.4-0.2,0.7-0.3,1.1-0.5c0,0,0.1,0,0.1-0.1c0-0.1-0.1-0.1-0.1-0.1c-0.2,0-0.4,0.1-0.6,0.1
		c-0.4,0.1-0.8,0.2-1.2,0.4c-0.1,0-0.1,0.1-0.1-0.1c0-0.1,0.1-0.2,0-0.3c-0.1-0.1-0.3-0.2-0.4-0.2c-0.3,0-0.5-0.2-0.8-0.2
		c0.2-0.1,0.3-0.2,0.5-0.3c0.1-0.1,0.2-0.1,0.2-0.3c-0.1-0.3,0.1-0.5,0.4-0.6c0.3-0.1,0.6-0.2,0.9-0.2c0,0,0,0,0.1,0
		c0.2-0.2,0.4,0,0.6,0.1c0.2,0.2,0.5,0.4,0.8,0.5c-0.2-0.2-0.4-0.4-0.5-0.5c-0.1-0.1-0.2-0.3-0.3-0.4c0,0,0,0,0,0c0.2,0,0.3,0,0.5,0
		c0.1,0,0.2,0,0.2-0.1c0,0,0-0.1,0.1-0.1c0.2,0,0.3-0.1,0.2-0.3c0,0,0-0.1,0.1-0.1c0.2,0,0.4,0,0.5,0c0,0,0.1,0,0.1,0.1
		c0.6,0.5,1.1,0.9,1.8,1.2c0.3,0.1,0.4,0.4,0.6,0.7c0.2,0.3,0.5,0.5,0.8,0.8c-0.4-0.5-0.7-1.1-1.1-1.6c-0.6-0.8-1.3-1.5-2.2-2
		c-0.4-0.2-0.8-0.4-1.3-0.6c-0.1-0.1-0.2-0.1-0.4-0.1c-0.5-0.3-1-0.2-1.4,0c-0.4,0.2-0.8,0.3-1.2,0.5c-0.2,0.1-0.3,0.2-0.4,0.3
		c-0.3,0.4-0.7,0.4-1.2,0.6c-0.1,0-0.1-0.1-0.2-0.1c-0.1,0,0-0.1,0-0.1c0.1-0.1,0.1-0.2,0.2-0.3c-0.2,0.1-0.3,0.1-0.4,0.2
		c-0.3,0.1-0.4,0-0.4-0.2c0-0.1-0.1-0.1-0.1-0.1c-0.1,0-0.2,0.1-0.2,0c0-0.1,0-0.2,0.1-0.3c0,0,0.1-0.1,0.1-0.1
		c0.1-0.1,0.2-0.1,0-0.3c-0.1-0.1-0.1-0.2,0-0.3c0.2-0.1,0.3-0.4,0.5-0.5c-0.1-0.1-0.1-0.1-0.2-0.1c-0.2,0-0.4,0.1-0.5,0.1
		c-0.1,0-0.2-0.1-0.2-0.2c-0.1-0.1,0-0.2,0.1-0.2c0,0,0.1-0.1,0.1-0.1c0-0.1-0.1-0.1-0.2-0.1c-0.1,0-0.2,0-0.2-0.1
		c0-0.2,0-0.3,0.2-0.3c0.1,0,0.1,0,0.2,0c0.1,0,0.1,0,0.1-0.1c0-0.1,0-0.1,0-0.2c0,0-0.1,0-0.1-0.1c0,0-0.1-0.1-0.1-0.1
		c0.1-0.1,0.1-0.1,0.2-0.1c0.2,0.1,0.3,0.1,0.5,0.2c0,0,0.1,0,0.1,0c0.1,0,0.2,0.1,0.3,0c0.1-0.1-0.1-0.1-0.1-0.2
		C59,27.1,58.9,27,58.8,27c-0.1,0-0.2-0.1-0.1-0.2c0-0.1,0.1-0.1,0.2-0.1c0.2,0,0.4,0.1,0.6,0.1c0-0.1-0.1-0.2,0-0.2
		c0.1-0.1,0.2,0,0.2,0.1c0.1,0.1,0.1,0.2,0.2,0.2c0,0,0.1,0.1,0.2,0.1c0.1-0.1,0.1-0.1,0.1-0.2c0-0.1-0.1-0.1,0-0.2
		c0.1,0,0-0.1-0.1-0.1c-0.1-0.1-0.2-0.1-0.2-0.2c0-0.1,0-0.1,0-0.2c0.1,0,0.1,0,0.1,0c0,0,0.1,0,0.1,0.1c-0.1-0.2-0.2-0.3-0.2-0.5
		c0-0.1-0.1-0.1,0-0.2c0.1-0.1,0.2-0.1,0.2-0.1c0.1,0,0.1,0,0.2,0.1c0.1,0,0.2,0.2,0.1-0.1c0-0.1,0.1,0,0.1,0
		c0.2,0.1,0.4,0.1,0.5,0.4c0,0,0,0.1,0.1,0.1c0,0,0-0.1,0-0.1c0-0.1,0-0.1,0-0.1c-0.1-0.1,0-0.1,0.1-0.2c0.1,0,0.1,0,0.2,0.1
		c0.1,0.1,0.1,0.2,0.3,0.1c0.1,0,0.1,0,0.1,0.1c0,0.2,0,0.3,0,0.5c0,0.1,0,0.1,0,0.2c0,0,0.1,0.1,0.1,0.1c0.1,0,0-0.1,0-0.1
		c0-0.2,0-0.4,0-0.5c0-0.1,0-0.2,0.1-0.2c0.1,0,0.1,0.1,0.2,0.1c0.1,0.1,0.1,0.2,0.2,0.3c0,0.1,0.1,0.1,0.1,0.1
		c0.2,0,0.2,0.2,0.2,0.3c0,0.5,0.1,1,0.1,1.4c0,0.3,0.2,0.5,0.3,0.8c0.1,0.2,0.2,0.4,0.5,0.5c0.7,0.4,1.3,0.8,2,1.2c0,0,0-0.1,0-0.1
		c-0.3-0.6-0.6-1.2-0.9-1.8c0-0.1-0.1-0.1-0.2-0.1c-0.1,0-0.3-0.1-0.4-0.1C64,28,64,27.9,64.1,27.8c-0.2,0-0.3-0.1-0.4-0.3
		c-0.1-0.1,0-0.2,0.1-0.3c0.1-0.1,0.1-0.1,0.2,0c0.1,0,0.1,0,0.2,0c0-0.1,0-0.1,0-0.2c-0.1-0.1-0.2-0.2-0.3-0.2
		c-0.1,0-0.1-0.1-0.2-0.2c-0.1-0.1-0.1-0.2,0.1-0.3c0.1,0,0.1-0.1,0.1-0.2c0-0.2,0-0.3-0.1-0.5c0-0.1,0.1-0.1,0.1-0.1
		c0.1-0.1,0.2-0.1,0-0.2c-0.2-0.1-0.3-0.4-0.2-0.5c0-0.1,0.1-0.2,0.1-0.1c0.1,0,0.2,0,0.2,0.2c0,0.1,0,0.2,0.1,0.2
		c0.1,0,0.2,0,0.4-0.1c0,0,0-0.1,0-0.1c-0.1-0.2-0.2-0.4-0.3-0.6c0-0.1-0.1-0.2,0-0.3c0.1-0.1,0.1,0,0.2,0c-0.1-0.2,0-0.3,0-0.5
		c0-0.1,0.1-0.2,0.2-0.3c0.1,0,0.2,0.1,0.2,0.2c0,0.1,0.1,0.2,0.2,0.4c0.1-0.2,0.1-0.4,0.2-0.6c0,0,0-0.1,0.1-0.1
		c0.1,0,0.1,0,0.2,0.1c0.1,0.2,0.2,0.4,0.1,0.6c-0.1,0.3,0,0.7,0,1c0,0,0,0,0,0c0-0.2,0.1-0.4,0.1-0.6c0-0.1,0-0.2,0.1-0.2
		c0,0,0-0.1,0.1,0c0.2,0.2,0.2,0,0.3-0.1c0,0,0.1-0.1,0.2-0.1c0.1,0,0.1,0.1,0.1,0.2c0,0.1,0,0.2,0.2,0.2c0.1,0,0.1,0.1,0.1,0.1
		c0,0.2,0.1,0.3,0.2,0.5c0.1,0.1,0.1,0.2,0,0.3c-0.2,0.4-0.2,0.9-0.3,1.4c-0.1,0.2,0,0.4,0,0.7c0.2-0.3,0.3-0.5,0.5-0.7
		c0.1-0.1,0.2-0.3,0.2-0.4c0.1-0.1,0.2-0.2,0.3-0.2c0.1,0,0.1,0,0.1,0.1c0,0.1,0,0.1,0,0.2c-0.1,0.1-0.2,0.1-0.2,0.2
		c0,0.1,0.2,0,0.2,0.1c0,0.1,0,0.2-0.1,0.3C67,26.6,67,26.7,67,26.9c0.1,0,0.2-0.1,0.3-0.1c0.1,0,0.1-0.1,0.2,0c0,0.1,0.1,0.2,0,0.2
		c-0.1,0.1-0.2,0.2-0.3,0.3c-0.1,0.1-0.1,0.2-0.1,0.3c0.1,0.1,0,0.2-0.1,0.2c-0.4,0.2-0.6,0.6-0.9,1c-0.1,0.2-0.1,0.5-0.2,0.7
		c-0.2,0.5,0,0.9,0.3,1.3c0.9,1,1.7,2,2.6,3.1c0.3,0.4,0.5,0.8,0.8,1.2c0,0,0,0.1,0.1,0.1c0.1-0.2,0-0.4,0-0.6c0-0.2,0-0.4,0-0.6
		c0-0.1,0-0.1,0-0.1c0,0,0,0,0,0c-0.2-0.9-1-1.2-1.7-1.5c-0.1,0-0.2-0.1-0.3-0.1c-0.1,0-0.1-0.1-0.1-0.2c0-0.1,0.1-0.1,0.1-0.1
		c0,0,0.1-0.1,0.1-0.1c-0.2-0.2-0.4-0.3-0.7-0.3c-0.2,0-0.3-0.2-0.4-0.3c-0.1-0.1,0.1-0.1,0.1-0.2c-0.2-0.1-0.4-0.2-0.6-0.3
		c0,0-0.1-0.1,0-0.2c0.1-0.1-0.1-0.1-0.1-0.1c-0.1-0.1-0.1-0.1,0-0.2c0.2-0.1,0.4-0.3,0.7-0.1c0.1,0,0.1,0,0.1-0.1
		c0-0.1,0-0.2,0-0.2c0-0.1,0-0.1,0.1-0.2c0.1,0,0.1,0,0.1,0.1c0.2,0.3,0.3,0.5,0.7,0.6c0-0.1-0.1-0.1-0.1-0.2
		c-0.1-0.2,0-0.3,0.1-0.3c0.1-0.1,0.2,0,0.3,0.1c0.1,0.2,0.2,0.3,0.5,0.3c0.1,0,0.1,0.1,0.1,0.1c0.2,0.4,0.3,0.7,0.5,1.1
		c0,0.1,0,0.2,0.1,0.1c0.1,0,0.2-0.1,0.2-0.2c0-0.7,0-1.4-0.3-2c-0.2-0.3-0.4-0.5-0.7-0.7c-0.2-0.1-0.3-0.2-0.6-0.3
		c-0.1,0-0.1,0-0.1-0.1c0-0.1,0-0.1,0.1-0.1c0.1-0.1,0.1-0.1,0-0.2c-0.1-0.1-0.1-0.1-0.2-0.2c-0.1-0.1-0.1-0.2,0-0.2
		c0.1-0.1,0.3,0,0.4,0c0-0.1-0.1-0.1-0.1-0.2c-0.1-0.1-0.3-0.2-0.4-0.4c-0.1-0.1-0.1-0.2,0-0.2c0.2-0.1,0.2-0.2,0.1-0.3
		c-0.1-0.1-0.1-0.2,0.1-0.3c0.1,0,0.1-0.1,0.1-0.2c0-0.1,0-0.1,0.1-0.1c0.1,0,0.1,0,0.1,0.1c0.1,0.1,0.1,0.2,0.3,0
		c0-0.1,0.1,0,0.1,0c0,0.1,0.1,0.1,0.1,0.2c0.1,0.1,0.1,0.2,0.2,0c0,0,0.1-0.1,0.1-0.1c0,0.1,0.1,0.2,0.1,0.2
		c0.1,0.1,0.1,0.2,0.3,0.3c0.1,0,0.2,0.3,0.2,0.4c0,0.1,0,0.2,0.1,0.2c0.1,0,0.1-0.1,0.1-0.2c0-0.1,0-0.1-0.1-0.2
		c-0.1-0.2-0.2-0.5-0.3-0.7c-0.1-0.2-0.1-0.4-0.1-0.6c0-0.1,0-0.1,0.1-0.1c0.1,0,0.1,0,0.1,0c0.1,0.1,0.1,0,0.1,0c0-0.1,0-0.2,0-0.3
		c0-0.1,0.1-0.2,0.1-0.3c0.1-0.1,0.2,0,0.3,0.1c0.1,0.2,0.1,0.3,0.2,0.5c0,0.1,0,0.1,0.2,0.2c0-0.4-0.1-0.8,0.3-1
		c0.2,0.2,0.2,0.2,0.4,0c0.1-0.1,0.2-0.1,0.3-0.2c0.2,0,0.2,0,0.2,0.2c0,0.1-0.1,0.1-0.1,0.2c0,0,0,0,0,0c0.1,0,0.2-0.1,0.3,0
		c0.1,0.1,0.1,0.3,0,0.5c0,0.1-0.1,0.2-0.1,0.3c0,0,0,0.1,0,0.1c0.1,0,0.1,0,0.1,0C72,25.2,72,25,72.2,25c0.1,0,0.1-0.1,0.2,0
		c0.1,0.1,0.1,0.2,0.1,0.3c-0.1,0.2,0,0.4,0.1,0.6c0.1,0.1,0.1,0.2,0,0.3c-0.4,0.3-0.8,0.6-1.2,0.9c-0.1,0.1-0.1,0.1-0.2,0.2
		c-0.1,0.3-0.3,0.6-0.4,0.9c0,0,0,0,0,0l0,0c0.2-0.2,0.4-0.5,0.6-0.8c0.1-0.2,0.3-0.5,0.6-0.5c0.1,0,0.1-0.1,0.2-0.1
		c0.1-0.1,0.2-0.3,0.4-0.1c0,0,0.1,0,0.2-0.1c0.1-0.1,0.3-0.2,0.5-0.2c0.1,0,0.2,0,0.2,0c0.1,0,0.1,0,0.2,0.1c0,0.1,0,0.1,0,0.1
		c0,0-0.1,0.1,0,0.1c0.2,0.2,0,0.2-0.1,0.3c-0.1,0-0.1,0.1-0.2,0.1c0.1,0.1,0.2,0.1,0.3,0.1c0.1,0,0.1,0,0.1,0.1
		c0,0.1,0,0.1-0.1,0.2c-0.1,0-0.2,0.1-0.2,0.2c-0.2,0.1-0.1,0.2,0,0.2c0.2,0.2,0.2,0.3-0.1,0.4c-0.1,0.1-0.2,0.1-0.2,0.2
		c-0.2,0.2-0.4,0.5-0.6,0.5c-0.6,0.1-0.9,0.5-1.3,0.9c0,0,0,0.1-0.1,0.1c-0.4,0.3-0.5,0.7-0.6,1.2c-0.1,0.4-0.1,0.8-0.1,1.2
		c0,0,0,0.1,0,0.1c0,0,0.1,0,0.1,0c0.2-0.2,0.5-0.5,0.7-0.7c0.1-0.1,0.1-0.3,0.2-0.5c0.1-0.2,0.3-0.4,0.5-0.4c0.3,0,0.3,0,0.3-0.3
		c0-0.1,0-0.3,0.2-0.3c0.2,0,0.2,0.1,0.2,0.3c0,0.1,0,0.2,0,0.2c0.1,0,0.1-0.1,0.2-0.1c0.3-0.3,0.6-0.3,1-0.5c0,0.3,0,0.3,0.3,0.2
		c0,0,0.1,0,0.1,0c0.1,0,0.1,0,0.1,0.1c0,0.1,0,0.1,0,0.2c-0.1,0.1-0.2,0.2-0.4,0.3c-0.1,0-0.1,0-0.1,0.1c0,0.1,0.1,0,0.1,0
		c0,0,0.1,0,0.1-0.1c0.1,0,0.2,0.1,0.1,0.2c-0.1,0.2-0.2,0.3-0.4,0.4c-0.1,0.1-0.2,0.1-0.2,0.2c-0.1,0.1-0.1,0.1,0,0.1
		c0,0,0.1,0,0.1,0c0.1,0,0.2,0.1,0.2,0.2c0,0.1-0.1,0.1-0.2,0.2c0,0-0.1,0-0.1,0.1c0.1,0.1,0,0.2-0.1,0.2c-0.1,0-0.2,0-0.3,0
		c-0.2,0-0.4,0.1-0.6,0.2c0.3,0.1,0.6,0.1,0.9,0.3c-0.1,0.1-0.2,0.3-0.4,0.3c-0.1,0-0.1,0-0.1,0.1c0,0.2-0.2,0.3-0.4,0.2
		c-0.1-0.1-0.2-0.1-0.3,0.1c-0.1,0.2-0.2,0.3-0.3,0.1c-0.1-0.1-0.2-0.1-0.4-0.2c-0.3-0.1-0.6-0.1-0.8-0.2c-0.2-0.1-0.6,0.1-0.6,0.4
		C70,34.5,70,35,70,35.6c0,0.1,0,0.2,0.1,0.2c0.5,1.2,1,2.5,1.3,3.8c0.1,0.4,0.2,0.9,0.3,1.4c0,0.2-0.1,0.2-0.2,0.2
		c-0.1,0.1-0.1-0.1-0.2-0.1c-0.2-0.8-0.4-1.5-0.6-2.3c-0.3-0.9-0.5-1.8-0.8-2.7c-0.2-0.4-0.5-0.7-0.7-1.1c0,0-0.1-0.1-0.1,0
		c-0.1,0-0.1,0.1,0,0.2c0.1,0.2,0.2,0.4,0.3,0.6c0,0.1,0.1,0.2,0,0.3c0,0-0.1,0.1,0,0.1c0,0.1,0,0.2-0.1,0.2c-0.2,0-0.1,0.1-0.1,0.2
		c0,0,0,0.1,0,0.1c0,0.1,0,0.2-0.2,0.1c-0.1,0-0.1,0-0.1,0.1c0,0.1-0.1,0.3-0.2,0.4c0-0.1-0.1-0.1-0.1-0.2c0,0-0.1-0.1-0.1-0.1
		C68,37,68,36.8,68,36.7c0,0,0-0.1,0-0.1c0,0,0-0.1,0-0.1c0,0-0.1,0-0.1,0.1c-0.1,0.1-0.1,0.2-0.2,0.3c0,0.1-0.1,0.1-0.1,0.2
		c-0.1,0-0.1,0.1-0.2,0c-0.1-0.1-0.2-0.1-0.2,0c-0.1,0.1-0.2,0.2-0.3,0.3c-0.1,0.1-0.1,0.1-0.2,0c0-0.1,0-0.2,0-0.3c0,0,0-0.1,0-0.1
		c0,0-0.1,0-0.1,0c-0.1,0.1-0.2,0.2-0.3,0.2c-0.1,0.1-0.2,0.1-0.3-0.1C66,37,66,37,65.9,37c-0.2,0-0.3,0.1-0.5,0.1c0,0-0.1,0-0.1,0
		c0.1-0.2-0.1-0.2-0.2-0.2c0.1-0.1,0.2-0.2,0.3-0.3c0,0,0.1-0.1,0.1-0.1c0-0.1-0.1,0-0.1,0c-0.1,0-0.2,0-0.3,0
		c0-0.1,0.1-0.1,0.1-0.1c0.2-0.1,0.2-0.1,0.1-0.3c0.2-0.1,0.4-0.1,0.5-0.1c0,0,0.1,0,0.1-0.1c0-0.1,0,0-0.1-0.1
		c-0.1-0.1-0.2-0.2-0.2-0.3C65.8,35.4,65.9,35.3,66,35.3C66,35.3,66,35.3,66,35.3C66.1,35.3,66,35.3,66,35.3z M66,35.8
		C66,35.8,66,35.8,66,35.8C66,35.8,66,35.8,66,35.8C66,35.8,66,35.8,66,35.8C66,35.8,66,35.8,66,35.8z"/>
	<path class="st0" d="M25.5,107.2c0-0.1,0-0.1-0.1-0.2c-0.2-0.4,0.1-0.8,0.5-0.9c0.2,0,0.3,0.1,0.4,0.2c0-0.1,0.1-0.2,0.1-0.3
		c0.2,0.1,0.3,0.3,0.5,0.4c0.1,0.1,0.2,0.1,0.2,0c0.1-0.1,0.2-0.2,0.2-0.3c0.1-0.2,0.2-0.1,0.3,0c0.1,0.1,0.2,0.2,0.3,0.3
		c0.2,0.2,0.3,0.1,0.4-0.1c0.1-0.2,0.3-0.3,0.5-0.3c0.2,0,0.3,0.2,0.3,0.4c0,0.2,0,0.5,0,0.7c0.2,0,0.3-0.1,0.4-0.2
		c0.2-0.1,0.4,0,0.5,0.2c0,0.2,0,0.5-0.1,0.7c-0.1,0.4-0.3,0.8-0.4,1.3c0,0.1,0,0.2,0,0.2c0.2,0.7,0.4,1.3,0.6,2
		c0.1-0.5,0.2-1,0.3-1.5c0-0.2,0-0.3-0.1-0.5c-0.1-0.2-0.2-0.4-0.2-0.6c0-0.2,0-0.4,0.2-0.4c0.1,0,0.1-0.1,0.1-0.2
		c0-0.1,0-0.2-0.1-0.3c-0.1-0.2-0.1-0.4,0.2-0.3c0.1,0,0.1-0.1,0.1-0.2c0-0.1,0-0.2,0.1-0.3c0.1,0,0.1,0.1,0.2,0.1
		c0.1,0,0.1,0.1,0.2,0.2c0-0.2-0.1-0.4-0.1-0.6c0-0.2,0-0.3,0.2-0.4c0.1-0.1,0.2,0,0.3,0.1c0.2,0,0.2,0.2,0.4,0.3
		c0-0.1,0.1-0.2,0.1-0.3c0.1-0.3,0.4-0.5,0.8-0.5c0.3,0,0.4,0.1,0.3,0.3c0,0.2,0,0.4,0.3,0.4c0.1,0,0.3,0,0.4,0.1
		c0.1,0.1-0.1,0.2-0.2,0.3c-0.1,0.2-0.3,0.3-0.5,0.5c0.1,0.1,0.2,0,0.3,0c0.6,0,0.7,0.4,0.5,0.9c-0.1,0.2-0.3,0.4-0.5,0.6
		c-0.2,0.2-0.3,0.3-0.6,0.5c0.3,0,0.6-0.1,0.8-0.1c0.1,0,0.3-0.1,0.2,0.1c0,0.2,0.2,0.4-0.1,0.5c-0.3,0.1-0.4,0.2-0.5,0.6
		c0,0.3-0.1,0.5-0.1,0.8c0,0.1-0.1,0.2-0.2,0.3c-0.2,0.2-0.4,0.4-0.7,0.6c-0.2,0.1-0.3,0-0.5,0c-0.2,0-0.3,0-0.3,0.3
		c-0.1,0.8-0.2,1.6-0.3,2.4c0,0.6,0,1.2,0,1.7c0,0.5-0.1,0.9-0.2,1.4c-0.1,0.4-0.3,0.9-0.5,1.3c0.5-0.1,0.8-0.4,1.1-0.7
		c0.5-0.6,0.6-1.3,0.5-2.1c0-0.2-0.1-0.5,0.2-0.6c0.1-0.1,0.1-0.2,0.1-0.4c0-0.1-0.1-0.2,0.1-0.3c0.2,0,0.3,0,0.5,0.1
		c0.1,0,0,0.2,0.2,0.1c0.1-0.1,0.1-0.2,0.1-0.3c-0.2-0.5-0.1-1-0.2-1.5c0-0.2,0.3-0.2,0.5-0.1c0,0,0.1,0.1,0.1,0.1
		c0,0.1,0,0.1,0.1,0.2c0-0.1,0-0.2-0.1-0.2c0,0,0,0,0,0c0-0.1-0.2-0.3-0.1-0.4c0.1-0.2,0.3-0.3,0.5-0.5c0.1-0.1,0.5,0.1,0.6,0.3
		c0.2,0.3,0.3,0.6,0.1,0.9c-0.2,0.4-0.1,0.8,0,1.1c0,0.1,0.1,0.1,0.1,0c0.1-0.1,0.3-0.2,0.3-0.5c0-0.2,0-0.4,0.1-0.6
		c0.1-0.4,0-0.7-0.2-1c-0.1-0.1,0.1-0.7,0.2-0.8c0.2-0.1,0.3,0,0.4,0.1c0,0,0.1,0.1,0.1,0.1c0.1,0,0.1-0.1,0.1-0.1
		c-0.1-0.4,0.2-0.5,0.5-0.6c0.4-0.2,0.4-0.2,0.6,0.2c0.2,0.4,0.2,0.7,0,1.1c0,0.1-0.1,0.2-0.1,0.4c0.2-0.2,0.3-0.4,0.5-0.6
		c0.2-0.3,0.4-0.5,0.5-0.7c0-0.1,0.1-0.2,0.2-0.2c0.1,0,0.2-0.1,0.3,0c0.1,0.1,0,0.2,0,0.3c0,0.1-0.1,0.3-0.1,0.5
		c0.2-0.1,0.3-0.2,0.5-0.3c0.1-0.1,0.3-0.1,0.3,0c0.1,0.1,0.2,0.3,0.2,0.5c0,0,0,0.1-0.1,0.1c-0.2,0.1-0.1,0.2-0.1,0.3
		c0.1,0.1,0.1,0.2-0.1,0.3c-0.3,0.2-0.6,0.3-0.8,0.6c0.2,0,0.4,0,0.6-0.1c0.2,0,0.4,0.1,0.5,0.2c0.1,0.2,0,0.4-0.1,0.5
		c-0.1,0.2-0.3,0.3-0.5,0.3c-0.3,0.1-0.6,0.2-0.9,0.3c-0.2,0.1-0.4,0.2-0.5,0.4c0.3-0.1,0.6-0.2,0.9-0.3c0.3-0.1,0.8,0.1,0.9,0.3
		c0.1,0.2,0.1,0.4-0.1,0.6c-0.1,0.1-0.1,0.2,0,0.3c0.1,0.1,0,0.2-0.1,0.2c-0.2,0.1-0.3,0.2-0.5,0.2c-0.1,0-0.3,0-0.4,0
		c0,0,0,0,0,0.1c0.3,0.4,0.3,0.3-0.2,0.6c-0.4,0.2-0.8,0.2-1.1,0c-0.1-0.1-0.2-0.1-0.4,0c-0.7,0.2-1.4,0.4-2,0.7
		c-0.1,0-0.2,0-0.1,0.1c0,0.1,0.1,0,0.2,0c0.1,0,0.2,0,0.3,0c0.5-0.1,0.8,0.2,1.1,0.5c0.5,0.5,0.7,1.1,1,1.6c0,0.1,0.1,0.2,0.1,0.3
		c0.2,0.4,0.2,0.4-0.2,0.6c0,0-0.1,0-0.1,0c-0.2,0.2-0.4,0.2-0.6-0.1c-0.2-0.3-0.4,0-0.6,0l0,0c0.2-0.4,0.1-0.7-0.2-1
		c-0.1,0-0.1-0.2-0.2-0.1c-0.1,0-0.1,0.1-0.1,0.2c0,0.2,0.1,0.5-0.1,0.7c-0.2,0.2-0.2,0.2-0.4,0c-0.1-0.1-0.2-0.2-0.3-0.3
		c-0.2-0.2-0.3-0.3-0.6-0.3c-0.5,0-1-0.1-1.4-0.3c-0.3-0.2-0.6-0.1-1-0.1c-0.3,0-0.7-0.1-0.9,0c-0.3,0.1-0.4,0.4-0.6,0.6
		c-0.7,0.7-1.5,1.2-2.3,1.7c-0.9,0.5-1.7,1.1-2.5,1.8c-0.3,0.3-0.8,0.5-1.1,0.2c0.4-0.4,1-0.7,1.4-1c0.7-0.5,1.4-1,2.2-1.5
		c0.3-0.2,0.3-0.2,0.1-0.6c-0.2,0.2-0.3,0.4-0.4,0.6c0,0.1-0.1,0.2-0.2,0.1c-0.1,0-0.1-0.1-0.1-0.2c0-0.2,0-0.4,0-0.6
		c-0.2,0.2-0.3,0.4-0.4,0.5c-0.2,0.2-0.4,0.4-0.7,0.5c-0.1,0.1-0.2,0.2-0.3,0c0-0.1-0.1-0.1-0.2,0c-0.1,0.1-0.2,0.3-0.4,0.5
		c0-0.2-0.1-0.4-0.1-0.5c0,0,0-0.1,0-0.1c0,0,0,0-0.1,0c-0.1,0-0.2,0.1-0.4,0.1c-0.1,0-0.2,0.1-0.3,0c-0.1-0.1,0-0.3,0-0.3
		c0.2-0.2,0.1-0.3,0-0.4c-0.2-0.2-0.1-0.3,0.1-0.4c0.2-0.2,0.5-0.2,0.8-0.3c0,0,0.1,0,0.1-0.1c-0.1-0.1-0.3-0.1-0.4-0.1
		c-0.1,0-0.1-0.1-0.1-0.2c0.2-0.2,0.3-0.5,0.5-0.7c0-0.1,0.1-0.1,0.2-0.1c0.5,0.1,0.9-0.2,1.3-0.3c-0.1-0.1-0.3-0.1-0.4-0.2
		c-0.4-0.1-0.8-0.2-1.2-0.3c-0.3-0.1-0.5,0-0.8,0.1c-0.2,0.1-0.5,0.2-0.7,0.1c-0.1,0-0.2,0-0.1-0.2c0.1-0.2,0-0.2-0.1-0.2
		c-0.2,0-0.3,0-0.5,0c0,0-0.1,0-0.1,0c0-0.1,0-0.1,0-0.1c0.1-0.1,0.2-0.1,0.2-0.2c0.1,0,0.2-0.1,0.1-0.2c0-0.1-0.1-0.1-0.2-0.1
		c-0.2,0-0.3,0-0.5,0c-0.1,0-0.2,0-0.2-0.1c0-0.3-0.2-0.6-0.3-1c0-0.1,0-0.2,0.1-0.3c0.1-0.2,0.2-0.2,0.4-0.1
		c0.1,0.1,0.2,0.1,0.3,0.2c0.3,0.2,0.5,0.2,0.8,0c0.2-0.1,0-0.2-0.1-0.2c-0.4-0.3-0.8-0.5-1.3-0.6c-0.2,0-0.2-0.2-0.3-0.3
		c0-0.2,0-0.3,0.2-0.4c0.1-0.1,0.1,0,0.2,0c0.1,0,0.3,0.1,0.5,0.1c-0.2-0.3-0.4-0.6-0.7-0.8c-0.2-0.1-0.2-0.2-0.1-0.4c0,0,0,0,0-0.1
		c0.4-0.5,0.4-0.5,0.9-0.1c0.1,0,0.1,0.1,0.2,0.1c0.1,0.1,0.2,0.2,0.2-0.1c0-0.3,0.1-0.3,0.3-0.2c0.3,0.2,0.4,0.4,0.4,0.7
		c0,0.2,0,0.4,0,0.6c0.2-0.2,0.2-0.4,0.3-0.6c0.1-0.2,0.3-0.4,0.5-0.4c0.2,0,0.5,0.3,0.5,0.5c0,0.2,0,0.4,0.1,0.7
		c0.3-0.1,0.4-0.3,0.6-0.5c0.2-0.2,0.3-0.3,0.6-0.1c0.1,0.1,0.3-0.1,0.3,0.1c0,0.1-0.1,0.2-0.1,0.3c0,0.1-0.1,0.2-0.1,0.3
		c0,0.1,0,0.3,0.2,0.3c0.1,0,0.1-0.1,0.2-0.2c0.1-0.1,0.1-0.3,0.3-0.2c0.2,0.1,0.4,0.4,0.3,0.6c0,0,0,0.1,0,0.1
		c0,0.1-0.1,0.2,0.1,0.2c0.1,0.1,0.2,0,0.2,0c0.1-0.1,0.2-0.3,0.3-0.3c0.1,0,0.1,0.3,0.2,0.4c0.1,0.2,0.1,0.4,0,0.6
		c-0.1,0.1,0,0.2,0,0.3c0.1,0.5,0.3,1,0.7,1.3c0.4,0.3,0.8,0.7,1.2,1c0.1,0.1,0.2,0.1,0.2,0c0.4-0.6,0.8-1.3,0.9-2
		c0.1-0.4,0.1-0.8,0.1-1.1c0-0.5-0.1-1.1-0.1-1.6c0-0.2,0-0.3-0.2-0.4c-0.4-0.4-0.8-0.7-1.1-1.1c-0.1-0.1-0.2-0.1-0.3,0
		c-0.3,0.3-0.6,0.6-0.8,0.9c-0.1,0.2-0.3,0.2-0.4,0.1c-0.2-0.1-0.3-0.1-0.5,0c-0.1,0.1-0.2,0.1-0.3,0.1c-0.1,0-0.2,0.1-0.3,0
		c-0.1-0.1,0-0.2,0.1-0.3c0.2-0.2,0.4-0.4,0.5-0.6c0.1-0.1,0.1-0.2,0-0.3c-0.4-0.2-0.4-0.2-0.7,0c-0.4,0.3-0.9,0.6-1.3,0.9
		c-0.2,0.2-0.3,0.1-0.4-0.1c-0.1-0.3,0-0.5,0.2-0.7c0.4-0.3,0.8-0.5,1.1-0.9c-0.3,0-0.5,0.1-0.7,0.2c-0.3,0.1-0.6,0.2-0.9,0.3
		c-0.1,0-0.2,0.1-0.3,0c-0.3-0.1-0.3-0.1-0.1-0.5c-0.4,0.2-0.7,0.1-1,0c0.3-0.3,0.5-0.6,0.9-0.9c0.2-0.1,0.4-0.1,0.6-0.2
		c0.4-0.1,0.8-0.2,1.2-0.3c0.1,0,0.2-0.1,0.2-0.3c0-0.2-0.2-0.1-0.3-0.1c-0.3,0-0.6,0-0.9,0.1c-0.2,0-0.3-0.1-0.5-0.2
		c-0.1,0,0-0.1,0-0.1c0.1-0.1,0.2-0.2,0.2-0.3c-0.1-0.1-0.2,0-0.3,0c-0.1,0-0.1,0-0.2-0.1c-0.1-0.1-0.2-0.2-0.3-0.3
		c0.1,0,0.2-0.1,0.4-0.1c0,0,0-0.1-0.1-0.1c-0.5-0.2-0.3-0.6-0.3-1c0-0.1,0.3-0.2,0.5-0.2c0.3,0.1,0.5-0.1,0.4-0.4
		c0-0.2-0.1-0.4-0.2-0.6c-0.1-0.3,0-0.4,0.3-0.4C25,107.1,25.3,107.1,25.5,107.2C25.6,107.2,25.6,107.2,25.5,107.2
		C25.6,107.2,25.6,107.2,25.5,107.2C25.6,107.2,25.6,107.2,25.5,107.2z M29.3,120.3c-0.6-0.1-1-0.1-1.3,0.2c-0.4,0.3-0.5,0.5-0.3,1
		c0.1,0.2,0.1,0.2,0.2,0.1C28.4,121.3,28.9,120.8,29.3,120.3z"/>
	<polygon class="st0" points="1.6,114.5 1.6,114.6 1.6,114.5 	"/>
	<path class="st0" d="M4.1,57.3c-0.1,0.1-0.1,0.2-0.1,0.3c0,0.2-0.2,0.3-0.3,0.2c-0.1,0-0.1,0-0.2,0.1C3.3,58,3.2,58,3,57.8
		c0-0.1-0.1-0.1-0.2-0.1c-0.2,0-0.3-0.1-0.2-0.3c0-0.1,0-0.1-0.1-0.1c-0.1,0.1-0.2,0-0.2-0.1c0,0,0-0.5,0-0.5c-0.1,0-0.1,0-0.2,0
		c-0.2,0-0.2-0.1-0.1-0.2c0,0,0.1-0.1,0-0.1c-0.2,0-0.1-0.1,0-0.2c0,0,0.1-0.1,0.1-0.1c0,0-0.2,0-0.2-0.1c0-0.1,0.1-0.1,0.1-0.2
		c0.1-0.1,0.3-0.2,0.4-0.3c0,0,0.1-0.1,0.1-0.1c-0.1-0.1-0.1-0.1-0.2,0c-0.3,0.2-0.3,0.2-0.4-0.2c0,0,0,0,0,0
		c-0.2-0.1-0.1-0.2,0-0.3c0,0,0,0,0.1-0.1c-0.1,0-0.2,0-0.2-0.1c0-0.1,0.1-0.1,0.1-0.2c0.1-0.1,0.2-0.2,0.3-0.3c0.1,0,0.1-0.1,0-0.1
		c-0.1,0-0.2,0-0.2-0.1c0-0.1,0.1-0.2,0.2-0.3c0.1,0,0.1-0.1,0.2-0.1c0,0,0.1-0.1,0.1-0.1c-0.1-0.2,0-0.2,0.1-0.3
		c0.3-0.2,0.7-0.4,0.9-0.9c0,0,0-0.1,0-0.1c-0.4,0.1-0.7,0.3-1,0.5c-0.2,0.1-0.2,0.4-0.3,0.6c-0.2,0.3-0.3,0.6-0.4,0.8
		c-0.2,0.3-0.2,0.6,0,0.9c0.1,0.2,0.2,0.3-0.1,0.5c0,0,0,0,0,0c0.1,0.2-0.1,0.4-0.1,0.6c0,0.1,0,0.1,0,0.2c-0.1,0.2-0.2,0.2-0.3,0
		C1.1,56.5,1,56.4,1,56.3c-0.1,0.1,0,0.2-0.1,0.3c0,0.1-0.1,0.2-0.2,0.4c-0.1,0.2-0.3,0.2-0.4,0c0,0,0-0.1-0.1-0.1
		c0,0.1-0.1,0.3-0.1,0.4c0,0.1,0,0.1-0.1,0.1c-0.1,0-0.2,0-0.2-0.1c0-0.1-0.1-0.1-0.1-0.2c-0.1,0.1-0.1,0.1-0.1,0.2
		c-0.1,0.1-0.2,0.2-0.3,0.1c-0.2-0.1-0.2-0.2-0.2-0.3c0-0.1,0-0.2-0.2-0.2c-0.1,0-0.2-0.3-0.1-0.4c0-0.1,0.1-0.1,0.1-0.1
		c-0.3-0.1-0.3-0.5-0.1-0.7c0.2-0.2,0.4-0.5,0.7-0.7c0.1-0.1,0.1-0.2,0.2-0.4c-0.2,0.1-0.3,0.2-0.5,0.3c0,0.1-0.1,0.1-0.1,0.2
		c-0.3,0.3-0.5,0.8-0.7,1.2c0,0.1-0.1,0.1-0.1,0.2c-0.1,0.1-0.2,0.1-0.2,0c-0.1-0.2-0.1,0-0.2,0c0,0,0,0.1-0.1,0.1c0,0,0,0.1,0,0.1
		c-0.1-0.1-0.3,0-0.5-0.1c-0.1-0.1-0.1-0.2,0-0.3c0.1-0.2-0.2-0.1-0.1-0.3c-0.1,0-0.1,0-0.1,0c-0.2,0.1-0.3,0.1-0.4-0.2
		c0,0,0-0.1,0-0.1c0-0.2,0-0.3-0.2-0.2c-0.1,0-0.1,0-0.1-0.1c0-0.2-0.1-0.2-0.2-0.3c-0.1-0.1,0-0.2,0-0.3c0-0.1,0.1-0.1,0-0.2
		c-0.1,0-0.2-0.1-0.1-0.2c0-0.1,0.1-0.1,0.2-0.1c0,0,0.1,0,0.1,0c-0.1-0.1-0.2-0.1-0.3-0.2C-3.9,54.2-4,54.1-4,54
		c0-0.1,0.1-0.1,0.2-0.1c0.2,0,0.5-0.1,0.7,0c0.1,0,0.2,0,0.3-0.1c-0.3,0-0.5,0-0.7-0.1c-0.1,0-0.2-0.1-0.2-0.3c0-0.1,0-0.1,0-0.1
		c0,0-0.1-0.1-0.1-0.1C-4,53-4,53-3.8,52.9c0,0,0.1,0,0.1-0.1c0-0.2,0.1-0.2,0.2-0.1c0.1,0,0.2,0.1,0.3,0.1c0-0.1,0-0.1,0-0.2
		c0-0.1,0-0.1,0.1-0.2c0.1-0.1,0.1,0,0.2,0c0.1,0,0.1,0.1,0.2,0c0.1,0,0.2-0.1,0.2-0.2c0-0.1-0.1-0.1-0.2-0.1
		C-3.1,52-3.1,52-2.9,51.8c-0.1-0.1-0.3-0.1-0.3-0.2c0-0.1,0-0.2,0.1-0.3c0.1-0.1,0.2-0.2,0.4-0.1c0,0,0,0,0,0
		c0-0.1-0.1-0.2,0.1-0.3c0.1-0.1,0.2,0.1,0.3,0.2c0.1,0.1,0.1,0.1,0.2,0.1c0-0.1-0.1-0.3,0-0.4c0-0.1,0.1-0.3,0.2-0.2
		c0,0,0.1,0,0.1,0c0.1-0.1,0.2,0,0.3,0.1c0.1,0.2,0.1,0.4,0.3,0.5c0-0.1-0.1-0.2-0.1-0.3c0-0.1,0-0.2,0-0.3c0-0.1,0.1-0.2,0.2-0.1
		c0,0,0,0,0.1,0c0.3-0.2,0.2,0.1,0.3,0.2c0,0,0,0.1,0.1,0.1c0.1,0,0-0.1,0.1-0.1c0-0.1,0.1-0.1,0.2-0.1c0.1,0,0.1,0.1,0.1,0.1
		c0.1,0.4,0.4,0.7,0.6,1c0.1,0.1,0.1,0.1,0.2,0.1c0.5,0.2,1,0.2,1.5,0.3c0.4,0.1,0.7-0.1,1.1-0.2c0.2-0.1,0.4-0.2,0.6-0.3
		c0-0.1-0.1-0.1-0.2-0.1c-0.6-0.1-1.2,0-1.8,0.2c-0.3,0.1-0.4,0-0.4-0.3c0-0.1,0-0.1-0.1-0.1c0,0-0.1,0-0.1,0.1
		c-0.3,0.1-0.3,0.1-0.4-0.1c0,0,0-0.1,0-0.1c-0.2,0.1-0.2-0.1-0.4-0.1c-0.1-0.1-0.2-0.2-0.3-0.3c0,0,0-0.1,0-0.1
		C0,50.4,0,50.3,0.1,50.1C0.1,50,0.1,50,0,50c-0.1,0-0.2,0-0.3-0.1c-0.1,0-0.1-0.1-0.1-0.1c0-0.2-0.1-0.2-0.2-0.2c0,0-0.1,0-0.1-0.1
		c0-0.1,0-0.3,0-0.4c0,0,0.1-0.1,0.1-0.1c0.1,0,0.1-0.1,0.1-0.2c0-0.1-0.1-0.1-0.1-0.1c-0.2,0-0.3-0.1-0.3-0.3c0-0.1,0-0.1,0-0.2
		c0-0.1,0-0.2,0.1-0.2c0.1,0,0.1-0.1,0.1-0.2c-0.1-0.1-0.1-0.2,0-0.3c0.1-0.1,0-0.2,0.1-0.3c0.1-0.2,0.2-0.3,0.4-0.2
		c0.1,0.1,0.2,0,0.2-0.1c0-0.2,0.1-0.3,0.3-0.2c0.1,0,0.1,0,0.1-0.1c0.1-0.2,0.2-0.2,0.3-0.1c0.1,0.1,0.1,0,0.2,0
		c0.1-0.1,0.2,0,0.2,0.1c0,0.1,0,0.1,0.1,0.1c0.1,0,0.1-0.1,0.1-0.1c0.1-0.2,0.1-0.3,0.3-0.3c0.1,0,0.1,0,0.1,0.1c0,0,0,0.1,0.1,0.1
		c0.2-0.1,0.2,0.1,0.2,0.2c0,0,0,0.1,0,0.1c0.1,0,0.1,0,0.1,0c0.2-0.1,0.2-0.1,0.2,0.1c0,0,0,0.1,0,0.1c-0.1,0.4,0.1,0.8,0.1,1.3
		c0,0,0,0.1,0.1,0.1c0-0.1,0-0.3,0-0.4c0-0.1,0-0.2,0-0.4c0,0,0-0.1,0.1-0.1c0.2,0,0.2-0.1,0.2-0.2c0-0.1,0-0.1,0.1-0.2
		c0.1-0.2,0.2-0.2,0.3-0.1c0.1,0.1,0.3,0.1,0.2,0.2c0,0,0,0,0,0c0.3,0,0.2,0.2,0.2,0.4c0,0.1,0,0.1,0.1,0.1c0.2-0.1,0.2,0,0.2,0.1
		c0,0.2-0.1,0.4-0.1,0.6c0,0.1,0,0.1,0,0.2c0.1,0,0.1,0,0.1,0c0.1,0,0.1-0.1,0.2,0c0,0.1,0.1,0.1,0,0.2c0,0.1,0,0.2-0.1,0.3
		c0,0.1-0.1,0.2,0.1,0.3c0.1,0,0.1,0.1,0.1,0.2c-0.1,0.2,0,0.4,0,0.7c0,0.4,0.4,0.6,0.8,0.4c0.6-0.4,1.3-0.7,1.9-1.1
		c0.3-0.2,0.6-0.3,0.9-0.5c0.1,0,0.2-0.1,0.2,0c0,0.1,0.2,0.2,0,0.3c-0.9,0.5-1.8,1-2.7,1.6c-0.2,0.1-0.3,0.2-0.5,0.3
		c-0.2,0.2-0.2,0.4,0,0.6c0.2,0.1,0.4,0.1,0.6,0.2c0.1,0,0.2,0,0.3,0.1c0.1,0,0.2,0,0.1,0.1c0,0,0,0.1,0,0.1c0.2,0,0.3,0.1,0.3,0.3
		c0,0.1,0.1,0.1,0.1,0.2C6.2,53,6.1,53,6,53c0.1,0.1,0.3,0.1,0.4,0.2c0,0,0.1,0,0.1,0c0.1,0,0.2,0.1,0.2,0.2c0,0.1-0.1,0.1-0.2,0.2
		c0.1,0,0.2,0,0.2,0.1c0.1,0,0.2,0.1,0.1,0.2c0,0.1,0,0.1,0,0.1c0,0.2,0.2,0.3-0.1,0.4c0,0,0,0,0,0c-0.1,0.3-0.2,0.1-0.4,0
		c-0.1,0-0.1-0.1-0.2-0.1c0,0,0,0.1,0,0.1c0,0.2-0.1,0.2-0.3,0.1c-0.2-0.1-0.3-0.2-0.5-0.3c-0.1,0-0.1-0.1-0.2,0
		c0.2,0.3,0.4,0.6,0.6,0.8c0.1,0.1,0.3,0.2,0.2,0.4c-0.1,0.2-0.3,0.1-0.4,0.1c0.1,0.1,0.2,0.3,0.3,0.4c0,0,0.1,0.1,0,0.1
		c0,0-0.1,0-0.1,0c-0.1,0-0.2,0-0.1,0.1c0,0.1,0,0.2-0.1,0.3c-0.1,0.1-0.2,0-0.3,0c-0.2-0.2-0.2,0.1-0.3,0.1c-0.1,0,0,0.1,0,0.2
		c0,0.1,0,0.1,0.1,0.2C5,57.1,5,57.1,4.8,57.1c-0.1,0-0.1,0-0.1,0.1c0,0.2,0,0.3-0.2,0.4C4.3,57.6,4.3,57.5,4.1,57.3
		C4.2,57.4,4.2,57.3,4.1,57.3z M-2,52.9c0.4,0.3,0.8,0.5,1.2,0.1C-1.2,52.9-1.6,52.8-2,52.9z"/>
	<path class="st0" d="M124.1,57.3c-0.1,0.1-0.1,0.2-0.1,0.3c0,0.2-0.2,0.3-0.3,0.2c-0.1,0-0.1,0-0.2,0.1c-0.2,0.2-0.4,0.2-0.5,0
		c0-0.1-0.1-0.1-0.2-0.1c-0.2,0-0.3-0.1-0.2-0.3c0-0.1,0-0.1-0.1-0.1c-0.1,0.1-0.2,0-0.2-0.1c0,0,0-0.5,0-0.5c-0.1,0-0.1,0-0.2,0
		c-0.2,0-0.2-0.1-0.1-0.2c0,0,0.1-0.1,0-0.1c-0.2,0-0.1-0.1,0-0.2c0,0,0.1-0.1,0.1-0.1c0,0-0.2,0-0.2-0.1c0-0.1,0.1-0.1,0.1-0.2
		c0.1-0.1,0.3-0.2,0.4-0.3c0,0,0.1-0.1,0.1-0.1c-0.1-0.1-0.1-0.1-0.2,0c-0.3,0.2-0.3,0.2-0.4-0.2c0,0,0,0,0,0
		c-0.2-0.1-0.1-0.2,0-0.3c0,0,0,0,0.1-0.1c-0.1,0-0.2,0-0.2-0.1c0-0.1,0.1-0.1,0.1-0.2c0.1-0.1,0.2-0.2,0.3-0.3c0.1,0,0.1-0.1,0-0.1
		c-0.1,0-0.2,0-0.2-0.1c0-0.1,0.1-0.2,0.2-0.3c0.1,0,0.1-0.1,0.2-0.1c0,0,0.1-0.1,0.1-0.1c-0.1-0.2,0-0.2,0.1-0.3
		c0.3-0.2,0.7-0.4,0.9-0.9c0,0,0-0.1,0-0.1c-0.4,0.1-0.7,0.3-1,0.5c-0.2,0.1-0.2,0.4-0.3,0.6c-0.2,0.3-0.3,0.6-0.4,0.8
		c-0.2,0.3-0.2,0.6,0,0.9c0.1,0.2,0.2,0.3-0.1,0.5c0,0,0,0,0,0c0.1,0.2-0.1,0.4-0.1,0.6c0,0.1,0,0.1,0,0.2c-0.1,0.2-0.2,0.2-0.3,0
		c-0.1-0.1-0.1-0.1-0.1-0.2c-0.1,0.1,0,0.2-0.1,0.3c0,0.1-0.1,0.2-0.2,0.4c-0.1,0.2-0.3,0.2-0.4,0c0,0,0-0.1-0.1-0.1
		c0,0.1-0.1,0.3-0.1,0.4c0,0.1,0,0.1-0.1,0.1c-0.1,0-0.2,0-0.2-0.1c0-0.1-0.1-0.1-0.1-0.2c-0.1,0.1-0.1,0.1-0.1,0.2
		c-0.1,0.1-0.2,0.2-0.3,0.1c-0.2-0.1-0.2-0.2-0.2-0.3c0-0.1,0-0.2-0.2-0.2c-0.1,0-0.2-0.3-0.1-0.4c0-0.1,0.1-0.1,0.1-0.1
		c-0.3-0.1-0.3-0.5-0.1-0.7c0.2-0.2,0.4-0.5,0.7-0.7c0.1-0.1,0.1-0.2,0.2-0.4c-0.2,0.1-0.3,0.2-0.5,0.3c0,0.1-0.1,0.1-0.1,0.2
		c-0.3,0.3-0.5,0.8-0.7,1.2c0,0.1-0.1,0.1-0.1,0.2c-0.1,0.1-0.2,0.1-0.2,0c-0.1-0.2-0.1,0-0.2,0c0,0,0,0.1-0.1,0.1c0,0,0,0.1,0,0.1
		c-0.1-0.1-0.3,0-0.5-0.1c-0.1-0.1-0.1-0.2,0-0.3c0.1-0.2-0.2-0.1-0.1-0.3c-0.1,0-0.1,0-0.1,0c-0.2,0.1-0.3,0.1-0.4-0.2
		c0,0,0-0.1,0-0.1c0-0.2,0-0.3-0.2-0.2c-0.1,0-0.1,0-0.1-0.1c0-0.2-0.1-0.2-0.2-0.3c-0.1-0.1,0-0.2,0-0.3c0-0.1,0.1-0.1,0-0.2
		c-0.1,0-0.2-0.1-0.1-0.2c0-0.1,0.1-0.1,0.2-0.1c0,0,0.1,0,0.1,0c-0.1-0.1-0.2-0.1-0.3-0.2c-0.1,0-0.2-0.1-0.1-0.2
		c0-0.1,0.1-0.1,0.2-0.1c0.2,0,0.5-0.1,0.7,0c0.1,0,0.2,0,0.3-0.1c-0.3,0-0.5,0-0.7-0.1c-0.1,0-0.2-0.1-0.2-0.3c0-0.1,0-0.1,0-0.1
		c0,0-0.1-0.1-0.1-0.1c-0.2-0.2-0.1-0.3,0.1-0.4c0,0,0.1,0,0.1-0.1c0-0.2,0.1-0.2,0.2-0.1c0.1,0,0.2,0.1,0.3,0.1c0-0.1,0-0.1,0-0.2
		c0-0.1,0-0.1,0.1-0.2c0.1-0.1,0.1,0,0.2,0c0.1,0,0.1,0.1,0.2,0c0.1,0,0.2-0.1,0.2-0.2c0-0.1-0.1-0.1-0.2-0.1
		c-0.3-0.1-0.3-0.2-0.1-0.4c-0.1-0.1-0.3-0.1-0.3-0.2c0-0.1,0-0.2,0.1-0.3c0.1-0.1,0.2-0.2,0.4-0.1c0,0,0,0,0,0
		c0-0.1-0.1-0.2,0.1-0.3c0.1-0.1,0.2,0.1,0.3,0.2c0.1,0.1,0.1,0.1,0.2,0.1c0-0.1-0.1-0.3,0-0.4c0-0.1,0.1-0.3,0.2-0.2
		c0,0,0.1,0,0.1,0c0.1-0.1,0.2,0,0.3,0.1c0.1,0.2,0.1,0.4,0.3,0.5c0-0.1-0.1-0.2-0.1-0.3c0-0.1,0-0.2,0-0.3c0-0.1,0.1-0.2,0.2-0.1
		c0,0,0,0,0.1,0c0.3-0.2,0.2,0.1,0.3,0.2c0,0,0,0.1,0.1,0.1c0.1,0,0-0.1,0.1-0.1c0-0.1,0.1-0.1,0.2-0.1c0.1,0,0.1,0.1,0.1,0.1
		c0.1,0.4,0.4,0.7,0.6,1c0.1,0.1,0.1,0.1,0.2,0.1c0.5,0.2,1,0.2,1.5,0.3c0.4,0.1,0.7-0.1,1.1-0.2c0.2-0.1,0.4-0.2,0.6-0.3
		c0-0.1-0.1-0.1-0.2-0.1c-0.6-0.1-1.2,0-1.8,0.2c-0.3,0.1-0.4,0-0.4-0.3c0-0.1,0-0.1-0.1-0.1c0,0-0.1,0-0.1,0.1
		c-0.3,0.1-0.3,0.1-0.4-0.1c0,0,0-0.1,0-0.1c-0.2,0.1-0.2-0.1-0.4-0.1c-0.1-0.1-0.2-0.2-0.3-0.3c0,0,0-0.1,0-0.1
		c0.2-0.1,0.2-0.3,0.2-0.4c0-0.1,0-0.1-0.1-0.1c-0.1,0-0.2,0-0.3-0.1c-0.1,0-0.1-0.1-0.1-0.1c0-0.2-0.1-0.2-0.2-0.2
		c0,0-0.1,0-0.1-0.1c0-0.1,0-0.3,0-0.4c0,0,0.1-0.1,0.1-0.1c0.1,0,0.1-0.1,0.1-0.2c0-0.1-0.1-0.1-0.1-0.1c-0.2,0-0.3-0.1-0.3-0.3
		c0-0.1,0-0.1,0-0.2c0-0.1,0-0.2,0.1-0.2c0.1,0,0.1-0.1,0.1-0.2c-0.1-0.1-0.1-0.2,0-0.3c0.1-0.1,0-0.2,0.1-0.3
		c0.1-0.2,0.2-0.3,0.4-0.2c0.1,0.1,0.2,0,0.2-0.1c0-0.2,0.1-0.3,0.3-0.2c0.1,0,0.1,0,0.1-0.1c0.1-0.2,0.2-0.2,0.3-0.1
		c0.1,0.1,0.1,0,0.2,0c0.1-0.1,0.2,0,0.2,0.1c0,0.1,0,0.1,0.1,0.1c0.1,0,0.1-0.1,0.1-0.1c0.1-0.2,0.1-0.3,0.3-0.3
		c0.1,0,0.1,0,0.1,0.1c0,0,0,0.1,0.1,0.1c0.2-0.1,0.2,0.1,0.2,0.2c0,0,0,0.1,0,0.1c0.1,0,0.1,0,0.1,0c0.2-0.1,0.2-0.1,0.2,0.1
		c0,0,0,0.1,0,0.1c-0.1,0.4,0.1,0.8,0.1,1.3c0,0,0,0.1,0.1,0.1c0-0.1,0-0.3,0-0.4c0-0.1,0-0.2,0-0.4c0,0,0-0.1,0.1-0.1
		c0.2,0,0.2-0.1,0.2-0.2c0-0.1,0-0.1,0.1-0.2c0.1-0.2,0.2-0.2,0.3-0.1c0.1,0.1,0.3,0.1,0.2,0.2c0,0,0,0,0,0c0.3,0,0.2,0.2,0.2,0.4
		c0,0.1,0,0.1,0.1,0.1c0.2-0.1,0.2,0,0.2,0.1c0,0.2-0.1,0.4-0.1,0.6c0,0.1,0,0.1,0,0.2c0.1,0,0.1,0,0.1,0c0.1,0,0.1-0.1,0.2,0
		c0,0.1,0.1,0.1,0,0.2c0,0.1,0,0.2-0.1,0.3c0,0.1-0.1,0.2,0.1,0.3c0.1,0,0.1,0.1,0.1,0.2c-0.1,0.2,0,0.4,0,0.7
		c0,0.4,0.4,0.6,0.8,0.4c0.6-0.4,1.3-0.7,1.9-1.1c0.3-0.2,0.6-0.3,0.9-0.5c0.1,0,0.2-0.1,0.2,0c0,0.1,0.2,0.2,0,0.3
		c-0.9,0.5-1.8,1-2.7,1.6c-0.2,0.1-0.3,0.2-0.5,0.3c-0.2,0.2-0.2,0.4,0,0.6c0.2,0.1,0.4,0.1,0.6,0.2c0.1,0,0.2,0,0.3,0.1
		c0.1,0,0.2,0,0.1,0.1c0,0,0,0.1,0,0.1c0.2,0,0.3,0.1,0.3,0.3c0,0.1,0.1,0.1,0.1,0.2c-0.1,0-0.2,0-0.3,0.1c0.1,0.1,0.3,0.1,0.4,0.2
		c0,0,0.1,0,0.1,0c0.1,0,0.2,0.1,0.2,0.2c0,0.1-0.1,0.1-0.2,0.2c0.1,0,0.2,0,0.2,0.1c0.1,0,0.2,0.1,0.1,0.2c0,0.1,0,0.1,0,0.1
		c0,0.2,0.2,0.3-0.1,0.4c0,0,0,0,0,0c-0.1,0.3-0.2,0.1-0.4,0c-0.1,0-0.1-0.1-0.2-0.1c0,0,0,0.1,0,0.1c0,0.2-0.1,0.2-0.3,0.1
		c-0.2-0.1-0.3-0.2-0.5-0.3c-0.1,0-0.1-0.1-0.2,0c0.2,0.3,0.4,0.6,0.6,0.8c0.1,0.1,0.3,0.2,0.2,0.4c-0.1,0.2-0.3,0.1-0.4,0.1
		c0.1,0.1,0.2,0.3,0.3,0.4c0,0,0.1,0.1,0,0.1c0,0-0.1,0-0.1,0c-0.1,0-0.2,0-0.1,0.1c0,0.1,0,0.2-0.1,0.3c-0.1,0.1-0.2,0-0.3,0
		c-0.2-0.2-0.2,0.1-0.3,0.1c-0.1,0,0,0.1,0,0.2c0,0.1,0,0.1,0.1,0.2c0.1,0.2,0.1,0.2-0.1,0.2c-0.1,0-0.1,0-0.1,0.1
		c0,0.2,0,0.3-0.2,0.4C124.3,57.6,124.3,57.5,124.1,57.3C124.2,57.4,124.2,57.3,124.1,57.3z M118,52.9c0.4,0.3,0.8,0.5,1.2,0.1
		C118.8,52.9,118.4,52.8,118,52.9z"/>
	<path class="st0" d="M25.5-12.8c0-0.1,0-0.1-0.1-0.2c-0.2-0.4,0.1-0.8,0.5-0.9c0.2,0,0.3,0.1,0.4,0.2c0-0.1,0.1-0.2,0.1-0.3
		c0.2,0.1,0.3,0.3,0.5,0.4c0.1,0.1,0.2,0.1,0.2,0c0.1-0.1,0.2-0.2,0.2-0.3c0.1-0.2,0.2-0.1,0.3,0c0.1,0.1,0.2,0.2,0.3,0.3
		c0.2,0.2,0.3,0.1,0.4-0.1c0.1-0.2,0.3-0.3,0.5-0.3c0.2,0,0.3,0.2,0.3,0.4c0,0.2,0,0.5,0,0.7c0.2,0,0.3-0.1,0.4-0.2
		c0.2-0.1,0.4,0,0.5,0.2c0,0.2,0,0.5-0.1,0.7c-0.1,0.4-0.3,0.8-0.4,1.3c0,0.1,0,0.2,0,0.2c0.2,0.7,0.4,1.3,0.6,2
		c0.1-0.5,0.2-1,0.3-1.5c0-0.2,0-0.3-0.1-0.5C30.2-10.8,30-11,30-11.2c0-0.2,0-0.4,0.2-0.4c0.1,0,0.1-0.1,0.1-0.2
		c0-0.1,0-0.2-0.1-0.3c-0.1-0.2-0.1-0.4,0.2-0.3c0.1,0,0.1-0.1,0.1-0.2c0-0.1,0-0.2,0.1-0.3c0.1,0,0.1,0.1,0.2,0.1
		c0.1,0,0.1,0.1,0.2,0.2c0-0.2-0.1-0.4-0.1-0.6c0-0.2,0-0.3,0.2-0.4c0.1-0.1,0.2,0,0.3,0.1c0.2,0,0.2,0.2,0.4,0.3
		c0-0.1,0.1-0.2,0.1-0.3c0.1-0.3,0.4-0.5,0.8-0.5C33-14,33-14,33-13.7c0,0.2,0,0.4,0.3,0.4c0.1,0,0.3,0,0.4,0.1
		c0.1,0.1-0.1,0.2-0.2,0.3c-0.1,0.2-0.3,0.3-0.5,0.5c0.1,0.1,0.2,0,0.3,0c0.6,0,0.7,0.4,0.5,0.9c-0.1,0.2-0.3,0.4-0.5,0.6
		c-0.2,0.2-0.3,0.3-0.6,0.5c0.3,0,0.6-0.1,0.8-0.1c0.1,0,0.3-0.1,0.2,0.1c0,0.2,0.2,0.4-0.1,0.5c-0.3,0.1-0.4,0.2-0.5,0.6
		c0,0.3-0.1,0.5-0.1,0.8c0,0.1-0.1,0.2-0.2,0.3c-0.2,0.2-0.4,0.4-0.7,0.6c-0.2,0.1-0.3,0-0.5,0c-0.2,0-0.3,0-0.3,0.3
		c-0.1,0.8-0.2,1.6-0.3,2.4c0,0.6,0,1.2,0,1.7c0,0.5-0.1,0.9-0.2,1.4C31-1.4,30.8-1,30.6-0.5c0.5-0.1,0.8-0.4,1.1-0.7
		c0.5-0.6,0.6-1.3,0.5-2.1c0-0.2-0.1-0.5,0.2-0.6c0.1-0.1,0.1-0.2,0.1-0.4c0-0.1-0.1-0.2,0.1-0.3c0.2,0,0.3,0,0.5,0.1
		c0.1,0,0,0.2,0.2,0.1c0.1-0.1,0.1-0.2,0.1-0.3c-0.2-0.5-0.1-1-0.2-1.5c0-0.2,0.3-0.2,0.5-0.1c0,0,0.1,0.1,0.1,0.1
		c0,0.1,0,0.1,0.1,0.2c0-0.1,0-0.2-0.1-0.2c0,0,0,0,0,0c0-0.1-0.2-0.3-0.1-0.4c0.1-0.2,0.3-0.3,0.5-0.5c0.1-0.1,0.5,0.1,0.6,0.3
		C34.9-6.6,35-6.3,34.8-6c-0.2,0.4-0.1,0.8,0,1.1c0,0.1,0.1,0.1,0.1,0C35-4.9,35.1-5,35.1-5.2c0-0.2,0-0.4,0.1-0.6
		c0.1-0.4,0-0.7-0.2-1C35-7,35.1-7.6,35.2-7.7c0.2-0.1,0.3,0,0.4,0.1c0,0,0.1,0.1,0.1,0.1c0.1,0,0.1-0.1,0.1-0.1
		C35.7-8,36-8.1,36.3-8.2c0.4-0.2,0.4-0.2,0.6,0.2c0.2,0.4,0.2,0.7,0,1.1c0,0.1-0.1,0.2-0.1,0.4c0.2-0.2,0.3-0.4,0.5-0.6
		c0.2-0.3,0.4-0.5,0.5-0.7C37.9-7.9,38-8,38-8c0.1,0,0.2-0.1,0.3,0c0.1,0.1,0,0.2,0,0.3c0,0.1-0.1,0.3-0.1,0.5
		c0.2-0.1,0.3-0.2,0.5-0.3c0.1-0.1,0.3-0.1,0.3,0c0.1,0.1,0.2,0.3,0.2,0.5c0,0,0,0.1-0.1,0.1c-0.2,0.1-0.1,0.2-0.1,0.3
		c0.1,0.1,0.1,0.2-0.1,0.3c-0.3,0.2-0.6,0.3-0.8,0.6c0.2,0,0.4,0,0.6-0.1c0.2,0,0.4,0.1,0.5,0.2c0.1,0.2,0,0.4-0.1,0.5
		C39.1-5,39-4.9,38.7-4.8c-0.3,0.1-0.6,0.2-0.9,0.3c-0.2,0.1-0.4,0.2-0.5,0.4c0.3-0.1,0.6-0.2,0.9-0.3c0.3-0.1,0.8,0.1,0.9,0.3
		c0.1,0.2,0.1,0.4-0.1,0.6c-0.1,0.1-0.1,0.2,0,0.3C39.2-3.1,39.1-3,39-3c-0.2,0.1-0.3,0.2-0.5,0.2c-0.1,0-0.3,0-0.4,0c0,0,0,0,0,0.1
		c0.3,0.4,0.3,0.3-0.2,0.6c-0.4,0.2-0.8,0.2-1.1,0c-0.1-0.1-0.2-0.1-0.4,0c-0.7,0.2-1.4,0.4-2,0.7c-0.1,0-0.2,0-0.1,0.1
		c0,0.1,0.1,0,0.2,0c0.1,0,0.2,0,0.3,0c0.5-0.1,0.8,0.2,1.1,0.5c0.5,0.5,0.7,1.1,1,1.6c0,0.1,0.1,0.2,0.1,0.3
		c0.2,0.4,0.2,0.4-0.2,0.6c0,0-0.1,0-0.1,0c-0.2,0.2-0.4,0.2-0.6-0.1c-0.2-0.3-0.4,0-0.6,0l0,0c0.2-0.4,0.1-0.7-0.2-1
		c-0.1,0-0.1-0.2-0.2-0.1c-0.1,0-0.1,0.1-0.1,0.2c0,0.2,0.1,0.5-0.1,0.7c-0.2,0.2-0.2,0.2-0.4,0c-0.1-0.1-0.2-0.2-0.3-0.3
		c-0.2-0.2-0.3-0.3-0.6-0.3c-0.5,0-1-0.1-1.4-0.3c-0.3-0.2-0.6-0.1-1-0.1c-0.3,0-0.7-0.1-0.9,0c-0.3,0.1-0.4,0.4-0.6,0.6
		c-0.7,0.7-1.5,1.2-2.3,1.7c-0.9,0.5-1.7,1.1-2.5,1.8c-0.3,0.3-0.8,0.5-1.1,0.2c0.4-0.4,1-0.7,1.4-1c0.7-0.5,1.4-1,2.2-1.5
		c0.3-0.2,0.3-0.2,0.1-0.6C27,1.8,26.9,2,26.8,2.2c0,0.1-0.1,0.2-0.2,0.1c-0.1,0-0.1-0.1-0.1-0.2c0-0.2,0-0.4,0-0.6
		C26.3,1.6,26.2,1.9,26,2c-0.2,0.2-0.4,0.4-0.7,0.5c-0.1,0.1-0.2,0.2-0.3,0c0-0.1-0.1-0.1-0.2,0c-0.1,0.1-0.2,0.3-0.4,0.5
		c0-0.2-0.1-0.4-0.1-0.5c0,0,0-0.1,0-0.1c0,0,0,0-0.1,0c-0.1,0-0.2,0.1-0.4,0.1c-0.1,0-0.2,0.1-0.3,0c-0.1-0.1,0-0.3,0-0.3
		c0.2-0.2,0.1-0.3,0-0.4c-0.2-0.2-0.1-0.3,0.1-0.4C24,1.2,24.3,1.2,24.6,1c0,0,0.1,0,0.1-0.1c-0.1-0.1-0.3-0.1-0.4-0.1
		c-0.1,0-0.1-0.1-0.1-0.2c0.2-0.2,0.3-0.5,0.5-0.7c0-0.1,0.1-0.1,0.2-0.1c0.5,0.1,0.9-0.2,1.3-0.3c-0.1-0.1-0.3-0.1-0.4-0.2
		c-0.4-0.1-0.8-0.2-1.2-0.3c-0.3-0.1-0.5,0-0.8,0.1c-0.2,0.1-0.5,0.2-0.7,0.1c-0.1,0-0.2,0-0.1-0.2c0.1-0.2,0-0.2-0.1-0.2
		c-0.2,0-0.3,0-0.5,0c0,0-0.1,0-0.1,0c0-0.1,0-0.1,0-0.1c0.1-0.1,0.2-0.1,0.2-0.2c0.1,0,0.2-0.1,0.1-0.2c0-0.1-0.1-0.1-0.2-0.1
		c-0.2,0-0.3,0-0.5,0c-0.1,0-0.2,0-0.2-0.1c0-0.3-0.2-0.6-0.3-1c0-0.1,0-0.2,0.1-0.3c0.1-0.2,0.2-0.2,0.4-0.1
		C21.9-3.2,22-3.1,22.1-3c0.3,0.2,0.5,0.2,0.8,0c0.2-0.1,0-0.2-0.1-0.2c-0.4-0.3-0.8-0.5-1.3-0.6c-0.2,0-0.2-0.2-0.3-0.3
		c0-0.2,0-0.3,0.2-0.4c0.1-0.1,0.1,0,0.2,0c0.1,0,0.3,0.1,0.5,0.1c-0.2-0.3-0.4-0.6-0.7-0.8c-0.2-0.1-0.2-0.2-0.1-0.4c0,0,0,0,0-0.1
		c0.4-0.5,0.4-0.5,0.9-0.1c0.1,0,0.1,0.1,0.2,0.1c0.1,0.1,0.2,0.2,0.2-0.1c0-0.3,0.1-0.3,0.3-0.2c0.3,0.2,0.4,0.4,0.4,0.7
		c0,0.2,0,0.4,0,0.6c0.2-0.2,0.2-0.4,0.3-0.6c0.1-0.2,0.3-0.4,0.5-0.4c0.2,0,0.5,0.3,0.5,0.5c0,0.2,0,0.4,0.1,0.7
		C25-4.6,25.2-4.8,25.3-5c0.2-0.2,0.3-0.3,0.6-0.1C26-5,26.2-5.1,26.3-4.9c0,0.1-0.1,0.2-0.1,0.3c0,0.1-0.1,0.2-0.1,0.3
		c0,0.1,0,0.3,0.2,0.3c0.1,0,0.1-0.1,0.2-0.2c0.1-0.1,0.1-0.3,0.3-0.2C26.9-4.4,27-4,27-3.9c0,0,0,0.1,0,0.1c0,0.1-0.1,0.2,0.1,0.2
		c0.1,0.1,0.2,0,0.2,0c0.1-0.1,0.2-0.3,0.3-0.3c0.1,0,0.1,0.3,0.2,0.4c0.1,0.2,0.1,0.4,0,0.6c-0.1,0.1,0,0.2,0,0.3
		c0.1,0.5,0.3,1,0.7,1.3c0.4,0.3,0.8,0.7,1.2,1c0.1,0.1,0.2,0.1,0.2,0c0.4-0.6,0.8-1.3,0.9-2c0.1-0.4,0.1-0.8,0.1-1.1
		c0-0.5-0.1-1.1-0.1-1.6c0-0.2,0-0.3-0.2-0.4c-0.4-0.4-0.8-0.7-1.1-1.1c-0.1-0.1-0.2-0.1-0.3,0c-0.3,0.3-0.6,0.6-0.8,0.9
		c-0.1,0.2-0.3,0.2-0.4,0.1c-0.2-0.1-0.3-0.1-0.5,0c-0.1,0.1-0.2,0.1-0.3,0.1c-0.1,0-0.2,0.1-0.3,0c-0.1-0.1,0-0.2,0.1-0.3
		c0.2-0.2,0.4-0.4,0.5-0.6c0.1-0.1,0.1-0.2,0-0.3c-0.4-0.2-0.4-0.2-0.7,0c-0.4,0.3-0.9,0.6-1.3,0.9C25.2-5.7,25.1-5.7,25-6
		c-0.1-0.3,0-0.5,0.2-0.7c0.4-0.3,0.8-0.5,1.1-0.9c-0.3,0-0.5,0.1-0.7,0.2C25.3-7.2,25-7.1,24.6-7c-0.1,0-0.2,0.1-0.3,0
		C24-7.1,24-7.1,24.2-7.4c-0.4,0.2-0.7,0.1-1,0c0.3-0.3,0.5-0.6,0.9-0.9c0.2-0.1,0.4-0.1,0.6-0.2c0.4-0.1,0.8-0.2,1.2-0.3
		c0.1,0,0.2-0.1,0.2-0.3c0-0.2-0.2-0.1-0.3-0.1c-0.3,0-0.6,0-0.9,0.1c-0.2,0-0.3-0.1-0.5-0.2c-0.1,0,0-0.1,0-0.1
		c0.1-0.1,0.2-0.2,0.2-0.3c-0.1-0.1-0.2,0-0.3,0c-0.1,0-0.1,0-0.2-0.1c-0.1-0.1-0.2-0.2-0.3-0.3c0.1,0,0.2-0.1,0.4-0.1
		c0,0,0-0.1-0.1-0.1c-0.5-0.2-0.3-0.6-0.3-1c0-0.1,0.3-0.2,0.5-0.2c0.3,0.1,0.5-0.1,0.4-0.4c0-0.2-0.1-0.4-0.2-0.6
		c-0.1-0.3,0-0.4,0.3-0.4C25-12.9,25.3-12.9,25.5-12.8C25.6-12.8,25.6-12.8,25.5-12.8C25.6-12.8,25.6-12.8,25.5-12.8
		C25.6-12.8,25.6-12.8,25.5-12.8z M29.3,0.3c-0.6-0.1-1-0.1-1.3,0.2c-0.4,0.3-0.5,0.5-0.3,1c0.1,0.2,0.1,0.2,0.2,0.1
		C28.4,1.3,28.9,0.8,29.3,0.3z"/>
</g>
</svg>
