<?xml version="1.0" encoding="utf-8"?>
<!-- Generator: Adobe Illustrator 22.0.1, SVG Export Plug-In . SVG Version: 6.00 Build 0)  -->
<svg version="1.1" id="Layer_1" xmlns="http://www.w3.org/2000/svg" xmlns:xlink="http://www.w3.org/1999/xlink" x="0px" y="0px"
	 viewBox="0 0 108.6 144" style="enable-background:new 0 0 108.6 144;" xml:space="preserve">
<style type="text/css">
	.st0{fill:#F5C885;}
	.st1{fill:#F5C886;}
	.st2{fill:#FAAF31;}
	.st3{fill:#FAAF2F;}
	.st4{fill:#F3B02A;}
	.st5{fill:#FAAF2D;}
	.st6{fill:#FBC46E;}
	.st7{fill:#FCBB56;}
	.st8{fill:#FBBC5A;}
	.st9{fill:#FCEACB;}
	.st10{fill:#FAD092;}
	.st11{fill:#FCC062;}
	.st12{fill:#FCC877;}
	.st13{fill:#FBB541;}
	.st14{fill:#F9D39A;}
	.st15{fill:#FDECCF;}
	.st16{fill:#FBC169;}
	.st17{fill:#FBB84A;}
	.st18{fill:#F9D6A0;}
	.st19{fill:#FDEDD1;}
	.st20{fill:#FBB953;}
	.st21{fill:#FCC672;}
	.st22{fill:#FBBA50;}
	.st23{fill:#FBBD60;}
	.st24{fill:#F8C77E;}
	.st25{fill:#F5A55C;}
	.st26{fill:#F59B36;}
	.st27{fill:#FCF0DD;}
</style>
<g>
	<g>
		<path class="st2" d="M84.6,54.9c0.9,0.8,1,1.9,1,3c-1.9-0.2-3.2-1.5-4.4-2.8c-1.2-1.3-2.2-2.9-4.4-2.2c-0.1-0.3-0.2-0.6-0.3-0.9
			c-0.3-1.2-1-1.9-2.2-2c-3.5-2.1-6.9-4.6-11.2-5C56,44.4,48.9,42.5,41.6,43c-7.2-2.7-13.2,1.8-12.6,9.4c0.4,5.4,2.5,10.3,4.7,15.2
			c-2.1,1.3-1.9,3.5-2.1,5.5c-1.8-5.8-4.1-11.5-5-17.6c-1.7-11.8,4-18.6,15.8-18.3c10.7,0.3,21.6,0.2,31.4,5.8c3.8,2.1,7,5,8.9,9
			C82.8,53.2,83.4,54.2,84.6,54.9z"/>
		<path class="st5" d="M73.5,99.9c-8.2,6.3-18.1,8.9-27.8,11.8c-4.6,1.3-9.5-2-11.5-6.6c-2.9-6.8-2.9-13.9-2.5-21.1
			c2.6,1.3,1.6,6.1,5.6,6.1c0,3.8,0.5,7.6,1.8,11.2c1.4,3.9,3.8,5.6,8.1,3.8c3.8-1.7,7.9-2.5,11.9-3.3c2.6,0.8,5.1,0.9,7.4-1.1
			C68.8,98.7,71.1,98.6,73.5,99.9z"/>
		<path class="st13" d="M73.5,99.9c-2.4-1.2-4.7-1.1-6.8,0.7c-2.2,2-4.7,1.9-7.4,1.1c0.8-1.3,2.1-1.4,3.3-1.9
			c7.1-3.2,13.5-7.3,17.1-14.5c5.6-11.3,3.9-22.1-2.8-32.4c2.2-0.8,3.2,0.8,4.4,2.2c1.2,1.3,2.5,2.6,4.4,2.8c0,0,0,0,0,0
			c0.1,5.2-0.3,10.4,2.8,15.1c0,1-0.1,2-0.1,3c-3,2.4-2.3,5.9-2.6,9.1C83.9,91.8,79.3,96.3,73.5,99.9z"/>
		<path class="st17" d="M37.5,90c-4.1,0-3-4.8-5.6-6.1c-0.1-3.6-0.2-7.2-0.2-10.9c0.2-2,0-4.2,2.1-5.5c1.3,0.7,0.9,2.1,1.3,3.1
			c-0.2,1.9,1.2,2.3,2.6,2.6C37.5,78.9,37.5,84.4,37.5,90z"/>
		<path class="st2" d="M88.5,72.9c-3.1-4.6-2.7-9.9-2.8-15.1C89,62.5,88.8,67.7,88.5,72.9z"/>
		<path class="st2" d="M85.8,85c0.3-3.2-0.4-6.7,2.6-9.1C88.6,79.2,87.8,82.3,85.8,85z"/>
		<path class="st26" d="M84.6,54.9c-1.2-0.7-1.8-1.7-2-3.1C83.9,52.5,84.5,53.6,84.6,54.9z"/>
		<path class="st0" d="M37.5,90c0-5.6,0-11.1,0.1-16.7c0-0.5,0.1-0.9,0.1-1.4c-0.3-9.9-1.9-19.9,4-29c7.3-0.5,14.4,1.4,21.6,2.1
			c4.3,0.4,7.7,2.8,11.2,5c0.4,1,1.1,1.7,2.2,2c0.1,0.3,0.2,0.6,0.3,0.9c6.8,10.3,8.5,21.1,2.8,32.4c-3.6,7.2-10,11.3-17.1,14.5
			c-1.2,0.5-2.6,0.7-3.3,1.9c-4.1,0.8-8.1,1.6-11.9,3.3c-4.2,1.9-6.7,0.1-8.1-3.8C38,97.6,37.5,93.8,37.5,90z M65,93.8
			c3.2-1.2,6.5-2.4,9-4.9c1.4-1.4,1.9-3.1,1.2-4.9c-0.7-1.8-2.3-2.2-4.1-2.1c-1.2,0.1-2.3,0.2-3.5,0.3c0.8-5-2.3-9.5-1.6-14.5
			c0.4-1.4,0.4-3.9,1.1-4.1c6.6-2,2.8-6.2,2.3-9.6c-0.8-2.6-2.8-3.6-5.2-3.8c-5.4-0.5-10.8-0.9-16.3-1.2c-2.2-0.1-5.1-0.6-5.3,2.8
			c-0.2,4.2-0.6,8.6,1.9,12.4c0.1,0.2,1.1,0.2,1.3,0c1.8-2.3,2.3,1,3.5,0.8c0.7,4.3,1.4,8.7,2.1,13c-0.4,1.1-0.6,3-1.1,3.1
			c-7.2,1.6-3.5,6.7-3,10.1c0.9,5.7,3.8,6.9,9.5,5.1C59.6,95.5,62,93.6,65,93.8z"/>
		<path class="st15" d="M41.6,43c-5.9,9-4.3,19.1-4,29c-0.9-0.4-1.8-0.8-2.6-1.2c-0.5-1-0.1-2.4-1.3-3.1c-2.2-4.9-4.2-9.8-4.7-15.2
			C28.4,44.8,34.4,40.3,41.6,43z"/>
		<path class="st13" d="M76.6,52c-1.1-0.3-1.7-1-2.2-2C75.6,50.1,76.3,50.8,76.6,52z"/>
		<path class="st10" d="M35,70.7c0.9,0.4,1.8,0.8,2.6,1.2c0,0.5-0.1,0.9-0.1,1.4C36.1,73,34.8,72.6,35,70.7z"/>
		<path class="st8" d="M51.7,54.9c-2.3-0.2-3.4,0.7-3,3.2c0.3,2.3,0.5,4.6,0.8,6.8c-1.3,0.2-1.7-3.1-3.5-0.8c-0.2,0.2-1.2,0.2-1.3,0
			c-2.6-3.8-2.2-8.2-1.9-12.4c0.2-3.4,3.1-2.9,5.3-2.8c5.4,0.3,10.8,0.7,16.3,1.2c2.4,0.2,4.5,1.2,5.2,3.8c-1.4,1.7-2.7,1.4-4.6,0.6
			C60.5,52.9,56,51.2,51.7,54.9z"/>
		<path class="st16" d="M51.6,77.9c1.6,2.5,0.9,5.4,1.1,8.2c0.3,4.6,1.1,5.1,5.4,3.3c3.2-1.4,6.2-3,8.6-5.5c0.4,3.5-2.6,6.4-1.7,10
			c-3-0.2-5.3,1.7-8,2.5c-5.7,1.8-8.6,0.6-9.5-5.1c-0.5-3.4-4.2-8.5,3-10.1C51,81,51.2,79,51.6,77.9z"/>
		<path class="st16" d="M51.7,54.9c4.3-3.7,8.9-2,13.2-0.3c2,0.8,3.3,1.1,4.6-0.6c0.5,3.5,4.3,7.7-2.3,9.6c-0.7,0.2-0.8,2.7-1.1,4.1
			c-1.7-2.2-1.4-4.8-1.4-7.2c0-3-1.2-4.2-4.1-4.4C57.6,55.9,54.6,55.3,51.7,54.9z"/>
		<path class="st9" d="M65,93.8c-0.9-3.6,2.1-6.5,1.7-10c0.3-0.6,0.7-1.2,1-1.7c1.1-0.1,2.3-0.2,3.5-0.3c1.8-0.1,3.3,0.3,4.1,2.1
			c0.8,1.9,0.3,3.5-1.2,4.9C71.5,91.4,68.2,92.6,65,93.8z"/>
	</g>
</g>
</svg>
