<?xml version="1.0" encoding="utf-8"?>
<!-- Generator: Adobe Illustrator 22.0.1, SVG Export Plug-In . SVG Version: 6.00 Build 0)  -->
<svg version="1.1" id="Layer_1" xmlns="http://www.w3.org/2000/svg" xmlns:xlink="http://www.w3.org/1999/xlink" x="0px" y="0px"
	 viewBox="0 0 66.9 144" style="enable-background:new 0 0 66.9 144;" xml:space="preserve">
<style type="text/css">
	.st0{fill:#F5C885;}
	.st1{fill:#F5C886;}
	.st2{fill:#FAAF31;}
	.st3{fill:#FAAF2F;}
	.st4{fill:#F3B02A;}
	.st5{fill:#FAAF2D;}
	.st6{fill:#FBC46E;}
	.st7{fill:#FCBB56;}
	.st8{fill:#FBBC5A;}
	.st9{fill:#FCEACB;}
	.st10{fill:#FAD092;}
	.st11{fill:#FCC062;}
	.st12{fill:#FCC877;}
	.st13{fill:#FBB541;}
	.st14{fill:#F9D39A;}
	.st15{fill:#FDECCF;}
	.st16{fill:#FBC169;}
	.st17{fill:#FBB84A;}
	.st18{fill:#F9D6A0;}
	.st19{fill:#FDEDD1;}
	.st20{fill:#FBB953;}
	.st21{fill:#FCC672;}
	.st22{fill:#FBBA50;}
	.st23{fill:#FBBD60;}
	.st24{fill:#F8C77E;}
	.st25{fill:#F5A55C;}
	.st26{fill:#F59B36;}
	.st27{fill:#FCF0DD;}
</style>
<g>
	<g>
		<path class="st2" d="M42.3,62.6c5,1.3,10.2,3,10.3,9.1c0.1,5.8-4.9,7.7-9.5,9.5c-1.2,0.5-2.5,0.6-3.8,0.9c0.3-2.5,4.9-3.1,3-6.6
			c3-2.5,3.3-4.7-0.3-7c-1.4-0.8-2.3-2.4-3.7-3.3c-2.6-1.7-5.3-2.9-8-0.1c-1.9-1.2-3.1,0.2-4.4,1.2c-0.2,0.3-0.4,0.6-0.7,0.9
			c-1.1,0.8-1,2.1-1.3,3.3c-0.9,0-1.7,0-2.6,0.1c0-2.1-0.1-4.2-0.1-6.3c0.6-0.3,1.2-0.6,1.8-0.9c2.3,0.2,4.6,0.5,6.3-1.7
			c3.3,0,6.6,0.1,9.9,0.1C39.9,63.2,40.9,63.5,42.3,62.6z"/>
		<path class="st20" d="M42.3,75.4c1.9,3.5-2.7,4.1-3,6.6c-3.9,0.7-7.9,0.5-11.8,0.2c-0.4-1-1.1-1.6-2.1-1.8c-0.9-1.9-2-3.8-2-6
			c1.7,1,3.4,1.9,5,3.1c3.5,2.7,6.9,2.6,10.3,0C39.7,76.7,40.7,75.6,42.3,75.4z"/>
		<path class="st5" d="M21.2,64.1c0,2.1,0.1,4.2,0.1,6.3c-0.1,0.3-0.2,0.7-0.3,1c-1.5,0.7-1.4,1.4,0.1,2c0.2,0.2,0.3,0.4,0.4,0.6
			c-0.4,1.8-1.3,3.1-3.2,3.4c-0.8-1.1-1.6-2.1-3-0.9c-0.3-0.4-0.7-0.7-1-1.1c0.1-0.3,0.1-0.7,0.2-1c1-1.6,0.8-3.3,0.8-5
			c0-0.6,0-1.2,0.1-1.8C16.8,65.6,18.7,64.3,21.2,64.1z"/>
		<path class="st2" d="M18.3,77.4c1.9-0.3,2.8-1.6,3.2-3.4c0.6,0.2,1.2,0.3,1.8,0.4c0,2.2,1.1,4.1,2,6c-1.1,0.1-2.2,0.1-3.3,0.2
			c-1.2-0.5-2.4-0.9-3.6-1.4c0-0.6-0.1-1.2-0.1-1.7C18.2,77.6,18.3,77.4,18.3,77.4z"/>
		<path class="st26" d="M29.4,61.5c-1.7,2.2-4,1.9-6.3,1.7C24.9,61.7,27,61.3,29.4,61.5z"/>
		<path class="st26" d="M22,80.7c1.1-0.1,2.2-0.1,3.3-0.2c1,0.2,1.7,0.8,2.1,1.8C25.4,82.6,23.5,82.3,22,80.7z"/>
		<path class="st2" d="M15.3,69.4c0,1.7,0.2,3.5-0.8,5c-0.3-0.9-0.6-1.9-0.9-2.8c0.2-0.7,0.5-1.5,0.7-2.2c0,0,0.5,0,0.5,0L15.3,69.4
			z"/>
		<path class="st26" d="M13.6,71.6c0.3,0.9,0.6,1.9,0.9,2.8c-0.1,0.3-0.1,0.7-0.2,1C13.5,74.2,12.4,73.1,13.6,71.6z"/>
		<path class="st26" d="M42.3,62.6c-1.4,1-2.3,0.6-3-0.9C40.4,61.5,41.5,61.6,42.3,62.6z"/>
		<path class="st2" d="M15.3,76.5c1.5-1.2,2.3-0.2,3,0.9c0,0-0.1,0.1-0.1,0.1c-0.8-0.1-1.7-0.1-2.5-0.2
			C15.5,77.1,15.4,76.8,15.3,76.5z"/>
		<path class="st26" d="M15.7,77.4c0.8,0.1,1.7,0.1,2.5,0.2c0,0.6,0.1,1.2,0.1,1.7C17.1,79.2,16.2,78.5,15.7,77.4z"/>
		<path class="st26" d="M15.3,69.4l-0.5,0c0,0-0.5,0-0.5,0c0.3-0.6,0.7-1.2,1-1.9C15.3,68.2,15.3,68.8,15.3,69.4z"/>
		<path class="st24" d="M23.3,74.5c-0.6-0.1-1.2-0.3-1.8-0.4c-0.1-0.2-0.3-0.4-0.4-0.6c0-0.7,0-1.3-0.1-2c0.1-0.3,0.2-0.7,0.3-1
			c0.9,0,1.7,0,2.6-0.1c2,0.3,3.1,3.9,5.5,2.2c1.9-1.4,1-4,0.8-6.1c0-0.5,0-1,0-1.5c2.7-2.8,5.4-1.6,8,0.1c1.4,0.9,2.3,2.5,3.7,3.3
			c3.7,2.3,3.4,4.5,0.3,7c-1.6,0.2-2.6,1.3-3.7,2.2c-3.4,2.5-6.8,2.7-10.3,0C26.7,76.4,25,75.5,23.3,74.5z"/>
		<path class="st15" d="M30.3,65.1c0,0.5-0.1,1,0,1.5c0.1,2.1,1.1,4.7-0.8,6.1c-2.4,1.7-3.4-1.9-5.5-2.2c0.3-1.1,0.2-2.4,1.3-3.3
			c0.2-0.3,0.4-0.6,0.7-0.9C27.2,65.3,28.4,63.8,30.3,65.1z"/>
		<path class="st12" d="M25.9,66.3c-0.2,0.3-0.4,0.6-0.7,0.9C25.4,66.8,25.7,66.6,25.9,66.3z"/>
		<path class="st2" d="M21,71.5c0,0.7,0,1.3,0.1,2C19.7,72.8,19.5,72.2,21,71.5z"/>
	</g>
</g>
</svg>
