<?xml version="1.0" encoding="utf-8"?>
<!-- Generator: Adobe Illustrator 22.0.1, SVG Export Plug-In . SVG Version: 6.00 Build 0)  -->
<svg version="1.1" id="Layer_1" xmlns="http://www.w3.org/2000/svg" xmlns:xlink="http://www.w3.org/1999/xlink" x="0px" y="0px"
	 viewBox="0 0 102.2 144" style="enable-background:new 0 0 102.2 144;" xml:space="preserve">
<style type="text/css">
	.st0{fill:#F5C885;}
	.st1{fill:#F5C886;}
	.st2{fill:#FAAF31;}
	.st3{fill:#FAAF2F;}
	.st4{fill:#F3B02A;}
	.st5{fill:#FAAF2D;}
	.st6{fill:#FBC46E;}
	.st7{fill:#FCBB56;}
	.st8{fill:#FBBC5A;}
	.st9{fill:#FCEACB;}
	.st10{fill:#FAD092;}
	.st11{fill:#FCC062;}
	.st12{fill:#FCC877;}
	.st13{fill:#FBB541;}
	.st14{fill:#F9D39A;}
	.st15{fill:#FDECCF;}
	.st16{fill:#FBC169;}
	.st17{fill:#FBB84A;}
	.st18{fill:#F9D6A0;}
	.st19{fill:#FDEDD1;}
	.st20{fill:#FBB953;}
	.st21{fill:#FCC672;}
	.st22{fill:#FBBA50;}
	.st23{fill:#FBBD60;}
	.st24{fill:#F8C77E;}
	.st25{fill:#F5A55C;}
	.st26{fill:#F59B36;}
	.st27{fill:#FCF0DD;}
</style>
<g>
	<g>
		<path class="st2" d="M39.9,103.3c3.7,1.3,7.5,3,7.6,9.1c0.1,5.8-3.6,7.7-7,9.5c-0.9,0.5-1.9,0.6-2.8,0.9c0.2-2.5,3.6-3.1,2.2-6.6
			c2.2-2.5,2.5-4.7-0.3-7c-1-0.8-1.7-2.4-2.7-3.3c-1.9-1.7-3.9-2.9-5.9-0.1c-1.4-1.2-2.3,0.2-3.2,1.2c-0.2,0.3-0.3,0.6-0.5,0.9
			c-0.8,0.8-0.7,2.1-0.9,3.3c-0.6,0-1.3,0-1.9,0.1c0-2.1-0.1-4.2-0.1-6.3c0.5-0.3,0.9-0.6,1.4-0.9c1.7,0.2,3.4,0.5,4.7-1.7
			c2.4,0,4.9,0.1,7.3,0.1C38.2,103.9,38.9,104.3,39.9,103.3z"/>
		<path class="st20" d="M40,116.2c1.4,3.5-2,4.1-2.2,6.6c-2.9,0.7-5.8,0.5-8.8,0.2c-0.3-1-0.8-1.6-1.6-1.8c-0.7-1.9-1.5-3.8-1.5-6
			c1.2,1,2.5,1.9,3.7,3.1c2.6,2.7,5.1,2.6,7.6,0C38.1,117.5,38.8,116.4,40,116.2z"/>
		<path class="st5" d="M24.4,104.9c0,2.1,0.1,4.2,0.1,6.3c-0.1,0.3-0.2,0.7-0.2,1c-1.1,0.7-1,1.4,0.1,2c0.1,0.2,0.2,0.4,0.3,0.6
			c-0.3,1.8-0.9,3.1-2.4,3.4c-0.6-1.1-1.2-2.1-2.2-0.9c-0.2-0.4-0.5-0.7-0.7-1.1c0.1-0.3,0.1-0.7,0.2-1c0.7-1.6,0.6-3.3,0.6-5
			c0-0.6,0-1.2,0-1.8C21.2,106.4,22.5,105,24.4,104.9z"/>
		<path class="st2" d="M22.3,118.2c1.4-0.3,2.1-1.6,2.4-3.4c0.4,0.2,0.9,0.3,1.3,0.4c0,2.2,0.8,4.1,1.5,6c-0.8,0.1-1.6,0.1-2.5,0.2
			c-0.9-0.5-1.8-0.9-2.7-1.4c0-0.6-0.1-1.2-0.1-1.7C22.2,118.3,22.3,118.2,22.3,118.2z"/>
		<path class="st26" d="M30.4,102.3c-1.2,2.2-2.9,1.9-4.7,1.7C27.1,102.5,28.7,102,30.4,102.3z"/>
		<path class="st26" d="M24.9,121.5c0.8-0.1,1.6-0.1,2.5-0.2c0.8,0.2,1.3,0.8,1.6,1.8C27.5,123.3,26.1,123.1,24.9,121.5z"/>
		<path class="st2" d="M20,110.2c0,1.7,0.2,3.5-0.6,5c-0.2-0.9-0.4-1.9-0.7-2.8c0.2-0.7,0.4-1.5,0.5-2.2c0,0,0.4,0,0.4,0L20,110.2z"
			/>
		<path class="st26" d="M18.8,112.3c0.2,0.9,0.4,1.9,0.7,2.8c0,0.3-0.1,0.7-0.2,1C18.7,115,17.9,113.9,18.8,112.3z"/>
		<path class="st26" d="M39.9,103.3c-1,1-1.7,0.6-2.2-0.9C38.6,102.3,39.4,102.4,39.9,103.3z"/>
		<path class="st2" d="M20,117.3c1.1-1.2,1.7-0.2,2.2,0.9c0,0-0.1,0.1-0.1,0.1c-0.6-0.1-1.2-0.1-1.9-0.2
			C20.2,117.9,20.1,117.6,20,117.3z"/>
		<path class="st26" d="M20.3,118.1c0.6,0.1,1.2,0.1,1.9,0.2c0,0.6,0.1,1.2,0.1,1.7C21.3,120,20.7,119.2,20.3,118.1z"/>
		<path class="st26" d="M20,110.2l-0.4,0c0,0-0.4,0-0.4,0c0.3-0.6,0.5-1.2,0.8-1.9C20.1,108.9,20,109.5,20,110.2z"/>
		<path class="st24" d="M25.9,115.2c-0.4-0.1-0.9-0.3-1.3-0.4c-0.1-0.2-0.2-0.4-0.3-0.6c0-0.7,0-1.3-0.1-2c0.1-0.3,0.2-0.7,0.2-1
			c0.6,0,1.3,0,1.9-0.1c1.5,0.3,2.3,3.9,4,2.2c1.4-1.4,0.7-4,0.6-6.1c0-0.5,0-1,0-1.5c2-2.8,4-1.6,5.9,0.1c1,0.9,1.7,2.5,2.7,3.3
			c2.7,2.3,2.5,4.5,0.3,7c-1.2,0.2-1.9,1.3-2.8,2.2c-2.5,2.5-5,2.7-7.6,0C28.5,117.2,27.2,116.3,25.9,115.2z"/>
		<path class="st15" d="M31.1,105.8c0,0.5,0,1,0,1.5c0.1,2.1,0.8,4.7-0.6,6.1c-1.8,1.7-2.5-1.9-4-2.2c0.2-1.1,0.1-2.4,0.9-3.3
			c0.2-0.3,0.3-0.6,0.5-0.9C28.8,106,29.7,104.6,31.1,105.8z"/>
		<path class="st12" d="M27.8,107c-0.2,0.3-0.3,0.6-0.5,0.9C27.5,107.6,27.7,107.3,27.8,107z"/>
		<path class="st2" d="M24.2,112.2c0,0.7,0,1.3,0.1,2C23.2,113.6,23.1,112.9,24.2,112.2z"/>
	</g>
</g>
</svg>
