<?xml version="1.0" encoding="utf-8"?>
<!-- Generator: Adobe Illustrator 22.0.1, SVG Export Plug-In . SVG Version: 6.00 Build 0)  -->
<svg version="1.1" id="Layer_1" xmlns="http://www.w3.org/2000/svg" xmlns:xlink="http://www.w3.org/1999/xlink" x="0px" y="0px"
	 viewBox="0 0 108.3 144" style="enable-background:new 0 0 108.3 144;" xml:space="preserve">
<style type="text/css">
	.st0{fill:#F5C885;}
	.st1{fill:#F5C886;}
	.st2{fill:#FAAF31;}
	.st3{fill:#FAAF2F;}
	.st4{fill:#F3B02A;}
	.st5{fill:#FAAF2D;}
	.st6{fill:#FBC46E;}
	.st7{fill:#FCBB56;}
	.st8{fill:#FBBC5A;}
	.st9{fill:#FCEACB;}
	.st10{fill:#FAD092;}
	.st11{fill:#FCC062;}
	.st12{fill:#FCC877;}
	.st13{fill:#FBB541;}
	.st14{fill:#F9D39A;}
	.st15{fill:#FDECCF;}
	.st16{fill:#FBC169;}
	.st17{fill:#FBB84A;}
	.st18{fill:#F9D6A0;}
	.st19{fill:#FDEDD1;}
	.st20{fill:#FBB953;}
	.st21{fill:#FCC672;}
	.st22{fill:#FBBA50;}
	.st23{fill:#FBBD60;}
	.st24{fill:#F8C77E;}
	.st25{fill:#F5A55C;}
	.st26{fill:#F59B36;}
	.st27{fill:#FCF0DD;}
</style>
<g>
	<g>
		<path class="st1" d="M62.4,78.4c-0.6,0.3-1.2,0.6-1.8,0.9c-0.4,0.2-0.8,0.4-1.2,0.6c-0.2,0.2-0.4,0.4-0.7,0.4
			c-0.9,0.1-1.6,0.6-2.1,1.4c-0.4,0.4-0.7,0.9-1.1,1.3c-1.4,0.4-2.8,0.9-4.2,1.3c-1.9,0.6-2,1.9-1.4,3.5c1.5,3.6,6,5.5,10.1,4.3
			c5.4,2.8,10.9,4.8,16.3,0c3.1,0.7,3.1,2.5,0.8,3.9c-7.8,4.7-16.4,7.1-25.5,6.9c-6.8-0.1-9.6-5.7-12.4-10.8c0-0.7,0-1.3-0.1-2
			c0.1-2.7-1.1-5.1-2.1-7.6c1.3-1.8,0.6-3.8,0.5-5.8c-0.3-7.5-2-14.9,1.2-22.5c1.4-3.2,5.3-6.6,2.5-11c6.4-2.4,13.1-2.5,19.8-2.1
			c2.6,0.2,5.3,0.6,7,3c0,0.3,0.1,0.6,0.2,0.9c-0.6,1.3-1.7,1.9-3.1,2.1c-7.9-0.4-15.6-0.2-21.1,6.9c-2.2,1.7-2.5,3.9-1,6.1
			c2.1,3,4.3,0.5,6.5-0.2c2.6,0.1,5.2,0.2,7.8,0.3c-0.5,1.8-2.2,2.4-3.5,3.4c-0.9,0.7-2.3,1.1-1.8,2.6c0.3,1.1,1.5,1.2,2.4,1.6
			c4.7,2.1,8,0.5,10.3-3.8c2.5-0.1,3.5,1.3,3.5,3.7C68.4,72.5,67.3,76.5,62.4,78.4z"/>
		<path class="st2" d="M65.4,47.2c1.3-0.2,2.4-0.8,3.1-2.1c0-0.1,0.2-0.3,0.1-0.3c-0.1-0.2-0.2-0.4-0.4-0.6c-1.7-2.4-4.4-2.8-7-3
			c-6.7-0.4-13.4-0.3-19.8,2.1c-8.7,2.6-12.6,7.3-12.1,15c0.2,3.3,0.8,6.5,1.2,9.8c-2,2-0.1,4.3-0.5,6.5c-2.7-8.5-6.5-16.8-2.9-26
			c2.8-7.3,8.3-11.5,16-12.5c7.7-1,15.4-2.6,23.2-0.3c3.5,1,5.9,2.9,7.3,6.1c2.2,4.8,0.8,8-4.4,10C68.3,50.2,65.6,49.8,65.4,47.2z"
			/>
		<path class="st2" d="M39.3,92.2c2.8,5.1,5.6,10.6,12.4,10.8c9.1,0.2,17.7-2.2,25.5-6.9c2.3-1.4,2.3-3.2-0.8-3.9
			c0.1-0.6,0.2-1.2,0.3-1.8c0.4-0.5,0.4-0.9-0.2-1.2L76.5,89c-0.3-0.3-0.6-0.6-0.8-0.9c-0.8-0.6-1.5-1.3-2.3-1.9
			c3.3-1.1,6.3,0.4,9,1.8c4.6,2.5,4.6,7.6,0.2,11.5c-6.9,6.1-15.6,7.5-24.2,9.2c-8.9,1.8-15.9-1-21.3-8.2c-0.3-0.4-0.4-0.9-0.5-1.4
			c0-1.1-0.3-2.1-1.2-2.9c-0.1-0.5-0.2-1-0.2-1.5c0.1-0.8,0.2-1.6,0.3-2.5C36.6,92.2,38,92.2,39.3,92.2z"/>
		<path class="st7" d="M65.4,47.2c0.2,2.5,2.9,2.9,3.9,4.8c-3.3,1.4-6.8,0.8-10.1,1.2c-3.6,0.5-7,1.1-9.8,3.6
			c-0.6-1.6-1.7-1.7-3.1-1.1c-1.8,0.8-1.8-0.6-1.9-1.7C49.8,47.1,57.5,46.9,65.4,47.2z"/>
		<path class="st16" d="M62.4,78.4c4.9-1.9,6-5.9,6-10.6c0-2.4-1-3.7-3.5-3.7c-0.3-2.2-1.3-3.8-3.6-4.2c5.6-2,10.8,0.2,12.4,5.2
			c1.4,4.5-2.9,11.3-8.4,13C64.4,78.4,63.3,78.3,62.4,78.4z"/>
		<path class="st19" d="M73.3,86.1c0.8,0.6,1.5,1.3,2.3,1.9c0.3,0.3,0.6,0.6,0.8,0.9c0,0,0.1,0.1,0.1,0.1c0.1,0.4,0.1,0.8,0.2,1.2
			c-0.1,0.6-0.2,1.2-0.3,1.8C71,97,65.5,95,60.1,92.2c1.6-2.6,5.1-2.5,6.7-4.9C69,87.2,71,85.4,73.3,86.1z"/>
		<path class="st16" d="M66.8,87.3c-1.7,2.4-5.2,2.3-6.7,4.9c-4.1,1.2-8.6-0.7-10.1-4.3c-0.6-1.6-0.5-2.9,1.4-3.5
			c1.4-0.4,2.8-0.9,4.2-1.3c-0.4,2.7,1.1,3.9,3.5,4C61.6,87.3,64.2,87.2,66.8,87.3z"/>
		<path class="st15" d="M61.3,59.9c2.3,0.5,3.3,2.1,3.6,4.2c-2.3,4.3-5.6,5.9-10.3,3.8c-0.9-0.4-2.1-0.5-2.4-1.6
			c-0.5-1.5,1-1.9,1.8-2.6c1.3-1,2.9-1.6,3.5-3.4C58.8,60.2,60,60.1,61.3,59.9z"/>
		<path class="st21" d="M44.3,54.2c0.2,1.1,0.2,2.5,1.9,1.7c1.4-0.6,2.5-0.5,3.1,1.1c-1.4,1.2,0.1,2.1,0.4,3
			c-2.2,0.7-4.4,3.2-6.5,0.2C41.8,58.1,42.1,55.9,44.3,54.2z"/>
		<path class="st13" d="M30.1,74.7c0.3-2.1-1.5-4.4,0.5-6.5c1.6,4.2,3.2,8.3,4.9,12.5c-1.3,0.8-1.9,2-2,3.5l0,0
			c-1.4-1.4-0.4-4.1-2.7-5C30.5,77.7,30.3,76.2,30.1,74.7z"/>
		<path class="st13" d="M39.3,92.2c-1.3,0-2.7,0-4,0c-0.6-0.4-1.2-0.7-1.7-1.1c-0.1-1.2-0.2-2.4-0.3-3.6c0-1.1,0.1-2.2,0.1-3.3
			c0,0,0,0,0,0c3.4,0.6,3.3,4.7,5.9,6C39.3,90.9,39.3,91.5,39.3,92.2z"/>
		<path class="st2" d="M33.3,84.2c0,1.1-0.1,2.2-0.1,3.3c-1.8-2.5-2.2-5.4-2.6-8.3C32.9,80.1,32,82.8,33.3,84.2z"/>
		<path class="st26" d="M33.6,91.1c0.6,0.4,1.2,0.7,1.7,1.1c-0.1,0.8-0.2,1.6-0.3,2.5C33.8,93.7,33.3,92.6,33.6,91.1z"/>
		<path class="st26" d="M35.2,96.2c0.9,0.8,1.2,1.8,1.2,2.9C35.6,98.3,34.6,97.5,35.2,96.2z"/>
		<path class="st16" d="M56.6,81.8c0.4-0.8,1.2-1.3,2.1-1.4C58,80.8,57.3,81.3,56.6,81.8z"/>
		<path class="st16" d="M59.4,79.9c0.4-0.2,0.8-0.4,1.2-0.6C60.2,79.5,59.8,79.7,59.4,79.9z"/>
		<path class="st9" d="M35.4,80.7c-1.6-4.2-3.2-8.3-4.9-12.5c-0.4-3.3-0.9-6.5-1.2-9.8c-0.6-7.7,3.3-12.4,12.1-15
			c2.8,4.4-1.1,7.8-2.5,11c-3.2,7.6-1.6,15-1.2,22.5c0.1,2,0.8,3.9-0.5,5.7C36.6,81.9,36,81.3,35.4,80.7z"/>
		<path class="st20" d="M35.4,80.7c0.6,0.6,1.2,1.3,1.8,1.9c1,2.5,2.1,4.9,2.1,7.6c-2.6-1.4-2.5-5.4-5.9-6
			C33.5,82.7,34,81.5,35.4,80.7z"/>
		<path class="st20" d="M68.2,44.2c0.1,0.2,0.3,0.4,0.4,0.6c0,0.1-0.1,0.2-0.1,0.3C68.4,44.9,68.3,44.6,68.2,44.2z"/>
		<path class="st1" d="M76.7,90.3c-0.1-0.4-0.1-0.8-0.2-1.2C77.1,89.4,77.2,89.8,76.7,90.3z"/>
		<path class="st1" d="M76.5,89c-0.3-0.3-0.6-0.6-0.8-0.9C75.9,88.4,76.2,88.7,76.5,89z"/>
	</g>
</g>
</svg>
