<?xml version="1.0" encoding="utf-8"?>
<!-- Generator: Adobe Illustrator 22.0.1, SVG Export Plug-In . SVG Version: 6.00 Build 0)  -->
<svg version="1.1" id="Layer_1" xmlns="http://www.w3.org/2000/svg" xmlns:xlink="http://www.w3.org/1999/xlink" x="0px" y="0px"
	 viewBox="0 0 118.5 144" style="enable-background:new 0 0 118.5 144;" xml:space="preserve">
<style type="text/css">
	.st0{fill:#F5C885;}
	.st1{fill:#F5C886;}
	.st2{fill:#FAAF31;}
	.st3{fill:#FAAF2F;}
	.st4{fill:#F3B02A;}
	.st5{fill:#FAAF2D;}
	.st6{fill:#FBC46E;}
	.st7{fill:#FCBB56;}
	.st8{fill:#FBBC5A;}
	.st9{fill:#FCEACB;}
	.st10{fill:#FAD092;}
	.st11{fill:#FCC062;}
	.st12{fill:#FCC877;}
	.st13{fill:#FBB541;}
	.st14{fill:#F9D39A;}
	.st15{fill:#FDECCF;}
	.st16{fill:#FBC169;}
	.st17{fill:#FBB84A;}
	.st18{fill:#F9D6A0;}
	.st19{fill:#FDEDD1;}
	.st20{fill:#FBB953;}
	.st21{fill:#FCC672;}
	.st22{fill:#FBBA50;}
	.st23{fill:#FBBD60;}
	.st24{fill:#F8C77E;}
	.st25{fill:#F5A55C;}
	.st26{fill:#F59B36;}
	.st27{fill:#FCF0DD;}
</style>
<g>
	<g>
		<path class="st0" d="M73.6,81.1c0.9,0,1.8,0,2.7-0.1c-0.5,0.4-1,0.8-1.6,1.2c-1.5,0.9-4.1,1.2-3.7,3.4c0.5,2.7,3.2,1.4,5,1.6
			c0.5,0.1,1-0.1,1.5-0.1c2.6,0,5.3,0,7.9,0c1,0.4,2.5-0.4,2.8,1.2c0.2,1.1-0.8,1.6-1.8,1.9c-2.4,1-4.7,2-7.1,3
			c-2.3,0.3-4.5,0.5-6.8,0.8c-5.1,0.7-10.1,3.2-15.5,1.9c3-7.2,2.4-8.3-4.8-8.9c0.1-0.9,0.1-1.8,0.2-2.6c6.6-0.9,13-3.4,19.8-3.1
			C72.7,81.2,73.2,81.2,73.6,81.1z"/>
		<path class="st0" d="M73.2,69.2C65.4,71,57.5,72.4,49.4,73c0-0.3-0.1-0.5-0.2-0.7c2.3-1.6,4.6-3.2,4.4-6.5
			c1.7-2.8,6.2-3.9,4.6-8.5c4.4,0.5,8.8,0.4,13-1.2c1.7,0,3.4,0,5.1,0c1.6,1.2,3.3,1,5.1,0.7c1.9,1.9,1.7,2.2-1.9,3.6
			c-2.2,0.1-4.1,1.3-6,2.2c-2.3,1.2-6.7-0.4-6.9,2.5C66.4,68.3,71.1,67.4,73.2,69.2z"/>
		<path class="st5" d="M49.4,73c-6.2,2.1-12.2,0.6-17.9-1.4c-4.7-1.7-5.2-7.5-1.2-11c3.3-2.9,7.4-4.7,11.5-5.7
			c6.4-1.6,12.8-3.4,19.5-3.5c-1,3.7-5.1,1-6.8,3.4c-0.6-0.1-1.1-0.3-1.7-0.4c-0.5,0.3-1.1,0.6-1.6,0.9c-0.6,0.3-1.3,0.6-1.9,1
			c-0.4,0.2-0.7,0.5-1.1,0.7c-2,1.1-3.9,2.3-5.9,3.4c-1.1,0.3-1.7,1-1.9,2c-0.1,0.3-0.2,0.5-0.3,0.8c-1.7-0.1-3.4,0.2-3.9,1.9
			c-0.5,1.4,1.1,1.1,1.9,1.4c0.3,1.5,2.9,1.5,2.7,2.4c-1.6,6.4,2.6,3.7,5.2,3.5c1-0.1,2.1-0.1,3.1-0.2C49.3,72.5,49.4,72.8,49.4,73z
			"/>
		<path class="st3" d="M79.5,60.4c3.6-1.3,3.8-1.7,1.9-3.6c-1.5-2-3.2-1.8-5.1-0.7c-1.7,0-3.4,0-5.1,0c-2.7-1.6-5.3-3.2-8-4.8
			c7.2-1.8,14.3-2.6,21.6-0.5c3,0.9,5.7,2,6.4,5.4c0.7,3.4-1.1,5.7-3.9,7.4c-1.7,1-3,2.7-5.2,2.6C80.4,64.7,78.8,63.1,79.5,60.4z"/>
		<path class="st5" d="M59.6,102.4c-7.8,2.8-15.7,2.5-23.3-0.5c-4.2-1.6-5-5.8-2.2-9.4c2.1-2.7,4.8-4.5,8.2-5.2
			c-0.7,2.2-0.9,4.4,1.3,6c-0.3,1.2-1.1,1.9-2.4,1.9c-1.5,2.7,0.6,3.1,2.2,2.9C49.5,97.3,54.4,100.7,59.6,102.4z"/>
		<path class="st5" d="M79.3,93.3c2.4-1,4.7-2.1,7.1-3c0.9-0.4,2-0.8,1.8-1.9c-0.3-1.6-1.8-0.8-2.8-1.2c0.1-2.1-0.8-4.6,1.9-5.9
			c1.3,0.1,2.7,0,3.9,0.4c6.1,1.9,7.5,7.4,2.6,11.6c-5.3,4.5-11.7,6.4-18.6,6.9C74.8,96.7,79.5,96.5,79.3,93.3z"/>
		<path class="st17" d="M79.3,93.3c0.2,3.2-4.5,3.4-4.1,6.8c-0.5,0.1-1.1,0.2-1.6,0.2c-3.2,0.2-6.6-1.1-9.2,1.8
			c-1.6,0.1-3.1,0.2-4.7,0.3c-5.3-1.7-10.1-5.1-16.2-4.3c-1.6,0.2-3.7-0.2-2.2-2.9c5.2,1.6,10.5,1.1,15.8,0.7
			c5.4,1.4,10.3-1.2,15.5-1.9C74.8,93.7,77,93.5,79.3,93.3z"/>
		<path class="st16" d="M79.5,60.4c-0.7,2.7,0.9,4.3,2.7,5.8c0,0,0.1,0,0.1,0c-2.4,0.1-4.7,0.5-6.2,2.6c-1,0.1-1.9,0.2-2.9,0.3
			c-2.1-1.7-6.8-0.8-6.6-4c0.2-2.9,4.6-1.3,6.9-2.5C75.4,61.7,77.2,60.5,79.5,60.4z"/>
		<path class="st17" d="M63.3,51.4c2.7,1.6,5.3,3.2,8,4.8c-4.2,1.6-8.6,1.7-13,1.2c-1.2-0.8-2.4-1.7-3.6-2.5
			c1.6-2.4,5.8,0.3,6.8-3.4C62,51.4,62.6,51.4,63.3,51.4z"/>
		<path class="st17" d="M87.3,81.2c-2.7,1.3-1.8,3.7-1.9,5.9c-2.6,0-5.3,0-7.9,0c-0.1-1.2,0-2.4,0.9-3.2c3.3-3.2-0.5-2.4-1.7-3
			C80.3,79.1,83.8,80.1,87.3,81.2z"/>
		<path class="st6" d="M76.7,80.9c1.2,0.7,5-0.2,1.7,3c-0.9,0.8-1,2-0.9,3.2c-0.5,0-1,0.2-1.5,0.1c-1.8-0.2-4.5,1-5-1.6
			c-0.4-2.2,2.2-2.5,3.7-3.4c0.6-0.3,1.1-0.8,1.6-1.2C76.4,80.9,76.5,80.8,76.7,80.9z"/>
		<path class="st7" d="M52.4,84.4c-0.1,0.9-0.1,1.8-0.2,2.6c-1.8,0.9-2.7,3-4.9,3.3c-0.3-1.9-1.5-2.8-3.2-3.5
			C46.6,85.2,49.3,84.1,52.4,84.4z"/>
		<path class="st22" d="M44.2,86.9c1.6,0.6,2.9,1.6,3.2,3.5c-1,1.3-2,2.6-3.7,3c-2.2-1.6-2-3.7-1.3-6c0.3-0.1,0.6-0.2,1-0.2
			c0.3-0.1,0.6-0.1,0.9-0.2L44.2,86.9z"/>
		<path class="st5" d="M64.3,102.1c2.6-2.9,6.1-1.6,9.2-1.8C70.6,101.7,67.5,102.4,64.3,102.1z"/>
		<path class="st26" d="M76.1,68.9c1.5-2.1,3.8-2.5,6.2-2.6C80.6,68.1,78.4,68.5,76.1,68.9z"/>
		<path class="st17" d="M73.6,81.1c-0.5,0-0.9,0.1-1.4,0.1C72.7,81.2,73.2,81.2,73.6,81.1z"/>
		<path class="st7" d="M44.2,87c-0.3,0.1-0.6,0.1-0.9,0.2C43.6,87,43.9,86.9,44.2,87z"/>
		<path class="st9" d="M43.7,93.4c1.7-0.4,2.7-1.7,3.7-3c2.1-0.4,3.1-2.5,4.9-3.3c7.2,0.6,7.9,1.7,4.8,8.9
			c-5.3,0.4-10.6,0.9-15.8-0.7C42.6,95.3,43.3,94.6,43.7,93.4z"/>
		<path class="st19" d="M54.6,54.9c1.2,0.8,2.4,1.7,3.6,2.5c1.6,4.5-3,5.7-4.6,8.5c-0.2-0.3-0.4-0.3-0.7-0.2
			c-3.6-4.1-8.4-1.6-12.6-2.3c0.1-0.3,0.2-0.5,0.3-0.8c1.1-0.2,1.7-1,2-2c2-1.1,3.9-2.3,5.9-3.4c0.4-0.2,0.7-0.5,1.1-0.7
			c0.6-0.3,1.3-0.6,1.9-1c0.5-0.3,1.1-0.6,1.6-0.9C53.5,54.6,54,54.7,54.6,54.9z"/>
		<path class="st6" d="M52.9,65.6c0.3-0.1,0.5,0,0.7,0.2c0.1,3.3-2.1,4.9-4.4,6.5c-1,0.1-2.1,0.1-3.1,0.2c1.8-3.2-0.7-4.2-2.8-5.4
			C46.3,65.5,49.8,67,52.9,65.6z"/>
		<path class="st17" d="M76.3,56.2c1.9-1.1,3.6-1.3,5.1,0.7C79.6,57.1,77.9,57.4,76.3,56.2z"/>
		<path class="st0" d="M52.9,65.6c-3.1,1.4-6.6-0.1-9.6,1.5c-1.7-0.2-3.4-0.3-5.1-0.5c-0.8-0.3-2.3,0-1.9-1.4c0.6-1.7,2.3-2,3.9-1.9
			C44.5,64,49.3,61.5,52.9,65.6z"/>
		<path class="st22" d="M38.2,66.6c1.7,0.2,3.4,0.3,5.1,0.5c2.1,1.2,4.6,2.2,2.8,5.4c-2.6,0.2-6.9,2.9-5.2-3.5
			C41.1,68,38.5,68.1,38.2,66.6z"/>
		<path class="st24" d="M42.5,60.4c-0.3,1-0.8,1.8-2,2C40.8,61.4,41.4,60.7,42.5,60.4z"/>
		<path class="st17" d="M52.9,54.5c-0.5,0.3-1.1,0.6-1.6,0.9C51.8,55,52.4,54.8,52.9,54.5z"/>
		<path class="st17" d="M49.4,56.3c-0.4,0.2-0.7,0.5-1.1,0.7C48.7,56.8,49,56.5,49.4,56.3z"/>
	</g>
</g>
</svg>
