<?xml version="1.0" encoding="utf-8"?>
<!-- Generator: Adobe Illustrator 22.0.1, SVG Export Plug-In . SVG Version: 6.00 Build 0)  -->
<svg version="1.1" id="Layer_1" xmlns="http://www.w3.org/2000/svg" xmlns:xlink="http://www.w3.org/1999/xlink" x="0px" y="0px"
	 viewBox="0 0 105.6 144" style="enable-background:new 0 0 105.6 144;" xml:space="preserve">
<style type="text/css">
	.st0{fill:#F5C885;}
	.st1{fill:#F5C886;}
	.st2{fill:#FAAF31;}
	.st3{fill:#FAAF2F;}
	.st4{fill:#F3B02A;}
	.st5{fill:#FAAF2D;}
	.st6{fill:#FBC46E;}
	.st7{fill:#FCBB56;}
	.st8{fill:#FBBC5A;}
	.st9{fill:#FCEACB;}
	.st10{fill:#FAD092;}
	.st11{fill:#FCC062;}
	.st12{fill:#FCC877;}
	.st13{fill:#FBB541;}
	.st14{fill:#F9D39A;}
	.st15{fill:#FDECCF;}
	.st16{fill:#FBC169;}
	.st17{fill:#FBB84A;}
	.st18{fill:#F9D6A0;}
	.st19{fill:#FDEDD1;}
	.st20{fill:#FBB953;}
	.st21{fill:#FCC672;}
	.st22{fill:#FBBA50;}
	.st23{fill:#FBBD60;}
	.st24{fill:#F8C77E;}
	.st25{fill:#F5A55C;}
	.st26{fill:#F59B36;}
	.st27{fill:#FCF0DD;}
</style>
<g>
	<g>
		<path class="st1" d="M65.8,86.3c-2.5,0-3.5,2.6-5.6,3.4c-1.4,0.3-3.1,0.4-4.3,1c-2.7,1.5-4.8,3.6-2.1,6.9
			c0.4,3.5-0.8,7.4,2.6,10.2c0.1,2.6,2.1,5.8-1.6,7.4c-3.3,1.4-6.2-0.3-8.4-2.7c-1.7-1.8-3-3.9-4.5-5.9c-1.2-5-4.2-9.3-5.9-14.1
			c0.7-4-0.2-7.8-0.7-11.7c-1.7-14.5-3.2-29,5.1-42.3c0.3-1.6,1.7-2,3-2.2c7.4-0.8,14.6-3.4,22.2-2.6c1.6,0.2,3.3,0.5,4.8,1.1
			c2.8,1,3.2,2.6,0.9,4.8c-2,1.9-4.7,2.4-7.1,3.5c-7.7,1.1-14.8,3.3-19.2,10.5c-1.5,2-2.8,4.2-1,6.6c2,2.5,4.5,0.7,6.8,0.5
			c1.3,1.9,3.2,2.1,5.3,1.8c2.6,0,5.2,0.1,7.8,0.1c0,0.3,0,0.7,0.1,1c-2.9,2.3-6.3,2.7-9.8,3.2C52.9,67,51.2,66.8,52,69
			c1,2.6,8.2,5.3,12.1,4.5c3.6-0.8,5.4-3,4.9-6.8c1.3,0.3,1.7,1.6,2.5,2.2c4.6,3.4,3.9,6.7,0.2,10.2c-1.9,1.8-3.6,3.9-5.4,5.8
			C66.2,85.3,66,85.8,65.8,86.3z"/>
		<path class="st5" d="M64.2,43.1c2.4-1.2,5.1-1.6,7.1-3.5c2.3-2.1,1.9-3.7-0.9-4.8c-1.5-0.6-3.2-0.9-4.8-1.1
			c-7.6-0.8-14.8,1.7-22.2,2.6c-1.3,0.1-2.7,0.6-3,2.2c-7,0.1-10.8,4.6-13.8,10.1c-1.2,0.5-1.6,1.5-1.3,2.7c0,3.2,0.1,6.5,0.1,9.7
			c-0.5,1.6-1,3.1-1.6,4.7c-5.5-14.9-1-28.9,12.8-34.2c10.9-4.2,22.7-6.7,34.6-3.8c4.2,1,8.6,2.9,9.2,8c0.6,4.7-2.8,7.5-6.1,10.2
			c-0.8,0.6-1.7,1-2.6,1.4C70.2,44.2,65.6,46.5,64.2,43.1z"/>
		<path class="st5" d="M41.9,106.6c1.5,2,2.9,4.1,4.5,5.9c2.2,2.4,5.1,4.1,8.4,2.7c3.7-1.5,1.6-4.8,1.6-7.4c1.6-1.9,6.1-1.6,4.4-5.9
			c2.3,3.3,2.5,7.2,2.7,11c0.4,8-8.9,12.7-16.7,8.3c-7.7-4.3-11.4-11.6-14-19.6C37.2,100.9,39.3,104.2,41.9,106.6z"/>
		<path class="st17" d="M41.9,106.6c-2.6-2.4-4.7-5.8-9.1-5c-5.3-7-5.6-15.5-7.3-23.6c-0.8-4.1-2-8.1-1.7-12.3
			c0.5-1.6,1-3.1,1.6-4.7c1.4,1.4,1.1,3.3,1.6,5.1c2.3,9,4.2,18.2,9,26.4C37.7,97.3,40.7,101.6,41.9,106.6z"/>
		<path class="st16" d="M66.3,84.8c1.8-1.9,3.5-4,5.4-5.8c3.7-3.5,4.3-6.8-0.2-10.2c-0.9-0.6-1.3-1.9-2.5-2.2
			c-1.5-1.4-3.1-2.5-5-2.9c0-0.3,0-0.7-0.1-1c3-0.8,6.1-0.6,8.9,0.1c3.9,1,7.4,3,8.4,7.5c1.1,4.8-0.7,8.4-4.3,11.4
			c-1.6,1.3-3.4,2.1-5.2,2.8C69.9,84.6,68.1,84.7,66.3,84.8z"/>
		<path class="st20" d="M64.2,43.1c1.4,3.4,6,1.2,7.6,4.2c-3.9,1.4-7.6,3.5-12,3.3c-2-1.5-3.8-0.2-5.5,0.5c-3,1.2-6.1,2.2-9.4,2.5
			C49.4,46.4,56.5,44.2,64.2,43.1z"/>
		<path class="st16" d="M45,53.6c3.3-0.4,6.3-1.3,9.4-2.5c1.7-0.7,3.5-2,5.5-0.5c-3.5,2.5-9.7,2.5-9,9.1c0,0.3-0.1,0.7-0.1,1
			c-2.3,0.2-4.8,2-6.8-0.5C42.2,57.8,43.5,55.6,45,53.6z"/>
		<path class="st7" d="M60.8,102c1.6,4.3-2.8,4-4.4,5.9c-3.4-2.8-2.2-6.7-2.6-10.2c3.5,0.2,4-3.2,5.8-5C60,95.8,59.7,98.9,60.8,102z
			"/>
		<path class="st21" d="M59.6,92.6c-1.8,1.8-2.3,5.2-5.8,5c-2.7-3.3-0.7-5.3,2.1-6.9c1.2-0.7,2.9-0.7,4.3-1
			C60,90.7,59.8,91.7,59.6,92.6z"/>
		<path class="st25" d="M66.3,84.8c1.8-0.1,3.5-0.2,5.3-0.3c-1.7,1.3-3.7,1.8-5.8,1.9C66,85.8,66.2,85.3,66.3,84.8z"/>
		<path class="st25" d="M50.8,60.7c0-0.3,0.1-0.7,0.1-1c1.7,0.9,3.4,1.9,5.2,2.8C54,62.8,52.1,62.6,50.8,60.7z"/>
		<path class="st15" d="M36,92.5c-4.8-8.2-6.7-17.4-9-26.4c-0.4-1.7-0.2-3.7-1.6-5.1c0-3.2-0.1-6.5-0.1-9.7c0.9-0.7,1.4-1.5,1.3-2.7
			c3-5.5,6.7-10,13.8-10.1c-8.3,13.3-6.8,27.8-5.1,42.3C35.8,84.7,36.8,88.5,36,92.5z"/>
		<path class="st15" d="M63.9,63.7c2,0.5,3.6,1.6,5,2.9c0.5,3.8-1.2,6.1-4.9,6.8C60.2,74.3,53,71.5,52,69c-0.8-2.2,0.8-2,2.1-2.1
			C57.6,66.4,61.1,65.9,63.9,63.7z"/>
		<path class="st17" d="M26.7,48.6c0.1,1.2-0.5,2-1.3,2.7C25.1,50.1,25.5,49.1,26.7,48.6z"/>
	</g>
</g>
</svg>
