<?xml version="1.0" encoding="utf-8"?>
<!-- Generator: Adobe Illustrator 22.0.1, SVG Export Plug-In . SVG Version: 6.00 Build 0)  -->
<svg version="1.1" id="Layer_1" xmlns="http://www.w3.org/2000/svg" xmlns:xlink="http://www.w3.org/1999/xlink" x="0px" y="0px"
	 viewBox="0 0 102.3 144" style="enable-background:new 0 0 102.3 144;" xml:space="preserve">
<style type="text/css">
	.st0{fill:#F5C885;}
	.st1{fill:#F5C886;}
	.st2{fill:#FAAF31;}
	.st3{fill:#FAAF2F;}
	.st4{fill:#F3B02A;}
	.st5{fill:#FAAF2D;}
	.st6{fill:#FBC46E;}
	.st7{fill:#FCBB56;}
	.st8{fill:#FBBC5A;}
	.st9{fill:#FCEACB;}
	.st10{fill:#FAD092;}
	.st11{fill:#FCC062;}
	.st12{fill:#FCC877;}
	.st13{fill:#FBB541;}
	.st14{fill:#F9D39A;}
	.st15{fill:#FDECCF;}
	.st16{fill:#FBC169;}
	.st17{fill:#FBB84A;}
	.st18{fill:#F9D6A0;}
	.st19{fill:#FDEDD1;}
	.st20{fill:#FBB953;}
	.st21{fill:#FCC672;}
	.st22{fill:#FBBA50;}
	.st23{fill:#FBBD60;}
	.st24{fill:#F8C77E;}
	.st25{fill:#F5A55C;}
	.st26{fill:#F59B36;}
	.st27{fill:#FCF0DD;}
</style>
<g>
	<g>
		<path class="st0" d="M43.4,71.6c0.2,0.8,0.4,1.7,0.5,2.5c0.3,0.5,0.5,1.1,0.8,1.6c0.4,3.5,2.9,6.1,4.5,9c-1.1-0.2-2.3-0.3-3.4-0.6
			c-0.9-0.2-2-1.3-2.7-0.4c-1.1,1.2,0.5,2,1.1,2.9c4.7,6.9,15.4,9.8,23,6.2c3.1-1.5,4.5-3.9,5-7.4c0.7-5.4-1.9-8.4-6.3-10.6
			c-2.6-8.7-2.6-8.7-9.6-6.7c-0.4-0.1-0.9-0.3-1.3-0.4c1.9-3.1,4.5-5.2,8.1-5.8c2.2-0.1,0.7,3,2.8,3.1c5.1,0.5,8.9,3.7,12.5,6.9
			c1.4,5.9,1.7,11.9-0.3,17.7c-1.6,4.5-2.9,9.8-9,10.7c-4.3,0.6-8.5,1.6-12.8,1.6C44.1,102,35,96.4,30,84.4c0-1.2,0.1-2.3,0-3.5
			c-0.9-9-0.4-17.6,6.7-24.5c1.2-1.2,1.6-3.3,2.6-4.8c2.7-4.3,0.7-5.2-3.3-4.8c2.6-3.8,6.8-3.1,10.4-3.5c6.5-0.7,13.1-2.6,19.5,0.6
			c0.1,1,0.1,2,0.2,3l0,0c-4.1,0-8.3-0.2-12.4,0c-4.5,0.2-8.3,2-10.8,5.9c-3.4,1.8-5.4,5.3-3.2,8C42.4,64.3,42,68.1,43.4,71.6z"/>
		<path class="st2" d="M65.9,43.9c-6.4-3.1-13-1.2-19.5-0.6c-3.6,0.4-7.8-0.3-10.4,3.5c-1.2,0.9-2.4,1.8-3.7,2.5
			c-10.9,6-10.9,25-2.3,35c5,12,14.1,17.5,26.2,17.5c4.3,0,8.5-1,12.8-1.6c6.1-0.9,7.4-6.1,9-10.7c2-5.8,1.6-11.8,0.3-17.7
			c2.9-0.1,2.1-2.7,2.8-4.2c3.9,3.4,4.2,8.2,4.3,12.8c0.1,8.2-2.6,15.7-7.6,22.2c-0.6,0.8-1.4,1.6-2.3,1.9
			c-14.5,4.8-34.2,6.4-45.9-9.2C18.1,79.9,17,55.4,32.1,42.2c3.1-2.7,6.4-4.5,10.7-4.5c5.5,0,10.8-1.8,16.4-1.5
			c3.9,0.2,7.7,0.7,10.7,3.4c5,4.5,3.6,10.7-2.8,12.9c-0.3-1.9-0.6-3.7-0.9-5.6c0,0,0,0,0,0C68.3,45.8,68.1,44.8,65.9,43.9z"/>
		<path class="st16" d="M65.8,74.7c4.3,2.2,7,5.2,6.3,10.6c-0.5,3.5-1.9,5.9-5,7.4c-7.5,3.7-18.2,0.8-23-6.2
			c-0.6-0.9-2.1-1.6-1.1-2.9c0.7-0.8,1.8,0.2,2.7,0.4c1.1,0.2,2.3,0.4,3.4,0.6c3.6,2,7.2,4,11.6,3.3c2.1-0.4,4.8-0.1,5.2-3.3
			c0.4-3.3-1.7-4.3-4.3-4.9C63.6,78.5,65.2,77,65.8,74.7z"/>
		<path class="st7" d="M66,46.9c0.3,1.9,0.6,3.7,0.9,5.6c-5.9,1-12.1-0.8-17.9,1.6c-0.4-0.3-0.7-0.3-0.9,0.2c0,0,0.2-0.1,0.2-0.1
			c-1.8-0.5-3.7-0.9-5.5-1.4c2.5-3.9,6.3-5.7,10.8-5.9C57.8,46.7,61.9,46.9,66,46.9z"/>
		<path class="st7" d="M81.2,67.7c-0.8,1.5,0,4.1-2.8,4.2c-3.7-3.2-7.4-6.5-12.5-6.9c-2.2-0.2-0.6-3.3-2.8-3.1
			C70.3,58.5,76.8,60.6,81.2,67.7z"/>
		<path class="st9" d="M65.8,74.7c-0.6,2.3-2.3,3.7-4.1,5.1c-2.6,0.3-4.6-0.4-5.7-2.9c-0.3-0.8-0.6-1.6-0.8-2.4c1.1-2,0.9-4.3,1-6.4
			C63.2,66.1,63.2,66.1,65.8,74.7z"/>
		<path class="st16" d="M42.9,52.8c1.8,0.5,3.7,0.9,5.5,1.4c-4.3,5-5.5,11-5,17.4c-1.4-3.5-1-7.4-3.7-10.8
			C37.5,58.1,39.5,54.6,42.9,52.8z"/>
		<path class="st18" d="M56.2,68.1c-0.1,2.2,0.1,4.4-1,6.4c-0.3,0.1-0.6,0.2-0.9,0.3c-0.6-2-0.6-4-0.1-6c0.2-0.4,0.5-0.8,0.7-1.2
			c0,0,0,0,0,0C55.3,67.8,55.8,67.9,56.2,68.1z"/>
		<path class="st0" d="M54.3,74.8c0.3-0.1,0.6-0.2,0.9-0.3c0.3,0.8,0.6,1.6,0.8,2.4C54.9,76.7,54.3,76,54.3,74.8z"/>
		<path class="st16" d="M44.7,75.8c-0.3-0.5-0.5-1.1-0.8-1.6C44.6,74.5,44.8,75,44.7,75.8z"/>
		<path class="st16" d="M48.2,54.3c0.2-0.5,0.5-0.5,0.9-0.2c0,0-0.4,0.2-0.4,0.2L48.2,54.3z"/>
		<path class="st0" d="M54.9,67.7c-0.2,0.4-0.5,0.8-0.7,1.2C54.1,68.2,54.3,67.8,54.9,67.7z"/>
		<path class="st15" d="M30,84.4c-8.5-10.1-8.6-29,2.3-35c1.3-0.7,2.4-1.7,3.7-2.5c4-0.4,6,0.5,3.3,4.8c-1,1.5-1.3,3.6-2.6,4.8
			c-7.1,6.9-7.6,15.5-6.7,24.5C30.1,82.1,30,83.3,30,84.4z"/>
		<path class="st20" d="M65.9,43.9c2.2,0.9,2.4,1.9,0.2,3C66,45.9,66,44.9,65.9,43.9z"/>
	</g>
</g>
</svg>
