<?xml version="1.0" encoding="utf-8"?>
<!-- Generator: Adobe Illustrator 22.0.1, SVG Export Plug-In . SVG Version: 6.00 Build 0)  -->
<svg version="1.1" id="Layer_1" xmlns="http://www.w3.org/2000/svg" xmlns:xlink="http://www.w3.org/1999/xlink" x="0px" y="0px"
	 viewBox="0 0 117.6 144" style="enable-background:new 0 0 117.6 144;" xml:space="preserve">
<style type="text/css">
	.st0{fill:#F5C885;}
	.st1{fill:#F5C886;}
	.st2{fill:#FAAF31;}
	.st3{fill:#FAAF2F;}
	.st4{fill:#F3B02A;}
	.st5{fill:#FAAF2D;}
	.st6{fill:#FBC46E;}
	.st7{fill:#FCBB56;}
	.st8{fill:#FBBC5A;}
	.st9{fill:#FCEACB;}
	.st10{fill:#FAD092;}
	.st11{fill:#FCC062;}
	.st12{fill:#FCC877;}
	.st13{fill:#FBB541;}
	.st14{fill:#F9D39A;}
	.st15{fill:#FDECCF;}
	.st16{fill:#FBC169;}
	.st17{fill:#FBB84A;}
	.st18{fill:#F9D6A0;}
	.st19{fill:#FDEDD1;}
	.st20{fill:#FBB953;}
	.st21{fill:#FCC672;}
	.st22{fill:#FBBA50;}
	.st23{fill:#FBBD60;}
	.st24{fill:#F8C77E;}
	.st25{fill:#F5A55C;}
	.st26{fill:#F59B36;}
	.st27{fill:#FCF0DD;}
</style>
<g>
	<g>
		<path class="st0" d="M52.7,82.6c-0.8,1.2-2,1.6-3.4,1.6c-6.5-2.5-7-2.3-9.3,3c-1.1,3-3.3,5.6-3,9l0-0.1c-1.5,0.4-1.9,1.5-2.1,2.9
			c-4.4,4.1-5.9,3.6-7.3-2.2c-0.8-2.9-0.7-5.9-0.5-8.8c1.2-0.8,2-1.8,2.3-3.1c3.4-14.2,9.5-27.2,17-39.6c0.9-1.5,1.6-2.7-0.6-3.5
			c1.8-2.7,3.9-3.9,6.5-0.9c0.1,3.6-1.5,6.8-2.1,10.2c-0.4,2,0,4.1,2,5.2c2,1.1,2.9-0.8,4.2-1.7c0,0,0.1,0.2,0.1,0.2
			c-0.4,1.3,0.4,1.9,1.4,2.4c3.2,4.7,4.2,4.9,10.3,1.8c-1.3,4.3-4.4,6.3-8.6,7c-1.2,0.2-3.1-0.7-3.2,1.2c0,1.4,1.8,1.7,3.1,2
			c11.2,2.7,21.7-7.8,19.5-19.5c1.7-2.1,3.5-4.3,6.6-3.5c3.3,0.9,2.4,4,2.8,6.3c0.3,1.6,0.2,3.3,0.1,4.9
			c-1.1,12.3-4.6,24.1-6.9,36.2c-0.9,4.6-1.9,9.5-5.2,13.3c-1.3,1.5-2.4,3.8-4.4,3.5c-2.4-0.3-2.8-2.9-3.3-5.1
			c0.2-0.9-0.1-1.7-0.8-2.2c0-0.7,0-1.3,0-2c1.9-3,1.1-6.3,0.9-9.5c-0.1-1.7-0.9-3.3-2.7-3.7c-2.5-0.6-1.7,2.3-2.9,3.2
			c-0.1-0.1-0.3-0.2-0.5-0.2c-1-2.1-2.1-4.3-3.1-6.4c1.4-0.9,3.2-1.7,2.9-3.7c-0.3-1.9-2-3-3.8-3.5c-1.4-0.4-2.9-0.8-4.4-0.8
			c-1.7,0.1-3.3,0.9-3.7,2.8C49.9,81.2,51.3,81.9,52.7,82.6z"/>
		<path class="st2" d="M67.8,101.1c0,0.7,0,1.3,0,2c-0.8,1.1-0.1,1.7,0.8,2.2c0.4,2.1,0.8,4.7,3.3,5.1c2.1,0.3,3.1-2,4.4-3.5
			c3.3-3.9,4.3-8.8,5.2-13.3c2.3-12,5.8-23.9,6.9-36.2c0.1-1.6,0.2-3.3-0.1-4.9c-0.4-2.3,0.5-5.4-2.8-6.3c-3.1-0.8-4.9,1.4-6.6,3.5
			c-3.9-0.5-5.3,3.4-8.3,4.6c1.3-3,2.5-6.2,4-9.1c2.4-4.5,7.7-7.1,12.5-6c4.7,1.1,5.9,5.1,7,9.3c1.4,5.6,0.6,11.1-0.6,16.3
			c-2.9,13-4.8,26.2-8.7,38.9c-1.2,3.9-3.3,7.3-6.2,10c-5.5,5.2-11.7,4.1-15-2.8c-1.6-3.4-3.5-6.9-1.5-10.9
			C63.9,101.4,66.4,98.6,67.8,101.1z"/>
		<path class="st3" d="M27,88.1c-0.2,3-0.2,5.9,0.5,8.8c1.5,5.8,3,6.3,7.3,2.2c1.3-0.6,1.9-1.6,2.1-2.9c0,0,0,0.1,0,0.1
			c1.5,1.7,3.5,2,5.6,1.9c-3.9,7.7-8.5,11-13.8,9.9c-4.7-0.9-8.5-7.3-8.3-15c0.1-4.8,1-9.6,2-14.3c1.7-8.3,3.4-16.6,5.7-24.7
			c2.6-9.5,9.3-15.9,17.9-20.2c3.9-2,8-0.7,10.8,2.6c2.1,2.5,4.1,5.5,1.2,8.9c-2.2-1.1-4.1-2.5-5.8-4.3c-2.6-3-4.7-1.9-6.5,0.9
			c-7.2,1.3-12.1,5.7-14.4,12.3C27.5,65.1,26.7,76.5,27,88.1z"/>
		<path class="st19" d="M70.7,54.3c2.9-1.2,4.4-5.1,8.3-4.6c2.2,11.7-8.4,22.2-19.5,19.5c-1.3-0.3-3.1-0.6-3.1-2
			c0.1-1.9,2-1,3.2-1.2c4.2-0.7,7.4-2.7,8.6-7c0.1-0.2,0.2-0.4,0.4-0.6c0.8-0.2,1.2-0.8,1.3-1.7C70.1,56,70.4,55.1,70.7,54.3z"/>
		<path class="st7" d="M52.3,41c1.6,1.8,3.6,3.2,5.8,4.3c-0.2,1-0.4,2.1-0.6,3.1c-0.2,0.2-0.4,0.5-0.6,0.8c-0.3,0.9-0.5,1.7-0.8,2.6
			c0,0.5,0,1.1,0,1.6c0.1,0.4,0.2,0.8,0.2,1.3c-1.2,1-2.1,2.9-4.2,1.7c-2-1.1-2.4-3.2-2-5.2C50.8,47.7,52.4,44.5,52.3,41z"/>
		<path class="st11" d="M67.8,101.1c-1.5-2.5-3.9,0.3-5.6-1c0.1-1.1,0.3-2.1,0.4-3.2c0.1-1.9,0.3-3.9,0.4-5.8
			c1.2-0.9,0.4-3.7,2.9-3.2c1.8,0.4,2.6,2,2.7,3.7C68.9,94.8,69.7,98.1,67.8,101.1z"/>
		<path class="st10" d="M52.7,82.6c-1.4-0.7-2.8-1.4-2.3-3.3c0.5-1.8,2-2.7,3.7-2.8c1.5,0,2.9,0.4,4.4,0.8c1.8,0.5,3.5,1.6,3.8,3.5
			c0.3,2-1.5,2.7-2.9,3.7c-1.2-0.6-2.4-1.2-3.6-1.8c-0.5-0.1-1-0.3-1.5-0.4C53.9,82.9,53.3,82.8,52.7,82.6z"/>
		<path class="st20" d="M42.7,98.1c-2.1,0.1-4.1-0.2-5.6-1.9c-0.3-3.4,1.9-6,3-9c2.5,0.1,2.6,2.5,3.9,3.9c0,0.9-0.1,1.9-0.1,2.8
			c-0.1,0.4-0.2,0.8-0.4,1.2c-0.1,0.4-0.3,0.8-0.4,1.2C42.9,96.9,42.8,97.5,42.7,98.1z"/>
		<path class="st6" d="M43.9,91.1c-1.2-1.4-1.4-3.8-3.9-3.9c2.3-5.3,2.7-5.4,9.3-3c-0.7,2.3-3.5,3.1-3.8,5.7
			c-0.3,0.3-0.5,0.5-0.8,0.8c0,0-0.1,0.2-0.1,0.2C44.4,90.9,44.1,91,43.9,91.1z"/>
		<path class="st2" d="M63.1,91.1c-0.1,1.9-0.3,3.9-0.4,5.8c-0.5-2-0.4-4-0.1-6C62.8,90.9,62.9,91,63.1,91.1z"/>
		<path class="st25" d="M57.8,57.2c-1.1-0.5-1.8-1.1-1.4-2.4C57.4,55.3,57.8,56.2,57.8,57.2z"/>
		<path class="st26" d="M43.9,91.1c0.2-0.1,0.5-0.2,0.7-0.2c0.3,1.1,0.1,2.2-0.8,3C43.8,93,43.9,92,43.9,91.1z"/>
		<path class="st0" d="M69.8,56.8c-0.1,0.8-0.5,1.4-1.3,1.7C68.4,57.5,69,57.1,69.8,56.8z"/>
		<path class="st25" d="M56.9,49.2c0.1-0.3,0.3-0.6,0.6-0.8C57.2,48.7,57,48.9,56.9,49.2z"/>
		<path class="st25" d="M56.1,53.3c0-0.5,0-1.1,0-1.6C56.1,52.3,56.1,52.8,56.1,53.3z"/>
		<path class="st26" d="M44.7,90.7c0.3-0.3,0.5-0.5,0.8-0.8C45.3,90.2,45,90.5,44.7,90.7z"/>
		<path class="st26" d="M43.1,96.3c0.1-0.4,0.3-0.8,0.4-1.2C43.3,95.5,43.2,95.9,43.1,96.3z"/>
		<path class="st0" d="M54.3,82.3c0.5,0.1,1,0.3,1.5,0.4C55.3,82.5,54.8,82.4,54.3,82.3z"/>
		<path class="st15" d="M27,88.1c-0.3-11.5,0.5-23,4.3-33.9c2.3-6.6,7.2-11,14.4-12.3c2.2,0.8,1.5,2,0.6,3.5
			c-7.5,12.4-13.7,25.4-17,39.6C29,86.3,28.2,87.3,27,88.1z"/>
		<path class="st11" d="M37,96.2c-0.2,1.3-0.8,2.3-2.1,2.9C35,97.7,35.5,96.5,37,96.2z"/>
		<path class="st11" d="M68.6,105.4c-0.9-0.5-1.6-1.1-0.8-2.2C68.5,103.7,68.7,104.5,68.6,105.4z"/>
	</g>
</g>
</svg>
