<?xml version="1.0" encoding="utf-8"?>
<!-- Generator: Adobe Illustrator 22.0.1, SVG Export Plug-In . SVG Version: 6.00 Build 0)  -->
<svg version="1.1" id="Layer_1" xmlns="http://www.w3.org/2000/svg" xmlns:xlink="http://www.w3.org/1999/xlink" x="0px" y="0px"
	 viewBox="0 0 68.7 144" style="enable-background:new 0 0 68.7 144;" xml:space="preserve">
<style type="text/css">
	.st0{fill:#F5C885;}
	.st1{fill:#F5C886;}
	.st2{fill:#FAAF31;}
	.st3{fill:#FAAF2F;}
	.st4{fill:#F3B02A;}
	.st5{fill:#FAAF2D;}
	.st6{fill:#FBC46E;}
	.st7{fill:#FCBB56;}
	.st8{fill:#FBBC5A;}
	.st9{fill:#FCEACB;}
	.st10{fill:#FAD092;}
	.st11{fill:#FCC062;}
	.st12{fill:#FCC877;}
	.st13{fill:#FBB541;}
	.st14{fill:#F9D39A;}
	.st15{fill:#FDECCF;}
	.st16{fill:#FBC169;}
	.st17{fill:#FBB84A;}
	.st18{fill:#F9D6A0;}
	.st19{fill:#FDEDD1;}
	.st20{fill:#FBB953;}
	.st21{fill:#FCC672;}
	.st22{fill:#FBBA50;}
	.st23{fill:#FBBD60;}
	.st24{fill:#F8C77E;}
	.st25{fill:#F5A55C;}
	.st26{fill:#F59B36;}
	.st27{fill:#FCF0DD;}
</style>
<g>
	<g>
		<path class="st1" d="M48.6,68.2c0.2,2.1,0.3,4.1,0.5,6.2c-0.1,0.5-0.2,1-0.4,1.6c-5,3.7-4.7,8.9-4.2,14.2
			c-0.4,1.8-0.6,3.5-1.1,5.2c-0.5,1.5-0.7,3.9-2.5,3.8c-2.1,0-2.4-2.3-2.6-4.1c-0.1-4.5-3-8.4-3-13c2.1-0.7,5.1-1.3,4.4-4.1
			c-0.7-2.5-2.2-5.5-6.1-3.7c-2.9-3.7,1.3-6,1.7-9.1c4.6-1.7,5.9-4.8,4.3-9.6c-1.1-3.4-3.5-6.8-1.2-10.7c3.6,2,3.1,6.1,4.8,9.1
			c-1.1,2-0.3,3.9,0.2,5.8C44.2,63.3,47.7,65,48.6,68.2z"/>
		<path class="st2" d="M43.2,54.2c-1.7-3-1.2-7.2-4.8-9.1c-1.9-2-3.2-1.4-4.4,0.9c-1.3,2.5-1.7,5.2-2,8c-0.7,0.8-1,1.8-0.8,2.9
			C31,57.9,30.9,59,30.8,60c-0.4,0-0.8,0-1.3,0c-0.4-4.6-1.1-9.2-1.2-13.9c-0.1-3.1-0.2-6.7,3.4-8.2c3.9-1.6,7.5-0.7,10.6,2
			c5.5,4.8,6,11.1,5.4,17.8C47.3,55.3,46.2,53.5,43.2,54.2z"/>
		<path class="st5" d="M38.2,95.1c0.3,1.8,0.6,4.1,2.7,4.1c1.8,0,2-2.3,2.5-3.8c0.5-1.7,0.8-3.5,1.1-5.2c2.8-0.1,4-2,4.4-4.5
			c0.6-3.3,0.6-6.5-0.2-9.8c0.1-0.5,0.2-1,0.4-1.6c2.1,9.5,1.9,18.8-2,27.8c-2.5,5.8-8.1,6.2-11.6,1c-2.9-4.3-3.9-9.1-4-14.2
			C33.7,91,36,93.1,38.2,95.1z"/>
		<path class="st23" d="M43.2,54.2c3-0.6,4.1,1.1,4.5,3.7c0.8,3.4,1.7,6.8,0.9,10.4c-1-3.3-4.4-4.9-5.3-8.2
			C42.9,58,42.1,56.1,43.2,54.2z"/>
		<path class="st9" d="M33.6,74.3c3.8-1.8,5.4,1.2,6.1,3.7c0.8,2.9-2.2,3.4-4.4,4.1c-1.7-0.2-2.9-1.3-4.2-2.2
			c-0.1-0.3-0.1-0.6,0-0.9c0.9-0.8,1.1-1.9,1.3-3C32.8,75.5,33.2,74.9,33.6,74.3z"/>
		<path class="st8" d="M31.1,80c1.3,0.9,2.5,2,4.2,2.2c0,4.5,2.8,8.4,3,13c-2.3-2-4.6-4.1-6.8-6.1c0,0,0,0,0,0
			c-0.1-1.4-0.2-2.8-0.3-4.2c0-0.5,0-0.9,0-1.4c0-0.6-0.1-1.1-0.1-1.7C31,81.1,31.1,80.5,31.1,80z"/>
		<path class="st24" d="M33.6,74.3c-0.4,0.6-0.8,1.1-1.2,1.7c-0.5-0.1-1-0.1-1.5-0.2c-0.1-1.3-0.2-2.7-0.4-4
			c0.1-0.3,0.1-0.6-0.2-0.9c-0.2-1.9-0.4-3.9-0.6-5.8c1.8-0.9,1.5-2.7,1.8-4.3c1.3,1.5,2.5,2.9,3.8,4.4
			C34.9,68.3,30.7,70.6,33.6,74.3z"/>
		<path class="st8" d="M31.5,60.9c-0.3,1.6,0.1,3.4-1.8,4.3c-0.1-1.7-0.1-3.4-0.2-5.1c0.4,0,0.8,0,1.3,0
			C31.1,60.3,31.3,60.6,31.5,60.9z"/>
		<path class="st5" d="M31.1,84.8c0.1,1.4,0.2,2.8,0.3,4.2C30.6,87.6,30.6,86.2,31.1,84.8z"/>
		<path class="st8" d="M30.9,75.9c0.5,0.1,1,0.1,1.5,0.2c-0.2,1.1-0.4,2.2-1.3,3C30.5,78.1,30.6,77,30.9,75.9z"/>
		<path class="st5" d="M31,81.7c0,0.5,0.1,1.1,0.1,1.7C31,82.8,31,82.3,31,81.7z"/>
		<path class="st26" d="M30.3,70.9c0.2,0.3,0.3,0.6,0.2,0.9c-0.1-0.2-0.2-0.4-0.3-0.6C30.1,71.2,30.3,71.1,30.3,70.9z"/>
		<path class="st15" d="M31.5,60.9c-0.2-0.3-0.5-0.6-0.7-0.8c0.1-1.1,0.2-2.1,0.3-3.2c1-0.8,1.1-1.8,0.8-2.9c0.3-2.8,0.7-5.5,2-8
			c1.2-2.3,2.5-2.9,4.4-0.9c-2.3,3.9,0.1,7.2,1.2,10.7c1.6,4.8,0.3,7.9-4.3,9.6C34.1,63.8,32.8,62.3,31.5,60.9z"/>
		<path class="st23" d="M48.7,75.9c0.8,3.2,0.7,6.5,0.2,9.8c-0.4,2.5-1.5,4.3-4.4,4.5C44,84.9,43.7,79.6,48.7,75.9z"/>
		<path class="st24" d="M32,53.9c0.3,1.1,0.2,2.2-0.8,2.9C31,55.8,31.2,54.8,32,53.9z"/>
	</g>
</g>
</svg>
