<?xml version="1.0" encoding="utf-8"?>
<!-- Generator: Adobe Illustrator 22.0.1, SVG Export Plug-In . SVG Version: 6.00 Build 0)  -->
<svg version="1.1" id="Layer_1" xmlns="http://www.w3.org/2000/svg" xmlns:xlink="http://www.w3.org/1999/xlink" x="0px" y="0px"
	 viewBox="0 0 111.6 144" style="enable-background:new 0 0 111.6 144;" xml:space="preserve">
<style type="text/css">
	.st0{fill:#F5C885;}
	.st1{fill:#F5C886;}
	.st2{fill:#FAAF31;}
	.st3{fill:#FAAF2F;}
	.st4{fill:#F3B02A;}
	.st5{fill:#FAAF2D;}
	.st6{fill:#FBC46E;}
	.st7{fill:#FCBB56;}
	.st8{fill:#FBBC5A;}
	.st9{fill:#FCEACB;}
	.st10{fill:#FAD092;}
	.st11{fill:#FCC062;}
	.st12{fill:#FCC877;}
	.st13{fill:#FBB541;}
	.st14{fill:#F9D39A;}
	.st15{fill:#FDECCF;}
	.st16{fill:#FBC169;}
	.st17{fill:#FBB84A;}
	.st18{fill:#F9D6A0;}
	.st19{fill:#FDEDD1;}
	.st20{fill:#FBB953;}
	.st21{fill:#FCC672;}
	.st22{fill:#FBBA50;}
	.st23{fill:#FBBD60;}
	.st24{fill:#F8C77E;}
	.st25{fill:#F5A55C;}
	.st26{fill:#F59B36;}
	.st27{fill:#FCF0DD;}
</style>
<g>
	<g>
		<path class="st3" d="M78.5,88.2c-1.1,4.7-2,9.4-3.3,14c-3.1,11.8-12.6,14.7-22.9,15.5c-6.2,0.5-12.6-0.5-18.9-0.8
			c-0.6,0-1.3-0.2-1.9-0.5c-5.5-2.6-11.8-17.1-10.1-23.1c0.8-2.7,2.2-4.8,5.3-5.1c0.4,0.1,0.9,0.1,1.3,0.2c0.6,1.9,1.2,3.8,1.8,5.8
			c-2.5,0.8-2,2.8-1.7,4.6c1.1,6.9,6.2,11.4,13.1,11.6c4,0.1,8,0.3,12,0c4.8-0.4,10-0.9,12.9-5.3c1.9-2.8,2.7-6.4,4-9.6
			C74.7,94.9,76,90.8,78.5,88.2z"/>
		<path class="st2" d="M60.3,30.4c-0.4-3.9,1.4-4.9,5.1-4.2c7.2,1.3,12,5.7,15.7,11.7c0.4,0.8,0.8,1.6,1.2,2.4c0,0,0,0,0,0
			c0,0.4,0,0.7,0.1,1.1c1.9,8.7,3.9,17.4-0.1,26c0-3.9-2.7-6.4-4.8-9.2c-0.1-2-0.1-4-0.5-5.9c-1.1-5.8-1.7-11.8-6.4-16.2
			c-0.9-0.9-1.9-2-3.4-1c-1.2,0.8-1.7,1.9-1.4,3.4c0.5,2.6,0.6,5.3-0.7,7.7c-2-1.7-1.5-5.5-5-6c0.1-2,0.2-4.1,0.3-6.1
			C61.2,32.9,61.2,31.6,60.3,30.4z"/>
		<path class="st7" d="M77.4,58.2c2.1,2.8,4.8,5.3,4.8,9.2c-1.2,6.9-2.4,13.9-3.6,20.8c-2.5,2.6-3.8,6.7-8.3,7.2
			C72.6,82.9,75,70.6,77.4,58.2z"/>
		<path class="st8" d="M30,94.1c-0.6-1.9-1.2-3.8-1.8-5.8c2.7,0,5.3-0.1,8-0.1c2.8,0.2,4.1,3.1,6.9,3.5c3.2,0.5,6.2,0.9,7.6-3
			c1.2,2.8,3,0.4,4.5,0.5c0,0.3,0,0.7,0,1c1.7,4.5,0,8.9-3.9,8.9c-5.7-0.1-12,2-16.6-3.7C33.6,94.1,31.6,94.3,30,94.1z"/>
		<path class="st6" d="M52.3,76.2c-0.4-9.5,3.8-17.9,5.9-26.9c0.9,1,1.8,1.9,2.7,2.9c-1.5,8.1-3.1,16.2-4.6,24.2
			C55,76.4,53.6,76.3,52.3,76.2z"/>
		<path class="st10" d="M52.3,76.2c1.3,0.1,2.7,0.2,4,0.3c-0.4,4.3-0.8,8.5-1.2,12.8c-1.5-0.1-3.3,2.3-4.5-0.5
			c0.1-1.1,0.3-2.2,0.4-3.4c0.1-0.3,0.1-0.7,0.2-1c0.1-0.7,0.3-1.3,0.4-2c0.1-0.4,0.2-0.9,0.2-1.3C52.1,79.4,52.2,77.8,52.3,76.2z"
			/>
		<path class="st20" d="M61,52.2c-0.9-1-1.8-1.9-2.7-2.9c0.1-1,0.1-2,0.2-3c2.3-1.6,1.6-3.9,1.6-6.1c0,0,0,0,0,0c3.4,0.5,3,4.2,5,6
			c0,0.3,0.1,0.7,0.1,1C63.7,48.9,62.3,50.6,61,52.2z"/>
		<path class="st26" d="M36.2,88.2c-2.7,0-5.3,0.1-8,0.1c-0.4-0.1-0.9-0.1-1.3-0.2C30,85.8,33.1,86.3,36.2,88.2z"/>
		<path class="st26" d="M60,40.2c0,2.2,0.7,4.5-1.6,6.1C58.4,44.2,58.9,42.1,60,40.2z"/>
		<path class="st26" d="M60.3,30.4c0.9,1.3,1,2.5,0,3.8C59.4,32.9,59.4,31.6,60.3,30.4z"/>
		<path class="st25" d="M82.2,40.3c-0.4-0.8-0.8-1.6-1.2-2.4C82.2,38.2,82.4,39.2,82.2,40.3z"/>
		<path class="st25" d="M51.2,84.4c-0.1,0.3-0.1,0.7-0.2,1c-0.1-0.3-0.1-0.5-0.1-0.8C50.9,84.5,51.1,84.5,51.2,84.4z"/>
		<path class="st25" d="M82.2,41.3c0-0.4,0-0.7-0.1-1.1c0.1,0.2,0.3,0.5,0.4,0.7C82.5,41.1,82.3,41.2,82.2,41.3z"/>
		<path class="st25" d="M51.9,81.1c-0.1,0.4-0.2,0.9-0.2,1.3C51.8,81.9,51.8,81.5,51.9,81.1z"/>
		<path class="st0" d="M65.1,47.3c0-0.3-0.1-0.7-0.1-1c1.4-2.5,1.2-5.1,0.7-7.7c-0.3-1.5,0.2-2.6,1.4-3.4c1.5-1,2.5,0.1,3.4,1
			c4.6,4.4,5.2,10.4,6.4,16.2c0.4,1.9,0.3,3.9,0.5,5.9c-2.4,12.4-4.8,24.8-7.1,37.2c-1.3,3.2-2,6.8-4,9.6c-3,4.4-8.1,4.9-12.9,5.3
			c-4,0.3-8,0.1-12,0c-6.9-0.2-12-4.7-13.1-11.6c-0.3-1.7-0.8-3.8,1.7-4.6c1.6,0.2,3.5,0,4.6,1.3c4.6,5.6,10.9,3.6,16.6,3.7
			c3.9,0,5.6-4.4,3.9-8.9c1.2-0.2,2.1-0.8,2.6-2c3.6-8.9,7.4-17.7,10.9-26.6C71.6,54.3,70.3,49.6,65.1,47.3z"/>
		<path class="st15" d="M65.1,47.3c5.1,2.3,6.4,7,3.5,14.4c-3.5,8.9-7.2,17.7-10.9,26.6c-0.5,1.2-1.4,1.8-2.6,2c0-0.3,0-0.7,0-1
			c0.4-4.3,0.8-8.5,1.2-12.8c1.5-8.1,3.1-16.2,4.6-24.2C62.3,50.6,63.7,48.9,65.1,47.3z"/>
	</g>
</g>
</svg>
