<?xml version="1.0" encoding="utf-8"?>
<!-- Generator: Adobe Illustrator 22.0.1, SVG Export Plug-In . SVG Version: 6.00 Build 0)  -->
<svg version="1.1" id="Layer_1" xmlns="http://www.w3.org/2000/svg" xmlns:xlink="http://www.w3.org/1999/xlink" x="0px" y="0px"
	 viewBox="0 0 98.5 144" style="enable-background:new 0 0 98.5 144;" xml:space="preserve">
<style type="text/css">
	.st0{fill:#F5C885;}
	.st1{fill:#F5C886;}
	.st2{fill:#FAAF31;}
	.st3{fill:#FAAF2F;}
	.st4{fill:#F3B02A;}
	.st5{fill:#FAAF2D;}
	.st6{fill:#FBC46E;}
	.st7{fill:#FCBB56;}
	.st8{fill:#FBBC5A;}
	.st9{fill:#FCEACB;}
	.st10{fill:#FAD092;}
	.st11{fill:#FCC062;}
	.st12{fill:#FCC877;}
	.st13{fill:#FBB541;}
	.st14{fill:#F9D39A;}
	.st15{fill:#FDECCF;}
	.st16{fill:#FBC169;}
	.st17{fill:#FBB84A;}
	.st18{fill:#F9D6A0;}
	.st19{fill:#FDEDD1;}
	.st20{fill:#FBB953;}
	.st21{fill:#FCC672;}
	.st22{fill:#FBBA50;}
	.st23{fill:#FBBD60;}
	.st24{fill:#F8C77E;}
	.st25{fill:#F5A55C;}
	.st26{fill:#F59B36;}
	.st27{fill:#FCF0DD;}
</style>
<g>
	<g>
		<path class="st0" d="M71.6,73.4c0,2.3,0,4.6,0,6.9c-2,0.1-3.6,0.7-3.7,3c-0.1,3.6-0.2,7.3,2.5,10.2c0.5,3.3,1,6.5,1.4,9.8
			c0.1,0.9,0.1,2.1-0.9,2.6c-1,0.5-1.9-0.1-2.7-0.7c-3.3-2.6-5.7-5.9-7.5-9.7c-2.1-8.4-3.2-9.4-10.3-10c-0.5-0.5-1-1-1.5-1.5
			c-0.6-0.2-1.2-0.4-1.9-0.6c-1.9-2-4-2.7-5.7-0.1c-1.5,2.4-3.6,4.7-3.5,7.9c-0.4,0.7-0.7,1.5-1.1,2.2c-1.2,2-2.3,4.2-5.2,3.6
			c-2.8-0.6-2.6-3-3.1-5.1c-1-4.3,0.8-8.5,0.5-12.8c3.5-2.2,3.2-6.4,4.6-9.6c3.4-8.3,8.3-16.5,5.3-26.2c0.9-2.4,2.7-4.1,4.1-6.2
			c2.1-3.3,3.1-1.7,4.2,0.5c1.5,3,0.8,6.2,1,9.3c-2.3,3.2-1.4,7.3-2.8,10.8c-0.9,2.4,1.8,1.7,3.4,1.5c2.3-0.4,4.1-3.2,6.8-1.2
			c-0.3,1.8-0.8,3.8,2.2,2.2c1.5-0.8,2.9-1.6,4.2-2.5c5.6-3.8,12.7-5.9,15.9-12.7c4.2,0.5,2.4,2.5,1,4.3c-1,0.3-1.6,1-1.9,1.9
			c-0.5,0.9-1.1,1.9-1.6,2.8c-5.5,3.6-6.2,6.9-3.1,15.2c-0.1,0.6-0.3,1.2-0.4,1.7C71.2,71.9,71,72.6,71.6,73.4z"/>
		<path class="st2" d="M28.9,79.4c0.3,4.3-1.4,8.5-0.5,12.8c0.5,2.1,0.3,4.5,3.1,5.1c2.9,0.6,4-1.7,5.2-3.6c0.4-0.7,0.7-1.5,1.1-2.2
			c2,0,3.9,1.6,5.9,0c-0.7,4.2-2.2,7.9-6,10.4c-6,3.8-13.2,1-14.8-6c-1-4.3-1.1-8.6-0.2-12.9c1.7-8.4,3.2-17,6.3-25.1
			C29.4,65.1,27.8,72.3,28.9,79.4z"/>
		<path class="st2" d="M60.7,95.7c1.9,3.7,4.2,7,7.5,9.7c0.8,0.6,1.7,1.2,2.7,0.7c1.1-0.5,1.1-1.7,0.9-2.6c-0.4-3.3-1-6.5-1.4-9.8
			c1.4-1.6,3.5-2.7,3.5-5.2c2.8,5.2,4.2,10.8,4,16.7c-0.3,7.5-6,10.2-12,5.8c-4.4-3.2-8.2-7.1-9.8-12.6
			C57.6,97.4,59.2,96.5,60.7,95.7z"/>
		<path class="st15" d="M28.9,79.4C27.8,72.3,29.4,65.1,29,58c0.3-1.8,0.7-3.5,1-5.3c0.2-0.5,0.3-1,0.5-1.5c0.1-0.2,0.2-0.3,0.2-0.6
			c1.1-0.8,1.6-1.8,1.3-3.2c0,0,0,0.1,0,0.1c2.7-0.6,4.1-3.4,6.9-3.8c3,9.7-1.9,17.9-5.3,26.2C32.2,73,32.5,77.2,28.9,79.4z"/>
		<path class="st2" d="M38.9,43.7c-2.8,0.4-4.2,3.2-6.9,3.8c-0.1-4.5,0.4-8.7,4.8-11.2c2,0.1,3-0.9,2.9-2.9
			c4.5-3.6,9.1-3.3,12.1,1.5c2.3,3.7,4.3,7.8,1.6,12.4c-1.7,0-3.4,0.1-5.1,0.1c-0.2-3.1,0.5-6.3-1-9.3c-1.1-2.2-2.1-3.8-4.2-0.5
			C41.6,39.6,39.7,41.3,38.9,43.7z"/>
		<path class="st5" d="M75.5,54.4c0.5-0.9,1.1-1.9,1.6-2.8c1-0.3,1.6-1,1.9-1.9c1.4-1.8,3.3-3.7-1-4.3c-2.5-3-5.9-2-9.1-1.8
			c-0.4-0.1-0.7-0.1-1.1-0.2c3.8-3.2,8.5-3.8,13.1-3.7c5.9,0.1,8.1,4.2,5.6,9.6c-1.9,4.2-5.5,6.9-8.9,9.7C77.9,57,78.1,55,75.5,54.4
			z"/>
		<path class="st16" d="M67.9,43.3c0.4,0.1,0.7,0.1,1.1,0.2c-5.2,4.3-9.1,9.8-13.3,14.8c-2.7-1.9-4.5,0.8-6.8,1.2
			c-1.6,0.3-4.3,0.9-3.4-1.5c1.3-3.6,0.5-7.6,2.8-10.8c1.7,0,3.4-0.1,5.1-0.1c-0.1,0.7-0.2,1.3-0.3,2c0,0.4-0.1,0.9-0.1,1.3
			c0.1,1-0.2,2.4,0.3,2.8c1.2,0.9,2-0.6,2.7-1.3C59.7,48.8,63.2,45.3,67.9,43.3z"/>
		<path class="st23" d="M60.7,95.7c-1.6,0.9-3.1,1.8-4.7,2.7c-2.2-4.1-3-8.8-5.6-12.7C57.6,86.3,58.6,87.3,60.7,95.7z"/>
		<path class="st8" d="M75.5,54.4c2.6,0.6,2.4,2.6,2.3,4.5c-0.1,0.2-0.2,0.4-0.4,0.5c-0.2,0.2-0.4,0.5-0.5,0.9
			c-1.5,3.1-3,6.2-4.5,9.3C69.3,61.3,70,58,75.5,54.4z"/>
		<path class="st23" d="M43.7,91.5c-2,1.6-3.9-0.1-5.9,0c-0.2-3.2,1.9-5.5,3.5-7.9c1.7-2.6,3.8-1.9,5.7,0.1c0,0.6-0.1,1.3-0.1,1.9
			C45.8,87.5,44.8,89.5,43.7,91.5z"/>
		<path class="st8" d="M73.9,88.4c0.1,2.5-2.1,3.6-3.5,5.2c-2.7-3-2.6-6.6-2.5-10.2c0-2.4,1.7-3,3.7-3c0,0,0.3,0.2,0.3,0.2
			c0.1,0.6,0.2,1.1,0.3,1.7C72.9,84.2,74,86.1,73.9,88.4z"/>
		<path class="st25" d="M39.6,33.4c0.1,2-0.9,3-2.9,2.9C37,34.6,38.1,33.8,39.6,33.4z"/>
		<path class="st25" d="M46.9,85.5c0-0.6,0.1-1.3,0.1-1.9c0.6,0.2,1.2,0.4,1.9,0.6C48.2,84.6,47.6,85.1,46.9,85.5z"/>
		<path class="st8" d="M71.6,73.4c-0.7-0.9-0.4-1.5,0.4-2.1C71.9,72,71.8,72.7,71.6,73.4z"/>
		<path class="st2" d="M31.9,47.5c0.3,1.4-0.2,2.4-1.3,3.2C30.5,49.3,30.9,48.3,31.9,47.5z"/>
		<path class="st2" d="M72.2,82.2c-0.1-0.6-0.2-1.1-0.3-1.7C72,81.1,72.1,81.7,72.2,82.2z"/>
		<path class="st2" d="M52.9,50.5c0-0.4,0.1-0.9,0.1-1.3C53,49.6,52.9,50.1,52.9,50.5z"/>
		<path class="st2" d="M30.5,51.2c-0.2,0.5-0.3,1-0.5,1.5C30.2,52.2,30.3,51.7,30.5,51.2z"/>
		<path class="st5" d="M76.9,60.3c0.1-0.3,0.2-0.6,0.5-0.9C77.3,59.8,77.1,60,76.9,60.3z"/>
		<path class="st19" d="M55.6,58.4c4.3-5.1,8.1-10.6,13.3-14.8c3.2-0.1,6.5-1.1,9.1,1.8c-3.2,6.8-10.3,8.9-15.9,12.7
			c-1.4,0.9-2.8,1.7-4.2,2.5C54.8,62.1,55.3,60.1,55.6,58.4z"/>
		<path class="st7" d="M79,49.6c-0.3,1-0.9,1.6-1.9,1.9C77.4,50.6,78,50,79,49.6z"/>
	</g>
</g>
</svg>
