<?xml version="1.0" encoding="utf-8"?>
<!-- Generator: Adobe Illustrator 22.0.1, SVG Export Plug-In . SVG Version: 6.00 Build 0)  -->
<svg version="1.1" id="Layer_1" xmlns="http://www.w3.org/2000/svg" xmlns:xlink="http://www.w3.org/1999/xlink" x="0px" y="0px"
	 viewBox="0 0 81.7 144" style="enable-background:new 0 0 81.7 144;" xml:space="preserve">
<style type="text/css">
	.st0{fill:#F5C885;}
	.st1{fill:#F5C886;}
	.st2{fill:#FAAF31;}
	.st3{fill:#FAAF2F;}
	.st4{fill:#F3B02A;}
	.st5{fill:#FAAF2D;}
	.st6{fill:#FBC46E;}
	.st7{fill:#FCBB56;}
	.st8{fill:#FBBC5A;}
	.st9{fill:#FCEACB;}
	.st10{fill:#FAD092;}
	.st11{fill:#FCC062;}
	.st12{fill:#FCC877;}
	.st13{fill:#FBB541;}
	.st14{fill:#F9D39A;}
	.st15{fill:#FDECCF;}
	.st16{fill:#FBC169;}
	.st17{fill:#FBB84A;}
	.st18{fill:#F9D6A0;}
	.st19{fill:#FDEDD1;}
	.st20{fill:#FBB953;}
	.st21{fill:#FCC672;}
	.st22{fill:#FBBA50;}
	.st23{fill:#FBBD60;}
	.st24{fill:#F8C77E;}
	.st25{fill:#F5A55C;}
	.st26{fill:#F59B36;}
	.st27{fill:#FCF0DD;}
</style>
<g>
	<g>
		<path class="st1" d="M42.7,57.6c-0.1,1-0.2,1.9-0.3,2.9c-0.4,0.4-0.7,0.8-1.1,1.2c-9.5,7.4-10.2,13-2.8,21.8
			c0.3,0.4,0.6,0.8,0.8,1.2c-2.5,0.6-3.3,2-2,4.4c1.1,2.1,2.2,4.1,4,5.6c1,0.7,2,1.3,3,2c4.3,4,10,3.3,15.1,4.8
			c3.9,1.7,3,3.4-0.1,4.7c-7,3-14.4,1.1-21.6,1.5c-3.1,0.2-5.9-0.5-8.3-2.5c-4.6-6.3-4.5-13.7-2.3-20.3c1.9-5.7,2.4-11.2,2.3-16.9
			c0.9-5,4.3-9.5,2.9-14.9c1.2-1,3.2-1.4,3.1-3.4c-0.1-1.7-1.7-1.7-2.9-1.9c-0.2-0.5-0.3-0.9-0.5-1.4c0.5-1.9-0.8-5.1,1.3-5.5
			c2.2-0.4,2.1,3.1,3.5,4.7c0.2,1.6,0.6,3.2,0.5,4.8C36.9,54.5,37.4,57.8,42.7,57.6z"/>
		<path class="st2" d="M29.4,105.2c2.4,2,5.2,2.7,8.3,2.5c7.2-0.4,14.6,1.4,21.6-1.5c3.2-1.3,4-3.1,0.1-4.7c-2-2.1-3.7-4.3-0.2-6.6
			c2.6,0.6,5,1.5,6.9,3.6c4,4.2,3.2,9.4-1.7,12.5c-3.7,2.3-7.7,2.9-11.9,3.2c-7.8,0.5-15.8,1.2-23.2-1.5
			c-11.4-4.1-16.8-17.4-13-30.3c0.9-2.8,0.5-6.5,3.9-8.2c-1.1,4.8-2.5,9.6-1.4,14.6C20.5,95.4,21.2,102.7,29.4,105.2z"/>
		<path class="st15" d="M29.4,105.2c-8.1-2.5-8.8-9.8-10.4-16.5c-1.2-5,0.3-9.8,1.4-14.6c0,0,0.1,0,0.1,0c3.5-1.4,4.6-6.2,9-6.2
			c0.1,5.8-0.4,11.2-2.3,16.9C24.9,91.5,24.8,98.9,29.4,105.2z"/>
		<path class="st3" d="M36.7,45.5c-1.3-1.5-1.3-5.1-3.5-4.7c-2.1,0.4-0.8,3.6-1.3,5.5c-0.9,0.5-1.5,1.3-1.6,2.3
			c-0.7,0.3-1.3,0.6-2,0.9c-1.3,0-1.8,0.9-2.2,2C24.2,46.3,26,41,26.7,35.7c0.5-3.7,5.8-4.6,9.4-1.9c3.4,2.6,5.7,5.9,6.2,10.2
			C40.9,46.4,39.2,47.3,36.7,45.5z"/>
		<path class="st10" d="M39.3,84.6c-0.3-0.4-0.5-0.8-0.8-1.2c-7.4-8.8-6.7-14.4,2.8-21.8c0.1,1,0.2,2,0.2,3c-0.1,7-1.7,14,0.6,20.9
			C41.2,85.3,40.3,85,39.3,84.6z"/>
		<path class="st11" d="M26.3,51.7c0.4-1.1,0.8-2,2.2-2c-0.5,3.1,2.2,2.6,3.8,3.3c1.4,5.4-2,9.9-2.9,14.9c-4.4,0-5.5,4.8-9,6.2
			c-0.5-4.5,2.8-7.5,4.1-11.4C25.7,59.1,26.9,55.6,26.3,51.7z"/>
		<path class="st20" d="M59.2,94.8c-3.5,2.3-1.8,4.5,0.2,6.6c-5.1-1.5-10.8-0.8-15.1-4.8c1.1-1.2,2.9-2,2.9-4.1l0.4-0.1
			C51.5,93.1,55.4,93.4,59.2,94.8z"/>
		<path class="st7" d="M36.7,45.5c2.5,1.7,4.2,0.8,5.6-1.5c1.8,4.5,2.1,9,0.4,13.6c-5.2,0.2-5.7-3.1-5.4-7.2
			C37.3,48.8,36.9,47.2,36.7,45.5z"/>
		<path class="st21" d="M39.3,84.6c0.9,0.3,1.9,0.7,2.8,1c1.8,2.3,3.7,4.6,5.5,6.8c0,0-0.4,0.1-0.4,0.1c-2.2,0.1-4.5-0.2-5.9,2
			c-1.9-1.5-3-3.5-4-5.6C36,86.7,36.8,85.3,39.3,84.6z"/>
		<path class="st7" d="M41.5,64.7c-0.1-1-0.2-2-0.2-3c0.4-0.4,0.7-0.8,1.1-1.2C42.9,62.1,42.3,63.4,41.5,64.7z"/>
		<path class="st9" d="M32.3,53.1c-1.6-0.7-4.3-0.2-3.8-3.3c0.7-0.3,1.3-0.6,2-0.9c0.7-0.3,1.4-0.7,2-1c1.3,0.2,2.8,0.2,2.9,1.9
			C35.4,51.7,33.4,52,32.3,53.1z"/>
		<path class="st11" d="M41.3,94.6c1.4-2.3,3.7-1.9,5.9-2c0,2.1-1.8,2.8-2.9,4.1C43.3,96,42.3,95.3,41.3,94.6z"/>
		<path class="st11" d="M32.5,47.8c-0.7,0.3-1.4,0.7-2,1c0.1-1.1,0.7-1.8,1.6-2.3C32.2,46.9,32.3,47.3,32.5,47.8z"/>
	</g>
</g>
</svg>
