<?xml version="1.0" encoding="utf-8"?>
<!-- Generator: Adobe Illustrator 22.0.1, SVG Export Plug-In . SVG Version: 6.00 Build 0)  -->
<svg version="1.1" id="Layer_1" xmlns="http://www.w3.org/2000/svg" xmlns:xlink="http://www.w3.org/1999/xlink" x="0px" y="0px"
	 viewBox="0 0 133.2 144" style="enable-background:new 0 0 133.2 144;" xml:space="preserve">
<style type="text/css">
	.st0{fill:#F5C885;}
	.st1{fill:#F5C886;}
	.st2{fill:#FAAF31;}
	.st3{fill:#FAAF2F;}
	.st4{fill:#F3B02A;}
	.st5{fill:#FAAF2D;}
	.st6{fill:#FBC46E;}
	.st7{fill:#FCBB56;}
	.st8{fill:#FBBC5A;}
	.st9{fill:#FCEACB;}
	.st10{fill:#FAD092;}
	.st11{fill:#FCC062;}
	.st12{fill:#FCC877;}
	.st13{fill:#FBB541;}
	.st14{fill:#F9D39A;}
	.st15{fill:#FDECCF;}
	.st16{fill:#FBC169;}
	.st17{fill:#FBB84A;}
	.st18{fill:#F9D6A0;}
	.st19{fill:#FDEDD1;}
	.st20{fill:#FBB953;}
	.st21{fill:#FCC672;}
	.st22{fill:#FBBA50;}
	.st23{fill:#FBBD60;}
	.st24{fill:#F8C77E;}
	.st25{fill:#F5A55C;}
	.st26{fill:#F59B36;}
	.st27{fill:#FCF0DD;}
</style>
<g>
	<g>
		<path class="st0" d="M62,59.1c0,0.7,0,1.3,0,2c-5.4,4-4,9.7-4.2,15.2c-0.2,4.3,1.5,7.3,4.6,9.8c3,2.5,6.5,1.7,7.1-2
			c0.5-2.8,2.2-4.7,3.3-7c1.5-0.9,2-2.5,3-3.8c2.7-3.4,4.3-7.7,8.6-9.6c0.6,2.1,0.1,3.9-1.3,5.6c-1.1,1.3-2,2.7-1.8,4.5
			c0.7,6.3-1.9,11.3-6.1,15.6c-2.9,3.1-5,6.6-6.6,10.5c-5.3,3.6-7.3,3.1-11.9-2.8c-2.4-6-3.3-12.8-9.1-16.9c0-0.6,0-1.2-0.1-1.8
			c1-4,1.4-8.1,1.2-12.2c0-2-0.1-4-0.1-6.1c-0.6-2.8-2.5-4.4-5.2-4.5c-2.2-0.1-3.4,1.9-3.4,3.7c0.2,10.3-2.7,20.5-0.4,30.8
			c0,0.7,0,1.3-0.1,2c-1,0.5-1.6,1.2-1.4,2.3c-0.1,1.3-0.1,2.5-0.2,3.8c0,0.4,0,0.9,0,1.3c-1.1,2.2-0.7,5.9-4.5,5.5
			c-3.3-0.4-6-2-6.5-5.8c-0.3-1.9-0.4-4-0.2-5.9c0.5-5.3,1.3-10.5,2-15.7c3.6-6.9,5.3-14.5,9.2-21.2c1.3-2.3,1.5-5,1.6-7.7
			c0.1-2.8-1-4.4-4-4.6c1.6-6.3,3.6-8.1,8.2-7.2c1.2,1.6,2,3.7,4.6,3.1c1.2,1.4,2.3,2.8,3.5,4.2c-0.2,3.3,3,5.6,2.9,8.8
			c-0.2,4.6,2.2,5.7,6.1,5.1C61.4,58.3,61.7,58.7,62,59.1z"/>
		<path class="st3" d="M80.9,48.5c2.4-4.2,6.1-6.9,10.4-8.8c8.8-3.9,15.8-0.1,17.8,9.3c2.1,10.2-0.5,20.1-2.1,30.1
			c-1.4,8.5-2.8,17-4.1,25.5c-0.6,4.1-1.8,8.2-3.5,11.9c-1.7,3.6-4.6,6.1-9.1,5.4c-5.3-0.8-10.2-5-11.2-10c-0.3-1.3-0.1-2.6-0.2-4
			c1.3-2.6,2.9-4.4,5.9-1.9c0.1,0.8,0,1.7,0.2,2.5c0.6,3.1,1.8,5.9,5.3,6.4c4,0.5,3.7-3.1,4.4-5.4c4-14.5,5.2-29.6,8-44.4
			c0.9-4.6,1.1-9.6-0.3-14.3c-0.2-1.7,3-2,1.9-4c-1-1.8-2.9-0.5-4.4-0.7c-3.2-2.7-5.7-0.7-8.2,1.3c-2.2,0.9-4.5,1.8-6.7,2.6
			C83.5,50,82.1,49.6,80.9,48.5z"/>
		<path class="st3" d="M52,44c-1.2-1.4-2.3-2.8-3.5-4.2c0-1.4,1.9-2.7,0.6-3.9c-1.4-1.4-2.5,0.7-3.8,1c-0.4,0.1-0.9-0.1-1.4-0.1
			c-4.6-0.9-6.5,0.8-8.2,7.2c-9.4,9.7-8.7,21.5-6.8,33.6c-0.7,5.2-1.4,10.5-2,15.7c-0.2,1.9,0,4,0.2,5.9c0.5,3.7,3.3,5.4,6.5,5.8
			c3.8,0.4,3.4-3.3,4.5-5.5c0.2,0,0.5,0,0.8,0c1.3,1.7,2.5,3.4,4.8,3.8c-0.8,5-3.5,8.3-8.6,8.9c-4.4,0.5-11.3-3.7-13.2-7.5
			c-2.2-4.5-2.3-9.4-1.5-14.2c2.7-15.3,3.5-31,7.5-46.1c0.4-1.4,0.8-2.9,1.5-4.2c3-5.7,6.5-11.3,13.8-11.3c5.7,0,12.7,7.3,14.8,14.5
			C55.7,41.6,53.9,42.7,52,44z"/>
		<path class="st6" d="M68.9,99.9c1.5-3.9,3.6-7.4,6.6-10.5c4.2-4.3,6.8-9.3,6.1-15.6c-0.2-1.8,0.7-3.2,1.8-4.5
			c1.4-1.7,1.8-3.5,1.3-5.6c0,0,0.2,0,0.2,0c0.8,0,1.6,0.1,2.5-0.1c6.1-0.9,7.7,1.3,5.7,7.2C92,73.5,91.7,76.3,91,79
			c-1.2,4.5-2.4,9.1-4.7,13.1c-1.4,0.3-2.8,0.6-4.2,0.9l0,0c-0.2-0.9,0-2.3-1.2-2.3c-2.6,0-1.6,2.7-2.7,4c-0.7,1.4-1.4,2.9-2.1,4.3
			C73.5,98.7,71.5,101.7,68.9,99.9z"/>
		<path class="st14" d="M73,77.1c-1.1,2.3-2.9,4.2-3.3,7c-0.6,3.7-4.2,4.4-7.1,2c-3.1-2.6-4.8-5.5-4.6-9.8
			c0.2-5.5-1.2-11.2,4.2-15.2c0.2,0.1,0.3,0.3,0.3,0.6c-0.5,1.5-0.3,2.8,1.3,3.6c0.1,2.8,0.2,5.6,0.4,8.4c0,0.7-0.5,1.8,0.6,2.1
			c0.9,0.3,1.6-0.2,2-1c1.1-2.1,3.5-3.5,3.1-6.5c-0.3-2.9,2.5-4.6,3.3-7.1c0.6,1.1,1.2,2.2,1.9,3.3C74.3,68.7,72.2,72.6,73,77.1z"/>
		<path class="st20" d="M68.9,99.9c2.6,1.9,4.6-1.2,7.1-0.9c-2.2,5.3-5.3,9.7-11.6,9.9c-5.6,0.2-10.6-4.1-13.2-11
			c0,0,0.2-0.2,0.2-0.2c1,0.2,1.9,0,2.7-0.7c1,0,2,0,3,0C61.6,103,63.6,103.4,68.9,99.9z"/>
		<path class="st8" d="M52,44c1.9-1.3,3.7-2.4,6-0.9c2.5,4.1,3.1,8.7,3.3,13.3c-0.1,0.5-0.2,1-0.4,1.5c-3.9,0.5-6.3-0.5-6.1-5.1
			C55,49.6,51.8,47.3,52,44z"/>
		<path class="st22" d="M78,94.7c1.1-1.2,0.1-4,2.7-4c1.2,0,1.1,1.4,1.2,2.3c-0.6,0.6-1,1.3-0.7,2.2c0,0.1,0.3,0.1,0.4,0.2
			c0.1-0.8,0.2-1.6,0.3-2.4c1.4-0.3,2.8-0.6,4.2-0.9c-0.1,1.3-0.1,2.6-0.2,3.9c-0.3,0.7-0.6,1.4-0.9,2.1c-0.1,2.7-0.2,5.3-0.3,8
			c-3-2.5-4.5-0.7-5.9,1.9C78,103.6,80.1,99,78,94.7z"/>
		<path class="st6" d="M57,97c-1,0-2,0-3,0c-1-0.4-1.9-0.7-2.9-1.1c-0.2-0.9-0.7-1.7-1.7-2c-0.2-1-0.3-2-0.5-3
			c-0.1-0.6-0.3-1.3-0.4-1.9c-0.1-0.5-0.3-0.9-0.4-1.4c-0.1-0.5-0.2-1-0.3-1.6c-0.2-1.4-0.5-2.8-0.7-4.2c0.3-0.6,0.5-1.3,0.8-1.9
			C53.7,84.2,54.6,91,57,97z"/>
		<path class="st13" d="M43.8,103c-2.3-0.4-3.5-2.1-4.8-3.8c-0.3-0.4-0.5-0.8-0.8-1.2c0.1-1.3,0.1-2.5,0.2-3.8
			c0.9-0.5,1.4-1.3,1.4-2.3c0-0.7,0-1.3,0.1-2c1.3,0.4,2.5,1,2.8,2.5c0.3,1.3,0.5,2.5,0.7,3.8c1-1.3,0.3-2.8,0.6-4.2
			c0.1-0.3,0-0.7,0.1-1c0.5-0.3,1.1-0.6,1.6-0.8C45.9,94.6,45.7,98.9,43.8,103z"/>
		<path class="st16" d="M80.9,48.5c1.1,1.1,2.5,1.5,4.1,1.6c-2.6,2.5-5.2,5-6.8,8.3c-0.3,0.3-0.5,0.6-0.8,0.8
			c-0.1,0.3-0.2,0.7-0.3,1c-0.4-0.1-0.7-0.1-1.1-0.2c-0.3-0.7-0.7-1.4-1-2C76.4,54.5,78.1,51.1,80.9,48.5z"/>
		<path class="st25" d="M45.7,90.2c-0.5,0.3-1.1,0.6-1.6,0.8c0-0.7-0.1-1.3-0.1-2c0.4-3.7-0.7-7.5,1-11.2c0.9,0.1,1.9,0.3,2.8,0.4
			c0,0.6,0,1.2,0.1,1.8c-0.3,0.6-0.5,1.3-0.8,1.9C44.9,84.4,46.5,87.5,45.7,90.2z"/>
		<path class="st16" d="M75,64.5c-0.6-1.1-1.2-2.2-1.9-3.3c0-1.2,0.7-2,1.5-2.7c0.5,0.9,1,1.8,1.5,2.6C75.8,62.3,75.4,63.4,75,64.5z
			"/>
		<path class="st25" d="M63.7,65.2c-1.6-0.8-1.8-2.1-1.3-3.6C63.3,62.6,63.8,63.8,63.7,65.2z"/>
		<path class="st20" d="M49.4,94c1,0.3,1.5,1,1.7,2c0.1,0.6,0.1,1.2,0.2,1.8c0,0-0.2,0.2-0.2,0.2C50.2,96.8,49.5,95.5,49.4,94z"/>
		<path class="st25" d="M61,57.9c0.1-0.5,0.2-1,0.4-1.5c0.7,0.8,1.2,1.6,0.7,2.7C61.7,58.7,61.4,58.3,61,57.9z"/>
		<path class="st24" d="M76.2,61.1c-0.5-0.9-1-1.8-1.5-2.6c0-0.2,0.1-0.4,0.3-0.4c0.3,0.7,0.7,1.4,1,2c0.1,0.3,0.3,0.7,0.4,1
			L76.2,61.1z"/>
		<path class="st25" d="M47.8,86.2c0.1,0.5,0.2,1,0.3,1.6C47.6,87.3,47.5,86.8,47.8,86.2z"/>
		<path class="st25" d="M48.5,89.2c0.1,0.6,0.3,1.3,0.4,1.9C48.8,90.4,48.6,89.8,48.5,89.2z"/>
		<path class="st15" d="M28.9,77.3c-1.9-12-2.5-23.8,6.8-33.6c2.9,0.2,4,1.8,4,4.6c-0.1,2.7-0.3,5.4-1.6,7.7
			C34.2,62.8,32.5,70.5,28.9,77.3z"/>
		<path class="st19" d="M75,64.5c0.4-1.1,0.8-2.2,1.2-3.3c0,0,0.2,0,0.2,0c0.2-0.3,0.5-0.6,0.7-0.9c0.1-0.3,0.2-0.7,0.3-1
			c0.3-0.3,0.5-0.6,0.8-0.8c1.6-3.3,4.2-5.9,6.8-8.3c2.2-0.9,4.5-1.8,6.7-2.6c1.1,1.7,0.8,3.3,0.3,5.2c-1.3,4.5-4.9,7.4-7.3,11.1
			c0,0-0.2,0-0.2,0c-4.3,1.9-5.9,6.2-8.6,9.6c-1,1.2-1.5,2.9-3,3.8C72.2,72.6,74.3,68.7,75,64.5z"/>
		<path class="st11" d="M44,89c0,0.7,0.1,1.3,0.1,2c0,0.3,0,0.7-0.1,1c-0.3,1.4,0.5,2.9-0.6,4.2c-0.2-1.3-0.5-2.5-0.7-3.8
			c-0.3-1.5-1.5-2.1-2.8-2.5c-2.3-10.3,0.6-20.5,0.4-30.8c0-1.8,1.2-3.8,3.4-3.7c2.7,0.1,4.6,1.7,5.2,4.5c-1.8,0.4-2.6,1.8-3.5,3.2
			C39.6,71.5,42.7,80.3,44,89z"/>
		<path class="st21" d="M44,89c-1.3-8.7-4.4-17.4,1.3-25.8c1-1.4,1.7-2.8,3.5-3.2c0,2,0.1,4,0.1,6.1c-4.7,2.8-2.7,7.9-4,11.8
			C43.3,81.4,44.4,85.3,44,89z"/>
		<path class="st6" d="M44.9,77.8c1.3-3.9-0.7-9,4-11.8c0.2,4.1-0.1,8.2-1.2,12.2C46.8,78.1,45.9,78,44.9,77.8z"/>
		<path class="st9" d="M43.9,36.6c0.5,0.1,1,0.2,1.4,0.1c1.3-0.3,2.3-2.4,3.8-1c1.2,1.2-0.6,2.6-0.6,3.9
			C45.9,40.3,45.1,38.2,43.9,36.6z"/>
		<path class="st11" d="M39.8,91.9c0,1.1-0.5,1.8-1.4,2.3C38.2,93.1,38.8,92.3,39.8,91.9z"/>
		<path class="st11" d="M38.2,98c0.3,0.4,0.5,0.8,0.8,1.2c-0.3,0-0.5,0-0.8,0.1C38.2,98.8,38.2,98.4,38.2,98z"/>
		<path class="st0" d="M84.7,63.7c2.3-3.8,5.9-6.6,7.3-11.1c0.6-1.9,0.8-3.5-0.3-5.2c2.5-2,5-3.9,8.2-1.3c0.3,1.6-0.4,2.8-1.6,3.7
			c-0.8,0.6-1.3,1.5-0.4,2.5c0.8,0.9,1.7,0.5,2.6-0.1c0.6-0.5,1.3-0.9,2-1.4c1.4,4.7,1.2,9.7,0.3,14.3c-2.9,14.8-4.1,29.8-8,44.4
			c-0.6,2.3-0.3,6-4.4,5.4c-3.5-0.5-4.7-3.3-5.3-6.4c-0.2-0.8-0.1-1.6-0.2-2.5c0.1-2.7,0.2-5.3,0.3-8c1-0.4,1.7-0.9,0.9-2.1
			c0.1-1.3,0.1-2.6,0.2-3.9C88.6,88,89.7,83.5,91,79c0.7-2.7,1-5.5,1.9-8.1c2-5.8,0.4-8.1-5.7-7.2C86.4,63.8,85.5,63.7,84.7,63.7z"
			/>
		<path class="st9" d="M102.5,50.9c-0.7,0.5-1.3,0.9-2,1.4c-0.8,0.6-1.7,1-2.6,0.1c-0.9-0.9-0.4-1.8,0.4-2.5c1.3-1,1.9-2.1,1.6-3.7
			c1.5,0.3,3.4-1.1,4.4,0.7C105.5,48.8,102.3,49.1,102.5,50.9z"/>
		<path class="st11" d="M51.2,97.8c-0.1-0.6-0.1-1.2-0.2-1.8c1,0.4,1.9,0.7,2.9,1.1C53.2,97.8,52.3,98,51.2,97.8z"/>
		<path class="st6" d="M86,96c0.8,1.2,0.2,1.7-0.9,2.1C85.4,97.4,85.7,96.7,86,96z"/>
		<path class="st6" d="M82,93c-0.1,0.8-0.2,1.6-0.3,2.4c-0.1-0.1-0.4-0.1-0.4-0.2C81,94.4,81.4,93.7,82,93C82,93,82,93,82,93z"/>
		<path class="st14" d="M78.2,58.4c-0.3,0.3-0.5,0.6-0.8,0.8C77.7,59,77.9,58.7,78.2,58.4z"/>
		<path class="st14" d="M77.1,60.3c-0.2,0.3-0.5,0.6-0.7,0.9c-0.1-0.3-0.3-0.7-0.4-1C76.4,60.2,76.7,60.2,77.1,60.3z"/>
	</g>
</g>
</svg>
