<?xml version="1.0" encoding="utf-8"?>
<!-- Generator: Adobe Illustrator 22.0.1, SVG Export Plug-In . SVG Version: 6.00 Build 0)  -->
<svg version="1.1" id="Layer_1" xmlns="http://www.w3.org/2000/svg" xmlns:xlink="http://www.w3.org/1999/xlink" x="0px" y="0px"
	 viewBox="0 0 123.6 144" style="enable-background:new 0 0 123.6 144;" xml:space="preserve">
<style type="text/css">
	.st0{fill:#F5C885;}
	.st1{fill:#F5C886;}
	.st2{fill:#FAAF31;}
	.st3{fill:#FAAF2F;}
	.st4{fill:#F3B02A;}
	.st5{fill:#FAAF2D;}
	.st6{fill:#FBC46E;}
	.st7{fill:#FCBB56;}
	.st8{fill:#FBBC5A;}
	.st9{fill:#FCEACB;}
	.st10{fill:#FAD092;}
	.st11{fill:#FCC062;}
	.st12{fill:#FCC877;}
	.st13{fill:#FBB541;}
	.st14{fill:#F9D39A;}
	.st15{fill:#FDECCF;}
	.st16{fill:#FBC169;}
	.st17{fill:#FBB84A;}
	.st18{fill:#F9D6A0;}
	.st19{fill:#FDEDD1;}
	.st20{fill:#FBB953;}
	.st21{fill:#FCC672;}
	.st22{fill:#FBBA50;}
	.st23{fill:#FBBD60;}
	.st24{fill:#F8C77E;}
	.st25{fill:#F5A55C;}
	.st26{fill:#F59B36;}
	.st27{fill:#FCF0DD;}
</style>
<g>
	<g>
		<path class="st1" d="M64.3,58.9c1.4,1,2.9,2,3.1,4c-4.8,0.6-5.7,3-3.4,7c2.1,3.7,4,7.5,6.2,11.1c3,4.9,3.3,4.9,6.9,0
			c3.3,2.2,1,3.7-0.6,5.3c-1.8,1.9-1.2,3.9,0.1,5.8c1.3,1.9,2.5,4.1,5.3,3.6c2.8-0.4,2-3,2.5-4.7c0.3-0.9,0.5-1.9,0.7-2.9
			c0.3-0.3,0.7-0.7,1-1c3.3-4.5,3.8-9.4,2-14.5c-1.9-5.4-4-10.8-6-16.2c-0.7-1.9-1.2-4.4-4.2-4c-0.7-4.5-1.3-9-2-13.5l0.5,0.1
			c1.7-0.4,4.1,1,5-0.9c0.9-1.9-1-3.3-2.4-4.4c3.3-1.8,5.3-0.2,6.4,2.8c2,5.2,4,10.4,5.9,15.5c-0.1,1.4,0.3,2.6,1.6,3.4
			c-0.1,0.2,0,0.5,0.1,0.7c1.8,11.6,5.2,23,3.4,35c-0.2,1.8-0.3,3.7-0.5,5.5c-1.3,0.8-1.7,2-1.6,3.4c-3.2,10.2-5.3,12-12.1,11.1
			c-1.9-0.2-3.3-1.5-5.1-2c-2-2.4-3.9-4.9-5.9-7.3c-1.4-5.1-3.9-8.8-10-7.9c0-0.3-0.1-0.6-0.1-0.9c0.1-0.5,0-1.3,0.3-1.4
			c5.9-2.5,2.7-6.1,1-9.2c-1.6-3.1-3.6-5.9-5.6-8.8c-0.7-1-2.6-2.8-2.8-1.6c-0.4,2.3-3.9,2.9-2.9,5.7c-0.6,0.3-1.1,0.6-1.7,0.9
			c-0.2-1.8-0.5-3.6,0.3-5.4c2.2-5.1,1.4-8.1-3.2-11.1c-3.4-2.3-6.1-1-6.4,3.1c-0.2,3.3-0.1,6.6,2.1,9.5c1.8,2.4,2.4,5.3,3.1,8.2
			c1,4.4-0.3,9.5,3.7,13c0.9,6.4,4.1,12.4,3.3,19.1c-0.3,3.3-2.3,5.3-5.3,5.8c-3.3,0.5-3.6-2.7-4.7-4.8c-2.6-4.7-3.2-10.1-5.3-15
			c0.5-5.2-2.6-9.7-3-14.8c1.7-7.4,1.3-14.8-0.3-22.1c-0.7-3.3-2-6.4-5.8-7.3c0.2-1.3,0.6-2.6,0.6-3.9c0.1-8.1,4.7-11,11.8-7
			c2.5,1.4,5.1,2.4,7.8,3.2c1.7,1.9,3.4,3.9,5,5.8C55.7,59.4,59.3,60.9,64.3,58.9z"/>
		<path class="st5" d="M48.1,49c-2.7-0.8-5.3-1.8-7.8-3.2c-7.1-4-11.7-1.2-11.8,7c0,1.3-0.4,2.6-0.6,3.9c-3.2,2.4-3.1,5.7-2.3,9
			c0.9,3.8,2.3,7.5,3.5,11.3c-2.1,0.8-1.9,2.3-1.5,4c0.6,2.4,0.6,4.8,0.4,7.3c-3-10.2-5.4-20.5-6.7-31.1c-0.2-1.6-0.4-3.3-0.7-4.9
			c-1.2-6.6,2.1-12.1,8.5-14.3c9-3.1,16.2-0.9,23.1,6.9C50.5,45.9,49.1,47.2,48.1,49z"/>
		<path class="st5" d="M37,100.9c2.1,4.9,2.7,10.3,5.3,15c1.1,2.1,1.4,5.3,4.7,4.8c3-0.5,5-2.5,5.3-5.8c2.2-1.7,1-7.6,6.5-5.2
			c0.1,2.1,0.2,4.2,0.4,6.3c-0.7,6.2-5,9.4-10.1,12c-3.6,1.8-6.5,0-8.9-2.4c-3.8-3.7-5.6-8.6-7-13.5c-2.1-7.3-4.6-14.5-5.1-22.2
			C29.9,94.5,33.3,97.9,37,100.9z"/>
		<path class="st5" d="M93,56c-0.1-0.2-0.1-0.5-0.1-0.7c0.2-1.5,0-2.8-1.6-3.4c-2-5.2-3.9-10.4-5.9-15.5c-1.2-3-3.1-4.6-6.4-2.8
			c-3.3,0.6-5,2-2.6,5.3c0,0-0.5-0.1-0.5-0.1c-1.7,2-3.9,3.1-6.6,3c-1.5-6.7,2.2-13.8,8.5-16c5.4-1.9,11.5,1.3,14.1,8
			c3.5,9.1,7.7,18.1,8.4,28C98.2,59.4,97.5,55.3,93,56z"/>
		<path class="st5" d="M77.1,109.1c1.8,0.5,3.1,1.7,5.1,2c6.9,0.9,8.9-1,12.1-11.1c1.6-0.7,1.8-1.9,1.6-3.4c0.2-1.8,0.3-3.7,0.5-5.5
			c2-0.1,3.4-1.1,3.8-3.2c0.3-1.6,1.3-2.6,2.9-2.9c0.8,8.7-2,16.6-4.9,24.6c-3.8,10.6-15.7,10.7-22.3,6.7c-1.9-1.2-4.1-2.2-5.3-4.4
			C73.1,111.5,75.4,111.1,77.1,109.1z"/>
		<path class="st12" d="M49.1,95.9c-4-3.5-2.7-8.6-3.7-13c-0.7-2.9-1.3-5.8-3.1-8.2c-2.2-2.9-2.3-6.1-2.1-9.5c0.3-4.1,3-5.4,6.4-3.1
			c4.5,3,5.4,6,3.2,11.1c-0.8,1.8-0.5,3.6-0.3,5.3c0.1,2.2,0.2,4.3,2.6,5.4c1.4,4.9,2.9,9.7,4.3,14.6c-0.5,1.5-1.2,1.2-2,0.2
			C53,97.1,51.4,95.8,49.1,95.9z"/>
		<path class="st12" d="M85.1,88.1c-0.2,1-0.4,1.9-0.7,2.9c-0.5,1.7,0.3,4.3-2.5,4.7c-2.8,0.4-4-1.7-5.3-3.6
			c-1.3-1.9-1.9-3.9-0.1-5.8c1.6-1.7,3.9-3.2,0.6-5.3c-0.3-0.3-0.6-0.7-1-1c2.6-1.4,2.6-3.1,0.4-5c-1.1-6.1-3.8-11.8-4.4-18
			c0-0.3,0-0.6-0.2-0.8c-0.1-1.1-0.3-2.1-0.4-3.2c0.2-0.3,0.3-0.6,0.5-0.8c1.3-1.6,0.8,0.4,1.1,0.5c1.6,0.6,1.8,5.1,4.8,1.7
			c2.3,5.9,0.6,12,1.1,18c0.4,5.8,2.2,10.9,5.8,15.3L85.1,88.1z"/>
		<path class="st13" d="M103.1,84.9c-1.6,0.4-2.6,1.3-2.9,2.9c-0.4,2.1-1.8,3-3.8,3.2C98.1,79,94.8,67.6,93,56
			c4.6-0.7,5.3,3.4,7.3,5.9c0,0-0.1,0-0.1,0c0.4,5.1-0.6,10.5,2.8,15.1C103,79.6,103,82.2,103.1,84.9z"/>
		<path class="st14" d="M76.1,79.9c0.3,0.3,0.6,0.7,1,1c-3.6,4.9-3.9,5-6.9,0c-2.2-3.6-4.1-7.4-6.2-11.1c-2.4-4.1-1.4-6.4,3.4-7
			c2.9,2.8,4.6,6.2,6,9.9c0.2,0.4,0.4,0.8,0.5,1.2c0.2,0.2,0.4,0.5,0.5,0.9c0.2,0.4,0.3,0.8,0.5,1.2c0.2,0.2,0.3,0.4,0.3,0.7
			C75.4,77.7,75.8,78.8,76.1,79.9z"/>
		<path class="st10" d="M51.2,77.6c-1-2.8,2.4-3.3,2.9-5.7c0.2-1.2,2.1,0.6,2.8,1.6c1.9,2.9,3.9,5.8,5.6,8.8c1.7,3.2,4.9,6.7-1,9.2
			c-0.3,0.1-0.2,0.9-0.3,1.4c-0.4,0-0.7,0-1.1,0c-0.2-0.2-0.3-0.4-0.4-0.6c0.4-1.3-0.2-2.1-1.3-2.6c-1.1-2.2-2.2-4.5-3.2-6.7
			c-0.2-0.4-0.5-0.8-0.7-1.2c0,0,0-0.1,0-0.1C54.1,79.7,53,78.4,51.2,77.6z"/>
		<path class="st13" d="M37,100.9c-3.7-3.1-7.1-6.4-8.9-11c-0.1-0.6-0.1-1.1-0.2-1.7c0.2-2.4,0.3-4.9-0.4-7.3
			c-0.4-1.7-0.5-3.3,1.5-4c2.5,2.6,2.3,6.7,4.9,9.2C34.4,91.2,37.5,95.7,37,100.9z"/>
		<path class="st7" d="M49.1,95.9c2.3-0.1,3.9,1.2,5.3,2.8c0.8,1,1.5,1.3,2-0.2c1.4,1.5,1.9,3.3,1.9,5.3c0.1,0.4,0.1,0.9,0.2,1.3
			c0.1,0.4,0.2,0.8,0.2,1.3c0.1,1.1,0.2,2.2,0.3,3.3c-5.5-2.5-4.3,3.5-6.5,5.2C53.2,108.3,50,102.3,49.1,95.9z"/>
		<path class="st17" d="M78,54.3c-3,3.4-3.2-1.2-4.8-1.7c-0.4-0.1,0.1-2.1-1.1-0.5c-0.2,0.2-0.3,0.5-0.5,0.8c-1.8-2.3-1.4-5-1.5-7.7
			c-0.1-0.4-0.2-0.7-0.3-1.1c-0.1-0.7-0.3-1.5-0.4-2.2c2.7,0.1,4.8-1.1,6.6-3c0.7,4.5,1.3,9,2,13.5C77.9,53,78,53.6,78,54.3z"/>
		<path class="st22" d="M77.1,109.1c-1.7,2-4,2.4-6.5,2.7c-2.6-3-5-6.2-6.4-9.9c2.3,0,4.6,0,7-0.1C73.2,104.2,75.1,106.7,77.1,109.1
			z"/>
		<path class="st20" d="M48.1,49c1-1.8,2.4-3.1,4.1-4.1c3.2,2,5.7,4.5,7.3,7.9c-2.1,0.7-4.2,1.4-6.4,2.1
			C51.5,52.9,49.8,50.9,48.1,49z"/>
		<path class="st6" d="M71.2,101.8c-2.3,0-4.6,0-7,0.1c-1-2.3-3.1-4.1-3.2-6.8c0.1-0.4,0.1-0.8,0.2-1.2
			C67.3,93,69.8,96.7,71.2,101.8z"/>
		<path class="st6" d="M53.2,54.8c2.1-0.7,4.2-1.4,6.4-2.1c1.9,1.8,3.9,3.5,4.7,6.1C59.3,60.9,55.7,59.4,53.2,54.8z"/>
		<path class="st5" d="M103,76.9c-3.3-4.6-2.4-10-2.8-15.1C102.7,66.6,103.2,71.7,103,76.9z"/>
		<path class="st25" d="M51.2,77.6c1.9,0.7,2.9,2.1,3.1,4.1c-2.9-1.5-1.8,1.2-2.2,2.2c-2.3-1.1-2.5-3.2-2.6-5.4
			C50,78.2,50.6,77.9,51.2,77.6z"/>
		<path class="st26" d="M58.9,109.8c-0.1-1.1-0.2-2.2-0.3-3.3c2.1,3.1,1.6,6.4,0.7,9.7C59.1,114,59,111.9,58.9,109.8z"/>
		<path class="st6" d="M76.1,79.9c-0.4-1.1-0.7-2.2-1.1-3.2c0.5-0.6,1-1.2,1.5-1.8C78.8,76.8,78.7,78.5,76.1,79.9z"/>
		<path class="st25" d="M58.3,89.8c1.1,0.5,1.7,1.3,1.3,2.6C58.7,91.7,58.2,90.9,58.3,89.8z"/>
		<path class="st25" d="M61.2,93.9c-0.1,0.4-0.1,0.8-0.2,1.2c-0.3-0.7-0.7-1.4-1-2.1c0.4,0,0.7,0,1.1,0
			C61.1,93.3,61.1,93.6,61.2,93.9z"/>
		<path class="st5" d="M69.8,44.1c0.1,0.4,0.2,0.7,0.3,1.1C69.9,44.8,69.9,44.4,69.8,44.1z"/>
		<path class="st17" d="M72,56.1c0.2,0.2,0.2,0.5,0.2,0.8C71.8,56.6,71.8,56.4,72,56.1z"/>
		<path class="st6" d="M73.8,73.9c-0.2-0.4-0.4-0.8-0.5-1.2C73.4,73.1,73.6,73.5,73.8,73.9z"/>
		<path class="st6" d="M74.8,76c-0.2-0.4-0.3-0.8-0.5-1.2C74.4,75.2,74.6,75.6,74.8,76z"/>
		<path class="st25" d="M54.3,81.8c0.2,0.4,0.5,0.8,0.7,1.2C54.8,82.6,54.6,82.2,54.3,81.8z"/>
		<path class="st26" d="M58.4,105.2c-0.1-0.4-0.1-0.9-0.2-1.3C58.3,104.3,58.3,104.7,58.4,105.2z"/>
		<path class="st19" d="M78,54.3c-0.1-0.7-0.1-1.3-0.2-2c3-0.3,3.4,2.1,4.2,4c2.1,5.4,4.1,10.8,6,16.2c1.9,5.2,1.4,10.1-2,14.5
			c-0.4,0.2-0.8,0.3-1.1,0.5c-3.7-4.4-5.4-9.5-5.8-15.3C78.7,66.3,80.3,60.2,78,54.3z"/>
		<path class="st9" d="M34,86.1c-2.6-2.5-2.4-6.6-4.9-9.2c-1.2-3.8-2.5-7.5-3.5-11.3c-0.8-3.3-0.9-6.6,2.3-9c3.8,0.9,5.1,4,5.8,7.3
			C35.3,71.3,35.8,78.7,34,86.1z"/>
		<path class="st9" d="M76.3,38.9c-2.4-3.4-0.7-4.8,2.6-5.3c1.5,1.1,3.3,2.5,2.4,4.4C80.4,39.9,78,38.4,76.3,38.9z"/>
		<path class="st13" d="M91.3,51.9c1.6,0.6,1.8,1.9,1.6,3.4C91.6,54.5,91.2,53.3,91.3,51.9z"/>
		<path class="st13" d="M95.9,96.5c0.2,1.5,0,2.8-1.6,3.4C94.1,98.5,94.6,97.3,95.9,96.5z"/>
		<path class="st10" d="M84.9,87.6c0.4-0.2,0.8-0.3,1.1-0.5c-0.3,0.3-0.7,0.7-1,1C85.1,88.1,84.9,87.6,84.9,87.6z"/>
	</g>
</g>
</svg>
