<?xml version="1.0" encoding="utf-8"?>
<!-- Generator: Adobe Illustrator 22.0.1, SVG Export Plug-In . SVG Version: 6.00 Build 0)  -->
<svg version="1.1" id="Layer_1" xmlns="http://www.w3.org/2000/svg" xmlns:xlink="http://www.w3.org/1999/xlink" x="0px" y="0px"
	 viewBox="0 0 108.7 144" style="enable-background:new 0 0 108.7 144;" xml:space="preserve">
<style type="text/css">
	.st0{fill:#F5C885;}
	.st1{fill:#F5C886;}
	.st2{fill:#FAAF31;}
	.st3{fill:#FAAF2F;}
	.st4{fill:#F3B02A;}
	.st5{fill:#FAAF2D;}
	.st6{fill:#FBC46E;}
	.st7{fill:#FCBB56;}
	.st8{fill:#FBBC5A;}
	.st9{fill:#FCEACB;}
	.st10{fill:#FAD092;}
	.st11{fill:#FCC062;}
	.st12{fill:#FCC877;}
	.st13{fill:#FBB541;}
	.st14{fill:#F9D39A;}
	.st15{fill:#FDECCF;}
	.st16{fill:#FBC169;}
	.st17{fill:#FBB84A;}
	.st18{fill:#F9D6A0;}
	.st19{fill:#FDEDD1;}
	.st20{fill:#FBB953;}
	.st21{fill:#FCC672;}
	.st22{fill:#FBBA50;}
	.st23{fill:#FBBD60;}
	.st24{fill:#F8C77E;}
	.st25{fill:#F5A55C;}
	.st26{fill:#F59B36;}
	.st27{fill:#FCF0DD;}
</style>
<g>
	<g>
		<path class="st3" d="M23.8,62.2C26.7,42.4,43,22,69.5,32C83,37.2,91.7,45.9,92.9,60.9c-0.4,1.1-0.7,2.2-1.1,3.3
			c-4.4,0.3-2-5.1-5-6c-4-13.6-14.8-20.9-29.1-22c-1.3-3.3-4.1-3.2-6.7-2.7c-6.3,1.3-11.7,4.2-15.6,9.6c-2.6,3.7-3.8,8-5.8,12
			c-2.1,0.9-2.2,2.3-1,4c-0.1,0.7-0.3,1.3-0.4,2c-1.2-1-2.8-0.6-4,0.8C24.2,62.1,24,62.2,23.8,62.2z"/>
		<path class="st5" d="M78.1,106c-7.8,9.5-25.3,13.1-38.9,8.8c-13-4-17.5-15.3-15.6-26.8c1.9,0.1,3.4,0.8,4.1,2.8
			c0.5,1.4-0.4,3.5,1.7,4.3c1.1,7.1,4.9,11.6,12,13.5c3.7,1,7.4,1.5,11.3,1.6c8.4,0.1,15.2-3.9,21.9-8.3c0.3,1.7,2,2.1,3,3.1
			c-0.1,0.1-0.2,0.2-0.2,0.3c0.1,0.2,0.2,0.3,0.3,0.5L78.1,106z"/>
		<path class="st13" d="M78.1,106c0,0-0.3,0-0.3,0c-0.1-0.3-0.1-0.5-0.1-0.8c-1.1-1-2.7-1.4-3-3.1c2.9-5.2,6.7-9.6,9.2-15.1
			c4.2-9.4,2.9-19.1,3-28.8c3,0.9,0.7,6.3,5,6c-0.2,2.6,0.7,5,1.2,7.5c-0.1,0.4-0.1,0.8-0.2,1.2c0,0.5,0,1.1-0.1,1.6
			c-0.2,9.7-4,18-9.5,25.7c-2.8,0.7-5.2,1.7-4.6,5.3C78.6,105.7,78.4,105.9,78.1,106z"/>
		<path class="st17" d="M29.4,95.3c-2.1-0.8-1.2-2.9-1.7-4.3c-0.7-2.1-2.2-2.7-4.1-2.8c-0.2-8.6-0.5-17.3,0.2-25.9
			c0.1-0.1,0.3-0.1,0.4-0.2c1.1-1.4,2.8-1.8,4-0.8c-0.3,8.4-1.2,16.7,0.4,25.1C30.1,89.1,29.6,92.2,29.4,95.3z"/>
		<path class="st26" d="M93.1,71.7c-0.6-2.5-1.4-4.9-1.2-7.5c0.4-1.1,0.7-2.2,1.1-3.3C94.6,64.5,95.1,68.1,93.1,71.7z"/>
		<path class="st5" d="M78.7,105.4c-0.5-3.6,1.8-4.6,4.6-5.3C82.1,102.1,81,104.3,78.7,105.4z"/>
		<path class="st26" d="M92.8,74.5c0-0.5,0-1.1,0.1-1.6C92.9,73.4,92.9,73.9,92.8,74.5z"/>
		<path class="st1" d="M29.4,95.3c0.1-3,0.6-6.1-0.8-9c1.7-1.8,1.6-4.3,2-6.5c1.8-8.6,2.5-17.5,7.6-25c5.1-7.6,10.7-14.7,19.4-18.5
			c14.2,1,25.1,8.4,29.1,22c0,9.7,1.3,19.4-3,28.8c-2.5,5.5-6.3,10-9.2,15.1c-6.7,4.4-13.5,8.4-21.9,8.3c-3.8-0.1-7.5-0.6-11.3-1.6
			C34.4,106.9,30.5,102.4,29.4,95.3z M51.6,102.2c1.4,2,3.5,2.5,5.7,2.5c8.7,0.1,14.9-7,14.3-16.2c3.4-8.1,4.7-16.6,4.1-25.3
			c-0.2-7.9-3.7-13.8-11.1-16.5c-5.9-2.2-13.3,1.2-17.9,7.6c-2.6,1.1-3.4,3.4-4.3,5.8c-3.2,8.9-4.5,18-3.5,27.3c1,2.6,1.9,5.3,3,7.8
			C43.7,99.3,46.8,102,51.6,102.2z"/>
		<path class="st15" d="M57.8,36.2C49,39.9,43.4,47.1,38.3,54.7c-5.1,7.6-5.8,16.5-7.6,25c-0.5,2.2-0.3,4.7-2,6.5
			c-1.7-8.3-0.8-16.7-0.4-25.1c0.1-0.7,0.3-1.3,0.4-2c1.1-1.1,1-2.6,1-4c2-4,3.1-8.3,5.8-12c3.9-5.4,9.3-8.3,15.6-9.6
			C53.6,33,56.5,32.9,57.8,36.2z"/>
		<path class="st17" d="M29.6,55.2c0,1.4,0.2,2.9-1,4C27.4,57.5,27.5,56.1,29.6,55.2z"/>
		<path class="st2" d="M77.7,105.2c0,0.3,0.1,0.5,0.1,0.8c-0.1-0.2-0.2-0.3-0.3-0.5C77.5,105.4,77.6,105.3,77.7,105.2z"/>
		<path class="st12" d="M38.8,87.3c-1-9.4,0.3-18.5,3.5-27.3c0.8-2.4,1.7-4.7,4.3-5.8c1.4,1.5,4.1,0.4,5,2.7
			c-6.8,10.6-8.7,21.9-5.2,34c-0.6,0.1-1.2,0.2-1.8,0.3C44,88,41.8,87,38.8,87.3z"/>
		<path class="st23" d="M51.6,56.9c-0.9-2.4-3.7-1.3-5-2.7c4.6-6.4,12-9.8,17.9-7.6c7.4,2.8,10.9,8.6,11.1,16.5
			c-3.2,0.7-3.8-2-5-3.9c-0.3-0.3-0.7-0.7-1-1c-0.4-0.4-0.9-0.9-1.3-1.3c-4.1-4.6-8.9-5.5-14.4-2.6c-0.2,0.3-0.3,0.5-0.5,0.8
			C52.9,55.7,52.2,56.3,51.6,56.9z"/>
		<path class="st24" d="M70.7,59.2c1.2,1.9,1.8,4.6,5,3.9c0.6,8.8-0.6,17.2-4.1,25.3c-2.6-0.6-4.5,1.8-7,1.6
			c2-6.8,4.4-13.6,4.7-20.8c1.1-0.7,1.2-1.7,0.7-2.8c0-0.9,0-1.7,0.1-2.6C70.3,62.3,70.5,60.8,70.7,59.2L70.7,59.2z"/>
		<path class="st19" d="M64.6,90.1c2.5,0.3,4.4-2.2,7-1.6c0.6,9.2-5.5,16.3-14.3,16.2c-2.2,0-4.3-0.6-5.7-2.5
			c5.4-1.4,9.7-4.1,11.1-10l0,0.1C63.8,91.9,64.5,91.2,64.6,90.1L64.6,90.1z"/>
		<path class="st23" d="M62.7,92.2c-1.4,5.9-5.6,8.6-11.1,10c-4.9-0.1-7.9-2.9-9.8-7.1c-1.2-2.5-2-5.2-3-7.8c3-0.3,5.1,0.7,5.9,3.9
			c0.4,1.5,0.8,3.2,3,2c3.2,3.3,6.9,4.3,11,1.8C60.1,94.2,61.4,93.1,62.7,92.2z"/>
		<path class="st6" d="M46.4,90.9c1.1,0.4,1.1,1.4,1.2,2.3c-2.2,1.2-2.6-0.5-3-2C45.3,91.1,45.8,91,46.4,90.9z"/>
		<path class="st12" d="M54,54.3c-0.1,0.3-0.3,0.5-0.5,0.8C53.6,54.8,53.8,54.6,54,54.3z"/>
		<path class="st21" d="M68.7,58.2c-0.1-0.4-0.2-0.8-0.4-1.3c0.4,0.4,0.9,0.9,1.3,1.3l0,0C69.3,58.2,69,58.2,68.7,58.2z"/>
		<path class="st24" d="M69.7,58.2c0.3,0.3,0.7,0.7,1,1c0,0,0,0,0,0C70.3,58.9,70,58.5,69.7,58.2C69.7,58.2,69.7,58.2,69.7,58.2z"/>
		<path class="st23" d="M69.7,58.2c0.3,0.3,0.7,0.7,1,1c-0.2,1.6-0.4,3.1-0.6,4.7c-1.4-1.7-1.3-3.7-1.4-5.7
			C69,58.2,69.3,58.2,69.7,58.2z"/>
		<path class="st23" d="M69.3,69.2c-0.3-1.1-0.1-2,0.7-2.8C70.5,67.6,70.3,68.5,69.3,69.2z"/>
		<path class="st16" d="M62.7,92.3c0-1.3,0.6-2.1,1.9-2.2C64.5,91.2,63.8,91.9,62.7,92.3z"/>
	</g>
</g>
</svg>
