<?xml version="1.0" encoding="utf-8"?>
<!-- Generator: Adobe Illustrator 22.0.1, SVG Export Plug-In . SVG Version: 6.00 Build 0)  -->
<svg version="1.1" id="Layer_1" xmlns="http://www.w3.org/2000/svg" xmlns:xlink="http://www.w3.org/1999/xlink" x="0px" y="0px"
	 viewBox="0 0 107.4 144" style="enable-background:new 0 0 107.4 144;" xml:space="preserve">
<style type="text/css">
	.st0{fill:#F5C885;}
	.st1{fill:#F5C886;}
	.st2{fill:#FAAF31;}
	.st3{fill:#FAAF2F;}
	.st4{fill:#F3B02A;}
	.st5{fill:#FAAF2D;}
	.st6{fill:#FBC46E;}
	.st7{fill:#FCBB56;}
	.st8{fill:#FBBC5A;}
	.st9{fill:#FCEACB;}
	.st10{fill:#FAD092;}
	.st11{fill:#FCC062;}
	.st12{fill:#FCC877;}
	.st13{fill:#FBB541;}
	.st14{fill:#F9D39A;}
	.st15{fill:#FDECCF;}
	.st16{fill:#FBC169;}
	.st17{fill:#FBB84A;}
	.st18{fill:#F9D6A0;}
	.st19{fill:#FDEDD1;}
	.st20{fill:#FBB953;}
	.st21{fill:#FCC672;}
	.st22{fill:#FBBA50;}
	.st23{fill:#FBBD60;}
	.st24{fill:#F8C77E;}
	.st25{fill:#F5A55C;}
	.st26{fill:#F59B36;}
	.st27{fill:#FCF0DD;}
</style>
<g>
	<g>
		<path class="st5" d="M30.8,68.5c-0.1-6.3,1.3-12.3,3.5-18c3.1-8.3,12.1-16.2,23.8-13.2c12.5,3.1,23,8.7,28.6,20.9
			c2.1,4.7,3.9,9.6,2.9,14.9c-1.2-1.8-1.4-4-1.8-6c-0.5-3.3-2.1-5-5.6-4.5c-6.2-12.2-16.5-18.1-29.9-19.2c-2-0.2-3.7-0.3-4.4,2
			c-8.8,2.9-13.2,9.2-14,18.3C31.4,64.2,32.6,67.3,30.8,68.5z"/>
		<path class="st3" d="M48.8,107.4c-0.4,3.1-2.1,5.6-4.2,7.8c-6.4,6.8-15.9,5.1-18.5-3.8c-2-6.8-2.2-14.1,0.6-21
			c1.5,0.7,3,0.3,4.5,0c0.1,0.5,0.2,1,0.2,1.6c-0.1,1.2-0.1,2.4-0.2,3.5c0,2.3-0.1,4.6-0.1,6.9c0,3.9,0.1,8.5,4.2,9.7
			c4.6,1.4,6-3.4,7.8-6.6c0.8,0.5,2.1,0.8,2.3,1.4C46.1,110.2,47.5,108.1,48.8,107.4z"/>
		<path class="st12" d="M73,96.3c-6.9,1.4-13.9,1.5-20.9,1.2c-2.7,3.2-4.6-0.7-7-0.8c1.6-3.3,3.9-4.3,7.7-3.6
			c4.4,0.8,9.1,1.6,13.2-0.6c2.7-1.4,5.1-2.2,8-1.9C73.7,92.4,73.4,94.4,73,96.3z"/>
		<path class="st13" d="M82.1,62.5c3.4-0.5,5.1,1.2,5.6,4.5c0.3,2.1,0.6,4.2,1.8,6c-0.1,1.3-0.2,2.6-0.3,4c0,1.5-0.1,2.9-0.2,4.4
			c-0.5,2.5-0.2,5.4-3.1,7c-0.8-3-1.6-5.9-2.5-8.9c-0.1-4-0.2-8-0.3-12c0.8-1.2,0.1-1.7-0.9-2.1C82.2,64.4,82.2,63.4,82.1,62.5z"/>
		<path class="st23" d="M83.5,79.4c0.8,3,1.6,5.9,2.5,8.9c-2.9,5-6.3,9.1-12.9,8c0.4-1.9,0.7-3.9,1.1-5.8
			C79.5,88.7,81.3,84,83.5,79.4z"/>
		<path class="st13" d="M31.2,90.5c-1.5,0.3-3,0.6-4.5,0c-0.2-1.4-0.2-2.7,0.6-3.9c0.1-0.3,0.1-0.6,0.2-0.9c0.7-5.8,1-11.6,3.3-17.1
			c1.9-1.1,0.6-4.2,3.1-5c-0.6,7.7-1.2,15.3-1.9,23c-0.1,0.4-0.1,0.8-0.2,1.2C31.6,88.6,31.4,89.5,31.2,90.5z"/>
		<path class="st7" d="M45.2,96.6c2.3,0.2,4.2,4.1,7,0.8c-1.1,3.3-3.4,6.3-3.4,10c-1.2,0.7-2.6,2.8-3.4-0.5
			c-0.1-0.6-1.5-0.9-2.3-1.4C42.8,102.3,43.8,99.4,45.2,96.6z"/>
		<path class="st5" d="M89,81.4c0.1-1.5,0.1-2.9,0.2-4.4C90,78.5,89.8,79.9,89,81.4z"/>
		<path class="st3" d="M27.5,85.6c-0.1,0.3-0.1,0.6-0.2,0.9C27.2,86.2,27.3,85.8,27.5,85.6z"/>
		<path class="st1" d="M45.2,96.6c-1.4,2.8-2.4,5.7-2.1,8.9c-1.9,3.2-3.2,8-7.8,6.6c-4-1.2-4.2-5.8-4.2-9.7c0-2.3,0.1-4.6,0.1-6.9
			c1.4-0.8,1.2-2.1,1-3.3c0.5-0.4,1.3-0.7,1.5-1.2c4.9-14.3,8.1-29.3,15.6-42.7c1-1.8,0.6-2.7-1.4-3.1c0.7-2.3,2.4-2.2,4.4-2
			c13.4,1.1,23.6,7,29.9,19.2c0,1,0.1,2,0.1,2.9c0.3,0.7,0.6,1.4,0.9,2.1c0.1,4,0.2,8,0.3,12c-2.1,4.5-3.9,9.3-9.4,11.1
			c-2.9-0.2-5.4,0.6-8,1.9c-4.1,2.1-8.8,1.4-13.2,0.6C49.1,92.4,46.8,93.3,45.2,96.6z M58.1,83.5c10.1,4.2,15.5,1,15-8.8
			c0-1.8,0.1-3.6,0-5.4c-0.1-2.9,0.7-6.1-2.8-7.8c-2.4-4.9-7-6.9-11.5-9c-4.6-2.1-6.1-1.1-6.8,4.1c-0.2,1.6-0.6,3.3-0.9,4.9
			c-0.9,2.2-3.2,4.4-1.4,6.8c1.6,2.2,3.4-1.3,5.3-0.7c0,1.3-0.1,2.7-0.1,4c-0.2,0.5-0.5,1-0.7,1.5c1.1-0.2,0.8,0.6,0.8,1.2
			c-2,0.3-4.3,0.3-4.5,2.9c-0.2,2.7,1.4,4.8,3.7,5.9C55.3,83.6,56.8,83.4,58.1,83.5z"/>
		<path class="st19" d="M47.9,45.2c2,0.3,2.4,1.3,1.4,3.1C41.8,61.7,38.6,76.6,33.7,91c-0.2,0.5-1,0.8-1.5,1.2
			C32,92.1,31.7,92,31.4,92c-0.1-0.5-0.2-1-0.2-1.6c0.2-0.9,0.4-1.8,0.6-2.8c0.1-0.4,0.1-0.8,0.2-1.2c0.6-7.7,1.2-15.3,1.9-23
			C34.7,54.4,39.1,48.1,47.9,45.2z"/>
		<path class="st23" d="M31.4,92c0.3,0,0.6,0,0.8,0.2c0.2,1.3,0.3,2.5-1,3.3C31.3,94.4,31.4,93.2,31.4,92z"/>
		<path class="st23" d="M83.1,67.5c-0.3-0.7-0.6-1.4-0.9-2.1C83.2,65.8,83.9,66.3,83.1,67.5z"/>
		<path class="st1" d="M32,86.5c-0.1,0.4-0.1,0.8-0.2,1.2C31.9,87.3,31.9,86.9,32,86.5z"/>
		<path class="st8" d="M60.1,60.3c-1.9-0.8-2.4,1.1-3.5,1.8c-1.7-1.9-3.7-0.5-5.6-0.6c0.3-1.6,0.7-3.2,0.9-4.9
			c0.7-5.1,2.2-6.2,6.8-4.1c4.5,2.1,9.1,4.1,11.5,9C66.8,62.2,63.7,58.8,60.1,60.3z"/>
		<path class="st19" d="M66.1,75.4c0.3-0.4,0.5-0.7,0.8-1.1c2.1,0.1,4.1,0.2,6.2,0.3c0.6,9.8-4.9,13-15,8.8
			C60.4,80.5,65,79.7,66.1,75.4z"/>
		<path class="st14" d="M66.1,75.4c-1.1,4.3-5.7,5.1-8,8c-1.3-0.1-2.8,0.1-3.9-0.4c-2.4-1.1-3.9-3.2-3.7-5.9
			c0.2-2.6,2.5-2.6,4.5-2.9C58.4,77.1,62.3,76.1,66.1,75.4z"/>
		<path class="st6" d="M73,74.7c-2.1-0.1-4.1-0.2-6.2-0.3c1.4-6.4-0.9-11.1-6.7-14.1c3.6-1.5,6.6,1.9,10.2,1.2
			c3.5,1.7,2.6,4.9,2.8,7.8C73.1,71.1,73,72.9,73,74.7z M69.7,70.2c0-0.2,0.1-0.3,0-0.4c0-0.1-0.2,0-0.4,0c0,0.2-0.1,0.3,0,0.4
			C69.4,70.3,69.6,70.2,69.7,70.2z"/>
		<path class="st21" d="M51.1,61.5c1.9,0.1,3.9-1.3,5.6,0.6c0.1,2-1.1,3.6-1.7,5.4c-1.9-0.6-3.6,2.9-5.3,0.7
			C47.9,65.8,50.2,63.7,51.1,61.5z"/>
		<path class="st14" d="M54.8,71.5c0,0.6,0.4,1.4-0.7,1.5C54.4,72.6,54.6,72.1,54.8,71.5z"/>
		<path class="st1" d="M69.7,70.2c-0.1,0-0.4,0-0.4,0c0-0.1,0-0.3,0-0.4c0.1,0,0.4,0,0.4,0C69.8,69.9,69.8,70.1,69.7,70.2z"/>
	</g>
</g>
</svg>
