<?xml version="1.0" encoding="utf-8"?>
<!-- Generator: Adobe Illustrator 22.0.1, SVG Export Plug-In . SVG Version: 6.00 Build 0)  -->
<svg version="1.1" id="Layer_1" xmlns="http://www.w3.org/2000/svg" xmlns:xlink="http://www.w3.org/1999/xlink" x="0px" y="0px"
	 viewBox="0 0 76.3 144" style="enable-background:new 0 0 76.3 144;" xml:space="preserve">
<style type="text/css">
	.st0{fill:#F5C885;}
	.st1{fill:#F5C886;}
	.st2{fill:#FAAF31;}
	.st3{fill:#FAAF2F;}
	.st4{fill:#F3B02A;}
	.st5{fill:#FAAF2D;}
	.st6{fill:#FBC46E;}
	.st7{fill:#FCBB56;}
	.st8{fill:#FBBC5A;}
	.st9{fill:#FCEACB;}
	.st10{fill:#FAD092;}
	.st11{fill:#FCC062;}
	.st12{fill:#FCC877;}
	.st13{fill:#FBB541;}
	.st14{fill:#F9D39A;}
	.st15{fill:#FDECCF;}
	.st16{fill:#FBC169;}
	.st17{fill:#FBB84A;}
	.st18{fill:#F9D6A0;}
	.st19{fill:#FDEDD1;}
	.st20{fill:#FBB953;}
	.st21{fill:#FCC672;}
	.st22{fill:#FBBA50;}
	.st23{fill:#FBBD60;}
	.st24{fill:#F8C77E;}
	.st25{fill:#F5A55C;}
	.st26{fill:#F59B36;}
	.st27{fill:#FCF0DD;}
</style>
<g>
	<g>
		<path class="st0" d="M43.3,57.8c0.3,0.8,0.5,1.6,0.8,2.4c-0.5,1.5-0.2,2.8,1.3,3.6c0.1,1,0.2,1.9,0.2,2.9
			c-0.1,0.3-0.1,0.5,0.1,0.8c0.2,1.2,0.5,2.4,0.7,3.5c0,0.2,0,0.4,0.2,0.6c0.1,1.8,0.3,3.6,0.4,5.4c-0.2,1.6,0.1,4.1-0.8,4.7
			c-5.5,3.5-3.3,9.3-4.5,14c-1.1,4.2-2,8.4-4.4,12.1c-0.3,0.5-0.8,1.4-1.2,1.4c-1,0-1.1-1.1-1.2-1.8c-0.1-3.7-0.4-7.3-0.2-11
			c0.1-3.5-1.1-4.5-4.2-3c0-0.8,0-1.6,0-2.3c0-1.8,0-3.6,0-5.5c0-1.6,0-3.2,0-4.9c5.3-2,5.7-5.9,4.7-10.9c-1.1-5.5-4.5-8.4-9.5-10.1
			c-1.5-1-1-2.9-1.8-4.3c0.1-1.4-0.2-2.9,1.4-3.7c4.2,3.9,6.4,3.6,8.8-1.2c2.3,2.4,5.3,3.5,8.4,4.2c0.1,0.6,0.2,1.2,0.3,1.7
			C42.8,56.9,43,57.4,43.3,57.8z"/>
		<path class="st2" d="M30.4,93.4c3.2-1.4,4.4-0.4,4.2,3c-0.1,3.6,0.1,7.3,0.2,11c0,0.8,0.1,1.8,1.2,1.8c0.4,0,0.9-0.9,1.2-1.4
			c2.3-3.7,3.3-7.9,4.4-12.1c3.2,0.4,4.9-1.1,5.6-4.1c0.1,8.3-2,16-7.1,22.7c-3.6,4.7-8,3.9-9.9-1.5C28,106.3,28.2,99.8,30.4,93.4z"
			/>
		<path class="st3" d="M17.6,43.8c-2.5-4.3-5.2-8.5-5-13.8c0.2-4.8,3.5-7,7.7-4.9c6.8,3.5,11.9,8.8,15.1,15.8
			c-1.7,0.3-3.4,0.7-5.1,1c-3.1-3-5.1-6.9-8.8-9.3c-0.7-0.5-1.7-1.6-2.5-0.5c-0.3,0.4-0.1,1.6,0.3,2.3c1.2,2.2,2.3,4.4,2.7,6.9
			C20.9,43,19.4,43.7,17.6,43.8z"/>
		<path class="st14" d="M25.6,59.7c5,1.7,8.4,4.6,9.5,10.1c1,5,0.7,8.9-4.7,10.9C28.8,73.7,27.2,66.7,25.6,59.7z"/>
		<path class="st23" d="M30.4,42c1.7-0.3,3.4-0.7,5.1-1c3.2,4.2,5.2,8.9,6.9,13.8c-3.1-0.7-6.1-1.7-8.4-4.2c-0.5-0.9-1-1.9-1.4-2.8
			C31.8,45.8,31.1,43.9,30.4,42z"/>
		<path class="st7" d="M47.2,91.7c-0.7,3-2.4,4.5-5.6,4.1c1.2-4.7-1-10.5,4.6-14c0.9-0.6,0.6-3.1,0.8-4.7
			C48.8,81.9,48.4,86.8,47.2,91.7z"/>
		<path class="st17" d="M17.6,43.8c1.9-0.1,3.3-0.8,4.3-2.4c1.5,0.8,2.1,2.3,3,3.6c0.1,2.3,0.1,4.6,0.2,6.8
			c-1.6,0.8-1.2,2.3-1.4,3.7C21.7,51.6,19.6,47.7,17.6,43.8z"/>
		<path class="st25" d="M45.4,63.8c-1.5-0.8-1.8-2.1-1.3-3.6C45,61.2,45.5,62.4,45.4,63.8z"/>
		<path class="st2" d="M30.4,85.6c0,1.8,0,3.6,0,5.5C29.7,89.3,29.9,87.4,30.4,85.6z"/>
		<path class="st25" d="M43.3,57.8c-0.2-0.4-0.4-0.9-0.6-1.3C42.8,56.9,43,57.4,43.3,57.8z"/>
		<path class="st7" d="M45.7,67.5c-0.1-0.3-0.2-0.5-0.1-0.8C45.8,67,45.8,67.2,45.7,67.5z"/>
		<path class="st7" d="M46.5,71.7c-0.1-0.2-0.2-0.4-0.2-0.6c0,0,0.3,0.3,0.3,0.3L46.5,71.7z"/>
		<path class="st19" d="M25.1,51.8C25,49.5,25,47.2,24.9,45c3.1-0.5,4.9,2.2,7.6,2.8c0.5,0.9,1,1.9,1.4,2.8
			C31.5,55.4,29.3,55.7,25.1,51.8z"/>
		<path class="st0" d="M32.5,47.8c-2.6-0.6-4.5-3.3-7.6-2.8c-0.9-1.3-1.5-2.8-3-3.6c-0.3-2.5-1.5-4.7-2.6-6.9
			c-0.3-0.6-0.6-1.8-0.3-2.3c0.9-1.1,1.8,0,2.5,0.5c3.7,2.4,5.8,6.3,8.8,9.3C31.1,43.9,31.8,45.8,32.5,47.8z"/>
	</g>
</g>
</svg>
