<?xml version="1.0" encoding="utf-8"?>
<!-- Generator: Adobe Illustrator 22.0.1, SVG Export Plug-In . SVG Version: 6.00 Build 0)  -->
<svg version="1.1" id="Layer_1" xmlns="http://www.w3.org/2000/svg" xmlns:xlink="http://www.w3.org/1999/xlink" x="0px" y="0px"
	 viewBox="0 0 83.3 144" style="enable-background:new 0 0 83.3 144;" xml:space="preserve">
<style type="text/css">
	.st0{fill:#F5C885;}
	.st1{fill:#F5C886;}
	.st2{fill:#FAAF31;}
	.st3{fill:#FAAF2F;}
	.st4{fill:#F3B02A;}
	.st5{fill:#FAAF2D;}
	.st6{fill:#FBC46E;}
	.st7{fill:#FCBB56;}
	.st8{fill:#FBBC5A;}
	.st9{fill:#FCEACB;}
	.st10{fill:#FAD092;}
	.st11{fill:#FCC062;}
	.st12{fill:#FCC877;}
	.st13{fill:#FBB541;}
	.st14{fill:#F9D39A;}
	.st15{fill:#FDECCF;}
	.st16{fill:#FBC169;}
	.st17{fill:#FBB84A;}
	.st18{fill:#F9D6A0;}
	.st19{fill:#FDEDD1;}
	.st20{fill:#FBB953;}
	.st21{fill:#FCC672;}
	.st22{fill:#FBBA50;}
	.st23{fill:#FBBD60;}
	.st24{fill:#F8C77E;}
	.st25{fill:#F5A55C;}
	.st26{fill:#F59B36;}
	.st27{fill:#FCF0DD;}
</style>
<g>
	<g>
		<path class="st0" d="M52.7,59.8c-0.2,0.6-0.5,1.2-0.7,1.7c-0.2,0-0.5,0.1-0.7,0.2c-0.6,0.3-1.1,0.6-1.7,0.9c0,0,0,0,0,0
			c-5.6,0.3-5.2,5.2-6.1,8.7c-1.5,5.9-1.1,6.2,4.9,6.3c0,0.3,0.1,0.7,0.1,1c-2.3,3-1.6,6.5-1.8,9.9c-1.1-0.5-1.4-2.6-3.1-1.8
			c-1.2,0.6-0.9,2-0.9,3.1c0,2.6,0,5.3,0.1,7.9c0,3.5,0,7-0.1,10.5c0,0.9,0.2,2.3-1.1,2.4c-1.1,0.1-1.6-0.9-2-1.9c-1-3-2-6-3-9
			c-0.4-7.8-0.5-15.7-6-22.2c-0.7-6.3,1.9-11.9,3.2-17.8c1.7-0.4,1.7-2.2,2.7-3.2c0.4,0.8,0.9,1.6,1.3,2.3c0,1.1-0.1,2.3,0,3.4
			c0,1.3-0.4,2.9,0.9,3.6c1.7,0.8,2.5-1,3.4-2c2-2.1,3.2-5,6-6.3C49.9,57.6,51.6,58,52.7,59.8z"/>
		<path class="st3" d="M36.5,99.7c1,3,2,6,3,9c0.3,1,0.9,2,2,1.9c1.3-0.1,1.1-1.5,1.1-2.4c0.1-3.5,0.1-7,0.1-10.5
			c1.3-0.4,3.2,1.1,4-1.2c0.2-0.3,0.4-0.6,0.6-1c0-1.3-0.1-2.6-0.1-3.9l0.4-0.1c1.3,6.2,1,12.5,0.8,18.8c0,1.3-0.5,2.6-1,3.8
			c-2.6,6.1-7,6.8-10.6,1.3c-3.8-5.7-6.6-11.9-6.2-19C34.3,94.3,34.3,99,36.5,99.7z"/>
		<path class="st5" d="M44.3,38.3c2.9-5.4,7.2-9.4,12.6-12.3c2.2-1.2,4.4-1.9,6.5-0.4c2.5,1.8,2.7,4.5,2.1,7.2
			C64.3,38,62.5,43,59,47.1c-1.2-1.8-3.2-3.2-2.7-5.7c0.8-2,1.7-3.9,2.5-5.9c0.4-1,1.3-2.4,0.4-3.2c-1.3-1-2.5,0.4-3.4,1.2
			c-2.5,2.6-4.9,5.3-7.3,8c-1.3-0.3-2.7-0.7-4-1C44.4,39.8,44.4,39,44.3,38.3z"/>
		<path class="st8" d="M36.5,99.7c-2.1-0.7-2.2-5.4-5.9-3.1c-0.9-6.3-1.7-12.7-0.1-19C35.9,84,36.1,91.9,36.5,99.7z"/>
		<path class="st18" d="M48.3,77.6c-6-0.1-6.4-0.4-4.9-6.3c0.9-3.5,0.5-8.3,6.1-8.7c0,1.4-0.1,2.7,0.7,3.9c-0.2,0.7-0.4,1.5-0.5,2.2
			c-0.2,0.3-0.3,0.5-0.2,0.8c0,0,0,0,0,0c-0.7,0.7-0.9,1.6-0.8,2.5C48.6,73.9,48.5,75.8,48.3,77.6z"/>
		<path class="st7" d="M44.5,40.5c1.3,0.3,2.7,0.7,4,1c-1.4,2.5-2.7,5.1-4.1,7.6c-1.7,1.1-4,1.4-5,3.4c-0.8-0.3-1.7-0.6-2.5-0.9
			c1.4-3.9,3.6-7.4,5.8-10.9C43.3,40.7,43.9,40.6,44.5,40.5z"/>
		<path class="st20" d="M56.2,41.4c-0.4,2.6,1.5,4,2.7,5.7c-1.2,1.4-1,3.7-2.9,4.7c-1.5-0.1-3.1-0.1-4.6-0.2
			C51.6,47.5,53.5,44.3,56.2,41.4z"/>
		<path class="st6" d="M51.5,51.6c1.5,0.1,3.1,0.1,4.6,0.2c-1.2,2.7-1.3,5.7-3.4,8c-1-1.8-2.8-2.2-4.7-2.3c0.2-2,0.3-3.9,0.5-5.9
			C49.5,51.6,50.5,51.6,51.5,51.6z"/>
		<path class="st25" d="M47.6,91.6c0,0-0.4,0.1-0.4,0.1c-0.2-1.1-0.4-2.1-0.6-3.2c0.2-3.4-0.5-6.9,1.8-9.9
			C48.1,82.9,47.9,87.3,47.6,91.6z"/>
		<path class="st25" d="M36.4,56.5c-1,1-1.1,2.8-2.7,3.2c0.2-2.3,0.9-4.5,2.7-6.1c0.2,0,0.4,0.1,0.5,0.2
			C36.8,54.7,36.6,55.6,36.4,56.5C36.5,56.6,36.4,56.5,36.4,56.5z"/>
		<path class="st0" d="M50.3,66.6c-0.8-1.2-0.7-2.6-0.7-3.9c0,0,0,0,0,0c0.6,0,1.1-0.1,1.7-0.1l0.4,0.2
			C51.5,64.1,51.7,65.6,50.3,66.6z"/>
		<path class="st6" d="M36.8,51.6c0.8,0.3,1.7,0.6,2.5,0.9c0.1,0.3,0,0.7,0,1c-0.8,0.1-1.6,0.1-2.4,0.2c-0.2-0.1-0.3-0.1-0.5-0.2
			C36.5,52.9,36.7,52.3,36.8,51.6z"/>
		<path class="st26" d="M44.5,40.5c-0.6,0.1-1.2,0.1-1.8,0.2c0-1.2,0.7-1.9,1.7-2.4C44.4,39,44.4,39.8,44.5,40.5z"/>
		<path class="st0" d="M48.8,72.1c-0.1-0.9,0.1-1.8,0.8-2.5C49.8,70.6,49.5,71.4,48.8,72.1z"/>
		<path class="st6" d="M51.3,61.7c0.2-0.1,0.5-0.1,0.7-0.2c-0.1,0.4-0.2,0.7-0.3,1.1c0,0-0.4-0.2-0.4-0.2
			C51.3,62.2,51.3,62,51.3,61.7z"/>
		<path class="st0" d="M49.6,69.6c-0.1-0.3,0-0.6,0.2-0.8C49.7,69,49.6,69.3,49.6,69.6z"/>
		<path class="st15" d="M39.3,53.6c0.1-0.3,0.1-0.6,0-1c1.1-2,3.4-2.2,5-3.4c1.7,0.3,2.8,1.5,4.1,2.4c-0.2,2-0.3,3.9-0.5,5.9
			c-2.8,1.4-4,4.2-6,6.3c-1,1-1.7,2.8-3.4,2c-1.4-0.6-0.9-2.3-0.9-3.6c0-1.1,0-2.3,0-3.4c0.1-0.7,0.2-1.4,0.4-2.1
			C39.4,56,39.4,54.8,39.3,53.6z"/>
		<path class="st11" d="M46.5,88.5c0.2,1.1,0.4,2.1,0.6,3.2c0,1.3,0.1,2.6,0.1,3.9c-0.2,0.3-0.4,0.6-0.6,1c-0.8,2.3-2.6,0.8-4,1.2
			c0-2.6-0.1-5.3-0.1-7.9c0-1.1-0.3-2.6,0.9-3.1C45.1,85.9,45.5,88,46.5,88.5z"/>
		<path class="st6" d="M38.1,56.7c-0.1,0.7-0.2,1.4-0.4,2.1c-0.4-0.8-0.9-1.6-1.3-2.3c0,0,0.1,0,0.1,0C37,56.6,37.6,56.7,38.1,56.7z
			"/>
		<path class="st18" d="M51.3,61.7c0,0.3,0,0.5,0,0.8c-0.6,0-1.1,0.1-1.7,0.1C50.1,62.3,50.7,62,51.3,61.7z"/>
		<path class="st25" d="M46.6,96.5c0.2-0.3,0.4-0.6,0.6-1C47,95.9,46.8,96.2,46.6,96.5z"/>
		<path class="st0" d="M48.5,51.6c-1.3-0.9-2.4-2.1-4.1-2.4c1.4-2.5,2.7-5.1,4.1-7.6c2.4-2.7,4.8-5.4,7.3-8c0.8-0.9,2.1-2.2,3.4-1.2
			c1,0.7,0.1,2.1-0.4,3.2c-0.8,2-1.7,3.9-2.5,5.9c-2.7,2.9-4.6,6.1-4.8,10.2C50.5,51.6,49.5,51.6,48.5,51.6z"/>
		<path class="st0" d="M38.1,56.7c-0.5-0.1-1.1-0.1-1.6-0.2c0.1-0.9,0.3-1.9,0.4-2.8c0.8-0.1,1.6-0.1,2.4-0.2
			C39.4,54.8,39.4,56,38.1,56.7z"/>
	</g>
</g>
</svg>
