<?xml version="1.0" encoding="utf-8"?>
<!-- Generator: Adobe Illustrator 22.0.1, SVG Export Plug-In . SVG Version: 6.00 Build 0)  -->
<svg version="1.1" id="Layer_1" xmlns="http://www.w3.org/2000/svg" xmlns:xlink="http://www.w3.org/1999/xlink" x="0px" y="0px"
	 viewBox="0 0 100.5 144" style="enable-background:new 0 0 100.5 144;" xml:space="preserve">
<style type="text/css">
	.st0{fill:#F5C885;}
	.st1{fill:#F5C886;}
	.st2{fill:#FAAF31;}
	.st3{fill:#FAAF2F;}
	.st4{fill:#F3B02A;}
	.st5{fill:#FAAF2D;}
	.st6{fill:#FBC46E;}
	.st7{fill:#FCBB56;}
	.st8{fill:#FBBC5A;}
	.st9{fill:#FCEACB;}
	.st10{fill:#FAD092;}
	.st11{fill:#FCC062;}
	.st12{fill:#FCC877;}
	.st13{fill:#FBB541;}
	.st14{fill:#F9D39A;}
	.st15{fill:#FDECCF;}
	.st16{fill:#FBC169;}
	.st17{fill:#FBB84A;}
	.st18{fill:#F9D6A0;}
	.st19{fill:#FDEDD1;}
	.st20{fill:#FBB953;}
	.st21{fill:#FCC672;}
	.st22{fill:#FBBA50;}
	.st23{fill:#FBBD60;}
	.st24{fill:#F8C77E;}
	.st25{fill:#F5A55C;}
	.st26{fill:#F59B36;}
	.st27{fill:#FCF0DD;}
</style>
<g>
	<g>
		<path class="st2" d="M41.1,91.3c-4.4-4-9.8-4.7-15.4-4.3c-3.1-1.2-6.5-1.7-9.1-4c0,0,0,0,0,0c-0.3-3.3-0.6-6.7-1-10
			c2.5-5.1,6.7-7.6,12.3-7.9c7.3-0.4,10.3-3.6,10.8-10.9c0.1-2.1,0.3-4.3,0.9-6.4c1.3-4.4,3.7-7.8,8.5-8.7c5.7-1.1,8.7,2.1,10.5,6.9
			c0,0.7,0,1.4,0,2.1c-2.2-0.1-4.5-0.1-6.7-0.2c-1.1-1.4-2.5-2.1-4.3-1.8l0,0c-1-1.4-1.9-0.9-2.8,0.2c-0.4,0.2-0.8,0.5-1.3,0.7
			c-0.3,0.4-0.6,0.7-0.9,1.1c0.3,3.3,0.6,6.7,1,10c-0.4,3.5-1.8,6.5-4,9.2c-0.6,0.3-1.3,0.6-1.9,0.9c-0.4,0.1-0.9,0.3-1.3,0.4
			c-1.9,0.6-3.7,1.1-5.6,1.7c-2-0.3-3.9,0.4-5.8,0.8c-1.7,0.4-3.1,1-3.3,3.1c-0.1,2.1,0.7,3.5,2.8,4c0.4,0.9,1.2,1.1,2.1,1
			c3.6,2.8,8.1,2.5,12.2,3.7c2.4,0.7,4,1.5,4,4.2C41.4,88.1,42.8,90.3,41.1,91.3z"/>
		<path class="st8" d="M51.9,47.9c2.2,0.1,4.5,0.1,6.7,0.2c0.3,1,0.8,1.7,1.8,2.1c0.8,8.5,3.8,11.4,12.2,12.1c2,0.1,3.9,0.6,5.9,0.9
			c-0.8,1.9-1.9,3.7-1.8,5.8c-3.7-0.2-7.5,1-11-1.1c-1.1-4.4-4.5-6.7-8.1-8.8C53,56.7,54.3,51.4,51.9,47.9z"/>
		<path class="st6" d="M69.6,84c-3.1,2.3-5,5.3-5.9,9c-2,0-4,0.1-6,0.1c0.2-8.2,7.8-16.5,14.9-16.1C70.9,79,71.6,82.1,69.6,84z"/>
		<path class="st2" d="M63.4,101.9c-1.7,4.7-4.7,8.3-10.1,7.8c-5.2-0.4-8.2-3.9-9.4-8.9c2.6,0.4,5.2,0.8,7.8,1.2
			c0.3,0.1,0.6,0.3,0.9,0.4c1.2,1.9,2.3,1.6,3.2-0.3l0,0C58.3,102,60.8,102,63.4,101.9z"/>
		<path class="st2" d="M76.7,68.9c-0.1-2.2,1-3.9,1.8-5.8c4.9,1.1,7.9,4.2,7.9,9.2c0,5-3.2,8-7.9,9.4c0-2.3,0-4.6-0.1-6.9
			c0.1-0.3,0.2-0.5,0.2-0.8C82.6,70.6,79.1,70,76.7,68.9L76.7,68.9z"/>
		<path class="st8" d="M51.6,102c-2.6-0.4-5.2-0.8-7.8-1.2c0,0-0.1-0.1-0.1-0.1c-0.2-0.3-0.4-0.6-0.6-0.8c-0.8-2.8-0.2-6-2-8.6
			c1.7-1,0.3-3.2,1.8-4.3c2.5,0.8,4.3,2.5,5.3,4.8C49.5,95.1,50.5,98.6,51.6,102z"/>
		<path class="st22" d="M63.4,101.9c-2.6,0-5.1,0.1-7.7,0.1c1.5-2.8,2.1-5.8,2-9c2,0,4-0.1,6-0.1C64.2,96,63.9,99,63.4,101.9z"/>
		<path class="st20" d="M78.4,74.8c0,2.3,0,4.6,0.1,6.9c-2.8,1.6-5.8,2.1-8.9,2.3c2-1.9,1.3-5,3-7C74.6,76.3,76.5,75.5,78.4,74.8z"
			/>
		<path class="st25" d="M15.6,73c0.3,3.3,0.6,6.7,1,10C12.8,80,13.4,76.6,15.6,73z"/>
		<path class="st25" d="M16.6,83c2.6,2.3,6,2.7,9.1,4C21.8,87.5,18.1,87.9,16.6,83z"/>
		<path class="st26" d="M60.4,50.1c-1-0.4-1.5-1.1-1.8-2.1c0-0.7,0-1.4,0-2.1C59.6,47.2,60.5,48.5,60.4,50.1z"/>
		<path class="st2" d="M43.1,100c0.2,0.3,0.4,0.6,0.6,0.8C43.5,100.5,43.3,100.2,43.1,100z"/>
		<path class="st1" d="M78.4,74.8c-1.9,0.7-3.9,1.4-5.8,2.2c-7.1-0.4-14.7,7.9-14.9,16.1c0.1,3.2-0.5,6.2-2,9c0,0,0,0,0,0
			c-1.1,0.1-2.1,0.2-3.2,0.3c-0.3-0.1-0.6-0.2-0.9-0.4c-1.1-3.4-2.1-6.9-3.5-10.2c-0.9-2.3-2.8-4-5.3-4.8c-0.1-2.7-1.7-3.4-4-4.2
			c-4.1-1.2-8.6-0.9-12.2-3.7c1.2-1.4,2.9-1.4,4.5-1.8c8.4-1.8,8.6-2,8.5-10.1c2.2-2.7,3.6-5.7,4-9.2c4.5-2.2,5.7-5.7,4-12
			c1.8-0.3,3.2,0.4,4.3,1.8c2.3,3.5,1.1,8.8,5.7,11.2c-0.3,6.6,0.1,7,8.1,8.8c3.5,2.1,7.3,0.9,11,1.1c0,0,0,0,0,0
			c0.5,1.8,2.3,3,2,5.1C78.6,74.3,78.5,74.6,78.4,74.8z"/>
		<path class="st15" d="M39.6,67.2c0,8.1-0.2,8.3-8.5,10.1c-1.6,0.3-3.3,0.3-4.5,1.8c-0.9,0.1-1.7-0.1-2.1-1
			c0.3-4.1,5.2-4.5,6.3-7.9c1.9-0.6,3.7-1.1,5.6-1.7c0.4-0.1,0.9-0.3,1.3-0.4C38.3,67.8,39,67.5,39.6,67.2z"/>
		<path class="st27" d="M47.6,46c1.7,6.4,0.5,9.8-4,12c-0.3-3.3-0.6-6.7-1-10c0.3-0.4,0.6-0.7,0.9-1.1c0.4-0.2,0.8-0.5,1.3-0.7
			C45.8,46.2,46.7,46.1,47.6,46C47.6,46,47.6,46,47.6,46z"/>
		<path class="st24" d="M30.8,70.2c-1.1,3.4-6,3.9-6.3,7.9c-2.1-0.5-3-1.9-2.8-4c0.1-2.1,1.6-2.7,3.3-3.1
			C26.9,70.6,28.8,69.8,30.8,70.2z"/>
		<path class="st1" d="M47.6,46c-0.9,0.1-1.9,0.1-2.8,0.2C45.7,45.1,46.6,44.6,47.6,46z"/>
		<path class="st1" d="M43.6,46.9c-0.3,0.4-0.6,0.7-0.9,1.1C43,47.7,43.3,47.3,43.6,46.9z"/>
		<path class="st1" d="M37.7,68.1c-0.4,0.1-0.9,0.3-1.3,0.4C36.8,68.4,37.3,68.2,37.7,68.1z"/>
		<path class="st3" d="M65.7,67.9c-8-1.8-8.3-2.2-8.1-8.8C61.2,61.1,64.5,63.5,65.7,67.9z"/>
		<path class="st22" d="M52.5,102.4c1.1-0.1,2.1-0.2,3.2-0.3C54.8,104,53.8,104.3,52.5,102.4z"/>
		<path class="st8" d="M78.7,74.1c0.3-2.1-1.5-3.3-2-5.1C79.1,70,82.6,70.6,78.7,74.1z"/>
	</g>
</g>
</svg>
