<?xml version="1.0" encoding="utf-8"?>
<!-- Generator: Adobe Illustrator 22.0.1, SVG Export Plug-In . SVG Version: 6.00 Build 0)  -->
<svg version="1.1" id="Layer_1" xmlns="http://www.w3.org/2000/svg" xmlns:xlink="http://www.w3.org/1999/xlink" x="0px" y="0px"
	 viewBox="0 0 126.1 144" style="enable-background:new 0 0 126.1 144;" xml:space="preserve">
<style type="text/css">
	.st0{fill:#F5C885;}
	.st1{fill:#F5C886;}
	.st2{fill:#FAAF31;}
	.st3{fill:#FAAF2F;}
	.st4{fill:#F3B02A;}
	.st5{fill:#FAAF2D;}
	.st6{fill:#FBC46E;}
	.st7{fill:#FCBB56;}
	.st8{fill:#FBBC5A;}
	.st9{fill:#FCEACB;}
	.st10{fill:#FAD092;}
	.st11{fill:#FCC062;}
	.st12{fill:#FCC877;}
	.st13{fill:#FBB541;}
	.st14{fill:#F9D39A;}
	.st15{fill:#FDECCF;}
	.st16{fill:#FBC169;}
	.st17{fill:#FBB84A;}
	.st18{fill:#F9D6A0;}
	.st19{fill:#FDEDD1;}
	.st20{fill:#FBB953;}
	.st21{fill:#FCC672;}
	.st22{fill:#FBBA50;}
	.st23{fill:#FBBD60;}
	.st24{fill:#F8C77E;}
	.st25{fill:#F5A55C;}
	.st26{fill:#F59B36;}
	.st27{fill:#FCF0DD;}
</style>
<g>
	<g>
		<path class="st3" d="M25.3,82.8C19,68.8,21.1,43.1,39,34.2c22.2-11.1,42.4-1.4,49.9,18.2c-2.2,0.3-4.3-0.3-6.4-0.9
			c-3.1-4.8-6.7-9.2-11.8-11.8c-5.2-2.7-10.6-6.7-16.9-2.3c-9.6-1-17.6,1.1-22.8,10.2c-4.1,7.2-5.4,14.8-4.6,22.9
			c-1.2,1.4-1,3.2-1.1,4.9C25.4,77.9,25.3,80.4,25.3,82.8z"/>
		<path class="st3" d="M89.6,107.6c8-0.4,12.4,3,12.7,9.7c0.3,7.1-4,11.4-11.9,11.5c-3.6,0-7.4,0.1-10.9-0.7
			c-5.5-1.2-10.8-3.2-16.2-4.7c-3.4-0.9-5.8-3-7.6-5.9c2.2-0.3,4.5-0.6,6.7-0.9c1,0.4,2,0.7,2.9,1.1c1.2,1,2.6,1.7,4.2,1.6
			c7,0.8,13.6,4.2,20.9,3.4c2.8-0.3,4.9-1.1,5.4-4c0.4-2.6-0.6-4.5-3.4-5.1c-0.2-2.2-1-4.1-2.9-5.4
			C89.6,107.9,89.6,107.7,89.6,107.6z"/>
		<path class="st7" d="M62.4,116.6c-2.2,0.3-4.5,0.6-6.7,0.9c-3.1-4.6-7.2-7.6-12.2-10.3c-9.6-5.1-15.5-13.7-18.1-24.4
			c0-2.5,0-4.9,0.1-7.4c0.6-0.6,1.3-1.2,1.9-1.8c2.1,3.1,1.6,7.5,5.1,9.9c2.8,10.6,9.4,17.5,19.7,21c1.1,0.4,2.3,0.4,3,1.5
			C57.5,109.5,60,113,62.4,116.6z"/>
		<path class="st11" d="M92.3,77.5c-1.6,6.1-5.6,11.1-8.1,16.8c-1.2,2.6-1.7,5.2-1.8,8.1c-0.2,4.1,1.3,5.9,5.4,5.4
			c-1.3,3.1-6.1,2-6.8,5.9c-1.4,0.6-2.4-0.1-2.8-1.3c-2.2-5.7-3.2-11.9-0.6-17.4c4-8.3,8.3-16.5,10.8-25.4c1.4,0.3,2.8,0.6,4.2,0.9
			C92.4,72.9,92.3,75.2,92.3,77.5z"/>
		<path class="st17" d="M92.5,70.5c-1.4-0.3-2.8-0.6-4.2-0.9c-0.4-2.3-0.7-4.5-1.1-6.8c0-1.1-0.6-1.9-1.6-2.3c-1-3-2-6-3.1-9
			c2.1,0.6,4.2,1.2,6.4,0.9c0.2,0.3,0.4,0.7,0.6,1c0,1.4,0.2,2.6,1.6,3.2c0.5,2.3,0.9,4.6,1.4,6.9c0.2,0.7,0.4,1.3,0.5,2
			c0.1,0.7,0.2,1.4,0.3,2C93,68.6,92.7,69.6,92.5,70.5z"/>
		<path class="st19" d="M80.9,113.6c0.6-3.8,5.5-2.8,6.8-5.9c0.2-0.1,0.3-0.1,0.5,0c0.5,0.1,0.9,0.3,1.4,0.4
			c1.8,1.4,2.7,3.2,2.9,5.4C88.3,117.8,86.3,117.8,80.9,113.6z"/>
		<path class="st26" d="M92.5,70.5c0.3-1,0.5-2,0.8-3c1.6,3.5,0.8,6.7-1,9.9C92.3,75.2,92.4,72.9,92.5,70.5z"/>
		<path class="st3" d="M91,56.6c-1.4-0.6-1.6-1.9-1.6-3.2C90.4,54.3,90.9,55.3,91,56.6z"/>
		<path class="st26" d="M92.9,65.6c-0.2-0.7-0.4-1.3-0.5-2C92.6,64.2,92.8,64.9,92.9,65.6z"/>
		<path class="st11" d="M89.5,108.1c-0.5-0.1-0.9-0.3-1.4-0.4c0.5-0.1,0.9-0.1,1.4-0.2C89.6,107.7,89.6,107.9,89.5,108.1z"/>
		<path class="st0" d="M80.9,113.6c5.4,4.1,7.4,4.1,11.5-0.1c2.8,0.6,3.8,2.5,3.4,5.1c-0.5,2.9-2.6,3.7-5.4,4
			c-7.3,0.8-13.9-2.6-20.9-3.4c-0.9-1.8-2.6-1.7-4.2-1.6c-1-0.4-2-0.7-2.9-1.1c-2.4-3.5-4.9-7.1-7.3-10.6c-0.7-1.1-1.9-1.1-3-1.5
			c-10.3-3.5-16.9-10.4-19.7-21c-1-8.2-2.5-16.5,1.3-24.5c3-6.2,8.1-10.5,13.1-14.9c2.5-2.2,5.9-3.3,7.1-6.8
			c6.3-4.5,11.6-0.4,16.9,2.3c5.1,2.6,8.7,7.1,11.8,11.8c1,3,2,6,3.1,9c0.1,1.1,0.6,1.8,1.6,2.3c0.4,2.3,0.7,4.5,1.1,6.8
			c-2.5,9-6.8,17.1-10.8,25.4c-2.6,5.4-1.6,11.7,0.6,17.4C78.5,113.5,79.6,114.2,80.9,113.6z M70.5,52.5c-1.2-5.2-5-7.3-9.7-7.9
			c-8.7-1.1-15,3.6-18.6,13.8c-1.9,2.8-2.6,14.6-1,17c0.5,0.7,1,1.4,2,1.2c1.1-0.2,1.1-1.1,1.2-1.9c0.2-1.6,0-3.4,1.9-4.2
			c0.2,3.5,1.2,6.8,2.4,10c4.3,11.2,4.3,11.2,15.6,8.7c0.2,2.5-1.9,3.7-3.1,5.5c-0.5,0.7-2.3,0.8-1.7,2.1c0.6,1.2,2.1,1,3.1,0.7
			c5.7-1.8,10.6-5,13.8-10.1c1.9-3,1.7-6.7-0.4-9.5c-2.1-2.7-4,1.3-6.2,0.9c0.4-4.2,1-8.4,0.1-12.7c1-1.7,4.6-0.1,4.4-3
			C73.9,59.4,74.3,55.1,70.5,52.5z"/>
		<path class="st15" d="M53.8,37.4c-1.2,3.4-4.6,4.6-7.1,6.8c-5,4.4-10.1,8.6-13.1,14.9c-3.8,8-2.3,16.3-1.3,24.5
			c-3.5-2.4-3-6.8-5.1-9.9c-0.3-1-0.5-2-0.8-3.1c-0.8-8.1,0.5-15.7,4.6-22.9C36.2,38.5,44.3,36.4,53.8,37.4z"/>
		<path class="st2" d="M26.5,70.6c0.3,1,0.5,2,0.8,3.1c-0.6,0.6-1.3,1.2-1.9,1.8C25.4,73.7,25.2,72,26.5,70.6z"/>
		<path class="st11" d="M65.3,117.7c1.7-0.1,3.3-0.1,4.2,1.6C67.9,119.4,66.6,118.7,65.3,117.7z"/>
		<path class="st11" d="M87.2,62.8c-1-0.4-1.6-1.2-1.6-2.3C86.6,60.9,87.2,61.7,87.2,62.8z"/>
		<path class="st20" d="M66,55c-7.3-7.1-12.3-5.8-18.6,4.9c0-0.2,0-0.5-0.1-0.7c-0.2-0.4-0.3-0.7-0.5-1.1c-0.1,0.5-0.3,1.1-0.4,1.6
			l0.1,0c-1.4-0.7-4.2,4.1-4.3-1.1c3.6-10.2,9.9-15,18.6-13.8c4.7,0.6,8.5,2.7,9.7,7.9C69.6,54.5,67.3,53.9,66,55z"/>
		<path class="st15" d="M64.2,89.2c2.9-2.9,3.8-6.9,5.5-10.5c2.2,0.4,4.2-3.6,6.2-0.9c2.1,2.8,2.4,6.4,0.4,9.5
			c-3.2,5.1-8.1,8.3-13.8,10.1c-1.1,0.3-2.6,0.6-3.1-0.7c-0.6-1.3,1.1-1.3,1.7-2.1C62.3,93,64.4,91.8,64.2,89.2z"/>
		<path class="st21" d="M42.2,58.5c0.2,5.3,3,0.4,4.3,1.1c0.1,0.7,0.1,1.4,0.2,2.1c-0.2,3-0.3,5.9-0.5,8.9c-1.9,0.8-1.7,2.6-1.9,4.2
			c-0.1,0.8-0.1,1.7-1.2,1.9c-0.9,0.1-1.5-0.5-2-1.2C39.6,73.1,40.3,61.3,42.2,58.5z"/>
		<path class="st16" d="M66,55c1.3-1.1,3.6-0.5,4.5-2.5c3.9,2.6,3.4,6.8,3.7,10.6c0.2,2.8-3.4,1.3-4.4,3C68.5,62.4,67.3,58.7,66,55z
			"/>
		<path class="st26" d="M46.7,61.7c-0.1-0.7-0.1-1.4-0.2-2.1c0,0-0.1,0-0.1,0c0.3-0.2,0.6-0.3,0.9-0.5c0.1,0.2,0.1,0.5,0.1,0.7
			C47.2,60.5,47,61.1,46.7,61.7z"/>
		<path class="st21" d="M47.3,59.2c-0.3,0.2-0.6,0.3-0.9,0.5c0.1-0.5,0.3-1.1,0.4-1.6C47,58.4,47.2,58.8,47.3,59.2z"/>
	</g>
</g>
</svg>
