<?xml version="1.0" encoding="utf-8"?>
<!-- Generator: Adobe Illustrator 22.0.1, SVG Export Plug-In . SVG Version: 6.00 Build 0)  -->
<svg version="1.1" id="Layer_1" xmlns="http://www.w3.org/2000/svg" xmlns:xlink="http://www.w3.org/1999/xlink" x="0px" y="0px"
	 viewBox="0 0 96 144" style="enable-background:new 0 0 96 144;" xml:space="preserve">
<style type="text/css">
	.st0{fill:#F5C885;}
	.st1{fill:#F5C886;}
	.st2{fill:#FAAF31;}
	.st3{fill:#FAAF2F;}
	.st4{fill:#F3B02A;}
	.st5{fill:#FAAF2D;}
	.st6{fill:#FBC46E;}
	.st7{fill:#FCBB56;}
	.st8{fill:#FBBC5A;}
	.st9{fill:#FCEACB;}
	.st10{fill:#FAD092;}
	.st11{fill:#FCC062;}
	.st12{fill:#FCC877;}
	.st13{fill:#FBB541;}
	.st14{fill:#F9D39A;}
	.st15{fill:#FDECCF;}
	.st16{fill:#FBC169;}
	.st17{fill:#FBB84A;}
	.st18{fill:#F9D6A0;}
	.st19{fill:#FDEDD1;}
	.st20{fill:#FBB953;}
	.st21{fill:#FCC672;}
	.st22{fill:#FBBA50;}
	.st23{fill:#FBBD60;}
	.st24{fill:#F8C77E;}
	.st25{fill:#F5A55C;}
	.st26{fill:#F59B36;}
	.st27{fill:#FCF0DD;}
</style>
<g>
	<g>
		<path class="st5" d="M16.8,54.1c-5.3-2.3-6.5-5-4.7-10.1c2.7-7.6,7.1-12.8,15.9-13.4c10.3-0.7,20.4-1.2,26.3,9.4
			c3.1,5.6,4.3,11.8,4.2,18.3c-0.9-5.6-4.5-9.4-8.5-13c-3.3-9-15-11.3-24.7-6.9c-0.5-0.1-1-0.2-1.5-0.2c-0.4-0.1-0.8-0.2-1.2-0.3
			c-4.2-0.8-4.5,2.6-4.9,5.1C17.4,45,16.9,48,20.9,48C21.3,51.2,17.2,51.4,16.8,54.1z"/>
		<path class="st10" d="M52.6,72.4c-3.5,4.2-7.4,8-12.2,10.7c-5.2,2.9-8.8,1-8.9-5c-0.1-4.2,0.2-8.3,2.5-12c1.1-1.8,0.8-3.9,1.3-5.8
			c1.6-0.3,1.6-2.2,2.7-3c0.8,3.2,4.4,5.6,2.6,9.5c-0.8,1.8-1.3,3.7-2,5.6c-0.3,0.9-0.9,2.1,0.1,2.7c1,0.7,1.8-0.4,2.5-1
			c0.8-0.6,1.6-1.2,2.3-1.9c2.8-2.8,5.5-3.6,8.2,0.1C51.9,72.4,52.2,72.4,52.6,72.4z"/>
		<path class="st3" d="M50.7,92.4c3.7,5.2,2.9,13.2-1.6,17.6c-4.8,4.6-12.3,4.9-17.7,0.7c-5.2-4-6.7-11.5-3.5-17.3
			c0.1,0.3,0.1,0.6,0.1,0.9c-0.2,1.7-0.4,3.5,0.7,5c1,0.7,2,1.4,3,2.1c0.8,1,1.7,2,2.5,3c2.1,2.5,4.8,3.4,7.9,2.4
			c3.3-1.1,5.1-3.5,4.8-7.1c-0.1-1.5-0.2-2.9-0.3-4.4C48.6,95.3,50.4,94.9,50.7,92.4z"/>
		<path class="st11" d="M50.7,92.4c-0.4,2.4-2.1,2.9-4.2,2.9c-3-1.9-5.9-4.3-9.8-2c-3.3-0.7-5.5,1.4-7.9,3.1
			c-0.3-0.7-0.6-1.4-0.9-2.2c0-0.3-0.1-0.6-0.1-0.9c2.1-4.9,6-7.3,11.1-7.5C44.1,85.7,48.3,87.6,50.7,92.4z"/>
		<path class="st13" d="M16.8,54.1c0.4-2.7,4.5-2.9,4-6.1c1.2-1.7,2.6-2.9,4.8-2.9C29.9,45,34.5,43,38,47.3c-1.9,0.9-4,1-6.1,1
			c-0.4,0-0.8,0.2-1.2,0.4c0.4,0.2,0.7,0.5,1.1,0.6c1,0.2,1.7,0.8,2.1,1.8C30.3,50.8,27,51,24,53.3C21.9,54.9,19.3,54.4,16.8,54.1z"
			/>
		<path class="st22" d="M50.1,45.2c4,3.6,7.6,7.4,8.5,13c0.1,2.7,0.8,5.5-1.4,7.8c-0.8-2.4,1-6.7-4.3-5.7
			C53.3,55,50.5,50.3,50.1,45.2z"/>
		<path class="st23" d="M33.8,51.2c-0.4-1-1-1.6-2.1-1.8c-0.4-0.1-0.8-0.4-1.1-0.6c0.4-0.1,0.8-0.4,1.2-0.4c2.1,0,4.2-0.1,6.1-1
			c4,3.7,4,6.5-0.1,10c-1.1,0.8-1,2.7-2.7,3C34.6,57.3,35.9,54,33.8,51.2z"/>
		<path class="st6" d="M52.9,60.3c5.3-0.9,3.5,3.3,4.3,5.7c-1,2.3-2.5,4.2-4.2,6c0-0.3-0.1-0.6-0.2-0.8
			C50.2,67.5,51.2,63.9,52.9,60.3z"/>
		<path class="st25" d="M53,72c0,0.3-0.1,0.4-0.4,0.5c-0.4,0-0.7,0-1.1-0.1c0.4-0.4,0.8-0.8,1.3-1.2C52.9,71.4,52.9,71.7,53,72z"/>
		<path class="st0" d="M52.8,71.1c-0.4,0.4-0.8,0.8-1.3,1.2c-2.7-3.7-5.4-2.9-8.2-0.1c-0.7,0.7-1.5,1.3-2.3,1.9
			c-0.8,0.6-1.5,1.7-2.5,1c-1-0.7-0.4-1.8-0.1-2.7c0.7-1.9,1.2-3.8,2-5.6c1.7-3.9-1.8-6.3-2.6-9.5c4.1-3.5,4.1-6.3,0.1-10
			c-3.5-4.4-8.1-2.3-12.3-2.2c-0.1-2.3-0.2-4.5-0.2-6.8c9.7-4.4,21.4-2.1,24.7,6.9c0.4,5.1,3.2,9.8,2.8,15
			C51.2,63.9,50.2,67.5,52.8,71.1z"/>
		<path class="st9" d="M25.4,38.3c0.1,2.3,0.2,4.5,0.2,6.8c-2.2,0-3.6,1.2-4.8,2.9c-3.9,0.1-3.4-3-3.1-5.2c0.4-2.5,0.7-5.9,4.9-5.1
			c0.4,0.1,0.8,0.2,1.2,0.3C24.4,38.2,24.9,38.2,25.4,38.3z"/>
		<path class="st0" d="M23.9,38.1c-0.4-0.1-0.8-0.2-1.2-0.3C23.1,37.9,23.5,38,23.9,38.1z"/>
		<path class="st0" d="M36.8,93.4c3.9-2.4,6.8,0,9.8,2c0.1,1.5,0.2,2.9,0.3,4.4c0.3,3.6-1.4,6-4.8,7.1c-3.1,1.1-5.8,0.1-7.9-2.4
			c-0.8-1-1.7-2-2.5-3C36.5,100.7,37.1,97.3,36.8,93.4z"/>
		<path class="st9" d="M36.8,93.4c0.3,4-0.3,7.3-5,8.1c-1-0.7-2-1.4-3-2.1c0.1-0.9,0.1-1.9,0.2-2.8C31.2,94.8,33.5,92.7,36.8,93.4z"
			/>
		<path class="st17" d="M28.9,96.5c-0.1,0.9-0.1,1.9-0.2,2.8c-1.1-1.5-0.9-3.3-0.7-5C28.3,95,28.6,95.8,28.9,96.5z"/>
	</g>
</g>
</svg>
