<?xml version="1.0" encoding="utf-8"?>
<!-- Generator: Adobe Illustrator 22.0.1, SVG Export Plug-In . SVG Version: 6.00 Build 0)  -->
<svg version="1.1" id="Layer_1" xmlns="http://www.w3.org/2000/svg" xmlns:xlink="http://www.w3.org/1999/xlink" x="0px" y="0px"
	 viewBox="0 0 115.7 144" style="enable-background:new 0 0 115.7 144;" xml:space="preserve">
<style type="text/css">
	.st0{fill:#F5C885;}
	.st1{fill:#F5C886;}
	.st2{fill:#FAAF31;}
	.st3{fill:#FAAF2F;}
	.st4{fill:#F3B02A;}
	.st5{fill:#FAAF2D;}
	.st6{fill:#FBC46E;}
	.st7{fill:#FCBB56;}
	.st8{fill:#FBBC5A;}
	.st9{fill:#FCEACB;}
	.st10{fill:#FAD092;}
	.st11{fill:#FCC062;}
	.st12{fill:#FCC877;}
	.st13{fill:#FBB541;}
	.st14{fill:#F9D39A;}
	.st15{fill:#FDECCF;}
	.st16{fill:#FBC169;}
	.st17{fill:#FBB84A;}
	.st18{fill:#F9D6A0;}
	.st19{fill:#FDEDD1;}
	.st20{fill:#FBB953;}
	.st21{fill:#FCC672;}
	.st22{fill:#FBBA50;}
	.st23{fill:#FBBD60;}
	.st24{fill:#F8C77E;}
	.st25{fill:#F5A55C;}
	.st26{fill:#F59B36;}
	.st27{fill:#FCF0DD;}
</style>
<g>
	<g>
		<path class="st5" d="M18.4,59.5c-0.8-4.7-0.4-9.3,1.5-13.6c3.1-7,7.7-11.7,15.9-12.2c12.3-0.8,24.6,0.2,36.8,1.3
			c8.6,0.8,12.9,7.8,15.4,15.2c2.1,6.4,3.4,13.2,2.2,20.1c-0.8-5.7-0.5-11.9-7.3-14.6c-0.1-0.3-0.1-0.6-0.1-0.9
			c0.1-1.3-0.2-2.4-1.4-3.2c-3-7.5-8.5-10.9-16.6-10.8c-7.9,0.1-15.9-0.1-23.8-0.2c-0.6-1.4-0.9-3.3-3.2-2.8
			c-0.4,0.6-0.8,1.2-1.2,1.8c-0.3,0.4-0.6,0.8-0.9,1.2c-3.7,0-6.5,1.3-7,5.4c-5.4,3-7.8,7.9-9.2,13.6C19.2,59.6,18.8,59.5,18.4,59.5
			z"/>
		<path class="st3" d="M18.4,59.5c0.4,0,0.8,0.1,1.2,0.1C19,69.3,22,78.6,23.5,88c0.8,4.9,1.4,10.2,4.3,14.6c1,3.8,1.7,7.7,4,11
			c1.6,2.3,3.2,5,6.4,4.7c3.2-0.3,5.2-2.6,6-5.7c2.2-1.1,4.4-0.2,6.6-0.1c-1.5,7.6-4.5,11.3-9.8,12.1c-6.9,1-11.6-1.6-15.4-8.2
			c-2.6-4.5-4.2-9.4-4.7-14.6c-1.3-12.5-1.9-25.1-2.2-37.7c-0.2-0.8-0.3-1.5-0.5-2.3C18.3,61.1,18.4,60.3,18.4,59.5z"/>
		<path class="st3" d="M92.7,85.8c2.7,7.1,5.3,14.3,5.1,22.1c-0.2,5.5-2.8,9.3-7.6,11.9c-4.7,2.6-8.4,0.2-11.9-2.3
			c-2.9-2.1-5.8-4.3-7.6-7.6c0.4-2,2.9-2.6,3.2-4.7c2.1,1.7,4.1,3.3,6.2,5c2.3,1.7,4.3,4.7,7.8,2.7c3.6-2,3.2-5.5,2.8-8.9
			c-0.6-4.1-1.3-8.2-2-12.3C89.4,89.4,93.2,89.1,92.7,85.8z"/>
		<path class="st17" d="M92.7,85.8c0.5,3.3-3.3,3.6-4.1,6c-1.8-1-2.2-2.9-2.6-4.6c-2.2-10.4-2.9-21-3.2-31.6
			c6.8,2.7,6.6,8.9,7.3,14.6c-0.4,4.6,1.7,8.8,1.8,13.3c-0.8,1.1-0.4,1.7,0.8,2.1L92.7,85.8z"/>
		<path class="st6" d="M63.6,103.7c-2.7-1.7-5.5-3.3-8.1-5.1c-2.7-1.7-3.8-0.8-4,2.1c-0.2,4.4-3.3,3-5.8,2.8c-1.1-2.3-1-4.9-0.8-7.3
			c0.2-4.2,1.7-5.2,5.3-3.2c2.3,1.3,4.6,1.5,7.1,1.7c4.3,0.4,8.5,1.2,10.6,5.7C65.9,100.8,65,102.5,63.6,103.7z"/>
		<path class="st13" d="M45.7,103.5c2.5,0.3,5.5,1.7,5.8-2.8c1.6,4,0.3,7.9-0.6,11.9c-2.2-0.1-4.4-1-6.6,0.1
			C44.3,109.5,46.1,106.7,45.7,103.5z"/>
		<path class="st20" d="M63.6,103.7c1.4-1.1,2.4-2.9,4.3-3.3c2.5,0.9,5,1.9,5.9,4.8c-0.2,2.1-2.8,2.7-3.2,4.7
			C68.1,108.1,65.5,106.3,63.6,103.7z"/>
		<path class="st26" d="M92.7,85.6c-1.2-0.4-1.5-1-0.8-2.1C92.2,84.2,92.5,84.9,92.7,85.6z"/>
		<path class="st5" d="M18.3,61.9c0.2,0.8,0.3,1.5,0.5,2.3C18.6,63.4,18.5,62.6,18.3,61.9z"/>
		<path class="st0" d="M73.9,105.2c-0.9-2.9-3.4-3.9-5.9-4.8c-2.1-4.6-6.3-5.3-10.6-5.7c-2.5-0.2-4.8-0.4-7.1-1.7
			c-3.6-2-5.1-1-5.3,3.2c-0.1,2.5-0.3,5,0.8,7.3c0.4,3.2-1.4,6-1.5,9.2c-0.8,3.2-2.8,5.4-6,5.7c-3.1,0.3-4.8-2.5-6.4-4.7
			c-2.3-3.3-3.1-7.2-4-11c0.8-1,1-2.1,1-3.3c0-17.8,0-35.6,0.1-53.3c0.5-4.1,3.2-5.4,7-5.4c0.5,2.1,1.7,4.3,4,4
			c1.9-0.2,0.9-2.7,1.3-4.1c7.9,0.1,15.9,0.3,23.8,0.2c8-0.1,13.6,3.4,16.6,10.8c-0.5,1.5,0,2.5,1.4,3.2c0,0.3,0,0.6,0.1,0.9
			c0.3,10.6,1,21.2,3.2,31.6c0.4,1.8,0.8,3.6,2.6,4.6c0.7,4.1,1.4,8.2,2,12.3c0.5,3.3,0.8,6.9-2.8,8.9c-3.5,2-5.5-1-7.8-2.7
			C78,108.6,75.9,106.9,73.9,105.2z M70.8,67.8c2-4.3-1.8-8.1-1.1-12.4c0-0.6,0-1.2,0-1.8c-0.1-1.1-0.6-1.8-1.6-2.2
			c-0.6-1.4-1.8-1.8-3.2-1.9c-4.9-0.3-9.9-0.9-14.8-1c-9-0.2-12.7,5-10.1,13.9c0.3,2.5-1.3,6.2,1.5,7c3.5,1,1.6-3.9,3.7-5.1
			c0.3,1,0.6,1.9,0.9,2.9c0.2,0.8,0.5,1.5,0.7,2.3c0.2,0.6,0.3,1.2,0.5,1.8c-1.2,0.4-1.8,1-1.4,2.5c1.5,6.2,6.1,3.8,9.8,3.7
			c4.8,3.4,9.2,0.2,13.3-1.5C72.3,74.8,71.8,71,70.8,67.8z"/>
		<path class="st9" d="M28.8,46c0,17.8,0,35.6-0.1,53.3c0,1.2-0.2,2.3-1,3.3c-2.9-4.4-3.5-9.7-4.3-14.6C22,78.6,19,69.3,19.6,59.6
			C21,54,23.4,49,28.8,46z"/>
		<path class="st15" d="M41,40.5c-0.4,1.4,0.7,3.9-1.3,4.1c-2.3,0.3-3.4-1.9-4-4c0.3-0.4,0.6-0.8,0.9-1.2c0.8-0.3,1.1-1,1.2-1.8
			C40.1,37.2,40.4,39,41,40.5z"/>
		<path class="st17" d="M82.8,54.7c-1.4-0.6-1.9-1.7-1.4-3.2C82.6,52.2,82.9,53.4,82.8,54.7z"/>
		<path class="st24" d="M37.8,37.6c-0.1,0.8-0.4,1.5-1.2,1.8C37,38.8,37.4,38.2,37.8,37.6z"/>
		<path class="st8" d="M55.9,55.5c-3.3,1-7.4-1.8-10.1,2.1c-0.3,0-0.6,0-0.9,0c-2.2,1.1-3.7,2.8-5,4.9c-2.6-8.9,1.1-14.1,10.1-13.9
			c4.9,0.1,9.9,0.7,14.8,1c1.4,0.1,2.6,0.5,3.2,1.9c0.1,1.1,0.7,1.8,1.6,2.2c0,0.6,0,1.2,0,1.8c-1.7,0.6-3.3,1-5.2,0
			C61.7,54.1,58.7,54.1,55.9,55.5z"/>
		<path class="st19" d="M64,68.8c0.6-0.4,1.1-0.8,1.7-1.2c1.7,0.1,3.4,0.2,5.2,0.3c1,3.2,1.5,6.9-1.9,8.3c-4.1,1.7-8.5,4.9-13.3,1.5
			C58.5,74.8,61.9,72.4,64,68.8z"/>
		<path class="st14" d="M64,68.8c-2.1,3.6-5.5,6-8.3,8.9c-3.8,0.1-8.4,2.5-9.8-3.7c-0.4-1.6,0.2-2.1,1.4-2.5
			C52.9,71.2,58.5,70.7,64,68.8z"/>
		<path class="st21" d="M70.8,67.8c-1.7-0.1-3.4-0.2-5.2-0.3c-0.9-3-2.4-5.7-2.9-9c-0.6-4.2-4.4-2.3-6.9-3.1c2.9-1.4,5.8-1.4,8.6,0
			c1.9,1,3.5,0.6,5.2,0C68.9,59.7,72.7,63.5,70.8,67.8z"/>
		<path class="st6" d="M39.9,62.5c1.2-2.1,2.8-3.8,5-4.9c0.1,0.8,0.2,1.6,0.3,2.4c0,1.5,0,3-0.1,4.5c-2.1,1.2-0.3,6.1-3.7,5.1
			C38.6,68.7,40.2,65,39.9,62.5z"/>
		<path class="st21" d="M69.6,53.7c-1-0.4-1.6-1.1-1.6-2.2C69,51.9,69.6,52.6,69.6,53.7z"/>
		<path class="st25" d="M46,67.4c0.8,0.6,0.8,1.4,0.7,2.3C46.5,68.9,46.2,68.1,46,67.4z"/>
		<path class="st25" d="M45.1,60c-0.1-0.8-0.2-1.6-0.3-2.4c0.3,0,0.6,0,0.9,0C45.6,58.4,45.4,59.2,45.1,60z"/>
	</g>
</g>
</svg>
