<?xml version="1.0" encoding="utf-8"?>
<!-- Generator: Adobe Illustrator 22.0.1, SVG Export Plug-In . SVG Version: 6.00 Build 0)  -->
<svg version="1.1" id="Layer_1" xmlns="http://www.w3.org/2000/svg" xmlns:xlink="http://www.w3.org/1999/xlink" x="0px" y="0px"
	 viewBox="0 0 110.9 144" style="enable-background:new 0 0 110.9 144;" xml:space="preserve">
<style type="text/css">
	.st0{fill:#F5C885;}
	.st1{fill:#F5C886;}
	.st2{fill:#FAAF31;}
	.st3{fill:#FAAF2F;}
	.st4{fill:#F3B02A;}
	.st5{fill:#FAAF2D;}
	.st6{fill:#FBC46E;}
	.st7{fill:#FCBB56;}
	.st8{fill:#FBBC5A;}
	.st9{fill:#FCEACB;}
	.st10{fill:#FAD092;}
	.st11{fill:#FCC062;}
	.st12{fill:#FCC877;}
	.st13{fill:#FBB541;}
	.st14{fill:#F9D39A;}
	.st15{fill:#FDECCF;}
	.st16{fill:#FBC169;}
	.st17{fill:#FBB84A;}
	.st18{fill:#F9D6A0;}
	.st19{fill:#FDEDD1;}
	.st20{fill:#FBB953;}
	.st21{fill:#FCC672;}
	.st22{fill:#FBBA50;}
	.st23{fill:#FBBD60;}
	.st24{fill:#F8C77E;}
	.st25{fill:#F5A55C;}
	.st26{fill:#F59B36;}
	.st27{fill:#FCF0DD;}
</style>
<g>
	<g>
		<path class="st1" d="M60.8,90c-4.4-5.9-11.4-7.7-17.2-11.4c-0.4-0.3-0.9-0.5-1.3-0.8c0,0,0,0.1,0,0.1c0.6-1.7,1.2-3.4,0.3-5.2
			c-0.1-1.3-0.9-2.1-1.7-2.9c-7.4-8.1-6.8-17,1.6-23.9c4.9-4,10.6-6.7,15.6-10.4c3.5-0.6,6.9-1.2,10.5-0.7c-2.3,1.4-2.6,3.5-1.3,5.4
			c1.4,2.1,3.5,0.9,5.3,0.3c1.7,1.3,4.1,2.4,2,5.2c-5.8,0.2-11.5-1.8-17.4-1.2c-6.4,0.6-9.8,3.1-11.6,9c-0.5,3.3,1.4,4.7,4.2,4.8
			c1.9,0.1,3.9-0.6,5.9-0.9c0,0-0.1-0.1-0.1-0.1c0.3,0.1,0.6,0.2,0.9,0.3c4.3,2,8.6,4.1,12.9,6.1c1,2.1,3.2,2.2,4.9,3.1
			c-0.2,1.9-1.5,4.4,0.5,5.6c3.3,2,4.8,5.9,8.5,7.4c1.2,2.8,1,5.8,1,8.8c-7.6,17.3-21,23.2-39.2,20.4c-3.8-0.6-6.3-2.8-8.8-5.1
			c-3.7-3.4-3.4-4.6,1.1-7.3c6.3-0.6,12.7,1.6,19,0.1c1.8,4,5,3.4,7.9,1.9c3.4-1.8,6.5-4.2,5.6-8.9c-0.4-2.1-1.5-3.7-3.6-4.3
			c-2.4-0.6-2.5,1.5-3.4,2.8C62.4,88.9,61.5,89.4,60.8,90z"/>
		<path class="st5" d="M37.5,96.6c-4.5,2.7-4.8,3.9-1.1,7.3c2.5,2.3,5,4.5,8.8,5.1c18.1,2.8,31.6-3.1,39.2-20.4
			c5.9,0.1,3.1-5.3,5-7.8c3.1,6.5,0,12.1-2.9,17.3c-10.6,18.5-29.1,20.3-46.5,16.2c-5.2-1.2-9.3-5.8-11.8-10.9
			c-2.5-5.1,1-10.8,7.4-12.6C36.2,92.8,36.9,94.7,37.5,96.6z"/>
		<path class="st2" d="M68.6,34.9c-3.5-0.5-7,0.1-10.5,0.7c-5-3.6-10.4-2.7-15.3-0.5c-11,5-15.4,17.4-10.9,29.3
			c-0.6,1.4-1.1,2.8-1.7,4.2c-3.4-2.6-3.9-6.4-3.8-10.2C26.9,39.7,38.5,32,52.5,28.8C64,26.2,73.1,28.9,80,38.5
			c4,5.5,2.7,10.2-3.4,13.1c-1.2-1.7-2.2-3.5-1.9-5.8c2.1-2.8-0.3-3.9-2-5.2C75,35.3,74.6,34.8,68.6,34.9z"/>
		<path class="st7" d="M74.6,45.8c-0.3,2.2,0.7,4,1.9,5.8c-4.1,1.3-8.2,0.1-12.3-0.2c-4-0.3-9-2.2-11.6,3.3c-2-2.6-4.6-1.1-7-1.1
			c1.7-5.9,5.1-8.4,11.6-9C63.2,44.1,68.8,46,74.6,45.8z"/>
		<path class="st7" d="M37.5,96.6c-0.6-1.9-1.3-3.8-1.9-5.7c6.6-0.3,13.3-1.4,19.6,1.4c-0.6,0.2-1.5,0.3-1.7,0.7
			c-0.4,1,0.6,0.7,1.1,0.7c1.4,0.1,2.9,0,3.9-1.2c0.8-0.3,1.5-0.5,2.3-0.8c-0.1,0.7-0.2,1.4-0.2,2.1c-0.3,0.4-0.6,0.8-0.9,1.1
			c-0.2,0.2-0.5,0.3-0.7,0.3c-1.2-0.2-2,0.3-2.4,1.4l0,0C50.2,98.2,43.8,96,37.5,96.6z"/>
		<path class="st19" d="M58.9,95.2c0.3-0.1,0.5-0.2,0.7-0.3c0.3-0.4,0.6-0.8,0.9-1.1c0.1-0.7,0.2-1.4,0.2-2.1c0-0.5,0-1.1,0-1.6
			c0.7-0.6,1.7-1.1,2.2-1.9c0.9-1.3,1-3.4,3.4-2.8c2.2,0.6,3.3,2.2,3.6,4.3c0.8,4.7-2.2,7.1-5.6,8.9c-2.9,1.5-6.1,2.1-7.9-1.9
			c0,0,0,0,0,0C57.6,96.6,58.4,96.1,58.9,95.2z"/>
		<path class="st11" d="M83.3,79.8c-3.7-1.5-5.1-5.4-8.5-7.4c-2-1.2-0.7-3.6-0.5-5.6c0.4-0.1,0.7-0.1,1.1-0.2c3.4,1.5,6.5,3.4,9,6.1
			C84.7,75.2,84.2,77.5,83.3,79.8z"/>
		<path class="st16" d="M30.2,68.5c0.6-1.4,1.1-2.8,1.7-4.2c3.3,3.2,5.7,7.4,10.7,8.4c0.9,1.8,0.3,3.5-0.3,5.2
			C37.6,75.7,33,73.1,30.2,68.5z"/>
		<path class="st13" d="M83.3,79.8c0.9-2.3,1.4-4.6,1.2-7.1c2.9,1.9,4.3,4.7,4.8,8c-1.8,2.5,1,7.9-5,7.8
			C84.4,85.6,84.5,82.7,83.3,79.8z"/>
		<path class="st21" d="M45.7,53.5c2.4,0,5-1.5,7,1.1c1.6,0.3,2.2,1.7,3.1,2.8c-2,0.3-3.9,1-5.9,0.9C47.1,58.2,45.2,56.8,45.7,53.5z
			"/>
		<path class="st25" d="M75.5,66.7c-0.4,0.1-0.7,0.1-1.1,0.2c-1.8-0.8-4-0.9-4.9-3.1C71.8,64.2,73.6,65.4,75.5,66.7z"/>
		<path class="st12" d="M58.5,92.4c-1,1.3-2.4,1.3-3.9,1.2c-0.4,0-1.5,0.3-1.1-0.7c0.2-0.4,1.1-0.5,1.7-0.7
			C56.3,92.3,57.4,92.3,58.5,92.4z"/>
		<path class="st16" d="M42.3,77.8c0.4,0.3,0.9,0.5,1.3,0.8C43,78.7,42.5,78.5,42.3,77.8z"/>
		<path class="st21" d="M56.6,57.7c-0.3-0.1-0.6-0.2-0.9-0.3C56,57.4,56.3,57.5,56.6,57.7z"/>
		<path class="st19" d="M42.6,72.8c-5-1-7.5-5.2-10.7-8.4c-4.5-11.9-0.1-24.3,10.9-29.3c4.9-2.2,10.3-3.1,15.3,0.5
			C53,39.3,47.3,41.9,42.5,46c-8.3,6.9-9,15.8-1.6,23.9C41.7,70.7,42.5,71.5,42.6,72.8z"/>
		<path class="st9" d="M68.6,34.9c6-0.1,6.4,0.4,4,5.7c-1.8,0.6-4,1.8-5.3-0.3C66,38.4,66.3,36.3,68.6,34.9z"/>
		<path class="st1" d="M58.9,95.2c-0.5,1-1.4,1.4-2.4,1.4C57,95.5,57.7,94.9,58.9,95.2z"/>
		<path class="st1" d="M60.6,93.7c-0.3,0.4-0.6,0.7-0.9,1.1C60,94.4,60.3,94.1,60.6,93.7z"/>
	</g>
</g>
</svg>
