<?xml version="1.0" encoding="utf-8"?>
<!-- Generator: Adobe Illustrator 22.0.1, SVG Export Plug-In . SVG Version: 6.00 Build 0)  -->
<svg version="1.1" id="Layer_1" xmlns="http://www.w3.org/2000/svg" xmlns:xlink="http://www.w3.org/1999/xlink" x="0px" y="0px"
	 viewBox="0 0 118.2 144" style="enable-background:new 0 0 118.2 144;" xml:space="preserve">
<style type="text/css">
	.st0{fill:#F5C885;}
	.st1{fill:#F5C886;}
	.st2{fill:#FAAF31;}
	.st3{fill:#FAAF2F;}
	.st4{fill:#F3B02A;}
	.st5{fill:#FAAF2D;}
	.st6{fill:#FBC46E;}
	.st7{fill:#FCBB56;}
	.st8{fill:#FBBC5A;}
	.st9{fill:#FCEACB;}
	.st10{fill:#FAD092;}
	.st11{fill:#FCC062;}
	.st12{fill:#FCC877;}
	.st13{fill:#FBB541;}
	.st14{fill:#F9D39A;}
	.st15{fill:#FDECCF;}
	.st16{fill:#FBC169;}
	.st17{fill:#FBB84A;}
	.st18{fill:#F9D6A0;}
	.st19{fill:#FDEDD1;}
	.st20{fill:#FBB953;}
	.st21{fill:#FCC672;}
	.st22{fill:#FBBA50;}
	.st23{fill:#FBBD60;}
	.st24{fill:#F8C77E;}
	.st25{fill:#F5A55C;}
	.st26{fill:#F59B36;}
	.st27{fill:#FCF0DD;}
</style>
<g>
	<g>
		<path class="st0" d="M51.3,79.8c-1.2-7-2.9-13.8-6.8-19.9c-3.1-4.9-7.8-6.3-12.5-5.1c-4.1,1-6.6,0.6-9.3-2.4
			c-3.1-3.4-3.1-7.5-1.4-11c2-4,4.5-8.3,9.8-9.3c0.3,1.2,0.6,2.4,0.8,3.6c-4.9,1.7-7.3,5.1-6.5,10.3c0.4,2.9,2.6,3.8,5.4,3.6
			c2.6-0.1,3.9-1.5,3.4-4c-0.8-4,2.1-6.5,3.3-9.7c12.1,0,24.2-0.1,36.3,0c2.9,0,6.2-0.3,7.6,3.3c-7.4,4.7-8.4,8.9-5,19.9
			c-1.1,6.2,0.6,12.1,2.7,17.8c0,0.3,0.1,0.7,0.3,1c0.1,0.5,0.3,0.9,0.4,1.4c-5.7,2.6-6.1,6.8-3.8,12c0.2,3.4,0.3,6.9,0.5,10.3
			c-3.1,11.1-3.4,11.2-11.3,3.3c-0.1-0.1-0.3-0.2-0.4-0.4c-0.1-1-0.2-2.1-0.3-3.1c-0.3-0.4-0.7-0.8-1-1.2c-0.8-1.5-1.5-3-2.3-4.5
			c0-1.7-0.1-3.4-0.1-5.2c4.2-2.2,5.9-6.8,3.8-12.2c-2.2-5.9-5.2-11.5-8.7-16.8c-0.6-0.9-1.4-1.7-2.3-2.4c-0.5-0.4-1.3-0.3-2-0.4
			c0,0.5-0.2,1.1,0,1.5c3.1,7.4,1.8,15.5,3.5,23.1C54,82.1,52.7,80.9,51.3,79.8z"/>
		<path class="st5" d="M81.3,39.1c-1.4-3.6-4.7-3.3-7.6-3.3c-12.1-0.1-24.2,0-36.3,0c-1.8-0.1-3.7-0.1-5.5-0.2
			c-0.3-1.2-0.6-2.4-0.8-3.6c17.9-4.2,36-6.6,53.9-0.5c9,3.1,8.9,5,2,11.5c-0.7,0.6-1.4,1.2-2.1,1.8C84.3,42.6,81.5,41.6,81.3,39.1z
			"/>
		<path class="st3" d="M64.7,104.5c0.1,0.1,0.3,0.2,0.4,0.4c7.8,7.9,8.2,7.8,11.3-3.3c6.2-1.2,7.1-2.9,5.1-10.3
			c0.2-0.4,0.4-0.7,0.6-1.1c2.6,7.5,2,14.9-1.4,21.8c-4.1,8.2-13.3,7.3-19.6-1.6c-0.2-0.4-0.5-0.8-0.7-1.1c0,0-0.2-0.4-0.2-0.4
			c-0.1-1.3-0.2-2.6-0.3-3.9C61.5,104.7,63.1,104.6,64.7,104.5z"/>
		<path class="st22" d="M81.3,39.1c0.1,2.5,3,3.4,3.4,5.8c-3.6,4.2-6.1,9.1-8.4,14.1C72.9,48.1,74,43.9,81.3,39.1z"/>
		<path class="st21" d="M61.1,90.4c0,1.7,0.1,3.4,0.1,5.2c-2.4,1.1-4.5,0.2-6.5-1.1c-1.1-4.9-2.2-9.8-3.3-14.7
			c1.3,1.1,2.7,2.3,4,3.4C57.4,85.6,58.4,88.7,61.1,90.4z"/>
		<path class="st16" d="M82.2,90.1c-0.2,0.4-0.4,0.7-0.6,1.1c-1.9,0-3.7,0-5.6,0c-2.3-5.1-1.9-9.4,3.8-12
			C82.2,82.5,81,86.6,82.2,90.1z"/>
		<path class="st20" d="M54.6,94.5c2,1.3,4.1,2.3,6.5,1.1c0.8,1.5,1.5,3,2.3,4.5c0.3,0.4,0.7,0.8,1,1.2c0.1,1,0.2,2.1,0.3,3.1
			c-1.6,0.1-3.2,0.3-4.8,0.4c-0.7-0.1-1.4-0.2-2.1-0.3C56.6,101.3,54.6,98.2,54.6,94.5z"/>
		<path class="st26" d="M57.8,104.6c0.7,0.1,1.4,0.2,2.1,0.3c0.1,1.3,0.2,2.6,0.3,3.9C58.8,107.7,57.8,106.5,57.8,104.6z"/>
		<path class="st16" d="M79.3,77.8c-0.2-0.3-0.2-0.6-0.3-1c0.2,0.2,0.3,0.4,0.5,0.6C79.5,77.5,79.4,77.7,79.3,77.8z"/>
		<path class="st26" d="M60.4,109.2c0.2,0.4,0.5,0.8,0.7,1.1C60.8,109.9,60.6,109.6,60.4,109.2z"/>
		<path class="st15" d="M61.1,90.4c-2.7-1.8-3.7-4.9-5.7-7.2c-1.7-7.6-0.5-15.7-3.5-23.1c-0.2-0.4,0-1,0-1.5c0.7,0.1,1.5,0.1,2,0.4
			c0.9,0.6,1.7,1.5,2.3,2.4c3.5,5.3,6.4,10.9,8.7,16.8C67,83.7,65.3,88.3,61.1,90.4z"/>
		<path class="st27" d="M31.9,35.7c1.8,0.1,3.7,0.1,5.5,0.2c-1.2,3.2-4,5.8-3.3,9.7c0.5,2.4-0.8,3.8-3.4,4c-2.8,0.2-5-0.7-5.4-3.6
			C24.6,40.7,27,37.4,31.9,35.7z"/>
		<path class="st22" d="M75.9,91.2c1.9,0,3.7,0,5.6,0c1.9,7.5,1.1,9.1-5.1,10.3C76.2,98.1,76.1,94.6,75.9,91.2z"/>
		<path class="st21" d="M64.4,101.3c-0.3-0.4-0.7-0.8-1-1.2C63.8,100.5,64.1,100.9,64.4,101.3z"/>
	</g>
</g>
</svg>
