<?xml version="1.0" encoding="utf-8"?>
<!-- Generator: Adobe Illustrator 22.0.1, SVG Export Plug-In . SVG Version: 6.00 Build 0)  -->
<svg version="1.1" id="Layer_1" xmlns="http://www.w3.org/2000/svg" xmlns:xlink="http://www.w3.org/1999/xlink" x="0px" y="0px"
	 viewBox="0 0 117.2 144" style="enable-background:new 0 0 117.2 144;" xml:space="preserve">
<style type="text/css">
	.st0{fill:#F5C885;}
	.st1{fill:#F5C886;}
	.st2{fill:#FAAF31;}
	.st3{fill:#FAAF2F;}
	.st4{fill:#F3B02A;}
	.st5{fill:#FAAF2D;}
	.st6{fill:#FBC46E;}
	.st7{fill:#FCBB56;}
	.st8{fill:#FBBC5A;}
	.st9{fill:#FCEACB;}
	.st10{fill:#FAD092;}
	.st11{fill:#FCC062;}
	.st12{fill:#FCC877;}
	.st13{fill:#FBB541;}
	.st14{fill:#F9D39A;}
	.st15{fill:#FDECCF;}
	.st16{fill:#FBC169;}
	.st17{fill:#FBB84A;}
	.st18{fill:#F9D6A0;}
	.st19{fill:#FDEDD1;}
	.st20{fill:#FBB953;}
	.st21{fill:#FCC672;}
	.st22{fill:#FBBA50;}
	.st23{fill:#FBBD60;}
	.st24{fill:#F8C77E;}
	.st25{fill:#F5A55C;}
	.st26{fill:#F59B36;}
	.st27{fill:#FCF0DD;}
</style>
<g>
	<g>
		<path class="st0" d="M51.3,65.1c-1.1,4.7-3.7,9-4.3,13.9c-1.3,0.5-2.9,3.1-3.6-0.6c-0.1-0.8-0.5-1.7-1.6-1.6
			c-1.2,0.2-1.3,1.3-1.7,2.2c-2.7,7.5,5,18.3,13.6,18.9c8.3,0.6,9.8-0.1,12.3-6c0.4,0,0.7,0,1.1,0c9-6.2,13.4-17.8,10.1-26.4
			c0-2.8,0.1-5.7,0.1-8.5c0.5-1.1,1-2.1,1.5-3.2c2.7,0.1,5.5-0.5,6.8-3c1.1-2.2-1.1-3.8-2.6-5.4c0.6-0.7,1.2-1.5,1.9-2.2
			c1.7-1.5,3.8-2.1,5.9-1c2,1,1.4,3.1,1.4,4.9c0,2.4-0.2,4.9-0.3,7.4c-0.9,0.6-1.5,1.3-1.3,2.4c-0.1,1-0.2,2-0.3,2.9
			c-0.8,2.6-1.8,5.3-2.5,7.9c-2.6,9.3-5.2,18.6-7.8,28c-0.7,0.7-1.5,1.3-2,2.1c-5.8,8.9-14,12.6-24.5,11.9
			c-13.1-0.9-24.4-12.6-24.2-25c3.3-5.4,3.6-11.9,5.8-17.6c1.7-4.4,2.5-8.8,2-13.6c-0.3-2.5-1.2-4.1-4-3.8c1-3.3,1-7,4.6-9
			c9.2,0.3,9.2,0.3,9.6-6.1c5.7-1.1,6.1-0.6,5.6,7.1c-0.9,1.1-0.8,2.5-1,3.8c-2.6,1.7-1.8,4.8-2.8,7.1c-0.9,2-3.2,4.4-1.4,6.4
			c1.7,1.9,3.4-1.8,5.6-1.3c-0.2,1.3-0.4,2.6-0.5,3.9c-0.2,0.3-0.5,0.7-0.7,1c0,0,0,0.1,0,0.1C51.8,63.6,51.6,64.4,51.3,65.1z"/>
		<path class="st2" d="M29.3,84.9c-0.2,12.5,11.1,24.2,24.2,25c10.5,0.7,18.7-3,24.5-11.9c0.5-0.8,1.4-1.4,2-2.1c5.4,0,6-5.2,8.8-8
			c-2.2,11.8-8,21.3-19.3,26c-23.3,9.7-48.3-7.4-46.7-30c0.9-12.1-0.1-24.3,3.4-36.1c3-10.2,9-19,20.5-20.3c9.5-1,13.7,3,12.4,12.5
			c-2.4-0.2-4,1.7-6.2,2c0.5-7.7,0.1-8.2-5.6-7.1c-3.6-3.2-6.1-1.7-8,2c-0.6,1.3-1.1,2.7-1.6,4c-3.6,1.9-3.6,5.7-4.6,9
			c-2,3.1-5.1,6-5.2,9.9C27.6,68.2,26.6,76.6,29.3,84.9z"/>
		<path class="st5" d="M91.9,54.7c0.1-2.5,0.3-4.9,0.3-7.4c0-1.7,0.6-3.8-1.4-4.9c-2.1-1.1-4.2-0.5-5.9,1c-0.7,0.6-1.3,1.4-1.9,2.2
			c-2.7-0.4-4.7,0.3-5.3,3.3c-1.4,0-2.4-0.6-3.1-1.7c3.1-6.7,6.7-12.7,15.6-12.2c4.8,0.3,7.6,2.7,8.6,7.4c0.9,4.2,0.2,8.3-0.6,12.3
			c-1.4,7-2.8,14-5.9,20.4c0.8-5.2,1.2-10.4-1.9-15.2c0.1-1,0.2-2,0.3-2.9C91.6,56.5,92,55.7,91.9,54.7z"/>
		<path class="st6" d="M66.1,92c-2.6,5.8-4,6.6-12.3,6C45.2,97.3,37.5,86.6,40.2,79c0.3-0.9,0.5-2,1.7-2.2c1.1-0.2,1.4,0.8,1.6,1.6
			c0.7,3.7,2.3,1,3.6,0.6c-0.3,4.5,0.2,8.3,4.8,11c3.3,2,6,2.5,9,0C62.5,90.7,64.3,91.3,66.1,92z"/>
		<path class="st17" d="M90.3,60c3.2,4.7,2.7,9.9,1.9,15.2c0.1,4.6-2.6,8.4-3.4,12.8c-2.8,2.8-3.4,8-8.8,8c2.6-9.3,5.1-18.7,7.8-28
			C88.6,65.2,89.5,62.6,90.3,60z"/>
		<path class="st1" d="M66.1,92c-1.8-0.7-3.5-1.3-5.3-2c0.8-1.3,1.6-2.7,2.4-4c1-0.7,1.2-1.7,1.2-2.7c1.3-4.8,2.6-9.5,3.9-14.3
			c1.5-1.1,1.9-2.7,1.5-4.4c0.1-0.5,0.3-1,0.4-1.5c2.2,0.9,1.9,2.9,2,4.7c-3.5,3.8-2.6,8.8-4,13.2C67,82.5,67,84.1,68,85.8
			c-0.3,2-0.6,4.1-0.9,6.1C66.8,92,66.4,92,66.1,92z M65.9,87.5c-0.2-0.5-0.4-0.5-0.5,0c0,0.1,0.2,0.2,0.2,0.4
			C65.8,87.7,65.9,87.6,65.9,87.5z"/>
		<path class="st16" d="M53.3,58c-2.2-0.5-3.9,3.3-5.6,1.3c-1.7-2,0.6-4.3,1.4-6.4c1-2.4,0.1-5.4,2.8-7.1c1.1,2.2,3.1,2.2,5.1,2.3
			c-0.2,0.4-0.5,0.9-0.7,1.3c-0.1,0.5-0.1,1-0.2,1.5C56.4,53.8,54.4,55.7,53.3,58z"/>
		<path class="st6" d="M72.2,67.7c-0.1-1.8,0.2-3.8-2-4.7c0,0-0.2,0.1-0.2,0.1c0.1-0.3,0.2-0.6,0.2-1c1.2-2.2,0.2-5,2.2-7
			c1.6,0.7,3.3,1.3,4.9,2c0,2.8-0.1,5.7-0.1,8.5C75.3,65.8,73.8,66.8,72.2,67.7z"/>
		<path class="st17" d="M57.1,48.2c-2-0.2-4.1-0.1-5.1-2.3c0.2-1.3,0.1-2.7,1-3.8c2.2-0.3,3.9-2.2,6.2-2
			C59.3,42.9,58.6,45.7,57.1,48.2z"/>
		<path class="st8" d="M77.3,57.1c-1.6-0.7-3.3-1.3-4.9-2c0.7-2.6,1.5-5.3,2.2-7.9c0.7,1.2,1.8,1.8,3.1,1.7c1.1,1.5,0.7,3.4,1.1,5.1
			C78.3,55,77.8,56.1,77.3,57.1z"/>
		<path class="st25" d="M69.8,64.5c0.4,1.8,0,3.3-1.5,4.4C68.2,67.3,68.6,65.8,69.8,64.5z"/>
		<path class="st25" d="M64.4,83.2c0,1.1-0.2,2.1-1.2,2.7C63.3,84.9,63.4,83.9,64.4,83.2z"/>
		<path class="st25" d="M51.3,65.1c0.3-0.7,0.5-1.5,0.8-2.2C52.2,63.8,52,64.5,51.3,65.1z"/>
		<path class="st25" d="M52.1,62.9c0.2-0.3,0.5-0.7,0.7-1C52.6,62.2,52.3,62.5,52.1,62.9z"/>
		<path class="st17" d="M56.2,51c0.1-0.5,0.1-1,0.2-1.5C56.3,50,56.3,50.5,56.2,51z"/>
		<path class="st25" d="M70.3,62.1c-0.1,0.3-0.2,0.6-0.2,1C70.1,62.7,70.2,62.4,70.3,62.1z"/>
		<path class="st15" d="M29.3,84.9c-2.7-8.2-1.7-16.7-1.4-25.1c0.1-3.9,3.2-6.7,5.2-9.9c2.8-0.3,3.7,1.3,4,3.8
			c0.5,4.7-0.3,9.2-2,13.6C32.9,73,32.6,79.4,29.3,84.9z"/>
		<path class="st9" d="M72.2,67.7c1.6-0.9,3.1-1.9,5-2.1c3.3,8.6-1.1,20.1-10.1,26.4c0.3-2,0.6-4.1,0.9-6.1c0.1-1.6,0.2-3.3,0.3-4.9
			C69.6,76.5,68.7,71.5,72.2,67.7z"/>
		<path class="st9" d="M37.7,40.9c0.5-1.4,1-2.8,1.6-4c1.8-3.7,4.3-5.2,8-2C47,41.2,47,41.2,37.7,40.9z"/>
		<path class="st15" d="M78.9,54c-0.4-1.7,0-3.5-1.1-5.1c0.6-3,2.6-3.7,5.3-3.3c1.4,1.5,3.6,3.2,2.6,5.4
			C84.4,53.5,81.6,54.1,78.9,54z"/>
		<path class="st17" d="M91.9,54.7c0.1,1.1-0.4,1.9-1.3,2.4C90.5,55.9,91.1,55.2,91.9,54.7z"/>
		<path class="st12" d="M68.3,80.9c-0.1,1.6-0.2,3.3-0.3,4.9C67,84.1,67,82.5,68.3,80.9z"/>
		<path class="st6" d="M65.9,87.5c-0.1,0.1-0.2,0.2-0.3,0.4c-0.1-0.1-0.3-0.3-0.2-0.4C65.6,87,65.8,87,65.9,87.5z"/>
	</g>
</g>
</svg>
