<?xml version="1.0" encoding="utf-8"?>
<!-- Generator: Adobe Illustrator 22.0.1, SVG Export Plug-In . SVG Version: 6.00 Build 0)  -->
<svg version="1.1" id="Layer_1" xmlns="http://www.w3.org/2000/svg" xmlns:xlink="http://www.w3.org/1999/xlink" x="0px" y="0px"
	 viewBox="0 0 106.2 144" style="enable-background:new 0 0 106.2 144;" xml:space="preserve">
<style type="text/css">
	.st0{fill:#F5C885;}
	.st1{fill:#F5C886;}
	.st2{fill:#FAAF31;}
	.st3{fill:#FAAF2F;}
	.st4{fill:#F3B02A;}
	.st5{fill:#FAAF2D;}
	.st6{fill:#FBC46E;}
	.st7{fill:#FCBB56;}
	.st8{fill:#FBBC5A;}
	.st9{fill:#FCEACB;}
	.st10{fill:#FAD092;}
	.st11{fill:#FCC062;}
	.st12{fill:#FCC877;}
	.st13{fill:#FBB541;}
	.st14{fill:#F9D39A;}
	.st15{fill:#FDECCF;}
	.st16{fill:#FBC169;}
	.st17{fill:#FBB84A;}
	.st18{fill:#F9D6A0;}
	.st19{fill:#FDEDD1;}
	.st20{fill:#FBB953;}
	.st21{fill:#FCC672;}
	.st22{fill:#FBBA50;}
	.st23{fill:#FBBD60;}
	.st24{fill:#F8C77E;}
	.st25{fill:#F5A55C;}
	.st26{fill:#F59B36;}
	.st27{fill:#FCF0DD;}
</style>
<g>
	<g>
		<path class="st0" d="M55.8,66c1.4-6.3,2.7-12.5,4.1-18.8c1.9,1.1,1.6,3.6,3.1,4.9c1.4,2.2,2.8,1.5,4.4,0.3c4.9-4,5.2-6.1,1.4-11.3
			c-0.1-1.8,0.6-3.4,2-4.4c2.1-1.6,3.6-5.2,6.7-4c3.3,1.3,3.7,4.8,3.3,8.1c-0.3,3.3-0.8,6.5-1.3,9.8c-2.4,1.8-2.1,4.7-2.9,7.2
			c-1.4,0.7-1.5,1.9-1.9,3.2c-3,10.6-4,21.6-7.7,32c-0.8,2.6-1.5,5.2-2.3,7.9c-3.3,4.3-5.9,9.4-12.1,10.4c1.4-2.6,1.1-5.5,1.3-8.3
			c1-0.4,1.6-1,0.8-2.1c0-1.7,0-3.3,0-5c1.1-2.3,2.1-5.1-0.7-6.4c-2.6-1.2-6.1-1.6-8.4,0.5c-1.9,1.7-1.1,4.2,1,5.9
			c0,5.7,2.2,11.1,2.8,16.8c-0.8,0-1.6-0.1-2.4-0.1c-0.6-0.9-1.4-1.4-2.5-1.2c-0.6-0.2-1.1-0.4-1.7-0.6c-0.4-0.3-0.8-0.6-1.1-0.9
			c-1-1.3-2.1-2.6-3.1-3.9c-1.7-4.8-4-9.4-4.1-14.7c2.1-4.7,1.5-9.5-0.2-14c-2.8-7.6-5.8-15.1-9.2-22.4c-1.2-2.6-0.3-6.2-3.4-8
			c-0.4-4.7-3-9.6,1.1-14c1.4,0.9,2.5,0.8,3-1c3.3,2.8,6,6.2,8.3,9.8c0.6,2.1,1.1,4.1,1.7,6.2c2.4,8.9,3.4,9.7,8.9,7.1
			c0.7,2,1.8,3.8,1.3,6c-6.9,6.4-5.8,17.8,2.2,22.3c0.1,0.1,0.8-0.9,1.2-1.3c3.4-1,1.8-4.9,3.8-6.6c1.5,1.9,1.9,4.2,2.7,6.4
			c0.3,0.7,0.9,1.3,1.3,2c0.6-0.6,1.3-1,1.7-1.7c1.7-3.2,3.1-6.6,4.9-9.7c2.1-3.6,1.5-7.2-1.3-9.4C59.6,60.6,58,64.5,55.8,66z"/>
		<path class="st2" d="M34.3,41.8c-2.3-3.7-5-7-8.3-9.8c0,0-0.1,0-0.1,0c-0.3-0.4-0.5-0.8-0.8-1.2c-0.7-0.6-1.4-1.1-2.1-1.7
			c-0.7,0-1,0.3-0.6,1c0.2,1,0.4,1.9,0.6,2.9c-4.1,4.4-1.4,9.3-1.1,14c-1.7,2.3-0.8,4.8-0.5,7.1c0.7,7,1.7,14.1,2.5,21.1
			c-3.4-4.8-3.6-10.7-5.2-16c-2.3-8.1-5.6-16-4.1-24.8c1.4-8.4,8.8-11.8,15.8-7c5,3.4,8.5,7.9,10.1,13.7
			C38.3,40,36.4,41.8,34.3,41.8z"/>
		<path class="st2" d="M63,52.1c-1.5-1.4-1.2-3.8-3.1-4.9c0.1-8.5,7.2-19.1,14.8-22c4.2-1.6,11.2,3.9,12.3,9.7
			c1.8,9.3-1.2,17.7-5.2,25.9c0.4-3.6-1.2-6.8-2.2-10.2c0.4-3.3,0.9-6.5,1.3-9.8c0.3-3.3,0-6.8-3.3-8.1c-3.1-1.2-4.6,2.4-6.7,4
			c-1.3,1-2.1,2.5-2,4.4c-0.7,0.3-1.4,0.5-2.1,0.8c-0.4,0.1-0.7,0.3-1.1,0.4c-0.4,0.2-0.7,0.3-1.1,0.5c-0.5,0.5-1,0.9-1.5,1.4
			c0,2.3,0,4.6,0,6.9C63,51.3,63,51.7,63,52.1L63,52.1z"/>
		<path class="st3" d="M43,110.9c0.6,0.2,1.1,0.4,1.7,0.6c0.6,0.9,1.4,1.3,2.5,1.2c0.8,0,1.6,0.1,2.4,0.1c1.4,0.2,2.6,0.1,3.2-1.4
			c6.2-1,8.8-6.1,12.1-10.4c2.2,1.4,4.4,0.8,6.6,0c-2.5,6.1-5.7,11.7-11.6,15c-13.7,7.6-27.4,0.6-29.9-15c1.9-0.9,3.1-0.2,4.2,1.4
			c1.2,1.6,2.7,2.9,4.6,3.8c1,1.3,2.1,2.6,3.1,3.9C42.3,110.3,42.6,110.6,43,110.9z"/>
		<path class="st9" d="M23.9,75.2c-0.9-7-1.8-14.1-2.5-21.1c-0.2-2.4-1.2-4.9,0.5-7.1c3.1,1.8,2.1,5.3,3.4,8
			c3.4,7.3,6.4,14.9,9.2,22.4c1.7,4.5,2.3,9.3,0.2,14c-4.5-2.4-6.4-7.1-9.3-10.9c-0.1-0.2-0.2-0.4-0.2-0.6c0.3-1.3,0-2.4-1.1-3.2
			C24,76.2,24,75.7,23.9,75.2z"/>
		<path class="st11" d="M67.2,93.1c3.7-10.4,4.7-21.5,7.7-32c0.4-1.3,0.5-2.6,1.9-3.2c0,2.7,0.5,5.3,2.4,7.4
			c0.1,1.1,0.2,2.1,0.2,3.2c-0.1,0.5-0.2,1-0.3,1.5c-1.1,1.2-1.3,2.6-1.1,4.2c0,5.5-2.6,10.5-3.2,15.8c-0.9,0.4-1.6,1.1-1.8,2.1
			C71,92.4,69.1,92.8,67.2,93.1z"/>
		<path class="st15" d="M55.8,66c2.1-1.5,3.8-5.4,6.8-2.9c2.8,2.3,3.4,5.8,1.3,9.4c-1.8,3.1-3.2,6.5-4.9,9.7
			c-0.4,0.7-1.1,1.1-1.7,1.7c-0.4-0.7-1-1.3-1.3-2c-0.8-2.2-1.1-4.5-2.7-6.4c0.2-1.1,0.4-2.3,0.6-3.4C56.1,70.5,56.1,68.2,55.8,66
			L55.8,66z"/>
		<path class="st20" d="M25.4,80.5c2.9,3.8,4.8,8.4,9.3,10.9c0.1,5.3,2.4,9.9,4.1,14.7c-1.9-0.8-3.4-2.2-4.6-3.8
			c-1.2-1.5-2.4-2.3-4.2-1.4C27.3,94.4,26.1,87.5,25.4,80.5z"/>
		<path class="st14" d="M49.6,82.1c-0.4,0.5-1.1,1.4-1.2,1.3c-8.1-4.5-9.2-15.9-2.2-22.3c0.2,0.6,0.3,1.3,0.5,1.9
			c-1,1.4-0.6,2.4,0.9,3C47.9,71.4,49.9,76.6,49.6,82.1z"/>
		<path class="st17" d="M67.2,93.1c1.9-0.4,3.9-0.7,5.8-1.1c-0.1,1.6-0.1,3.2-0.2,4.8c0,0,0,0.1,0,0.1c-0.2,0.4-0.5,0.9-0.7,1.3
			c-0.2,0.9-0.4,1.8-0.5,2.7c-2.2,0.9-4.4,1.4-6.6,0C65.6,98.4,66.4,95.7,67.2,93.1z"/>
		<path class="st16" d="M44.8,55.1c-5.5,2.5-6.5,1.8-8.9-7.1c2.2,0,4.4,0.1,6.6,0.1c0.2,0.1,0.4,0.2,0.6,0.2
			c0.2,0.6,0.4,1.3,0.7,1.9c0.2,0.3,0.4,0.6,0.6,0.9C44.6,52.4,44.7,53.8,44.8,55.1z"/>
		<path class="st17" d="M79.1,65.2c-1.9-2.1-2.4-4.7-2.4-7.4c0.8-2.5,0.5-5.4,2.9-7.2c1.1,3.3,2.6,6.5,2.2,10.2
			c-0.4,1.4-0.7,2.7-1.1,4.1C80.2,65.1,79.7,65.1,79.1,65.2z"/>
		<path class="st22" d="M42.6,48.1C40.4,48,38.2,48,36,48c-0.6-2.1-1.1-4.1-1.7-6.2c2.1,0,4-1.8,6.3-0.7c0,0,0.3,0.3,0.3,0.3
			c0.1,0.2,0.2,0.3,0.4,0.5c0.3,1,0.5,2,0.8,3c0.3,0.7,0.5,1.4,0.8,2.1c0,0,0.1,0.1,0.1,0.1C42.7,47.4,42.7,47.8,42.6,48.1z"/>
		<path class="st26" d="M72.8,96.9c0.1-1.6,0.1-3.2,0.2-4.8c0.2-1,0.9-1.7,1.8-2.1C75,92.5,74.2,94.8,72.8,96.9z"/>
		<path class="st0" d="M55.9,66c0.2,2.3,0.2,4.5-1.8,6.1C53.8,69.8,54.6,67.8,55.9,66z"/>
		<path class="st26" d="M78,74.1c-0.2-1.5,0-3,1.1-4.2C79.7,71.6,78.8,72.9,78,74.1z"/>
		<path class="st0" d="M47.6,66c-1.6-0.6-1.9-1.6-0.9-3C47.6,63.9,47.8,64.9,47.6,66z"/>
		<path class="st26" d="M79.1,65.2c0.5-0.1,1.1-0.2,1.6-0.3c0.2,1.4-0.2,2.6-1.4,3.5C79.3,67.4,79.2,66.3,79.1,65.2z"/>
		<path class="st20" d="M24.1,76.7c1.1,0.8,1.3,1.9,1.1,3.2C24,79.1,23.9,78,24.1,76.7z"/>
		<path class="st26" d="M42.7,47c-0.3-0.7-0.5-1.4-0.8-2.1C42.2,45.6,42.5,46.3,42.7,47z"/>
		<path class="st26" d="M44.4,51.1c-0.2-0.3-0.4-0.6-0.6-0.9C44,50.5,44.2,50.8,44.4,51.1z"/>
		<path class="st26" d="M72,98.2c0.2-0.4,0.5-0.9,0.7-1.3C72.5,97.4,72.3,97.8,72,98.2z"/>
		<path class="st2" d="M41.2,41.9c-0.1-0.2-0.3-0.3-0.4-0.5C41.1,41.4,41.2,41.6,41.2,41.9z"/>
		<path class="st26" d="M42.6,48.1c0.1-0.3,0.1-0.6,0.2-0.9c0.1,0.4,0.2,0.8,0.4,1.2C43,48.3,42.8,48.2,42.6,48.1z"/>
		<path class="st20" d="M52.8,111.4c-0.6,1.5-1.8,1.6-3.2,1.4c-0.6-5.6-2.8-11-2.8-16.8c2.7,0,5.4,0,8.1,0c0,1.7,0,3.3,0,5
			c-0.3,0.7-0.5,1.4-0.8,2.1C53.9,105.9,54.3,108.8,52.8,111.4z"/>
		<path class="st15" d="M64.6,42.8c0.4-0.2,0.7-0.3,1.1-0.5c0.4-0.1,0.7-0.3,1.1-0.4c0.7-0.3,1.4-0.5,2.1-0.8
			c3.8,5.1,3.5,7.3-1.4,11.3c-1.6,1.3-3.1,1.9-4.4-0.3c0,0,0-0.1,0-0.1c0.1-0.1,0.3-0.2,0.3-0.3c-0.1-0.3-0.2-0.5-0.3-0.8
			c0-2.3,0-4.6,0-6.9C63.8,43.9,64.4,43.6,64.6,42.8z"/>
		<path class="st21" d="M54.9,96c-2.7,0-5.4,0-8.1,0c-2.1-1.7-2.9-4.2-1-6c2.3-2.1,5.8-1.7,8.4-0.5C57,90.9,56,93.7,54.9,96z"/>
		<path class="st27" d="M23,29.1c0.7,0.6,1.4,1.1,2.1,1.7c0.3,0.4,0.5,0.8,0.8,1.2c0,0,0.1,0,0.1,0c-0.5,1.8-1.6,1.9-3,1
			c-0.2-1-0.4-1.9-0.6-2.9C22.6,29.8,22.8,29.5,23,29.1z"/>
		<path class="st21" d="M54.1,103.1c0.3-0.7,0.5-1.4,0.8-2.1C55.7,102.1,55.1,102.7,54.1,103.1z"/>
		<path class="st20" d="M47.2,112.6c-1.1,0.2-1.9-0.3-2.5-1.2C45.8,111.3,46.6,111.7,47.2,112.6z"/>
		<path class="st20" d="M43,110.9c-0.4-0.3-0.8-0.6-1.1-0.9C42.3,110.3,42.6,110.6,43,110.9z"/>
		<path class="st10" d="M25.9,32c-0.3-0.4-0.5-0.8-0.8-1.2C25.4,31.2,25.7,31.6,25.9,32z"/>
		<path class="st0" d="M23,29.1c-0.2,0.3-0.4,0.7-0.6,1C22,29.4,22.3,29.2,23,29.1z"/>
		<path class="st0" d="M64.6,42.8c-0.2,0.8-0.8,1.2-1.5,1.4C63.5,43.7,64,43.2,64.6,42.8z"/>
		<path class="st0" d="M63,51c0.1,0.3,0.2,0.5,0.3,0.8c0,0.1-0.2,0.2-0.3,0.3C63,51.7,63,51.3,63,51z"/>
		<path class="st0" d="M66.8,41.9c-0.4,0.1-0.7,0.3-1.1,0.4C66,42.2,66.4,42,66.8,41.9z"/>
	</g>
</g>
</svg>
