<?xml version="1.0" encoding="utf-8"?>
<!-- Generator: Adobe Illustrator 22.0.1, SVG Export Plug-In . SVG Version: 6.00 Build 0)  -->
<svg version="1.1" id="Layer_1" xmlns="http://www.w3.org/2000/svg" xmlns:xlink="http://www.w3.org/1999/xlink" x="0px" y="0px"
	 viewBox="0 0 133.6 144" style="enable-background:new 0 0 133.6 144;" xml:space="preserve">
<style type="text/css">
	.st0{fill:#F5C885;}
	.st1{fill:#F5C886;}
	.st2{fill:#FAAF31;}
	.st3{fill:#FAAF2F;}
	.st4{fill:#F3B02A;}
	.st5{fill:#FAAF2D;}
	.st6{fill:#FBC46E;}
	.st7{fill:#FCBB56;}
	.st8{fill:#FBBC5A;}
	.st9{fill:#FCEACB;}
	.st10{fill:#FAD092;}
	.st11{fill:#FCC062;}
	.st12{fill:#FCC877;}
	.st13{fill:#FBB541;}
	.st14{fill:#F9D39A;}
	.st15{fill:#FDECCF;}
	.st16{fill:#FBC169;}
	.st17{fill:#FBB84A;}
	.st18{fill:#F9D6A0;}
	.st19{fill:#FDEDD1;}
	.st20{fill:#FBB953;}
	.st21{fill:#FCC672;}
	.st22{fill:#FBBA50;}
	.st23{fill:#FBBD60;}
	.st24{fill:#F8C77E;}
	.st25{fill:#F5A55C;}
	.st26{fill:#F59B36;}
	.st27{fill:#FCF0DD;}
</style>
<g>
	<g>
		<path class="st0" d="M60.2,92.9c-0.3,0.6-0.5,1.3-0.8,1.9c-1.9-0.8-3.6-1.1-4.2,1.4c-1.3,5.3-4.6,9.5-8.1,13.5
			c-8.3,3.6-11.6,2.8-16.4-5.1c-3.5-5.7-4.6-12.3-4.6-19c2.2,1.9,3.7,1.2,4.9-1.3c0.9-1.9,1.4-3.9,0.9-5.7c-2-6.6-3.5-13.5-7.2-19.6
			c-0.9-3.8-0.6-7.6,0.4-11.4c1.6,0.5,3.3,2.4,4.8,1.1c1.5-1.2-0.1-3.3,0-5c2.9-0.3,4.5,2.3,6.9,3.1c2.2,4.3,4.4,8.6,4.3,13.7
			c0,7.3-1.1,14.5-1.8,21.7c-0.5,5.4-0.8,10.9,0.7,16.3c0.3,1.1,0.5,2.4,2,2.4c1.1,0,1.7-0.9,2.1-1.8c1.8-3.6,3.8-7,4.9-10.9
			c0.7-2.6-0.3-3.8-2.8-3.9c2.1-8.1,3.3-16.4,6.8-24.1c1.5,2.3,1,4.8,0.9,7.2c0,0.7-0.7,1.8,0.4,2.1c0.9,0.2,1.1-0.9,1.6-1.6
			c2.8-3.5,3-8.5,6.8-11.3c3.9-2.9,5.7-6.7,5.1-11.6c2.7-3.2,5.7-0.7,8.6-0.5c0.4,3.5,2.4,6.5,3.6,9.7c-0.5,2.7,0.5,5.2,0.9,7.8
			c0.3,1.8,1.3,0.8,2.1,0.5c0.2,1.7,0.3,3.3,0.5,5c-0.8,1.4-0.8,2.7,0.3,4c0,1.1,0.1,2.3,0.1,3.4c0.8,7.4-3,14.6-1.2,22.1
			c0.5,1.9,0.7,3.6,3,4c1.8,0.3,2.8-0.8,3.4-2.3c2.9-7.1,3.6-14.6,3.6-22.2c2.8-5,3.9-10.9,7.5-15.6c1.7-2.2,2.5-5,3.1-7.8
			c0.5-2.4,0.1-4.3-2.7-4.9c0.5-1.2,0.9-2.5,1.5-3.7c1.2-2.5,3.9-3.4,6.1-3.6c2.3-0.2,2.6,2.6,3.1,4.4c1,4,0.5,7.9-0.4,11.8
			c-2.5,10.3-4.6,20.7-7.2,31c-2,7.8-3.3,15.9-9,22.3c-4.6,5.1-7.9,5.8-14,3c-0.3-0.3-0.6-0.6-1-0.9c-0.3-0.1-0.6-0.2-0.9-0.2
			c-2.8-3.7-5.1-7.6-6.4-12.1c-0.6-2.3-2-4.2-4.5-4.8c-0.1-2-0.1-4-0.2-6c4.4-6.8,3.1-14.4,2.8-21.7c-0.1-2.8-2-6.8-4.8-7.3
			c-3.3-0.6-3.4,3.7-4.5,6.2c-0.4,0.9-0.9,1.9-0.9,2.8c0.1,5.7-3.8,11.7,1.2,17c0,0.4,0,0.7,0,1.1C60.2,89.1,60,90.9,60.2,92.9z"/>
		<path class="st2" d="M81,113.8c6.1,2.8,9.5,2.1,14-3c5.7-6.4,7-14.5,9-22.3c2.6-10.3,4.7-20.7,7.2-31c0.9-3.9,1.4-7.8,0.4-11.8
			c-0.5-1.9-0.8-4.7-3.1-4.4c-2.2,0.2-4.9,1.1-6.1,3.6c-0.6,1.2-1,2.4-1.5,3.7c-1.5,0.8-2.8,2.1-4.8,1.4c0.3-5.1,3.8-8.6,7.1-11.6
			c4.8-4.3,11.4-1.4,12.8,5.2c1.1,5.1,1,10.4-0.2,15.4c-3.7,15.3-7.6,30.6-11.8,45.8c-1.3,4.7-4.4,8.5-8.3,11.5
			c-7.9,6.2-15.9,4.9-21.7-3.5c1.7,0.4,3.4,0.4,5.1-0.1c0.3,0.1,0.6,0.1,0.9,0.2C80.4,113.3,80.7,113.5,81,113.8z"/>
		<path class="st5" d="M26.2,85.7c0,6.7,1.1,13.2,4.6,19c4.8,7.9,8.1,8.7,16.4,5.1c2,0,4,0,6,0c-7.4,9.1-17.6,8.9-24.7-0.1
			c-5.4-6.8-5.8-15-6.4-23.1C21,74.7,19.6,63,20.1,51.2c0.1-1.3,0-2.7,0.2-4c1-7.8,5.8-10.6,12.9-7.4c3.3,1.5,6.8,2.8,8,6.7
			c-1.4,0.4-3-0.9-4.3,0.4c-2.4-0.8-4-3.3-6.9-3.1c-1.9-0.6-3.8-0.3-5.7,0.1c-1.5,0.9-1.3,1.8,0,2.7c0.3,0.4,0.6,0.8,0.9,1.1
			c-1,3.8-1.3,7.5-0.4,11.4C22.9,68.1,20.6,77.1,26.2,85.7z"/>
		<path class="st11" d="M46.3,84.6c2.5,0.2,3.5,1.3,2.8,3.9c-1,3.9-3.1,7.3-4.9,10.9c-0.4,0.9-1,1.8-2.1,1.8c-1.5,0-1.7-1.3-2-2.4
			c-1.5-5.4-1.2-10.9-0.7-16.3c0.7-7.2,1.8-14.4,1.8-21.7c3-1.9,0.9-5.6,2.8-7.8c2.8,10.2-0.3,20.3,0,30.5c0,0.9-0.7,2.4,1,2.6
			C45.4,86,45.9,85,46.3,84.6z"/>
		<path class="st18" d="M61.9,86.7c-5.1-5.3-1.2-11.3-1.2-17c0-0.9,0.5-1.9,0.9-2.8c1.1-2.5,1.2-6.7,4.5-6.2
			c2.8,0.5,4.6,4.5,4.8,7.3c0.3,7.3,1.7,15-2.8,21.7c-1.1-3.8-1.3-7.7-1.4-11.7c0-1.1,0.2-2.9-0.8-3c-1.2-0.1-0.6,2-1.4,2.8
			c-0.9,0.5-1.1,1.3-0.8,2.3c-0.1,0.6-0.3,1.2-0.4,1.8c-1.2,1-1.3,2.4-1.1,3.9C62.1,86.1,62.1,86.4,61.9,86.7z"/>
		<path class="st16" d="M93.1,76.9c0,7.6-0.7,15.1-3.6,22.2c-0.6,1.5-1.6,2.6-3.4,2.3c-2.2-0.4-2.5-2.1-3-4
			c-1.8-7.5,2.1-14.7,1.2-22.1c1.5,3.2,1.8,6.7,1.8,10.1c0,0.7,0.4,2.1,0.5,2.1c1.1,0,1.1-1.1,1.2-1.8c1-6,2-12,3-18
			c0.2-1,0.6-1.8,1-2.8C92.7,68.8,90.5,73.1,93.1,76.9z"/>
		<path class="st19" d="M93.1,76.9c-2.6-3.8-0.4-8.1-1.2-12.1c0.6-5.2,0.5-10.5,4.3-14.8c2,0.7,3.3-0.6,4.8-1.4
			c2.8,0.6,3.2,2.6,2.7,4.9c-0.6,2.8-1.4,5.6-3.1,7.8C97,66,95.9,71.9,93.1,76.9z"/>
		<path class="st19" d="M68,45.3c0.6,4.9-1.2,8.7-5.1,11.6c-3.8,2.8-4,7.9-6.8,11.3c-0.5,0.6-0.7,1.8-1.6,1.6
			c-1.1-0.3-0.5-1.3-0.4-2.1c0.1-2.5,0.5-5-0.9-7.2c0.2-5.2,3.4-9.1,6-13.2c1-0.3,1.9-0.5,2.9-0.8c1.3,0.2,2.6,0,3.5-1.1
			C66.4,45.4,67.2,45.4,68,45.3z"/>
		<path class="st20" d="M79.2,112.7c-1.7,0.5-3.4,0.4-5.1,0.1c-4.4-4.9-5.9-10.7-5.7-17c2.5,0.7,3.9,2.6,4.5,4.8
			C74.1,105.1,76.4,109,79.2,112.7z"/>
		<path class="st17" d="M62,46.5c-1,0.3-1.9,0.5-2.9,0.8c5.7-9.7,15.2-10.8,21.3-2.6c-1.2,0-2.5,0.1-3.7,0.1
			c-2.9-0.3-5.9-2.7-8.6,0.5c-0.8,0-1.7,0.1-2.5,0.1C64,44.8,62.8,44.9,62,46.5z"/>
		<path class="st23" d="M53.1,109.7c-2,0-4,0-6,0c3.5-4,6.8-8.1,8.1-13.5c0.6-2.5,2.3-2.3,4.2-1.4C59.2,100.6,56.8,105.5,53.1,109.7
			z"/>
		<path class="st17" d="M44,52.8c-1.9,2.3,0.2,6-2.8,7.8c0.2-5.1-2.1-9.4-4.3-13.7c1.3-1.3,2.9-0.1,4.3-0.4
			C42.9,48.3,44.3,50.2,44,52.8z"/>
		<path class="st2" d="M76.7,44.8c1.2,0,2.5-0.1,3.7-0.1c3.2,1.9,2.8,5,2.6,8.1c-0.7,0.9-1.4,1.8-2.7,1.8
			C79.1,51.3,77.1,48.4,76.7,44.8z"/>
		<path class="st16" d="M80.3,54.6c1.3,0,2-0.9,2.7-1.8c0.1,3.4,0.2,6.7,0.4,10.1c-0.8,0.3-1.8,1.3-2.1-0.5
			C80.7,59.8,79.8,57.3,80.3,54.6z"/>
		<path class="st16" d="M84.2,71.8c-1.1-1.2-1.2-2.6-0.3-4C84.7,69.1,84.6,70.4,84.2,71.8z"/>
		<path class="st25" d="M60.2,92.9c-0.2-2,0-3.9,1.8-5.2C62.1,89.7,61.3,91.4,60.2,92.9z"/>
		<path class="st6" d="M62.1,85.7c-0.2-1.5,0-2.8,1.1-3.9C63.6,83.4,62.5,84.5,62.1,85.7z"/>
		<path class="st6" d="M63.6,80.1c-0.3-1-0.1-1.7,0.8-2.3C64.7,78.7,64.3,79.5,63.6,80.1z"/>
		<path class="st19" d="M26.2,85.7c-5.6-8.6-3.3-17.6-1.4-26.6c3.7,6,5.2,12.9,7.2,19.6c0.6,1.8,0,3.9-0.9,5.7
			C29.9,86.9,28.4,87.6,26.2,85.7z"/>
		<path class="st9" d="M24.3,44c1.9-0.3,3.8-0.6,5.7-0.1c-0.2,1.7,1.5,3.8,0,5c-1.6,1.3-3.2-0.6-4.8-1.1c-0.3-0.4-0.6-0.8-0.9-1.1
			C24.3,45.8,24.3,44.9,24.3,44z"/>
		<path class="st8" d="M81,113.8c-0.3-0.3-0.6-0.6-1-0.9C80.4,113.3,80.7,113.5,81,113.8z"/>
		<path class="st12" d="M24.3,44c0,0.9,0,1.8,0,2.7C23.1,45.7,22.8,44.8,24.3,44z"/>
		<path class="st0" d="M62,46.5c0.8-1.6,2-1.7,3.5-1.1C64.6,46.6,63.4,46.7,62,46.5z"/>
	</g>
</g>
</svg>
