<?xml version="1.0" encoding="utf-8"?>
<!-- Generator: Adobe Illustrator 22.0.1, SVG Export Plug-In . SVG Version: 6.00 Build 0)  -->
<svg version="1.1" id="Layer_1" xmlns="http://www.w3.org/2000/svg" xmlns:xlink="http://www.w3.org/1999/xlink" x="0px" y="0px"
	 viewBox="0 0 104.7 144" style="enable-background:new 0 0 104.7 144;" xml:space="preserve">
<style type="text/css">
	.st0{fill:#F5C885;}
	.st1{fill:#F5C886;}
	.st2{fill:#FAAF31;}
	.st3{fill:#FAAF2F;}
	.st4{fill:#F3B02A;}
	.st5{fill:#FAAF2D;}
	.st6{fill:#FBC46E;}
	.st7{fill:#FCBB56;}
	.st8{fill:#FBBC5A;}
	.st9{fill:#FCEACB;}
	.st10{fill:#FAD092;}
	.st11{fill:#FCC062;}
	.st12{fill:#FCC877;}
	.st13{fill:#FBB541;}
	.st14{fill:#F9D39A;}
	.st15{fill:#FDECCF;}
	.st16{fill:#FBC169;}
	.st17{fill:#FBB84A;}
	.st18{fill:#F9D6A0;}
	.st19{fill:#FDEDD1;}
	.st20{fill:#FBB953;}
	.st21{fill:#FCC672;}
	.st22{fill:#FBBA50;}
	.st23{fill:#FBBD60;}
	.st24{fill:#F8C77E;}
	.st25{fill:#F5A55C;}
	.st26{fill:#F59B36;}
	.st27{fill:#FCF0DD;}
</style>
<g>
	<g>
		<path class="st3" d="M34.5,56.8c-2.4-6.6-5.2-13.2-4.5-20.5c0.6-7,5.5-10.2,12.2-8c8.3,2.8,13.1,8,12.9,17.1
			c-2.3-1.1-4.6-2.1-7-3.2c-0.1-2.8-1.9-4.6-4.1-6c-5-2.7-5.8-2.3-9.3,2.9c-2.5,3.7-0.4,5.4,2.5,6.9c0.3,0.8,0.7,1.5,1,2.3
			C35.9,50.7,35,53.7,34.5,56.8z"/>
		<path class="st5" d="M79.3,91.8c3.7,9,0,21-6.5,26.3c-4,3.3-7.4,3-9.8-1.5c-2.7-5.1-4.3-10.7-4.7-16.5c0.5,0.1,1,0.2,1.5,0.3
			c0.8,3.3,3.1,5.1,5.9,6.5c1.2,1.6,1,5.1,3.5,4.8c2.7-0.3,3.2-3.5,3.8-5.9c0.4-1.8,0.7-3.6,1-5.4c0.3-0.7,0.5-1.3,0.8-2
			C76.1,96.1,79,94.8,79.3,91.8z"/>
		<path class="st3" d="M60.1,50.4c1-1.9,2-3.7,3.1-5.6c4.4-7.8,9.3-10.2,18.1-8.8c5.7,0.9,8,4.6,6.6,10.4c-1.2,5-3.7,9.2-6.8,13.1
			c0.3-2.6-1.3-4-3.2-5.3c1.1-2.7,2.3-5.5,3.3-8.3c0.5-1.4,0.9-3.4-1.3-3.5c-2.7-0.1-5.6-1.2-7.9,1.4c-4.7,0.4-6.6,4.3-9.1,7.5
			C61.8,51,61,50.7,60.1,50.4z"/>
		<path class="st5" d="M47.9,105.4c-6.9,9.5-18.1,10.9-26,3.3c-2-1.9-3.1-3.9-1.3-6.5c2.7-4,5.5-8,8.3-12c-0.3,2.9,1.5,5.1,2.5,7.5
			c-0.6,1-1.1,2.1-1.7,3c-2.6,3.8-1.7,5.8,2.9,6.4c1.9,0.2,3.6-0.3,5.2-1.3c2-1.2,3.9-2.5,5.8-3.8C45.2,103,46,104.9,47.9,105.4z"/>
		<path class="st16" d="M78.1,82.2c0.2,0.9,0.4,1.7,0.5,2.6c-0.1,0.5-0.1,1-0.2,1.5c-1.8,0.4-3.6,0.8-5.4,1.1
			c-2-8.3-1.5-16.6,0-24.9c0.2-1,0.8-1.8,1.7-2.3c0.6,2.3,2.5,3.8,3.7,5.7c-0.2,5-0.3,10.1-0.5,15.1C78,81.5,78.1,81.8,78.1,82.2z"
			/>
		<path class="st21" d="M35,79.6c1.7-5.6,0.7-11.4,0.9-17c0.8-2.6,3-2.1,5-2.2c1.9,9-0.6,17.6-2.6,26.2c-0.1,0.4-0.8,0.6-1.2,0.9
			c-1-1.7-2.1-3.4-3.1-5.1c0.3-0.7,0.6-1.4,0.9-2.1C34.9,80,35,79.8,35,79.6z"/>
		<path class="st6" d="M60.1,50.4c0.9,0.3,1.8,0.6,2.6,0.9c0.1,2.3,0,4.7,1.4,6.8c-2.7,3.4-6.1,2.6-9.4,1.5
			c-3.3-1.1-3.9-4.1-3.7-7.2c1.9-0.3,3.9-0.6,5.8-0.9C58.8,54,59.3,51.7,60.1,50.4z"/>
		<path class="st6" d="M59.9,100.4c-0.5-0.1-1-0.2-1.5-0.3c-0.1-0.1-0.2-0.3-0.3-0.4c0,0-0.3-0.3-0.3-0.3c-1.6-4.4-1.6-4.4-4-2.1
			c-0.6,0.4-1.2,0.8-1.8,1.2c-1.2-1.2-2.4-2.2-4.2-2.2c1.3-6.6,6.4-7.5,11.9-7.9C60,92.4,60.6,96.4,59.9,100.4z"/>
		<path class="st22" d="M33.9,82.3c1,1.7,2.1,3.4,3.1,5.1c-0.6,4.2-3.8,6.8-5.7,10.3c-1-2.4-2.8-4.6-2.5-7.5
			C30.6,87.6,32.3,84.9,33.9,82.3z"/>
		<path class="st17" d="M73,87.4c1.8-0.4,3.6-0.8,5.4-1.1c0.2,1.5,0.4,3.1,0.6,4.6c0.1,0.3,0.2,0.6,0.3,0.9c-0.2,3-3.2,4.3-4.4,6.6
			c-0.6-0.7-1.1-1.4-1.7-2.1C73.1,93.4,73.1,90.4,73,87.4z"/>
		<path class="st20" d="M56.8,51.4c-1.9,0.3-3.9,0.6-5.8,0.9c-0.5-3.5-3.4-6.3-2.9-10c2.3,1.1,4.6,2.1,7,3.2
			c0.2,0.8,0.5,1.6,0.7,2.4c0,0,0.3,0.4,0.3,0.4C56.3,49.3,56.6,50.3,56.8,51.4z"/>
		<path class="st17" d="M78.4,66c-1.2-1.9-3.1-3.4-3.7-5.7c0.3-2.4,0.5-4.8,3-6.1c1.9,1.3,3.5,2.7,3.2,5.3
			C80.6,61.8,79.7,64,78.4,66z"/>
		<path class="st20" d="M40.8,60.3c-1.9,0.1-4.1-0.4-5,2.2c-0.3-0.8-0.6-1.7-0.9-2.5c-0.1-0.6-0.2-1.1-0.2-1.7
			c-0.1-0.5-0.2-0.9-0.3-1.4c0.4-3.2,1.3-6.1,3.8-8.4c0.3,1.3,0.5,2.5,0.8,3.8c-0.2,1.7-0.2,3.3,1.6,4.2
			C40.8,57.8,40.8,59.1,40.8,60.3z"/>
		<path class="st22" d="M47.8,96.3c1.8,0,3,1.1,4.2,2.2c-0.1,0.7-0.3,1.5-0.4,2.2c-0.1,0.2-0.3,0.4-0.4,0.7
			c-0.2,0.3-0.3,0.5-0.3,0.9c-0.3,0.4-0.7,0.7-1,1.1c-1.1,0.3-1.6,1.1-1.9,2.1l0,0c-1.9-0.5-2.7-2.4-4.3-3.3
			C44.5,99.7,45.8,97.7,47.8,96.3z"/>
		<path class="st26" d="M51.6,100.7c0.1-0.7,0.3-1.5,0.4-2.2c0.6-0.4,1.2-0.8,1.8-1.2C53.8,98.9,53,100,51.6,100.7z"/>
		<path class="st5" d="M79,90.9c-0.2-1.5-0.4-3.1-0.6-4.6c0.1-0.5,0.1-1,0.2-1.5C79.8,86.7,79.8,88.8,79,90.9z"/>
		<path class="st26" d="M48,105.4c0.2-1.1,0.7-1.8,1.9-2.1C49.6,104.4,49,105.1,48,105.4z"/>
		<path class="st3" d="M34.8,58.3c0.1,0.6,0.2,1.2,0.2,1.7C34.4,59.5,34.5,58.9,34.8,58.3z"/>
		<path class="st17" d="M78.1,82.2c0-0.3-0.1-0.7-0.1-1.1c0.1,0.2,0.2,0.5,0.2,0.7C78.2,81.9,78.1,82,78.1,82.2z"/>
		<polygon class="st3" points="56.1,48.2 55.8,47.8 56.1,47.9 		"/>
		<polygon class="st5" points="57.8,99.4 58.1,99.7 57.8,99.7 		"/>
		<path class="st26" d="M50.9,102.2c0-0.3,0.2-0.6,0.3-0.9C51.3,101.7,51.1,102,50.9,102.2z"/>
		<path class="st22" d="M35,79.6c0,0.2-0.1,0.4-0.2,0.6c0,0-0.1-0.4-0.1-0.4L35,79.6z"/>
		<path class="st1" d="M47.8,96.3c-2,1.5-3.3,3.5-4.2,5.8c-1.9,1.3-3.9,2.6-5.8,3.8c-1.6,1-3.3,1.5-5.2,1.3
			c-4.6-0.6-5.6-2.6-2.9-6.4c0.7-1,1.2-2,1.7-3c1.9-3.4,5.2-6.1,5.7-10.2c0.4-0.3,1.1-0.5,1.2-0.9c1.9-8.6,4.4-17.2,2.6-26.2
			c0-1.3,0-2.6-0.1-3.9c0.1-1.7,0.2-3.3-1.6-4.2c-0.3-1.3-0.5-2.5-0.8-3.8c-0.3-0.8-0.7-1.5-1-2.3c3.4-0.3,5.6-1.7,4.9-5.6
			c-0.4-1.9,1.4-2.8,1.9-4.3c2.3,1.4,4,3.1,4.1,6c-0.6,3.8,2.4,6.6,2.9,10c-0.1,3.1,0.5,6.1,3.7,7.2c3.2,1.1,6.7,2,9.4-1.5
			c3.6,0.7,6.6-0.5,7.4-4.1c0.7-3.3,0.3-6.8,0.4-10.2c2.2-2.6,5.2-1.5,7.9-1.4c2.2,0.1,1.8,2.1,1.3,3.5c-1,2.8-2.2,5.5-3.3,8.3
			c-2.6,1.2-2.7,3.7-3,6.1c-0.9,0.5-1.5,1.2-1.7,2.3c-1.4,8.3-2,16.6,0,24.9c0,3,0.1,5.9,0.1,8.9c-0.2,1.5-0.2,2.9,0.8,4.1
			c-0.3,1.8-0.6,3.6-1,5.4c-0.6,2.4-1.1,5.6-3.8,5.9c-2.5,0.3-2.3-3.2-3.5-4.8c1.2-0.6,2.3-1.4,2.8-2.7c1.7-4-2.8-15.3-6.8-17.1
			c-1.4-0.7-1.7,0.4-2,1.4C54.2,88.8,49.2,89.7,47.8,96.3z"/>
		<path class="st9" d="M44,36.3c-0.5,1.5-2.2,2.4-1.9,4.3c0.7,3.9-1.4,5.3-4.9,5.6c-2.9-1.6-5-3.2-2.5-6.9C38.2,34,39,33.6,44,36.3z
			"/>
		<path class="st15" d="M59.7,88.4c0.4-0.9,0.6-2,2-1.4c4,1.8,8.5,13.1,6.8,17.1c-0.6,1.3-1.6,2.1-2.8,2.7c-2.8-1.4-5.1-3.2-5.9-6.5
			C60.6,96.4,60,92.4,59.7,88.4z"/>
		<path class="st16" d="M74,100.4c-1.1-1.2-1.1-2.6-0.8-4.1c0.6,0.7,1.1,1.4,1.7,2.1C74.6,99.1,74.3,99.7,74,100.4z"/>
		<path class="st15" d="M71.8,43.8c-0.1,3.4,0.3,6.9-0.4,10.2c-0.8,3.6-3.7,4.8-7.4,4.1c-1.4-2.1-1.3-4.5-1.4-6.8
			C65.2,48.2,67.1,44.2,71.8,43.8z"/>
		<path class="st21" d="M39.1,52.3c1.8,0.9,1.8,2.5,1.6,4.2C38.9,55.6,38.9,54,39.1,52.3z"/>
	</g>
</g>
</svg>
