<?xml version="1.0" encoding="utf-8"?>
<!-- Generator: Adobe Illustrator 22.0.1, SVG Export Plug-In . SVG Version: 6.00 Build 0)  -->
<svg version="1.1" id="Layer_1" xmlns="http://www.w3.org/2000/svg" xmlns:xlink="http://www.w3.org/1999/xlink" x="0px" y="0px"
	 viewBox="0 0 97.6 144" style="enable-background:new 0 0 97.6 144;" xml:space="preserve">
<style type="text/css">
	.st0{fill:#F5C885;}
	.st1{fill:#F5C886;}
	.st2{fill:#FAAF31;}
	.st3{fill:#FAAF2F;}
	.st4{fill:#F3B02A;}
	.st5{fill:#FAAF2D;}
	.st6{fill:#FBC46E;}
	.st7{fill:#FCBB56;}
	.st8{fill:#FBBC5A;}
	.st9{fill:#FCEACB;}
	.st10{fill:#FAD092;}
	.st11{fill:#FCC062;}
	.st12{fill:#FCC877;}
	.st13{fill:#FBB541;}
	.st14{fill:#F9D39A;}
	.st15{fill:#FDECCF;}
	.st16{fill:#FBC169;}
	.st17{fill:#FBB84A;}
	.st18{fill:#F9D6A0;}
	.st19{fill:#FDEDD1;}
	.st20{fill:#FBB953;}
	.st21{fill:#FCC672;}
	.st22{fill:#FBBA50;}
	.st23{fill:#FBBD60;}
	.st24{fill:#F8C77E;}
	.st25{fill:#F5A55C;}
	.st26{fill:#F59B36;}
	.st27{fill:#FCF0DD;}
</style>
<g>
	<g>
		<path class="st0" d="M48.8,51.5c0.8,2.6,3.7,4.2,3.7,7.3c-0.8,1.1-1.9,2.1-2.5,3.4c-1.4,3,1.1,9.7,3.9,10.3c3.1,0.7,4.3-1.8,5.1-4
			c1.7-4.4-0.1-6.9-4.9-7.2c-0.9-0.1-1.3-0.8-1.4-1.6c1.1-0.3,2.2-0.6,3.3-0.9c0.5-0.4,0.9-0.9,1.4-1.3l0.2-0.2
			c8.2-0.1,6.6-7.1,8.3-11.8c2.8,0.2,5.3-0.4,7.3-2.6c1.6,1.9,1.2,4,0.9,6.2c-3.3,2.8-2.8,6.9-3.3,10.5c-1.1,7.5-1.1,15.7-5.9,21.8
			c-4.1,5.3-4.1,10.6-3.3,16.4c-1.8,8.5-3.9,9.4-10.4,4.5c-0.4-0.7-0.8-1.4-1.1-2.1c-0.3-0.2-0.6-0.3-0.9-0.4
			c-0.2-2.8,0-5.6-1.7-8.1c0.1-1.4,0.1-2.8-0.8-4c-4.5-5.8-9.5-11.2-10.1-19c-0.1-0.9-1.5-1.7-2.3-2.6c-1.8-3.5-2.8-7.7-6.7-9.8
			c-0.1-1.5-0.3-3.1-0.4-4.6c1.8-3,2.4-6.3,2.4-9.8c1.6,0.5,3.1,0.9,4.7,1.4c0.5,1.2,1.3,2,2.6,2.3c0.3,0.2,0.7,0.4,1.1,0.5
			c0.4,2.7,2.5,4.5,4.2,6.3c1.7,1.8,3.5,1.7,4.5-1C47.4,51.3,48.1,51.4,48.8,51.5z"/>
		<path class="st3" d="M34.3,43.1c-1.6-0.5-3.1-0.9-4.7-1.4c-0.7-3.1-2.2-4.1-5.1-2.3c-3,1.9-5.8,4.1-5,8c0.8,4.2,4.6,3.7,7.7,4.1
			c0.1,1.5,0.3,3.1,0.4,4.6c-2,1.7-1.8,4.3-2.6,6.4c-4.3-5.2-7.6-11.1-10.9-17c-2.2-3.9-0.4-8.7,3.6-10.6c7.2-3.4,19.1-0.2,24.2,6.7
			c-2.2,0.5-3.1,2.3-3.9,4.2c-0.4-0.1-0.7-0.3-1.1-0.5C36.6,44,35.7,43.2,34.3,43.1z"/>
		<path class="st5" d="M74.1,49c0.2-2.1,0.7-4.3-0.9-6.2c-0.5-1.2-0.9-2.3-1.4-3.5c-0.2-0.5-0.4-1-0.7-1.6c-0.6-3.1-2.5-2.4-4.4-1.5
			c-2.3,1.2-4.2,2.8-5.1,5.3c-0.6,0.1-1.2,0.2-1.8,0.2c0.7-8,4.7-14.4,9.2-14.7c4.6-0.3,10.5,6.3,11.9,13.5
			c1.1,5.9,0.1,11.5-2.8,16.8c-0.6-3.1,3.9-8.4-3.6-8.7L74.1,49z"/>
		<path class="st16" d="M61.6,97.8c-0.8-5.8-0.8-11.1,3.3-16.4c4.8-6.1,4.8-14.3,5.9-21.8c0.5-3.6,0-7.7,3.3-10.5
			c0,0,0.4-0.2,0.4-0.2c-1.9,5.6,2.2,10.9,0.9,16.5c0,0-0.2,0.5-0.2,0.5c-0.2,0.5-0.4,1-0.7,1.5c-2.4,9.1-6.8,17.7-6.5,27.5
			C65.9,95.8,63.8,96.8,61.6,97.8z"/>
		<path class="st2" d="M61.6,97.8c2.1-1,4.3-1.9,6.4-2.9c2.4,8-3.2,15.6-8.3,17.2c-5.4,1.7-11.6-1.5-15.2-8
			c-1.2-2.1-2.1-4.3-2.4-6.8c2.1,1.4,4.2,3,7,2.3c0.3,0.1,0.6,0.3,0.9,0.4c0.4,0.7,0.8,1.4,1.1,2.1C57.8,107.2,59.8,106.3,61.6,97.8
			z"/>
		<path class="st6" d="M34.3,65.9c0.8,0.9,2.2,1.7,2.3,2.6c0.6,7.9,5.7,13.3,10.1,19c0.9,1.2,0.9,2.6,0.8,4c-2,0.3-4,0.7-6,1
			c-3.6-7.2-7.2-14.5-10.8-21.7C31.8,69.1,31.9,66.7,34.3,65.9z"/>
		<path class="st16" d="M59.9,41.9c0.6-0.1,1.2-0.2,1.8-0.2c1.4,1.3,2.8,2.6,4.2,3.8c-1.7,4.7-0.1,11.7-8.3,11.8
			c-0.5-0.3-0.9-0.7-1.4-1C56.1,51.1,58.6,46.7,59.9,41.9z"/>
		<path class="st18" d="M52.7,59.6c0.1,0.9,0.5,1.6,1.4,1.6c4.7,0.3,6.5,2.8,4.9,7.2c-0.8,2.2-2,4.7-5.1,4
			c-2.8-0.6-5.3-7.3-3.9-10.3c0.6-1.2,1.6-2.3,2.5-3.4C52.6,59,52.7,59.3,52.7,59.6z"/>
		<path class="st7" d="M34.3,65.9c-2.5,0.8-2.6,3.2-3.6,5c-2.9-2.1-3.7-5.7-5.8-8.3c0.9-2.2,0.6-4.8,2.6-6.5
			C31.5,58.2,32.5,62.4,34.3,65.9z"/>
		<path class="st20" d="M38,45.8c0.8-1.9,1.6-3.7,3.9-4.2c2.9,1.8,4,4.9,5.6,7.5c-0.3,0.7-0.5,1.3-0.8,2c-1,2.7-2.7,2.8-4.5,1
			C40.4,50.3,38.4,48.6,38,45.8z"/>
		<path class="st17" d="M75.4,65.4c1.3-5.6-2.8-10.9-0.9-16.5c7.6,0.2,3,5.5,3.6,8.7C78.1,60.5,77.4,63.2,75.4,65.4z"/>
		<path class="st17" d="M41.6,92.6c2-0.3,4-0.7,6-1c1.7,2.5,1.4,5.4,1.7,8.1c-2.8,0.6-4.8-1-7-2.3C42,95.8,41.8,94.2,41.6,92.6z"/>
		<path class="st25" d="M46.7,51.2c0.3-0.7,0.5-1.3,0.8-2c0.9,0.5,1.4,1.3,1.4,2.4C48.1,51.4,47.4,51.3,46.7,51.2z"/>
		<path class="st17" d="M74.5,67.4c0.2-0.5,0.4-1,0.7-1.5C75,66.4,74.8,66.9,74.5,67.4z"/>
		<path class="st0" d="M56.2,56.3c0.5,0.3,0.9,0.7,1.4,1c0,0-0.2,0.2-0.2,0.2c-0.4,0-0.8,0-1.2,0C56.2,57.1,56.2,56.7,56.2,56.3z"/>
		<path class="st18" d="M56.2,57.5c0.4,0,0.8,0,1.2,0c-0.5,0.4-0.9,0.9-1.4,1.3C56.1,58.3,56.2,57.9,56.2,57.5z"/>
		<path class="st9" d="M27.2,51.5c-3.1-0.4-6.9,0.1-7.7-4.1c-0.7-3.9,2.1-6.1,5-8c2.9-1.8,4.4-0.8,5.1,2.3
			C29.6,45.2,29,48.5,27.2,51.5z"/>
		<path class="st15" d="M65.9,45.5c-1.4-1.3-2.8-2.6-4.2-3.8c0.9-2.5,2.9-4.1,5.1-5.3c1.8-0.9,3.8-1.6,4.4,1.5
			c0.2,0.5,0.4,1,0.7,1.6c0.5,1.2,0.9,2.3,1.4,3.5C71.2,45.1,68.7,45.6,65.9,45.5z"/>
		<path class="st20" d="M34.3,43.1c1.4,0.1,2.3,0.9,2.6,2.3C35.6,45.1,34.8,44.3,34.3,43.1z"/>
		<path class="st17" d="M51.2,102.2c-0.4-0.7-0.8-1.4-1.1-2.1C50.5,100.8,50.9,101.5,51.2,102.2z"/>
		<path class="st0" d="M71.8,39.4c-0.2-0.5-0.4-1-0.7-1.6C71.4,38.4,71.6,38.9,71.8,39.4z"/>
	</g>
</g>
</svg>
