<?xml version="1.0" encoding="utf-8"?>
<!-- Generator: Adobe Illustrator 22.0.1, SVG Export Plug-In . SVG Version: 6.00 Build 0)  -->
<svg version="1.1" id="Layer_1" xmlns="http://www.w3.org/2000/svg" xmlns:xlink="http://www.w3.org/1999/xlink" x="0px" y="0px"
	 viewBox="0 0 111.5 144" style="enable-background:new 0 0 111.5 144;" xml:space="preserve">
<style type="text/css">
	.st0{fill:#F5C885;}
	.st1{fill:#F5C886;}
	.st2{fill:#FAAF31;}
	.st3{fill:#FAAF2F;}
	.st4{fill:#F3B02A;}
	.st5{fill:#FAAF2D;}
	.st6{fill:#FBC46E;}
	.st7{fill:#FCBB56;}
	.st8{fill:#FBBC5A;}
	.st9{fill:#FCEACB;}
	.st10{fill:#FAD092;}
	.st11{fill:#FCC062;}
	.st12{fill:#FCC877;}
	.st13{fill:#FBB541;}
	.st14{fill:#F9D39A;}
	.st15{fill:#FDECCF;}
	.st16{fill:#FBC169;}
	.st17{fill:#FBB84A;}
	.st18{fill:#F9D6A0;}
	.st19{fill:#FDEDD1;}
	.st20{fill:#FBB953;}
	.st21{fill:#FCC672;}
	.st22{fill:#FBBA50;}
	.st23{fill:#FBBD60;}
	.st24{fill:#F8C77E;}
	.st25{fill:#F5A55C;}
	.st26{fill:#F59B36;}
	.st27{fill:#FCF0DD;}
</style>
<g>
	<g>
		<path class="st0" d="M48.6,62.6c0.2-0.8,0.4-1.6,0.6-2.4c0.8-1.2,1.4-2.8,2.5-3.5c3.3-2.2,2.6-4.8,1.2-7.7c-1.7-3.7-4.4-5.5-8.5-5
			c-0.1-2.6,0.6-5.6-3.2-6.3c4-3.3,8.7-2.7,13.2-2.2c5.9,0.7,11.8,2,17.7,2.4c13.5,0.9,15,3.4,8.2,15.1c-2.5,5.2-7.6,9.2-7.1,15.8
			c0,0-0.1,0.1-0.1,0.1c-0.3,0.3-0.5,0.6-0.8,0.9c-2.3,3-5.1,5.7-6.5,9.3c-1.9,5.1-1.2,7.3,3.6,10.2c0.9,1.3,2.8,1.9,2.9,3.7
			c0.1,3.7,2.3,4.1,5.3,3.5c0.3,0.1,0.6,0.3,0.9,0.4c0.3,0.2,0.6,0.5,0.9,0.7c1.6,5.3-2.9,5.5-5.8,6.3c-13,3.9-26.4,1.6-39.6,1.9
			c-2.5,0-5.8-0.4-6.3-3.7c-0.5-3.4,1.1-6.1,4.5-7.5c0.2,0.4,0.5,0.8,0.7,1.2c0.2,0.2,0.4,0.4,0.6,0.6c0.2,0.2,0.3,0.4,0.5,0.5
			c2,0.1,3.3-1.1,3.7-2.7c1.3-5,5.2-7.5,9-10.2c2-1.9,4.4-3.5,6.1-5.7c2.8-3.8,4-8.4,3.3-13.1c-0.4-2.8-1.9-4.5-4.5-1.4
			C50.6,63.4,49.6,63,48.6,62.6z"/>
		<path class="st3" d="M78.6,97c-0.3-0.1-0.6-0.3-0.9-0.4c0.5-3.7,3.7-3,6-3.7c4.6,4.5,4.3,10.4-1.1,14.3c-5.6,4-12.2,5.4-18.8,5.7
			c-9.1,0.5-18.2,1.3-27.3,0.2c-4.4-0.5-8.5-1.7-12.4-3.5c-4.2-1.9-5.6-5.5-3.3-9.9c2.3-4.3,4.6-8.8,8.6-11.9
			c0.5,2.1,2.1,2.9,4.1,3.2c-0.3,1-0.6,2-0.8,2.9c-0.2,0.2-0.3,0.5-0.4,0.8c-3.4,1.3-5,4.1-4.5,7.5c0.5,3.2,3.8,3.7,6.3,3.7
			c13.2-0.2,26.6,2,39.6-1.9c2.9-0.9,7.4-1,5.8-6.3C79.2,97.4,78.9,97.2,78.6,97z"/>
		<path class="st5" d="M80.5,53c6.7-11.7,5.3-14.2-8.2-15.1c-5.9-0.4-11.8-1.7-17.7-2.4c-4.6-0.5-9.3-1.2-13.2,2.2
			c-5.2,1.8-5.6,2.9-2.8,6.4c0.5,1.2,1.3,1.8,2.6,1.4c0.7,0,1.3,0.1,2,0.1c-0.4,2.8-3.5,0.5-4.4,2.3c-3.9-1.5-6.2-4-6.5-8.5
			c-0.2-4.7,2.6-6.9,6.3-8.5c7.5-3.3,15.4-1.9,23.1-1.2c5.5,0.5,10.8,1.7,16.3,2.3c12.7,1.2,17.1,9.2,10.6,20.3c-1.1,1.8-2,3.9-4,5
			C83.8,55.2,81,55.2,80.5,53z"/>
		<path class="st17" d="M33.5,91c-1.9-0.3-3.5-1.1-4.1-3.2c1.5-4,4.8-6.7,7.5-9.8c4.3-4.9,8.1-10,11.7-15.4c1,0.4,2,0.9,3,1.3
			c-3.2,5.5-6.4,10.9-9.5,16.4C38.3,83.1,36.9,87.9,33.5,91z"/>
		<path class="st8" d="M38.7,47.9c0.9-1.8,4,0.5,4.4-2.3c0.5-0.5,0.9-1.1,1.4-1.6c4.1-0.6,6.8,1.3,8.5,5c1.4,2.9,2.1,5.4-1.2,7.7
			c-1.1,0.8-1.7,2.3-2.5,3.5C50.2,52.2,44.5,50,38.7,47.9z"/>
		<path class="st7" d="M80.5,53c0.5,2.2,3.4,2.2,4.1,4.3c-3,4.5-7,8.2-11.2,11.5C72.8,62.2,77.9,58.2,80.5,53z"/>
		<path class="st17" d="M83.7,92.9c-2.3,0.7-5.5,0-6,3.7c-3,0.7-5.1,0.2-5.3-3.5c-0.1-1.8-1.9-2.5-2.9-3.7
			C74.5,89.6,79.5,89.4,83.7,92.9z"/>
		<path class="st7" d="M72.5,69.9c0.3-0.3,0.5-0.6,0.8-0.9C73,69.2,72.7,69.5,72.5,69.9z"/>
		<path class="st9" d="M42.1,80.3c3.2-5.5,6.4-10.9,9.5-16.4c2.6-3,4.1-1.4,4.5,1.4c0.7,4.7-0.4,9.3-3.3,13.1
			c-1.6,2.2-4,3.8-6.1,5.7C45,83.1,43.3,81.9,42.1,80.3z"/>
		<path class="st27" d="M42.1,80.3c1.2,1.7,2.9,2.8,4.7,3.8c-3.8,2.7-7.7,5.1-9,10.2c-0.4,1.6-1.7,2.8-3.7,2.7
			c-0.1-0.3-0.2-0.5-0.5-0.5c-0.2-0.2-0.4-0.4-0.5-0.5c-0.1-0.7-0.2-1.3-0.3-2c0.3-1,0.6-2,0.8-2.9C36.9,87.9,38.3,83.1,42.1,80.3z"
			/>
		<path class="st9" d="M44.5,44c-0.5,0.5-0.9,1.1-1.4,1.6c-0.7,0-1.3-0.1-2-0.1c-0.6-0.9-1.6-1.3-2.6-1.4c-2.8-3.5-2.4-4.6,2.8-6.4
			C45.1,38.4,44.3,41.4,44.5,44z"/>
		<path class="st10" d="M32.6,93.9c0.1,0.7,0.2,1.3,0.3,2c-0.2-0.4-0.5-0.8-0.7-1.2C32.3,94.4,32.4,94.2,32.6,93.9z"/>
		<path class="st10" d="M33.5,96.4c0.3,0,0.5,0.2,0.5,0.5C33.9,96.8,33.7,96.6,33.5,96.4z"/>
		<path class="st17" d="M78.6,97c0.3,0.2,0.6,0.5,0.9,0.7C79.2,97.4,78.9,97.2,78.6,97z"/>
		<path class="st8" d="M38.5,44.1c1,0.1,2,0.5,2.6,1.4C39.7,45.9,38.9,45.3,38.5,44.1z"/>
	</g>
</g>
</svg>
